<?xml version="1.0" encoding="UTF-8" standalone="no"?>
<svg
   xmlns:dc="http://purl.org/dc/elements/1.1/"
   xmlns:cc="http://creativecommons.org/ns#"
   xmlns:rdf="http://www.w3.org/1999/02/22-rdf-syntax-ns#"
   xmlns:svg="http://www.w3.org/2000/svg"
   xmlns="http://www.w3.org/2000/svg"
   xmlns:xlink="http://www.w3.org/1999/xlink"
   id="rock"
   version="1.1"
   viewBox="0 0 5.2916665 5.2916668"
   height="20"
   width="20">
  <defs
     id="defs2">
    <linearGradient
       id="linearGradient4537">
      <stop
         id="stop4533"
         offset="0"
         style="stop-color:#736f6f;stop-opacity:1" />
      <stop
         style="stop-color:#6d6d6d;stop-opacity:1"
         offset="0.5158844"
         id="stop4541" />
      <stop
         id="stop4535"
         offset="1"
         style="stop-color:#2c2c2c;stop-opacity:1" />
    </linearGradient>
    <linearGradient
       id="linearGradient4518">
      <stop
         id="stop4514"
         offset="0"
         style="stop-color:#867979;stop-opacity:1" />
      <stop
         style="stop-color:#877f7f;stop-opacity:1"
         offset="0.51893467"
         id="stop4527" />
      <stop
         id="stop4516"
         offset="1"
         style="stop-color:#333333;stop-opacity:1" />
    </linearGradient>
    <linearGradient
       gradientTransform="translate(0.17338435,0.0993991)"
       gradientUnits="userSpaceOnUse"
       y2="294.23009"
       x2="4.1128406"
       y1="294.23009"
       x1="0.89911415"
       id="linearGradient4520"
       xlink:href="#linearGradient4518" />
    <linearGradient
       gradientTransform="translate(0.17605268,-0.05868423)"
       gradientUnits="userSpaceOnUse"
       y2="294.32149"
       x2="3.3859823"
       y1="294.32149"
       x1="1.6020472"
       id="linearGradient4539"
       xlink:href="#linearGradient4537" />
  </defs>
  <metadata
     id="metadata5">
    <rdf:RDF>
      <cc:Work
         rdf:about="">
        <dc:format>image/svg+xml</dc:format>
        <dc:type
           rdf:resource="http://purl.org/dc/dcmitype/StillImage" />
        <dc:title></dc:title>
      </cc:Work>
    </rdf:RDF>
  </metadata>
  <g
     transform="translate(0,-291.70832)"
     id="layer1">
    <g
       transform="translate(-0.04890352,-0.02934211)"
       id="g4558">
      <path
         style="fill:url(#linearGradient4520);fill-opacity:1;stroke:none;stroke-width:0.26458332px;stroke-linecap:butt;stroke-linejoin:miter;stroke-opacity:1"
         d="m 1.1342181,294.72714 c 0.0073,-0.004 0.011034,-0.0123 0.017462,-0.0175 0.00819,-0.007 0.017461,-0.0116 0.026192,-0.0175 0.017461,-0.0116 0.035595,-0.0223 0.052384,-0.0349 0.00329,-0.002 0.00582,-0.006 0.00873,-0.009 0.00497,-0.005 0.043735,-0.0459 0.052384,-0.0524 0.00521,-0.004 0.01286,-0.004 0.017461,-0.009 5.583e-4,-5.6e-4 0.016377,-0.0333 0.017461,-0.0349 0.01065,-0.016 0.011131,-8.8e-4 0.017462,-0.0262 0.024531,-0.0485 0.023426,-0.0604 0.061113,-0.1575 0.00184,-0.004 0.00689,-0.005 0.00873,-0.009 0.0013,-0.003 -0.0013,-0.006 0,-0.009 0.00368,-0.007 0.01378,-0.0101 0.017462,-0.0175 0.0039,-0.008 -0.0039,-0.0184 0,-0.0262 0.020906,-0.0215 0.050907,-0.15204 0.087304,-0.26159 0.00216,-0.005 0.017461,-0.0476 0.017461,-0.0535 0,-0.003 -0.0013,-0.006 0,-0.009 0.011849,-0.0281 0.086517,-0.18226 0.087304,-0.184 0.0013,-0.003 0.016492,-0.0548 0.018552,-0.0568 0.012028,-0.0552 0.034304,-0.0572 0.051291,-0.10105 9.208e-4,-0.003 0,-0.006 0,-0.009 v -0.0436 c 0,-0.006 -0.00184,-0.0119 0,-0.0175 0.00206,-0.006 0.00582,-0.0116 0.00873,-0.0175 0.01438,-0.0242 0.028082,-0.0329 0.052383,-0.0614 0.0039,-0.005 0.00483,-0.0123 0.00873,-0.0175 0.00494,-0.007 0.012522,-0.0109 0.017462,-0.0175 0.01015,-0.0394 0.047936,-0.0541 0.069844,-0.0789 0.009,-0.005 0.017798,-0.0112 0.026192,-0.0175 0.031813,-0.007 0.048145,-0.0378 0.078576,-0.0617 0.00473,-0.008 0.00363,-0.0185 0.00873,-0.0262 0.00685,-0.0103 0.018784,-0.0163 0.026192,-0.0262 0.00175,-0.002 -0.0013,-0.006 0,-0.009 0.012922,-0.0501 0.029192,-0.0243 0.052383,-0.0437 h 0.052384 0.1047686 c 0.00697,0 0.038416,-0.002 0.043654,0 0.00617,0.002 0.011288,0.007 0.017461,0.009 0.00276,9.3e-4 0.00597,-9.2e-4 0.00873,0 0.00617,0.002 0.011419,0.006 0.017461,0.009 0.00854,0.003 0.017961,0.005 0.026192,0.009 0.030167,0.0151 0.019467,0.0207 0.052384,0.0262 0.034212,-0.006 0.060639,0.0152 0.069846,0.0175 0.00515,0.002 0.038775,0 0.043654,0 0.043242,0.0161 0.072041,-0.0334 0.096036,-0.0445 0.00541,-0.004 0.01286,-0.004 0.017462,-0.009 0.037061,-0.0385 0.062402,-0.0231 0.096034,-0.0355 0.00873,0 0.018087,0.003 0.026191,0 0.00764,-0.003 0.010612,-0.0129 0.017462,-0.0175 0.0038,-0.003 0.021585,0.002 0.026191,0 0.00368,-0.002 0.00582,-0.006 0.00873,-0.009 0.00582,-0.003 0.011419,-0.006 0.017463,-0.009 0.086159,-0.0326 0.0063,-0.002 0.096035,-0.0265 0.01719,-0.0254 0.052432,-0.0317 0.087306,-0.0527 0.042381,-0.0226 0.04343,-0.008 0.096036,-0.018 0.011642,0 0.0234,-0.002 0.034923,0 0.073239,0.003 0.08692,0.0294 0.104769,0.0355 0.00685,0.005 0.010099,0.0138 0.017463,0.0175 0.00823,0.004 0.017264,0.006 0.026191,0.009 0.034341,6.8e-4 0.064691,0.0461 0.087311,0.0622 0.00582,0.006 0.010612,0.0129 0.01746,0.0175 0.00243,0.002 0.00631,-0.002 0.00873,0 0.00685,0.005 0.010877,0.0125 0.017463,0.0175 0.053436,0.0236 0.07488,0.0813 0.113499,0.1232 0.0013,0.003 -0.00206,0.007 0,0.009 0.044751,0.0601 0.087041,0.0407 0.174606,0.08 0.044597,-0.006 0.05703,0.0232 0.087306,0.0355 0.00493,0.002 0.020455,0 0.026191,0 h 0.061115 c 0.1550131,0.003 0.1307059,0.0452 0.1604266,0.0954 l 0.014187,0.0884 c 0.00159,0.01 0.00198,0.0337 0,0.0437 -0.00235,0.0118 -0.00638,0.0232 -0.00873,0.0349 -5.821e-4,0.003 7.144e-4,0.006 0,0.009 -0.00222,0.009 -0.00693,0.0172 -0.00873,0.0262 -0.017749,0.0684 -0.03257,0.13245 -0.052383,0.202 -0.0013,0.004 -0.00689,0.005 -0.00873,0.009 -0.03005,0.0859 -0.00272,0.0218 -0.017463,0.1401 v 0.0698 c 0,0.0116 -0.0019,0.0234 0,0.0349 0.00214,0.0128 0.014909,0.0222 0.017463,0.0349 0.025775,0.0778 0.035378,0.17439 0.052382,0.2628 0.00185,0.004 0.00689,0.005 0.00873,0.009 0.0013,0.003 0,0.006 0,0.009 0.00291,0.006 0.00512,0.0121 0.00873,0.0175 0.019998,0.0315 0.032377,0.0912 0.063298,0.16032 0.00132,0.003 0.015279,0.0415 0.015279,0.0415 v 0.0699 c 0,0.0116 -0.0032,0.0237 0,0.0349 0.00357,0.0125 0.012629,0.0228 0.017463,0.0349 0.00108,0.003 -9.261e-4,0.006 0,0.009 0.00233,0.0284 0.022578,0.0396 0.034921,0.0612 0.00185,0.006 -0.0014,0.0118 0,0.0175 0.00159,0.006 0.00667,0.0113 0.00873,0.0175 9.26e-4,0.003 -0.00108,0.006 0,0.009 0.00483,0.0121 0.011642,0.0233 0.017462,0.0349 0.00291,0.006 0.00667,0.0113 0.00873,0.0175 0.00185,0.006 -0.00411,0.0133 0,0.0175 0.00206,0.002 0.00667,-0.002 0.00873,0 0.0046,0.005 0.00512,0.0121 0.00873,0.0175 0.00228,0.003 0.00645,0.005 0.00873,0.009 0.00873,0.0146 0.017462,0.0291 0.026191,0.0437 0,0.003 -0.00108,0.006 0,0.009 0.00483,0.0121 0.013346,0.0226 0.01746,0.0349 -0.00298,0.0949 -0.026205,0.0791 -0.052384,0.1582 -0.00259,10e-4 -0.00613,-10e-4 -0.00873,0 -0.00736,0.004 -0.010099,0.0138 -0.017463,0.0175 -0.0053,0.003 -0.047083,-0.003 -0.052384,0 -0.00368,0.002 -0.00505,0.007 -0.00873,0.009 -0.00259,10e-4 -0.00582,0 -0.00873,0 h -0.017462 c -0.092064,0.007 -0.1529011,0.0338 -0.218268,0.0524 -0.00541,0.002 -0.011755,-10e-4 -0.017462,0 -0.00902,0.002 -0.017113,0.007 -0.026191,0.009 -0.00861,0.001 -0.017722,-0.002 -0.026191,0 -0.00399,0.001 -0.00474,0.008 -0.00873,0.009 -0.00847,0.002 -0.017722,-0.002 -0.026191,0 -0.031563,0.027 -0.073936,0.0314 -0.104773,0.0445 -0.00391,0.001 -0.00582,0.006 -0.00873,0.009 -0.00582,0.003 -0.01115,0.007 -0.017463,0.009 -0.00565,10e-4 -0.011814,-0.001 -0.017462,0 -0.045716,0.01 -0.076351,0.0356 -0.113502,0.053 -0.00243,0.002 -0.00582,0 -0.00873,0 h -0.00873 c -0.00731,0 -0.037014,-0.002 -0.043654,0 -0.00631,0.002 -0.011081,0.007 -0.017463,0.009 -0.1056497,0.0149 -0.106995,0.0206 -0.279384,0.053 -0.018719,0 -0.054139,-0.002 -0.069846,0 -0.00911,10e-4 -0.017113,0.007 -0.026191,0.009 -0.012983,0.002 -0.037599,0 -0.052384,0 H 2.8890417 2.5747363 2.5136213 c -0.00291,0 -0.00667,0.002 -0.00873,0 -0.00206,-0.002 0.00206,-0.007 0,-0.009 -2.804e-4,-2.9e-4 -0.024075,0 -0.026192,0 -0.028698,0 0.023969,10e-4 -0.026192,-0.009 -0.008,-0.002 -0.052567,0 -0.061115,0 h -0.087307 -0.034923 -0.00873 c -0.00291,0 -0.00613,10e-4 -0.00873,0 -0.00736,-0.004 -0.010612,-0.0129 -0.017461,-0.0175 -0.025041,-0.0167 -0.027343,-7.7e-4 -0.052384,-0.0175 -0.08556,-0.0642 -0.00159,-0.004 -0.052384,-0.0349 -0.070038,-0.0533 -0.088203,-0.0262 -0.192074,-0.053 -0.013933,0 -0.052561,-0.002 -0.061115,0 -0.00399,0.001 -0.00483,0.007 -0.00873,0.009 -0.064662,0.007 -0.073323,0.021 -0.183343,0.053 -0.056593,0.002 -0.050824,-0.0236 -0.089489,-0.0415 l -0.010913,-0.036 c 0,0 -0.012744,0.005 -0.020735,-0.024 -0.00206,-0.002 -0.013975,-0.0173 -0.016369,-0.0196 l -0.037105,-0.036 c -0.1402518,-0.17494 -0.1955462,-0.12331 -0.270646,-0.30578 -0.00945,-0.0999 -0.08427,-0.11033 -0.087305,-0.1143 -0.0026,-10e-4 -0.00613,10e-4 -0.00873,0 -0.00368,-0.002 -0.00582,-0.006 -0.00873,-0.009 -0.046993,-0.0175 -0.028494,-0.069 -0.043651,-0.1057"
         id="path4512" />
      <path
         style="fill:url(#linearGradient4539);fill-opacity:1;stroke:none;stroke-width:0.26458332;stroke-linecap:butt;stroke-linejoin:miter;stroke-miterlimit:4;stroke-dasharray:none;stroke-opacity:1"
         d="m 1.7802761,293.4566 c 0.1142588,5.6e-4 -0.013774,0.0587 -0.00131,0.0836 0.00171,0.003 0.00642,0.005 0.00814,0.008 0.00121,0.002 -0.00121,0.006 0,0.008 0.00171,0.003 0.00642,0.005 0.00814,0.008 0.00121,0.002 0,0.005 0,0.008 0.00271,0.005 0.00477,0.0112 0.00814,0.0163 0.00426,0.006 0.012843,0.009 0.016273,0.0163 0.00243,0.005 -0.00243,0.0114 0,0.0163 0.00171,0.003 0.00542,0.005 0.00814,0.008 0.00271,0.003 0.00471,0.006 0.00814,0.008 0.00485,0.002 0.012437,-0.004 0.016273,0 0.00192,0.002 -0.00192,0.006 0,0.008 0.00192,0.002 0.00571,-0.001 0.00814,0 0.00343,0.002 0.00471,0.006 0.00814,0.008 0.00243,0.001 0.00622,-0.002 0.00814,0 0.00429,0.004 0.00385,0.012 0.00814,0.0163 0.00192,0.002 0.00571,-10e-4 0.00814,0 0.00686,0.003 0.00989,0.012 0.016273,0.0163 -0.00479,0.0135 0.020712,0.006 0.02441,0.008 0.00343,0.002 0.0045,0.007 0.00814,0.008 0.00515,0.002 0.011421,-0.002 0.016273,0 0.00243,10e-4 -0.00192,0.006 0,0.008 0.00192,0.002 0.00571,-10e-4 0.00814,0 0.00343,0.002 0.00542,0.005 0.00814,0.008 0.00271,0.003 0.00542,0.005 0.00814,0.008 0.00271,0.003 0.00642,0.005 0.00814,0.008 0.00121,0.002 -0.00192,0.006 0,0.008 0.00991,0.01 0.018179,0.004 0.02441,0.0163 0.00121,0.002 -0.00121,0.006 0,0.008 0.00749,0.015 0.01692,10e-4 0.02441,0.0163 0.00243,0.005 -0.00384,0.0124 0,0.0163 0.00192,0.002 0.00622,-0.002 0.00814,0 0.00192,0.002 -0.00192,0.006 0,0.008 0.00429,0.004 0.011985,0.004 0.016273,0.008 0.00192,0.002 -0.00192,0.006 0,0.008 0.00192,0.002 0.00622,-0.002 0.00814,0 0.00192,0.002 -0.00192,0.006 0,0.008 0.00429,0.004 0.011985,0.004 0.016273,0.008 0.00192,0.002 -0.00192,0.006 0,0.008 0.00192,0.002 0.00622,-0.002 0.00814,0 0.016835,0.0168 -0.025726,-6.5e-4 0.00814,0.0163 0.00243,10e-4 0.00622,-0.002 0.00814,0 0.00384,0.004 -0.00243,0.0114 0,0.0163 0.00171,0.003 0.00642,0.005 0.00814,0.008 0.00121,0.002 -0.00192,0.006 0,0.008 0.00192,0.002 0.00622,-0.002 0.00814,0 0.016835,0.0168 -0.025726,-6.6e-4 0.00814,0.0163 0.00243,0.001 0.00622,-0.002 0.00814,0 0.00192,0.002 -0.00121,0.006 0,0.008 0.00171,0.003 0.00642,0.005 0.00814,0.008 0.00325,0.007 -0.00325,0.0179 0,0.0244 0.00171,0.003 0.00642,0.005 0.00814,0.008 0.00121,0.002 -0.00121,0.006 0,0.008 0.00171,0.003 0.00642,0.005 0.00814,0.008 0.00243,0.005 -0.00171,0.0111 0,0.0163 0.00384,0.0115 0.012438,0.021 0.016273,0.0326 0.00171,0.005 -0.00301,0.0118 0,0.0163 0.00426,0.006 0.012018,0.01 0.016273,0.0163 0.00301,0.005 -0.00171,0.0111 0,0.0163 0.00493,0.0148 0.00696,0.0151 0.016273,0.0244 0.00271,0.003 0.00692,0.005 0.00814,0.008 0.00171,0.005 0,0.0109 0,0.0163 0.00271,0.005 0.00588,0.0106 0.00814,0.0163 0.00319,0.008 0.00495,0.0165 0.00814,0.0244 0.00667,0.0167 0.018736,0.0318 0.02441,0.0488 0.00153,0.005 0,0.0191 0,0.0244 0,0.0163 0,0.0326 0,0.0488 0,0.0271 0,0.0543 0,0.0814 0,0.007 0.00146,0.0282 0,0.0325 -0.00121,0.004 -0.00721,0.004 -0.00814,0.008 -0.00197,0.008 0.0016,0.0164 0,0.0244 -0.00119,0.006 -0.00622,0.0105 -0.00814,0.0163 -8.573e-4,0.003 0.00121,0.006 0,0.008 -0.00171,0.003 -0.00721,0.004 -0.00814,0.008 -0.00197,0.008 0.0016,0.0164 0,0.0244 -0.00119,0.006 -0.00622,0.0105 -0.00814,0.0163 -8.573e-4,0.003 0.00121,0.006 0,0.008 -0.00171,0.003 -0.00692,0.005 -0.00814,0.008 -0.00171,0.005 0.00131,0.011 0,0.0163 -0.00147,0.006 -0.00622,0.0105 -0.00814,0.0163 -0.00165,0.005 0,0.0425 0,0.0488 0,0.0326 0,0.0651 0,0.0976 0,0.004 3.678e-4,0.0403 0,0.0407 -0.00429,0.004 -0.011985,0.004 -0.016273,0.008 -0.00192,0.002 0,0.005 0,0.008 0,0.003 0,0.005 0,0.008 0,0.0109 0,0.0217 0,0.0325 0,0.005 0,0.0109 0,0.0163 0,0.003 6.588e-4,0.006 0,0.008 -0.00208,0.008 -0.00606,0.0161 -0.00814,0.0244 -6.588e-4,0.003 6.588e-4,0.006 0,0.008 -0.00208,0.008 -0.00606,0.0161 -0.00814,0.0244 -6.589e-4,0.003 8.572e-4,0.006 0,0.008 -0.00192,0.006 -0.00622,0.0105 -0.00814,0.0163 -8.573e-4,0.003 8.572e-4,0.006 0,0.008 -0.00192,0.006 -0.00622,0.0105 -0.00814,0.0163 -0.00227,0.007 0.0027,0.0272 0,0.0325 -0.00171,0.003 -0.00642,0.005 -0.00814,0.008 -0.00243,0.005 0.00243,0.0114 0,0.0163 -0.016931,0.0339 5.609e-4,-0.009 -0.016273,0.008 -0.00192,0.002 0,0.005 0,0.008 0,0.006 0.00147,0.0377 0,0.0407 -0.00171,0.003 -0.00642,0.005 -0.00814,0.008 -0.00124,0.002 0,0.0208 0,0.0244 0,0.019 0,0.038 0,0.057 0,0.0488 0,0.0976 0,0.14646 0,0.0325 0,0.0651 0,0.0976 0,0.0163 0,0.0325 0,0.0488 0,0.003 0.00271,0.008 0,0.008 -0.00271,0 0,-0.0109 0,-0.008 0,0.003 -0.00121,0.0464 0,0.0488 0.00171,0.003 0.00642,0.005 0.00814,0.008 0.00121,0.002 -0.00192,0.006 0,0.008 0.00192,0.002 0.00622,-0.002 0.00814,0 0.00192,0.002 -0.00192,0.006 0,0.008 0.00192,0.002 0.00622,-0.002 0.00814,0 0.00192,0.002 -0.00192,0.006 0,0.008 0.00384,0.004 0.012437,-0.004 0.016273,0 0.016835,0.0168 -0.025726,-6.6e-4 0.00814,0.0163 0.00228,10e-4 0.030263,10e-4 0.032546,0 0.00343,-0.002 0.0045,-0.007 0.00814,-0.008 0.00515,-0.002 0.01176,0.003 0.016273,0 0.00505,-0.003 0.00385,-0.012 0.00814,-0.0163 0.00192,-0.002 0.00556,8.5e-4 0.00814,0 0.00575,-0.002 0.01052,-0.006 0.016273,-0.008 0.00257,-8.5e-4 0.00622,0.002 0.00814,0 0.00192,-0.002 -0.00192,-0.006 0,-0.008 0.00192,-0.002 0.00571,10e-4 0.00814,0 0.033863,-0.0169 -0.0087,5.6e-4 0.00814,-0.0163 0.00192,-0.002 0.00622,0.002 0.00814,0 0.00192,-0.002 -0.00192,-0.006 0,-0.008 0.00192,-0.002 0.00622,0.002 0.00814,0 0.00192,-0.002 -0.00121,-0.006 0,-0.008 0.00171,-0.003 0.00642,-0.005 0.00814,-0.008 0.00121,-0.002 -0.00121,-0.006 0,-0.008 0.00171,-0.003 0.00642,-0.005 0.00814,-0.008 0.00121,-0.002 -8.572e-4,-0.006 0,-0.008 0.00192,-0.006 0.00622,-0.0105 0.00814,-0.0163 8.572e-4,-0.003 0,-0.005 0,-0.008 0,-0.008 -0.00155,-0.036 0,-0.0407 0.00121,-0.004 0.00692,-0.005 0.00814,-0.008 0.00171,-0.005 0,-0.0109 0,-0.0163 0,-0.005 0,-0.0109 0,-0.0163 0,-0.003 0,-0.005 0,-0.008 0,-0.003 -0.00192,-0.006 0,-0.008 0.00429,-0.004 0.011985,-0.004 0.016273,-0.008 0.00192,-0.002 0,-0.005 0,-0.008 0,-0.0109 0,-0.0217 0,-0.0326 0,-0.008 -0.00115,-0.0163 0,-0.0244 0.00158,-0.0111 0.0063,-0.0215 0.00814,-0.0325 8.917e-4,-0.005 -0.00106,-0.011 0,-0.0163 0.00168,-0.008 0.00645,-0.016 0.00814,-0.0244 0.00144,-0.007 -0.0023,-0.0442 0,-0.0488 0.00121,-0.002 0.00622,0.002 0.00814,0 0.00192,-0.002 0,-0.005 0,-0.008 0,-0.019 0,-0.038 0,-0.057 0,-0.0163 0,-0.0326 0,-0.0488 0,-0.005 -0.00171,-0.0111 0,-0.0163 0.010054,-0.0302 0.00814,0.01 0.00814,-0.0163 0,-0.0217 0,-0.0434 0,-0.0651 0,-0.007 -0.00155,-0.0345 0,-0.0407 0.00147,-0.006 0.00622,-0.0105 0.00814,-0.0163 0.00232,-0.007 -0.00179,-0.0254 0,-0.0325 0.00147,-0.006 0.00695,-0.0103 0.00814,-0.0163 0.0016,-0.008 -0.00257,-0.0167 0,-0.0244 8.572e-4,-0.003 0.00692,0.002 0.00814,0 0.00243,-0.005 -0.00131,-0.011 0,-0.0163 0.00147,-0.006 0.00667,-0.0104 0.00814,-0.0163 0.00131,-0.005 -0.00243,-0.0114 0,-0.0163 0.00343,-0.007 0.012018,-0.01 0.016273,-0.0163 0.00223,-0.003 -0.00222,-0.0281 0,-0.0325 0.00171,-0.003 0.00642,-0.005 0.00814,-0.008 0.00215,-0.004 -0.00236,-0.0209 0,-0.0244 0.00426,-0.006 0.012018,-0.01 0.016273,-0.0163 0.00301,-0.005 -0.00243,-0.0114 0,-0.0163 0.00171,-0.003 0.00642,-0.005 0.00814,-0.008 0.00436,-0.009 -0.00705,-0.0174 0.00814,-0.0326 0.00429,-0.004 0.012909,-0.003 0.016273,-0.008 0.016273,-0.0244 -0.00814,-0.008 0,-0.0244 0.00171,-0.003 0.00642,-0.005 0.00814,-0.008 0.00121,-0.002 -0.00121,-0.006 0,-0.008 0.00171,-0.003 0.00692,-0.005 0.00814,-0.008 0.00171,-0.005 -0.00243,-0.0114 0,-0.0163 0.00121,-0.002 0.00542,0 0.00814,0 0.00271,-0.005 0.00622,-0.0105 0.00814,-0.0163 0.00501,-0.015 -0.012416,-0.004 0.00814,-0.0244 0.00192,-0.002 0.00622,0.002 0.00814,0 3.99e-5,-4e-5 -6.26e-5,-0.0241 0,-0.0244 0.00168,-0.008 0.00645,-0.016 0.00814,-0.0244 0.00106,-0.005 0,-0.0109 0,-0.0163 0.00271,-0.005 0.00622,-0.0105 0.00814,-0.0163 8.572e-4,-0.003 -0.00121,-0.006 0,-0.008 0.00171,-0.003 0.00692,-0.004 0.00814,-0.008 0.00407,-0.0122 -0.00407,-0.0285 0,-0.0407 0.00121,-0.004 0.00692,-0.004 0.00814,-0.008 0.00171,-0.005 -0.00243,-0.0114 0,-0.0163 0.00343,-0.007 0.012843,-0.009 0.016273,-0.0163 0.00364,-0.007 -0.00364,-0.0171 0,-0.0244 0.00171,-0.003 0.00642,-0.005 0.00814,-0.008 0.00121,-0.002 -8.573e-4,-0.006 0,-0.008 0.00192,-0.006 0.00622,-0.0105 0.00814,-0.0163 8.573e-4,-0.003 -8.572e-4,-0.006 0,-0.008 0.00192,-0.006 0.00667,-0.0104 0.00814,-0.0163 0.00197,-0.008 -0.00257,-0.0167 0,-0.0244 0.00192,-0.006 0.00622,-0.0105 0.00814,-0.0163 0.00288,-0.009 -0.00288,-0.0239 0,-0.0325 0.00121,-0.004 0.00542,-0.005 0.00814,-0.008 0.00542,-0.005 0.012843,-0.009 0.016273,-0.0163 0.00485,-0.01 -0.00263,-0.022 0,-0.0326 0.00147,-0.006 0.00622,-0.0105 0.00814,-0.0163 8.573e-4,-0.003 -0.00192,-0.006 0,-0.008 0.00192,-0.002 0.00622,0.002 0.00814,0 0.00384,-0.004 -0.00243,-0.0114 0,-0.0163 0.00171,-0.003 0.00642,-0.005 0.00814,-0.008 0.00256,-0.005 -0.00256,-0.0274 0,-0.0326 0.00121,-0.002 0.00663,0.002 0.00814,0 0.00476,-0.007 0.0043,-0.0167 0.00814,-0.0244 0.00343,-0.007 0.012843,-0.009 0.016273,-0.0163 0.00121,-0.002 -8.573e-4,-0.006 0,-0.008 0.019645,-0.0589 -0.00235,0.0128 0.016273,-0.0244 0.00121,-0.002 -0.00192,-0.006 0,-0.008 7.912e-4,-7.9e-4 0.028017,9e-4 0.032547,0 0.00841,-0.002 0.016089,-0.006 0.02441,-0.008 0.00263,-6.6e-4 0.00571,0.001 0.00814,0 0.00686,-0.003 0.00941,-0.0128 0.016273,-0.0163 0.00485,-0.002 0.011421,0.002 0.016273,0 0.00686,-0.003 0.00941,-0.0128 0.016275,-0.0163 0.00485,-0.002 0.011422,0.002 0.016275,0 0.00343,-0.002 0.00471,-0.006 0.00814,-0.008 0.00243,-0.001 0.00556,8.5e-4 0.00814,0 0.00575,-0.002 0.010327,-0.007 0.016274,-0.008 0.00798,-0.002 0.016587,0.002 0.02441,0 0.030569,0.019 0.02568,-0.0194 0.040683,-0.0244 0.00515,-0.002 0.011012,10e-4 0.016275,0 0.00588,-0.001 0.010848,-0.005 0.016274,-0.008 0.00542,-0.003 0.011226,-0.005 0.016275,-0.008 0.00638,-0.004 0.00941,-0.0129 0.016275,-0.0163 0.00243,-10e-4 0.00571,0.001 0.00814,0 0.00343,-0.002 0.00495,-0.006 0.00814,-0.008 0.00505,-0.003 0.011986,-0.004 0.016275,-0.008 0.00191,-0.002 -0.0019,-0.006 0,-0.008 0.00191,-0.002 0.00571,0.001 0.00814,0 0.00976,-0.005 0.014645,-0.0195 0.02441,-0.0244 8.996e-4,-4.5e-4 0.039775,-4.5e-4 0.040683,0 0.00343,0.002 0.00471,0.006 0.00814,0.008 0.00294,10e-4 0.035024,0 0.040683,0 0.032546,0 0.065093,0 0.097639,0 0.0069,0 0.043422,10e-4 0.04882,0 0.00588,-0.001 0.01039,-0.007 0.016274,-0.008 0.012764,-0.003 0.02792,0.003 0.040683,0 0.00588,-10e-4 0.01052,-0.006 0.016275,-0.008 0.00515,-0.002 0.011422,0.002 0.016275,0 0.00343,-0.002 0.00471,-0.006 0.00814,-0.008 0.00243,-0.001 0.00571,10e-4 0.00814,0 0.00343,-0.002 0.00471,-0.006 0.00814,-0.008 0.00485,-0.002 0.012438,0.004 0.016274,0 0.00191,-0.002 -0.00122,-0.006 0,-0.008 0.00172,-0.003 0.00542,-0.005 0.00814,-0.008 0.00271,-0.003 0.00471,-0.006 0.00814,-0.008 0.00243,-10e-4 0.00571,0.001 0.00814,0 0.00343,-0.002 0.00542,-0.005 0.00814,-0.008 0.00271,-0.003 0.00642,-0.005 0.00814,-0.008 0.00122,-0.002 -0.0019,-0.006 0,-0.008 0.016835,-0.0168 -6.615e-4,0.0257 0.016275,-0.008 0.00122,-0.002 -0.00191,-0.006 0,-0.008 0.0019,-0.002 0.00692,0.002 0.00814,0 0.00243,-0.005 -0.00172,-0.0111 0,-0.0163 0.00243,-0.007 0.012843,-0.009 0.016275,-0.0163 0.00161,-0.003 -0.00167,-0.0227 0,-0.0244 0.00191,-0.002 0.00622,0.002 0.00814,0 0.00191,-0.002 0,-0.005 0,-0.008 0,-0.005 -0.00243,-0.0114 0,-0.0163 0.00122,-0.002 0.00622,0.002 0.00814,0 0.00265,-0.003 -0.00259,-0.0355 0,-0.0407 0.00172,-0.003 0.00642,-0.005 0.00814,-0.008 0.00122,-0.002 0,-0.005 0,-0.008 0,-0.003 0,-0.005 0,-0.008 0,-0.0163 0,-0.0326 0,-0.0488 0,-0.0136 0,-0.0271 0,-0.0407 0,-0.003 0.00191,-0.006 0,-0.008 -0.0019,-0.002 -0.00622,0.002 -0.00814,0 -0.0019,-0.002 0.0019,-0.006 0,-0.008 -0.0019,-0.002 -0.00814,0.003 -0.00814,0 0,-0.002 0.026986,0.005 0,-0.008 -0.00243,-0.001 -0.00622,0.002 -0.00814,0 -0.00167,-0.002 0.00161,-0.0212 0,-0.0244 -0.00172,-0.003 -0.00642,-0.005 -0.00814,-0.008 -0.00122,-0.002 0.00122,-0.006 0,-0.008 -0.00172,-0.003 -0.00692,-0.004 -0.00814,-0.008 -0.00172,-0.005 0.00384,-0.0124 0,-0.0163 -0.00384,-0.004 -0.012438,0.004 -0.016274,0 -0.00384,-0.004 0.00243,-0.0114 0,-0.0163 -0.00122,-0.002 -0.00571,0.001 -0.00814,0 -0.00343,-0.002 -0.00542,-0.005 -0.00814,-0.008 -0.00271,-0.003 -0.00642,-0.005 -0.00814,-0.008 -0.00122,-0.002 0.0019,-0.006 0,-0.008 -0.016836,-0.0168 6.614e-4,0.0257 -0.016275,-0.008 -0.00122,-0.002 0.00122,-0.006 0,-0.008 -0.00343,-0.007 -0.013848,-0.009 -0.016274,-0.0163 -0.00172,-0.005 0.00243,-0.0114 0,-0.0163 -0.00122,-0.002 -0.00622,0.002 -0.00814,0 -0.00429,-0.004 -0.00477,-0.0112 -0.00814,-0.0163 -0.00212,-0.003 -0.00642,-0.005 -0.00814,-0.008 -0.00384,-0.008 -0.0043,-0.0167 -0.00814,-0.0244 -0.00172,-0.003 -0.00642,-0.005 -0.00814,-0.008 -0.00122,-0.002 0.0019,-0.006 0,-0.008 -0.00191,-0.002 -0.00622,0.002 -0.00814,0 -0.00429,-0.004 -0.00477,-0.0112 -0.00814,-0.0163 -0.00212,-0.003 -0.00601,-0.005 -0.00814,-0.008 -0.00337,-0.005 -0.00309,-0.0129 -0.00814,-0.0163 -0.00451,-0.003 -0.011422,0.002 -0.016274,0 -0.00243,-10e-4 0.0019,-0.006 0,-0.008 -0.00191,-0.002 -0.00622,0.002 -0.00814,0 -0.016835,-0.0168 0.025726,6.6e-4 -0.00814,-0.0163 -0.00243,-10e-4 -0.00571,0.001 -0.00814,0 -0.00686,-0.003 -0.00941,-0.0128 -0.016275,-0.0163 -0.00485,-0.002 -0.011422,0.002 -0.016275,0 -0.037238,-0.0186 0.034527,0.003 -0.02441,-0.0163 -0.02422,-0.008 0.016695,0.0193 -0.024411,-0.008 -0.00319,-0.002 -0.00471,-0.006 -0.00814,-0.008 -0.00651,-0.003 -0.017902,0.003 -0.02441,0 -0.00343,-0.002 -0.00471,-0.006 -0.00814,-0.008 -0.00485,-0.002 -0.012438,0.004 -0.016272,0 -0.00191,-0.002 0.00243,-0.007 0,-0.008 -0.00485,-0.002 -0.011128,0.002 -0.016275,0 -0.00364,-0.001 -0.00471,-0.006 -0.00814,-0.008 -0.00442,-0.002 -0.027869,0.002 -0.032546,0 -0.00908,-0.004 -0.015663,-0.0119 -0.02441,-0.0163 -0.00233,-0.001 -0.036336,0 -0.040683,0 -0.029834,0 -0.059668,0 -0.089503,0 -0.021699,0 -0.043395,0 -0.065093,0 -0.00366,0 -0.021934,-0.001 -0.024411,0 -0.00343,0.002 -0.00471,0.006 -0.00814,0.008 -0.00511,0.003 -0.027433,-0.003 -0.032546,0 -0.00686,0.003 -0.00989,0.012 -0.016275,0.0163 -0.00451,0.003 -0.012438,-0.004 -0.016274,0 -0.00192,0.002 0.00192,0.006 0,0.008 -0.00166,0.002 -0.021184,-0.002 -0.02441,0 -0.00686,0.003 -0.00941,0.0128 -0.016273,0.0163 -0.00511,0.003 -0.027433,-0.003 -0.032547,0 -0.00343,0.002 -0.00471,0.006 -0.00814,0.008 -0.00485,0.002 -0.011422,-0.002 -0.016273,0 -0.033863,0.0169 0.0087,-5.6e-4 -0.00814,0.0163 -8.387e-4,8.4e-4 -0.038655,-6.8e-4 -0.040683,0 -0.00364,10e-4 -0.00471,0.006 -0.00814,0.008 -0.00478,0.002 -0.037362,-0.002 -0.040683,0 -0.00505,0.003 -0.00385,0.012 -0.00814,0.0163 -0.00192,0.002 -0.00542,0 -0.00814,0 -0.00271,0 -0.00542,0 -0.00814,0 -0.018985,0 -0.037971,0 -0.056956,0 -0.00366,0 -0.021934,-0.001 -0.02441,0 -0.00343,0.002 -0.0045,0.007 -0.00814,0.008 -0.00437,0.001 -0.025658,0 -0.032547,0 -0.027122,0 -0.054244,0 -0.081366,0 -0.019082,0 0.00384,-0.002 -0.016273,0.008 -0.00243,0.001 -0.00542,0 -0.00814,0 -0.00271,0 -0.00542,0 -0.00814,0 -0.018985,0 -0.037971,0 -0.056956,0 -0.029834,0 -0.059668,0 -0.089503,0 -0.00681,0 -0.034495,-0.002 -0.040683,0 -0.011767,0.003 -0.02104,0.0124 -0.032546,0.0163 -0.010609,0.004 -0.021581,0.006 -0.032547,0.008 -0.01693,0.003 -0.034319,-0.006 -0.04882,0.008 -0.00192,0.002 0.00192,0.006 0,0.008 -0.00192,0.002 -0.00542,0 -0.00814,0 -0.00577,0 -0.046716,-10e-4 -0.04882,0 -0.00343,0.002 -0.00471,0.006 -0.00814,0.008 -0.00243,10e-4 -0.00542,0 -0.00814,0 -0.016053,0 -0.03454,-0.003 -0.04882,0.008 -0.00485,0.004 -0.00385,0.012 -0.00814,0.0163 -0.00384,0.004 -0.011422,-0.002 -0.016273,0 -0.00343,0.002 -0.00471,0.006 -0.00814,0.008 -0.00243,0.001 -0.00622,-0.002 -0.00814,0 -0.00192,0.002 0.00121,0.006 0,0.008 -0.00171,0.003 -0.00642,0.005 -0.00814,0.008 -0.00121,0.002 0.00121,0.006 0,0.008 -0.00488,0.01 -0.019528,0.0147 -0.02441,0.0244 -0.00243,0.005 0.00384,0.0124 0,0.0163 -0.00192,0.002 -0.00622,-0.002 -0.00814,0 -0.00192,0.002 0.00121,0.006 0,0.008 -0.00343,0.007 -0.013848,0.009 -0.016273,0.0163 -0.00171,0.005 0.00171,0.0111 0,0.0163 -0.00243,0.007 -0.012843,0.009 -0.016273,0.0163 -0.00121,0.002 0.00192,0.006 0,0.008 -0.00192,0.002 -0.00622,-0.002 -0.00814,0 -0.0025,0.002 0.0068,0.0319 -0.00814,0.0244 -0.00542,-0.003 0.00814,-0.0223 0.00814,-0.0163 0,0.009 -0.00645,0.016 -0.00814,0.0244 -0.00106,0.005 0.00301,0.0118 0,0.0163 -0.00336,0.005 -0.011985,0.004 -0.016273,0.008 -0.00166,0.002 0.00161,0.0212 0,0.0244 -0.00171,0.003 -0.00642,0.005 -0.00814,0.008 -0.00121,0.002 4.736e-4,0.005 0,0.008 -0.00181,0.0102 -0.00455,0.0202 -0.00683,0.0303 z"
         id="path4531" />
      <path
         style="fill:none;stroke:#040404;stroke-width:0.02645833;stroke-linecap:butt;stroke-linejoin:miter;stroke-miterlimit:4;stroke-dasharray:none;stroke-opacity:0.53731348"
         d="m 3.4797631,293.28485 c 0.028835,0.0299 0.032365,0.0649 0.046712,0.10081 0.00254,0.006 0.00749,0.0117 0.00914,0.0183 0.00148,0.006 0,0.0122 0,0.0183 v 0.0183 0.0822 0.0365 c 0,0.003 7.408e-4,0.006 0,0.009 -0.00467,0.0187 -0.0136,0.0361 -0.01827,0.0548 -7.408e-4,0.003 0.00214,0.007 0,0.009 -0.00214,0.002 -0.00698,-0.002 -0.00914,0 -0.00621,0.006 0.00934,0.0182 -0.00914,0.0274 -0.00272,10e-4 -0.00641,-0.001 -0.00914,0 -0.0077,0.004 -0.010567,0.0144 -0.018269,0.0183 -0.00272,0.001 -0.00698,-0.002 -0.00914,0 0.00545,0.012 -0.00607,0.006 -0.00914,0.009 h -0.045676 c -0.00305,0 -0.00698,-0.002 -0.00914,0 -0.00214,0.002 0.00214,0.007 0,0.009 -0.00321,0.003 -0.039366,-0.003 -0.045676,0 -0.00385,0.002 -0.00528,0.007 -0.00914,0.009 -0.00241,10e-4 -0.031764,0 -0.036541,0 -0.00636,0 -0.042372,-0.002 -0.045676,0 -0.00385,0.002 -0.00505,0.008 -0.00914,0.009 -0.00543,0.002 -0.043639,-0.002 -0.045676,0 -0.00214,0.002 0.00214,0.007 0,0.009 -0.00214,0.002 -0.00609,0 -0.00914,0 -0.00585,0 -0.053259,-10e-4 -0.054811,0 -0.00717,0.005 -0.011105,0.0135 -0.018269,0.0183 -0.00398,0.003 -0.022582,-0.002 -0.027406,0 -0.00385,0.002 -0.00528,0.007 -0.00914,0.009 -0.00519,0.003 -0.05128,-0.002 -0.054811,0 -0.00566,0.004 -0.00432,0.0134 -0.00914,0.0183 -0.00301,0.003 -0.02993,-0.002 -0.036541,0 -0.00409,0.001 -0.00528,0.007 -0.00914,0.009 -0.00545,0.003 -0.013965,-0.004 -0.018269,0 0.0054,0.0159 -0.012017,0.006 -0.018269,0.009 -0.016534,-0.006 -0.016989,0.0148 -0.027406,0.0183 -0.00578,0.002 -0.012181,0 -0.018269,0 -0.00305,0 -0.00641,-0.001 -0.00914,0 -0.022337,0.0279 -0.052472,0.0235 -0.1005,0.045 -0.00289,9.6e-4 -0.00641,-10e-4 -0.00914,0 -0.00385,0.002 -0.00528,0.007 -0.00914,0.009 -0.00272,0.001 -0.00609,0 -0.00914,0 -0.01218,0 -0.024986,-0.004 -0.036541,0 -0.00289,9.6e-4 0.00272,0.008 0,0.009 -0.00545,0.003 -0.012493,-0.002 -0.01827,0 -0.00409,10e-4 -0.00528,0.007 -0.00914,0.009 -0.036898,0.006 -0.046033,0.0254 -0.082235,0.0453 -0.00272,0.005 0.00431,0.014 0,0.0183 -0.00215,0.002 -0.00609,0 -0.00914,0 -0.00609,0.006 -0.013103,0.0114 -0.01827,0.0183 -0.042059,0.0561 0.017877,-0.0175 -0.00914,0.0365 -0.00385,0.008 -0.013493,0.0111 -0.01827,0.0183 -0.00169,0.003 0.00136,0.006 0,0.009 -0.00193,0.004 -0.00777,0.005 -0.00914,0.009 -0.00193,0.006 0.00262,0.0417 0,0.0457 -0.00378,0.006 -0.013456,0.004 -0.01827,0.009 -0.00215,0.002 9.631e-4,0.006 0,0.009 -0.011552,0.0251 -0.012427,0.0496 -0.01828,0.073 -0.00136,0.004 -0.00675,0.006 -0.00914,0.009 -0.00378,0.006 -0.00698,0.0118 -0.00914,0.0183 -0.00457,0.0137 0.00914,0.009 0,0.0274 -0.00136,0.003 -0.00698,-0.002 -0.00914,0 -0.00215,0.002 0.00136,0.006 0,0.009 -0.020904,0.0418 0.00379,-0.0388 -0.01827,0.0274 -9.631e-4,0.003 9.631e-4,0.006 0,0.009 -0.00215,0.006 -0.00698,0.0118 -0.00914,0.0183 -0.00305,0.009 0.00609,0.0183 0,0.0274 -0.00378,0.006 -0.014493,0.003 -0.01827,0.009 -0.00176,0.003 0,0.0474 0,0.0548 v 0.13703 0.0913 c 0,0.008 -0.00192,0.0399 0,0.0457 0.00215,0.006 0.00748,0.0117 0.00914,0.0183 0.00111,0.004 -0.00242,0.0317 0,0.0365 0.019009,0.038 -6.298e-4,-0.01 0.01827,0.009 0.00431,0.004 -0.00272,0.0128 0,0.0183 0.00193,0.004 0.00721,0.005 0.00914,0.009 0.00181,0.004 -0.00187,0.0255 0,0.0274 0.00481,0.005 0.013456,0.004 0.01827,0.009 0.00215,0.002 -9.631e-4,0.006 0,0.009 0.00215,0.006 0.00609,0.0122 0.00914,0.0183 0.00305,0.006 0.00536,0.0126 0.00914,0.0183 0.00239,0.004 0.00675,0.006 0.00914,0.009 0.00378,0.006 0.00609,0.0122 0.00914,0.0183 0.00305,0.006 0.00748,0.0117 0.00914,0.0183 0,0.0606 -0.00431,-0.0129 0.00914,0.0274 0.00193,0.006 -0.00272,0.0128 0,0.0183 0.00136,0.003 0.00698,-0.002 0.00914,0 0.00215,0.002 -9.63e-4,0.006 0,0.009 0.00215,0.006 0.00748,0.0117 0.00914,0.0183 0.00174,0.007 0,0.038 0,0.0457 v 0.0731 0.0731 0.0183 c -0.00592,0.0385 -0.036225,0.0778 -0.05483,0.1178 -0.00349,0.007 -0.025344,0.0212 -0.027406,0.0274 -0.010429,0.0567 -0.04145,0.0592 -0.08224,0.1174 -0.00215,0.002 0.00215,0.007 0,0.009 -0.00215,0.002 -0.00698,-0.002 -0.00914,0 -0.00215,0.002 -0.031973,0.0238 -0.031973,0.0238 -0.050129,0.0164 -0.1679611,0.11755 -0.207412,0.0777"
         id="path4547" />
      <path
         style="fill:none;stroke:#000000;stroke-width:0.02645833;stroke-linecap:butt;stroke-linejoin:miter;stroke-miterlimit:4;stroke-dasharray:none;stroke-opacity:0.51243783"
         d="m 2.4913796,294.21152 c 0.00507,0.0239 0.027259,0.0569 0.032325,0.0807 0.00305,0.006 0.00698,0.0118 0.00914,0.0183 9.631e-4,0.003 -9.631e-4,0.006 0,0.009 0.00215,0.006 0.00698,0.0118 0.00914,0.0183 0.00193,0.006 -0.00338,0.0132 0,0.0183 0.023574,0.0387 0.047671,0.0711 0.073096,0.109 0.00609,0.006 0.01218,0.0122 0.01827,0.0183 0.00609,0.006 0.011104,0.0135 0.01827,0.0183 0.00253,0.002 0.00698,-0.002 0.00914,0 0.011127,0.0111 0.00428,0.0204 0.01827,0.0274 0.00272,0.001 0.00641,-10e-4 0.00914,0 0.041808,0.0209 -0.038764,-0.004 0.027406,0.0183 0.00289,9.5e-4 0.00641,-10e-4 0.00914,0 0.057567,0.0502 0.091899,0.063 0.146169,0.1002 0.013232,0.011 0.022945,0.026 0.036541,0.0365 0.1375745,0.0926 -0.016247,-0.008 0.109621,0.0547 0.00358,0.002 0.00555,0.007 0.00914,0.009 0.00566,0.004 0.012605,0.005 0.01827,0.009 0.00358,0.002 0.00609,0.006 0.00914,0.009 0.00914,0.009 0.01827,0.0183 0.027406,0.0274 0.00609,0.006 0.012179,0.0122 0.018269,0.0183 0.028358,0.026 0.038011,0.0566 0.05483,0.0816 0.00153,0.005 0,0.0565 0,0.0639 0,0.002 2.91e-4,0.0271 0,0.0274 -0.00214,0.002 -0.00777,-0.003 -0.00914,0 -0.00272,0.005 0.00193,0.0125 0,0.0183 -0.00135,0.004 -0.00675,0.006 -0.00914,0.009 -0.00378,0.006 -0.00536,0.0126 -0.00914,0.0183 -0.00478,0.007 -0.014417,0.0106 -0.01827,0.0183 -0.00103,0.002 0,0.0344 0,0.0365 v 0.009 c 0,0.003 -0.00214,0.007 0,0.009 0.026823,0.0234 0.059907,0.033 0.082218,0.0453 0.00385,0.002 0.00528,0.007 0.00914,0.009 0.00545,0.003 0.013965,-0.004 0.01827,0 0.00214,0.002 -0.00135,0.006 0,0.009 0.00193,0.004 0.00609,0.006 0.00914,0.009 0.03291,0.0384 0.02613,0.0259 0.06397,0.0633 0.00289,9.5e-4 0.00698,-0.002 0.00914,0 0.00214,0.002 -0.00214,0.007 0,0.009 0.00188,0.002 0.023783,-0.002 0.027406,0 0.00385,0.002 0.00528,0.007 0.00914,0.009 0.00271,0.001 0.045975,0 0.054811,0 0.00966,0 0.05924,0.002 0.063946,0 0.00409,-10e-4 0.00496,-0.008 0.00914,-0.009 0.00886,-0.002 0.01827,0 0.027406,0 0.00609,0 0.012494,0.002 0.018269,0 0.00409,-10e-4 0.00505,-0.008 0.00914,-0.009 0.00251,-8.4e-4 0.054144,-3.4e-4 0.054811,0 0.00385,0.002 0.00528,0.007 0.00914,0.009 0.00272,0.001 0.00641,-10e-4 0.00914,0 0.00385,0.002 0.00528,0.007 0.00914,0.009 0.00362,0.002 0.025538,-0.002 0.027405,0 0.00547,0.0225 0.022267,0.0166 0.03655,0.0273 0.00272,10e-4 0.00641,-0.001 0.00914,0 0.00982,0.005 0.017584,0.0134 0.027405,0.0183 0.00545,0.003 0.013965,-0.004 0.01827,0 -0.0016,0.0184 0.039117,0.006 0.054821,0.009 0.0077,0.004 0.010567,0.0144 0.018269,0.0183 0.00272,10e-4 0.00641,-10e-4 0.00914,0 0.00385,0.002 0.012181,0.006 0.00914,0.009 -0.00305,0.003 -0.013441,-0.009 -0.00914,-0.009 0.00681,0 0.021638,0.003 0.01827,0.009 -0.015566,0.0274 -0.042216,0.0467 -0.063323,0.0701"
         id="path4549" />
      <path
         style="fill:none;stroke:#000000;stroke-width:0.02645833;stroke-linecap:butt;stroke-linejoin:miter;stroke-miterlimit:4;stroke-dasharray:none;stroke-opacity:0.48258709"
         d="m 1.9417351,293.7017 c -0.00391,0.0111 -0.00912,0.0217 -0.011726,0.0332 -0.00135,0.006 0,0.0122 0,0.0183 v 0.0457 0.0913 c 0,0.005 0.0012,0.0341 0,0.0365 -0.00868,0.0194 -0.018343,0.0181 -0.02742,0.027 -0.00646,0.002 -0.011665,0.007 -0.01827,0.009 -3.042e-4,7e-5 -0.027357,-5e-5 -0.027405,0 -0.00481,0.005 -0.00432,0.0134 -0.00914,0.0183 -0.00431,0.004 -0.012823,-0.003 -0.01827,0 -0.00385,0.002 -0.00528,0.007 -0.00914,0.009 -0.00545,0.003 -0.013964,-0.004 -0.01827,0 -0.00481,0.005 -0.00432,0.0135 -0.00914,0.0183 -0.00215,0.002 -0.00698,-0.002 -0.00914,0 -0.00215,0.002 0.00215,0.007 0,0.009 -0.00187,0.002 -0.023784,-0.002 -0.027405,0 -0.038018,0.019 0.00977,-6.3e-4 -0.00914,0.0183 -0.00431,0.004 -0.012823,-0.003 -0.01827,0 -0.00385,0.002 -0.00528,0.007 -0.00914,0.009 -0.0225,0.0113 0.00825,-0.0265 -0.027406,0.009 -0.00215,0.002 0.00136,0.006 0,0.009 -0.00193,0.004 -0.00721,0.005 -0.00914,0.009 0.00412,0.0224 -0.020519,0.0409 -0.02741,0.0547 -9.631e-4,0.003 7.382e-4,0.006 0,0.009 -0.00234,0.009 -0.0068,0.0181 -0.00914,0.0274 -7.382e-4,0.003 9.631e-4,0.006 0,0.009 -0.00215,0.006 -0.00698,0.0118 -0.00914,0.0183 -0.00322,0.01 0.00374,0.0382 0,0.0457 -0.00136,0.003 -0.00698,-0.002 -0.00914,0 -0.00215,0.002 0,0.006 0,0.009 0,0.007 0.00159,0.0516 0,0.0548 -0.00193,0.004 -0.00721,0.005 -0.00914,0.009 -0.00102,0.002 0,0.0344 0,0.0365 v 0.0639 c 0,0.004 0.00139,0.0246 0,0.0274 -0.00385,0.008 -0.014419,0.0106 -0.01827,0.0183 -0.00136,0.003 0.00136,0.006 0,0.009 -0.00405,0.008 -0.021862,0.0191 -0.027405,0.0274 -0.020126,0.005 -0.00483,0.0188 -0.00914,0.0274 -0.00193,0.004 -0.00609,0.006 -0.00914,0.009 -0.00305,0.003 -0.00528,0.007 -0.00914,0.009 -0.00272,10e-4 -0.00698,-0.002 -0.00914,0 -0.00431,0.004 0.00272,0.0128 0,0.0183 -0.00469,0.0135 -0.02116,0.0139 -0.02742,0.018 -0.018901,0.0189 0.028883,-7.4e-4 -0.00914,0.0183 -0.00272,10e-4 -0.011288,0.002 -0.00914,0 0.00481,-0.005 0.025079,-0.009 0.01827,-0.009 -0.012555,0 -0.024229,0.007 -0.036541,0.009 -0.00299,6e-4 -0.00641,-0.001 -0.00914,0 -0.0081,0.004 -0.01909,0.0219 -0.027406,0.0274 -0.00567,0.004 -0.013456,0.004 -0.01827,0.009 0.0069,0.0181 -0.021769,0.0214 -0.02742,0.027 -0.00385,0.002 -0.00528,0.007 -0.00914,0.009 -0.00272,10e-4 -0.0061,1.9e-4 -0.00914,0 l -0.1425063,-0.009"
         id="path4551" />
    </g>
  </g>
</svg>
