<?xml version="1.0" encoding="UTF-8" standalone="no"?>
<svg
   xmlns:dc="http://purl.org/dc/elements/1.1/"
   xmlns:cc="http://creativecommons.org/ns#"
   xmlns:rdf="http://www.w3.org/1999/02/22-rdf-syntax-ns#"
   xmlns:svg="http://www.w3.org/2000/svg"
   xmlns="http://www.w3.org/2000/svg"
   height="20"
   width="20"
   version="1.1"
   viewBox="0 0 20 20"
   xml:space="preserve"
   id="rock"><defs
     id="defs16" /><g
     transform="matrix(0.03758919,0,0,-0.03758919,6.0744499,19.815277)"
     id="g10"><g
       id="g12"><path
         d="m 216.88,27.801 c -0.719,-0.59 -1.707,-1.094 -2.957,-1.523 -1.121,-0.371 -2.027,-0.559 -2.723,-0.559 -5.304,0 -9.09,0.375 -11.359,1.121 -3.067,1.039 -7.238,1.785 -12.52,2.238 l -0.441,0.2 c 1.387,1.015 2.894,2.656 4.523,4.922 0,0.32 -0.148,0.574 -0.441,0.757 -0.32,0.188 -0.481,0.309 -0.481,0.36 1.282,0.64 2,1.043 2.161,1.203 -0.348,0.183 -1.266,0.547 -2.762,1.078 -1.359,0.48 -2.133,0.734 -2.317,0.762 l -0.32,0.117 c 0.32,-0.024 1.25,-0.078 2.797,-0.16 2.32,-0.133 5.723,-0.426 10.203,-0.879 4.719,-1.973 7.547,-3.172 8.481,-3.598 2.773,-1.281 5.066,-2.59 6.879,-3.922 0.425,-0.293 0.746,-0.64 0.96,-1.039 0.106,-0.238 0.211,-0.601 0.317,-1.078 z m -9.199,-4.844 c 1.308,-0.797 1.988,-1.222 2.043,-1.277 -1.071,-0.855 -2.282,-1.281 -3.645,-1.281 -0.664,0 -1.652,0.172 -2.957,0.519 -1.601,0.399 -2.652,0.852 -3.16,1.36 -0.055,0.214 -0.082,0.453 -0.082,0.722 2.109,0.106 4.707,0.094 7.801,-0.043 z m -44.918,24.321 1,0.043 c 0.398,0 0.918,-0.094 1.558,-0.282 0.641,-0.214 0.957,-0.386 0.957,-0.519 l -0.839,-0.16 c -0.184,-0.028 -0.614,0.078 -1.278,0.32 -0.695,0.238 -1.16,0.437 -1.398,0.598 z m 20.039,-9.477 c -1.336,0.051 -2,0.133 -2,0.238 l 1.398,0.239 c 1.199,0.082 2.469,-0.106 3.801,-0.559 -0.852,-0.027 -1.922,0 -3.199,0.082 z m 1.359,-5.203 c 0.508,-0.211 0.762,-0.481 0.762,-0.797 0,-0.32 -0.254,-0.59 -0.762,-0.801 -0.508,-0.215 -1.121,-0.32 -1.84,-0.32 -0.718,0 -1.332,0.105 -1.84,0.32 -0.507,0.211 -0.761,0.481 -0.761,0.801 0,0.316 0.254,0.586 0.761,0.797 0.508,0.215 1.118,0.32 1.84,0.32 0.719,0 1.332,-0.105 1.84,-0.32 z m -42.238,17.961 c 0.344,-0.399 0.516,-1.012 0.516,-1.84 0,-1.144 -0.516,-1.746 -1.559,-1.801 -2.027,0.188 -4.067,0.336 -6.117,0.442 2.238,2.824 3.492,4.238 3.758,4.238 1.679,0 2.812,-0.344 3.402,-1.039 z m 7.84,-18.16 c -0.348,-0.055 -0.856,-0.039 -1.524,0.039 -0.664,0.082 -1.16,0.187 -1.476,0.32 0.023,0.32 0.531,0.414 1.515,0.281 0.961,-0.105 1.469,-0.254 1.524,-0.441 l -0.043,-0.199 z m 10.918,-6.121 c 1.629,0.347 3.746,0.75 6.359,1.203 2.402,0.426 5.066,0.972 8,1.636 l 0.883,0.282 c -0.188,-0.133 -1.551,-1 -4.082,-2.598 -1.735,-1.07 -3.215,-2.16 -4.442,-3.281 0.454,-0.43 2.868,-2.403 7.243,-5.922 l 0.238,-0.758 c -0.051,-0.215 -0.145,-0.359 -0.281,-0.441 -0.133,-0.082 -0.387,-0.121 -0.758,-0.121 -0.746,0 -2.32,0.347 -4.719,1.043 -2.402,0.718 -5.562,1.078 -9.48,1.078 -0.453,0 -3.161,0.359 -8.121,1.082 -5.172,0.773 -7.934,1.172 -8.282,1.199 0.535,0.266 2.453,0.535 5.762,0.801 3.359,0.265 5.574,0.625 6.641,1.078 -0.161,0.293 -0.442,0.574 -0.84,0.844 0.879,0.343 2.332,0.586 4.359,0.718 1.758,0.161 2.719,0.332 2.879,0.52 -0.051,0.184 -0.187,0.387 -0.398,0.598 -0.403,0.375 -0.723,0.718 -0.961,1.039 z m -26.442,1.082 c 1.707,-0.133 3.668,0.613 5.883,2.242 1.547,1.172 2.801,2.371 3.758,3.598 -0.691,-2.641 -1.719,-4.415 -3.078,-5.321 -0.856,-0.558 -2.121,-0.84 -3.801,-0.84 z m 44.203,-4.68 c 2.184,1.305 3.293,1.973 3.321,2 l 0.238,0.238 h 2.121 c -0.242,-0.558 -0.668,-1.371 -1.281,-2.437 1.305,0.211 2.519,0.636 3.64,1.277 0.958,0.586 1.692,0.883 2.2,0.883 0.531,0 1.332,-0.613 2.398,-1.84 -0.48,-0.801 -0.906,-1.402 -1.277,-1.801 -0.668,-0.695 -1.535,-1.043 -2.602,-1.043 -1.652,0 -3.652,0.27 -6,0.801 -2.187,0.481 -3.281,0.844 -3.281,1.082 0,0.32 0.027,0.492 0.082,0.52 0.266,0.187 0.414,0.293 0.441,0.32 z m 12.079,-4.359 c 0.187,0.691 0.281,1.117 0.281,1.281 l 1.879,-1.082 c -0.321,-0.641 -0.68,-1.106 -1.078,-1.403 -0.137,0 -0.254,0.043 -0.364,0.122 -0.211,0.132 -0.453,0.492 -0.718,1.082 z m -80.52,48.757 c 0,-0.211 -0.121,-0.398 -0.359,-0.558 -0.243,-0.133 -0.536,-0.199 -0.879,-0.199 -0.348,0 -0.641,0.066 -0.883,0.199 -0.238,0.16 -0.359,0.347 -0.359,0.558 0,0.215 0.121,0.387 0.359,0.52 0.242,0.16 0.535,0.242 0.883,0.242 0.343,0 0.636,-0.082 0.879,-0.242 0.238,-0.133 0.359,-0.305 0.359,-0.52 z m -8.48,-8.64 c -0.215,-0.399 -0.454,-0.719 -0.719,-0.957 -0.535,-0.481 -1.309,-0.723 -2.321,-0.723 -0.32,0 -0.761,0.067 -1.32,0.199 0.934,1.067 1.785,1.817 2.559,2.243 1.066,0.613 1.668,0.359 1.801,-0.762 z m 19.441,-17.957 c -0.055,-0.242 -0.359,-0.387 -0.922,-0.442 -0.48,0.051 -0.879,0.133 -1.199,0.239 l -0.32,0.32 c 0.507,0.269 1.042,0.375 1.601,0.32 0.531,-0.051 0.813,-0.199 0.84,-0.437 z m -29.602,26 c -0.16,-0.16 -0.359,-0.242 -0.597,-0.242 -0.242,0 -0.442,0.082 -0.602,0.242 -0.16,0.16 -0.238,0.359 -0.238,0.597 0,0.243 0.078,0.442 0.238,0.602 0.16,0.16 0.36,0.238 0.602,0.238 0.238,0 0.437,-0.078 0.597,-0.238 0.161,-0.16 0.243,-0.359 0.243,-0.602 0,-0.238 -0.082,-0.437 -0.243,-0.597 z M 88.322,57.2 c 0.239,-0.133 0.36,-0.293 0.36,-0.481 0,-0.187 -0.121,-0.359 -0.36,-0.519 -0.242,-0.133 -0.519,-0.2 -0.84,-0.2 -0.32,0 -0.601,0.067 -0.839,0.2 -0.243,0.16 -0.36,0.332 -0.36,0.519 0,0.188 0.117,0.348 0.36,0.481 0.238,0.16 0.519,0.238 0.839,0.238 0.321,0 0.598,-0.078 0.84,-0.238 z m -6.84,3.199 c 0,-0.293 -0.066,-0.547 -0.199,-0.758 -0.16,-0.188 -0.336,-0.281 -0.519,-0.281 -0.188,0 -0.348,0.093 -0.481,0.281 -0.16,0.211 -0.242,0.465 -0.242,0.758 0,0.293 0.082,0.535 0.242,0.718 0.133,0.215 0.293,0.321 0.481,0.321 0.183,0 0.359,-0.106 0.519,-0.321 0.133,-0.183 0.199,-0.425 0.199,-0.718 z m -7.718,-17.961 1.84,-0.481 c -0.161,-0.316 -0.481,-0.558 -0.961,-0.718 -0.321,-0.106 -0.602,-0.161 -0.84,-0.161 -0.746,0 -1.133,0.133 -1.16,0.403 0.32,0.344 0.547,0.558 0.679,0.636 0.078,0.055 -0.039,0.067 -0.359,0.043 z m -13.282,-6.68 c -0.347,0.293 -0.546,0.84 -0.601,1.641 0.773,0.187 1.613,0.441 2.519,0.761 0.829,0.211 1.934,0.332 3.321,0.36 l -0.68,-0.801 c -1.144,-1.254 -2.078,-1.973 -2.801,-2.16 -0.371,-0.106 -0.957,-0.039 -1.758,0.199 z m 5.442,11.481 1.476,0.32 c 0.375,0 0.801,0.082 1.282,0.242 0.879,0.293 1.851,0.57 2.922,0.84 -0.188,-1.043 -0.856,-1.723 -2,-2.043 -0.641,-0.184 -1.641,-0.277 -3,-0.277 -0.723,0 -1.122,0.144 -1.204,0.437 0.028,0.133 0.204,0.293 0.524,0.481 z m 0.879,-2.399 c -0.028,0.051 -0.039,0.106 -0.039,0.16 0,0.051 0.011,0.106 0.039,0.16 0.054,0.051 0.121,0.106 0.199,0.161 0.16,0.078 0.359,0.117 0.602,0.117 0.238,0 0.437,-0.039 0.597,-0.117 0.16,-0.082 0.242,-0.188 0.242,-0.321 0,-0.133 -0.082,-0.242 -0.242,-0.32 -0.16,-0.082 -0.359,-0.121 -0.597,-0.121 -0.243,0 -0.442,0.039 -0.602,0.121 -0.078,0.055 -0.145,0.105 -0.199,0.16 z M 63.08,63.559 c 0.535,0 1.336,-0.348 2.402,-1.039 -0.613,-0.426 -1.054,-0.668 -1.32,-0.719 -0.508,-0.137 -1.414,-0.16 -2.719,-0.082 l 0.52,0.922 c 0.426,0.613 0.801,0.918 1.117,0.918 z M 49.803,55.641 c -0.133,0 -0.254,0.023 -0.36,0.078 -0.109,0.082 -0.16,0.172 -0.16,0.281 0,0.106 0.051,0.184 0.16,0.239 0.106,0.082 0.227,0.121 0.36,0.121 0.133,0 0.254,-0.039 0.359,-0.121 0.106,-0.055 0.16,-0.133 0.16,-0.239 0,-0.109 -0.054,-0.199 -0.16,-0.281 -0.105,-0.055 -0.226,-0.078 -0.359,-0.078 z m 7.879,-1.84 c 0.668,0.984 2.015,1.758 4.039,2.316 -0.879,-1.652 -1.531,-2.679 -1.957,-3.078 -0.563,-0.535 -1.414,-0.746 -2.563,-0.64 0.028,0.027 0.188,0.492 0.481,1.402 z M 38.522,42.918 c -0.239,-0.801 -0.575,-1.597 -1,-2.398 C 36.99,39.504 36.51,38.946 36.08,38.84 l -0.598,-0.242 c 0.079,0 1.305,0.359 3.68,1.082 l 0.36,0.277 c -0.454,-0.664 -2.665,-2.359 -6.641,-5.078 -4.16,-2.828 -6.664,-4.238 -7.52,-4.238 -0.32,0 -0.519,0.012 -0.597,0.039 l -0.043,0.078 -0.36,0.281 c 0.266,0.348 1.161,1.282 2.68,2.801 l 0.121,0.36 c -1.84,-1.067 -3.414,-1.934 -4.719,-2.598 -0.988,-0.508 -1.839,-0.895 -2.562,-1.16 0.266,0.16 0.426,0.343 0.48,0.558 -0.16,0.641 -0.238,1.028 -0.238,1.16 0,0.586 0.625,1.372 1.879,2.36 1.254,1.012 1.879,1.547 1.879,1.597 0,0.348 -0.078,0.618 -0.238,0.801 -0.215,0.188 -0.387,0.348 -0.52,0.481 0.774,0.027 2.547,-0.078 5.32,-0.321 1.094,0 2.051,0.469 2.879,1.403 1.2,1.41 1.825,2.133 1.879,2.16 0.028,0.023 0.668,0.144 1.922,0.359 1.172,0.211 2.172,0.692 3,1.438 z m -27.04,-6.199 c 0.586,0.453 1.692,0.332 3.321,-0.359 -0.082,-0.16 -0.321,-0.336 -0.723,-0.52 -0.586,-0.242 -1.316,-0.375 -2.199,-0.402 l -1,0.203 c 0.109,0.078 0.309,0.437 0.601,1.078 z"
         style="fill:#8c847c;fill-rule:evenodd"
         id="path14" /><path
         d="m 127.24,13.719 c -2.476,0.668 -4.492,1.883 -6.039,3.641 -0.453,0.507 -1.707,2.375 -3.758,5.597 -3.629,5.762 -9.308,10.149 -17.043,13.16 1.364,2.321 3.442,5.524 6.243,9.602 1.972,2.856 3.226,5.027 3.757,6.52 l 1.801,1 c 1.414,-0.399 2.442,-0.598 3.082,-0.598 0.774,0 2.012,0.625 3.719,1.879 0.535,0.398 2.895,2.254 7.078,5.558 0.16,0.082 0.762,0.2 1.801,0.36 1.043,0.16 1.762,0.242 2.16,0.242 1.121,0 10.867,-3.082 29.242,-9.242 15.84,-5.305 29.492,-9.973 40.957,-14 -4.476,0.453 -7.879,0.746 -10.199,0.883 -1.547,0.078 -2.48,0.132 -2.801,0.16 l 0.321,-0.121 c 0.187,-0.028 0.961,-0.282 2.32,-0.762 1.492,-0.531 2.414,-0.891 2.762,-1.078 -0.161,-0.16 -0.883,-0.563 -2.161,-1.199 0,-0.055 0.161,-0.176 0.481,-0.364 0.293,-0.183 0.437,-0.437 0.437,-0.757 -1.625,-2.266 -3.132,-3.907 -4.519,-4.918 l 0.441,-0.204 c 5.282,-0.453 9.453,-1.199 12.52,-2.238 2.265,-0.746 6.055,-1.121 11.359,-1.121 0.696,0 1.602,0.188 2.723,0.563 1.25,0.425 2.238,0.933 2.957,1.519 l -0.039,-0.16 c -0.188,-0.402 -0.414,-0.734 -0.68,-1 -0.375,-0.586 -0.828,-1.293 -1.359,-2.121 -0.856,-1.36 -1.387,-2.266 -1.602,-2.719 -0.32,-0.535 -0.734,-1.055 -1.238,-1.559 l -0.242,0.239 c -0.426,0.719 -0.946,1.375 -1.559,1.961 L 209.6,22.84 c -0.719,0.402 -1.664,0.641 -2.84,0.719 l 0.922,-0.598 c -3.094,0.133 -5.696,0.145 -7.801,0.039 0,-0.265 0.027,-0.508 0.082,-0.718 0.504,-0.508 1.559,-0.961 3.16,-1.36 1.305,-0.347 2.289,-0.519 2.957,-0.519 1.36,0 2.574,0.425 3.641,1.277 l 1.199,-1.359 0.082,-0.559 -4.32,-1.719 c -0.828,1.145 -1.801,1.719 -2.918,1.719 0.316,-0.828 0.597,-1.652 0.84,-2.48 -2.454,-0.829 -5.79,-1.879 -10,-3.161 -0.243,0.321 -0.575,0.625 -1,0.922 -0.856,0.614 -1.79,0.93 -2.801,0.957 l -1,0.082 c 0.105,-0.082 1.226,-0.867 3.359,-2.359 -1.332,-0.348 -3.801,-0.816 -7.398,-1.402 -3.282,-0.532 -5.082,-0.801 -5.403,-0.801 -4.265,0 -9.011,0.855 -14.238,2.562 -5.254,1.735 -8.562,2.598 -9.922,2.598 -0.961,0 -4.426,-0.359 -10.398,-1.078 -6.801,-0.828 -11.336,-1.332 -13.602,-1.52 0.16,1.172 0.309,1.961 0.442,2.36 0.293,0.906 0.8,1.625 1.519,2.16 l 0.281,0.601 c -0.828,-0.429 -2.066,-1.253 -3.718,-2.484 -1.817,-1.332 -2.977,-2.332 -3.485,-3 z m 76.524,10.238 c 0.504,0 1.066,0.082 1.679,0.243 0.692,0.214 1.145,0.453 1.36,0.718 L 196.4,25.719 c 0.614,-0.586 1.856,-1.051 3.723,-1.398 1.387,-0.243 2.598,-0.364 3.641,-0.364 z m -41,23.321 c 0.238,-0.161 0.703,-0.36 1.398,-0.598 0.668,-0.242 1.094,-0.348 1.281,-0.32 l 0.84,0.16 c 0,0.133 -0.32,0.305 -0.961,0.519 -0.64,0.188 -1.16,0.282 -1.558,0.282 z m 14.476,-13.84 c 0,-0.238 0.227,-0.438 0.684,-0.598 0.398,-0.16 0.824,-0.242 1.277,-0.242 0.801,0 1.442,0.387 1.922,1.16 0.266,0.399 0.465,0.828 0.602,1.281 l -1.043,0.282 c -1.305,-0.614 -2.453,-1.243 -3.438,-1.883 z m -0.117,6.121 c -0.828,0 -1.254,-0.012 -1.281,-0.039 0.851,-0.563 1.867,-0.668 3.039,-0.32 0.266,0.078 1.133,0.48 2.601,1.199 -1.839,-0.559 -3.292,-0.84 -4.359,-0.84 z m 7.039,-6.961 c -0.508,0.215 -1.121,0.32 -1.84,0.32 -0.718,0 -1.332,-0.105 -1.84,-0.32 -0.507,-0.211 -0.761,-0.481 -0.761,-0.797 0,-0.32 0.254,-0.59 0.761,-0.801 0.508,-0.215 1.118,-0.32 1.84,-0.32 0.719,0 1.332,0.105 1.84,0.32 0.508,0.211 0.762,0.481 0.762,0.801 0,0.316 -0.254,0.586 -0.762,0.797 z m -1.359,5.203 c 1.277,-0.082 2.347,-0.109 3.199,-0.082 -1.332,0.453 -2.602,0.641 -3.801,0.559 l -1.398,-0.239 c 0,-0.105 0.664,-0.187 2,-0.238 z m -37.082,7.637 h -3.52 v -1 h 3.52 z m -9.199,7.363 c -0.641,0.453 -0.973,0.691 -1,0.719 -0.188,0.133 -0.508,0.199 -0.961,0.199 -3.891,-0.641 -6.133,-1.16 -6.719,-1.559 0.586,-0.855 2.547,-1.988 5.883,-3.402 1.089,0 2,0.281 2.718,0.84 0.692,0.535 1.039,1.16 1.039,1.883 0,0.32 -0.32,0.758 -0.96,1.32 z m 5.402,-2.242 c -0.59,0.695 -1.723,1.039 -3.402,1.039 -0.266,0 -1.52,-1.414 -3.758,-4.238 2.05,-0.106 4.09,-0.254 6.117,-0.442 1.043,0.055 1.559,0.657 1.559,1.801 0.003,0.828 -0.172,1.441 -0.516,1.84 z m 3,-16.039 V 34 c 0.078,-0.242 0.238,-0.441 0.476,-0.601 l 0.801,-0.078 c 0.535,0 0.828,0.093 0.879,0.281 0,0.265 -0.355,0.492 -1.078,0.68 z m -10.203,1.719 c -0.907,-0.668 -1.36,-1.481 -1.36,-2.438 0,-0.961 0.453,-1.777 1.36,-2.441 0.883,-0.668 1.961,-1 3.242,-1 1.277,0 2.371,0.332 3.277,1 0.883,0.664 1.321,1.48 1.321,2.441 0,0.957 -0.438,1.77 -1.321,2.438 -0.906,0.668 -2,1 -3.277,1 -1.281,0 -2.359,-0.332 -3.242,-1 z m 25.961,-9.961 c 0.242,-0.321 0.558,-0.664 0.961,-1.039 0.214,-0.215 0.347,-0.414 0.398,-0.598 -0.16,-0.188 -1.117,-0.363 -2.879,-0.524 -2.027,-0.132 -3.48,-0.371 -4.359,-0.718 0.398,-0.266 0.679,-0.547 0.84,-0.84 -1.067,-0.453 -3.282,-0.813 -6.641,-1.078 -3.309,-0.27 -5.227,-0.535 -5.762,-0.801 0.348,-0.027 3.11,-0.426 8.282,-1.199 4.96,-0.723 7.668,-1.082 8.121,-1.082 3.918,0 7.082,-0.36 9.48,-1.082 2.399,-0.692 3.973,-1.039 4.719,-1.039 0.375,0 0.625,0.039 0.762,0.121 0.132,0.078 0.226,0.226 0.277,0.441 l -0.238,0.758 c -4.375,3.519 -6.786,5.492 -7.243,5.918 1.227,1.121 2.707,2.215 4.442,3.281 2.535,1.602 3.894,2.469 4.082,2.602 l -0.883,-0.282 c -2.93,-0.664 -5.598,-1.21 -8,-1.636 -2.613,-0.453 -4.73,-0.856 -6.359,-1.203 z m -10.918,6.121 0.039,0.199 c -0.055,0.187 -0.563,0.336 -1.52,0.441 -0.988,0.133 -1.492,0.039 -1.519,-0.281 0.316,-0.133 0.812,-0.238 1.48,-0.32 0.664,-0.078 1.172,-0.094 1.52,-0.039 z m -15.52,-5.039 2.76,-0.321 c 1.68,0 2.945,0.282 3.801,0.84 1.359,0.906 2.387,2.68 3.078,5.321 -0.957,-1.227 -2.211,-2.426 -3.758,-3.598 -2.215,-1.629 -4.176,-2.375 -5.883,-2.242 z m 47.524,-2.68 0.515,1.039 c -2.906,-0.215 -4.769,-0.48 -5.597,-0.801 -0.481,-0.183 -0.852,-0.597 -1.121,-1.238 0.082,-0.426 0.242,-0.695 0.48,-0.801 0.402,-0.238 1.199,-0.308 2.402,-0.199 -0.027,-0.027 -0.175,-0.133 -0.441,-0.32 -0.055,-0.028 -0.078,-0.2 -0.078,-0.52 0,-0.238 1.09,-0.601 3.277,-1.082 2.348,-0.531 4.348,-0.801 6,-0.801 1.067,0 1.934,0.348 2.602,1.043 0.371,0.399 0.801,1 1.277,1.801 -1.066,1.227 -1.863,1.84 -2.398,1.84 -0.508,0 -1.239,-0.293 -2.2,-0.883 -1.121,-0.641 -2.332,-1.066 -3.64,-1.277 0.613,1.066 1.039,1.879 1.281,2.437 h -2.121 z m 9.039,-5.082 c -2.989,-1.117 -4.535,-1.785 -4.641,-2 0.852,-0.371 1.531,-0.559 2.039,-0.559 0.563,0 1.039,0.149 1.442,0.442 0.05,0.023 0.347,0.304 0.879,0.84 0.269,-0.586 0.507,-0.95 0.718,-1.082 0.11,-0.082 0.227,-0.122 0.364,-0.122 0.398,0.297 0.757,0.762 1.078,1.403 z m -8.922,-10.16 0.441,0.043 -0.359,-0.043 z m -76.481,59.363 h -3.398 v 1.277 h 3.398 z m 12.563,-26.523 c -0.375,0.187 -0.816,0.281 -1.32,0.281 -0.508,0 -0.95,-0.094 -1.321,-0.281 -0.375,-0.161 -0.558,-0.36 -0.558,-0.598 0,-0.242 0.183,-0.453 0.558,-0.641 0.375,-0.16 0.813,-0.238 1.321,-0.238 0.507,0 0.945,0.078 1.32,0.238 0.371,0.188 0.559,0.399 0.559,0.641 0,0.238 -0.188,0.437 -0.559,0.598 z m 3,-1.797 c -0.027,0.238 -0.309,0.386 -0.84,0.437 -0.562,0.055 -1.094,-0.051 -1.601,-0.32 l 0.32,-0.32 c 0.32,-0.106 0.719,-0.184 1.199,-0.239 0.563,0.055 0.867,0.2 0.922,0.442 z M 84.046,67.278 c 0.883,0.297 2.867,0.656 5.961,1.082 -2.266,-1.227 -3.535,-1.907 -3.801,-2.039 -0.64,-0.297 -1.238,-0.442 -1.801,-0.442 l -0.796,0.16 c -0.137,0.078 -0.204,0.293 -0.204,0.641 0,0.238 0.215,0.437 0.641,0.598 z m 2,-9.039 c 0,-0.774 -0.133,-1.305 -0.398,-1.598 -0.215,-0.242 -0.563,-0.363 -1.039,-0.363 -0.348,0 -0.614,0.027 -0.801,0.082 -0.055,0.027 -0.215,0.121 -0.481,0.281 0.078,0.238 0.973,1.133 2.68,2.68 z M 60.487,35.758 c -1.015,-0.641 -2.175,-1.238 -3.48,-1.801 -1.441,-0.613 -2.48,-0.89 -3.121,-0.84 -0.613,-0.238 -0.918,-0.089 -0.918,0.442 0,0.988 0.719,2.066 2.16,3.242 2.371,1.973 6,2.891 10.879,2.758 -0.055,-0.586 -0.094,-0.906 -0.121,-0.961 -0.106,-0.293 -0.387,-0.586 -0.84,-0.879 l 0.68,0.801 c -1.387,-0.028 -2.492,-0.149 -3.321,-0.36 -0.906,-0.32 -1.746,-0.574 -2.519,-0.761 0.055,-0.801 0.254,-1.348 0.601,-1.641 z m 13.282,6.68 -0.801,-0.278 c -0.563,0 -0.988,0.145 -1.281,0.438 l -0.078,0.441 2.117,0.52 c 0,-0.078 0.093,-0.293 0.281,-0.641 0.055,-0.343 -0.027,-0.504 -0.238,-0.48 z m -6.364,5.121 -1.476,-0.32 c -0.961,-0.079 -1.977,-0.055 -3.043,0.082 0,0.027 -0.067,0.093 -0.199,0.199 -0.133,0.078 -0.2,0.281 -0.2,0.597 0,0.59 0.415,1.137 1.239,1.641 0.906,0.535 2.109,0.867 3.601,1 h 3.481 C 70.726,50.36 70.339,49.785 69.648,49.039 68.847,48.16 68.101,47.664 67.405,47.559 Z M 66.808,45.16 C 66.78,45.106 66.769,45.051 66.769,45 c 0,-0.054 0.011,-0.109 0.039,-0.16 -0.055,-0.133 -0.149,-0.254 -0.281,-0.359 -0.239,-0.137 -0.52,-0.203 -0.84,-0.203 -0.321,0 -0.586,0.066 -0.801,0.203 -0.238,0.16 -0.359,0.332 -0.359,0.519 0,0.184 0.121,0.348 0.359,0.481 0.215,0.16 0.48,0.238 0.801,0.238 0.32,0 0.601,-0.078 0.84,-0.238 0.132,-0.082 0.226,-0.188 0.281,-0.321 z M 95.968,33.2 c 0.133,-0.11 0.293,-0.227 0.48,-0.36 L 96.206,33 Z m 10.117,-4.52 0.684,-0.359 -0.481,0.238 z M 53.767,54.801 c 0.316,0.106 1.703,0.84 4.16,2.199 l 1.68,0.16 c -1.067,-1.679 -1.84,-2.761 -2.321,-3.242 -0.508,-0.504 -1.093,-0.758 -1.761,-0.758 -0.586,0 -1.321,0.321 -2.2,0.957 0.106,0.27 0.254,0.497 0.442,0.684 z M 30.286,43.84 c 0.531,0 1.067,-0.359 1.598,-1.082 -0.641,-1.414 -1.934,-2.504 -3.879,-3.277 -1.945,-0.774 -2.922,-0.535 -2.922,0.719 0,0.96 0.856,1.851 2.563,2.679 0.851,0.399 1.734,0.719 2.64,0.961 z"
         style="fill:#a39a90;fill-rule:evenodd"
         id="path16" /><path
         d="m 216.16,26.641 c 0.266,0.266 0.492,0.598 0.68,1 0.027,-0.617 0.238,-2.094 0.64,-4.441 0.348,-2.161 0.52,-3.668 0.52,-4.52 -2.906,-5.734 -4.801,-8.773 -5.68,-9.121 -0.558,-0.238 -1.242,-0.414 -2.043,-0.52 -0.718,-0.082 -1.117,-0.132 -1.199,-0.16 -0.316,-0.105 -1.332,-0.558 -3.039,-1.359 -0.238,-0.106 -0.453,-0.199 -0.641,-0.281 -1.253,-0.559 -1.906,-0.868 -1.96,-0.918 0.402,0.824 1.867,3.546 4.402,8.16 -0.695,-0.11 -1.188,-0.188 -1.481,-0.242 -0.507,-0.051 -0.761,0.082 -0.761,0.402 0,0.316 -0.106,0.48 -0.321,0.48 l -0.355,-0.082 c 0.266,0.481 0.355,1.52 0.277,3.121 l 0.403,-0.519 c 0.453,-0.617 0.945,-1.32 1.476,-2.121 l 0.524,0.32 0.039,0.277 c -0.055,0.375 -0.188,0.75 -0.403,1.122 0.668,0.293 1.551,0.785 2.641,1.48 1.254,0.773 1.629,1.121 1.121,1.039 l -0.078,0.563 0.797,0.16 0.242,-0.242 c 0.504,0.507 0.918,1.027 1.238,1.562 0.11,-0.457 0.348,-1.16 0.723,-2.121 0.344,-0.855 0.613,-1.469 0.797,-1.84 1.043,2.348 1.558,4.746 1.558,7.199 z M 195.32,1.918 193.4,1.758 c 0.27,0.402 0.524,1.043 0.762,1.922 0.215,0.906 0.332,1.773 0.36,2.598 0.054,1.363 0.082,2.8 0.082,4.32 l 0.199,0.203 c 0.531,-0.91 0.867,-1.309 1,-1.203 l 0.32,-0.879 0.078,-0.602 c 0.055,-2.132 0.188,-3.48 0.403,-4.039 -0.028,0.266 0.503,1.321 1.597,3.161 0.426,-0.536 0.653,-0.801 0.68,-0.801 V 3.68 c -0.05,-0.055 -0.12,-0.094 -0.2,-0.121 l -0.559,-0.32 c -1.2,-0.641 -2.13,-1.079 -2.8,-1.321 z M 134.16,0.68 133.32,0.399 133.12,0.36 132.8,0.321 c 0.238,0.586 0.719,1.636 1.437,3.16 0.297,0.691 0.563,1.437 0.801,2.238 l -0.12,-1.238 c -0.11,-0.723 -0.36,-1.989 -0.76,-3.801 z m 2.238,0.918 c 1.79,0.773 3.043,1.934 3.762,3.48 0.586,1.227 0.762,2.493 0.52,3.801 0.851,-0.078 1.398,0.012 1.64,0.281 0.16,0.161 0.239,0.508 0.239,1.04 0,0.32 -0.012,0.574 -0.039,0.757 l -0.082,0.16 c -0.958,0.083 -4.411,0.375 -10.36,0.883 1.067,0.051 10.055,0.801 26.961,2.239 -0.375,-0.747 -0.734,-2.161 -1.078,-4.239 -0.188,-1.043 -0.336,-2.015 -0.441,-2.922 0,-1.304 0.292,-2.238 0.878,-2.796 0.403,-0.375 1.055,-0.641 1.961,-0.801 l -1.519,0.078 -4.961,0.359 -0.52,0.16 -0.16,0.043 -0.32,0.239 c 0.055,0.109 0.348,0.414 0.883,0.922 0.453,0.425 0.679,0.839 0.679,1.238 0,0.293 -0.027,0.508 -0.082,0.64 -0.078,0.133 -0.117,0.254 -0.117,0.36 -0.269,0.16 -0.668,0.238 -1.203,0.238 -0.56,-0.078 -1.16,-0.277 -1.8,-0.598 -1.25,-0.691 -2.21,-1.734 -2.88,-3.121 l -1.04,-0.078 c -1.758,0 -4.082,-0.386 -6.961,-1.16 -2.558,-0.773 -3.879,-1.176 -3.961,-1.203 z m -10.4,6.043 c 0.398,0.586 0.68,1.172 0.84,1.758 0.586,1.254 0.906,1.867 0.961,1.84 1.011,2 1.867,3.187 2.558,3.562 l 0.2,-0.121 c 0.132,-0.16 0.214,-0.414 0.242,-0.762 0,-0.027 -0.403,-1.066 -1.199,-3.117 -0.536,-1.387 -0.801,-2.949 -0.801,-4.684 -0.563,-2.878 -1.176,-4.89 -1.84,-6.039 -0.988,0.11 -2.469,0.426 -4.441,0.961 l 0.039,0.039 0.8,0.922 c 0.719,1.547 1.442,3.106 2.161,4.68 0.16,0.348 0.32,0.664 0.48,0.961 z M 96.197,33 c -0.531,-3.015 -0.801,-5.148 -0.801,-6.402 0,-0.184 0.067,-1.066 0.204,-2.641 0.105,-1.437 0.144,-2.332 0.117,-2.679 -0.934,-1.918 -3.879,-4.465 -8.84,-7.641 0.187,0.719 0.773,1.84 1.762,3.363 1.707,2.586 2.679,4.067 2.918,4.438 2.48,4.187 3.402,7.894 2.761,11.121 -0.293,1.519 0.305,3.598 1.801,6.238 1.52,2.719 3.199,4.574 5.039,5.559 h -0.398 c -2,0.269 -5.242,-0.918 -9.723,-3.559 -5.25,-3.094 -8.586,-4.824 -10,-5.199 3.949,3.172 8.84,6.934 14.68,11.281 4.187,3.117 10.109,7.918 17.761,14.399 l 0.442,0.879 c 0.133,-0.321 0.746,-1.36 1.84,-3.118 1.066,-1.734 1.691,-2.722 1.879,-2.961 l -1.161,-0.562 -4.64,3.601 c -0.133,-0.746 -0.199,-1.332 -0.199,-1.761 l 0.519,-1.598 c 0.375,-1.121 0.641,-1.828 0.801,-2.121 l -0.762,-0.398 -1.797,-1 c -0.668,-0.719 -2.828,-3.586 -6.48,-8.598 -3.36,-4.668 -6.121,-8.016 -8.281,-10.043 L 95.961,33.2 96.199,33 Z M 46.639,5.399 c 0.691,0.453 1.773,0.652 3.238,0.601 0.746,0.024 1.68,-0.043 2.801,-0.199 0.718,0.051 1.082,0.68 1.082,1.879 0,1.254 -0.094,2.398 -0.282,3.437 0.719,0 1.332,-0.449 1.84,-1.359 0.481,-0.879 0.719,-1.957 0.719,-3.238 L 56.158,5.078 C 52.639,5.133 49.463,5.239 46.639,5.399 Z M 11.717,26.801 c 1.121,-0.269 2.242,-0.496 3.359,-0.684 -1.144,-2.238 -2.117,-4.304 -2.918,-6.199 -0.293,3.469 -0.441,5.762 -0.441,6.883 z m -1.16,-16.043 h 0.121 c 0.64,0 1.187,0.176 1.64,0.52 0.508,0.242 1.239,0.91 2.2,2 1.199,1.336 1.867,2.535 2,3.601 l 0.199,1.039 c 0.32,-1.066 0.535,-2.679 0.64,-4.84 l 0.121,-2.238 0.04,-1.16 z M 31.318,7.52 c 0.106,2 0.188,3.172 0.239,3.519 0.082,0.453 0.336,1.215 0.761,2.282 l 0.2,-0.52 c 0,-0.055 0.214,-1.215 0.64,-3.48 0.188,-1.067 0.414,-1.817 0.68,-2.243 L 33.076,7.039 h -1.078 z m -4.441,1.558 1.043,2.762 0.359,-0.519 c 0.266,-0.774 0.414,-1.469 0.438,-2.082 L 28.396,9.438 28.357,9.399 Z M 8.119,11.52 8.557,11.078 C 7.119,11.321 6.01,11.813 5.236,12.559 5.373,12.774 5.623,13.586 5.998,15 6.373,16.36 6.572,17.16 6.6,17.399 6.705,17.133 6.959,16.145 7.357,14.442 7.732,12.785 7.986,11.813 8.119,11.52 Z m 114.36,46.961 -1.16,-0.563 c -0.531,1.227 -1.574,2.68 -3.121,4.36 -1.492,1.629 -2.652,2.601 -3.476,2.922 l 0.078,5.039 c 1.945,-2.532 3.375,-4.321 4.281,-5.36 0.133,-0.215 1.266,-2.347 3.398,-6.398 z m 78.36,-43.922 3.961,1.601 0.121,-1.519 -3.043,0.039 z m -171.4,8.32 c -0.375,-1.707 -0.629,-3.066 -0.761,-4.078 -0.16,-1.254 -0.254,-2.988 -0.282,-5.203 l -0.039,1.242 c -0.16,1.438 -0.464,3.414 -0.918,5.918 -0.613,3.199 -1,5.309 -1.16,6.32 0.453,0.133 4.625,1.321 12.52,3.559 C 35.49,28.77 33.623,27.731 33.197,27.52 33.037,27.41 32.463,27.051 31.478,26.438 L 30.439,26 C 30.143,25.891 29.92,25.399 29.76,24.516 29.678,24.067 29.623,23.637 29.6,23.239 V 23.2 Z m 23,1.399 c -0.695,-0.692 -1.136,-1.133 -1.32,-1.321 -0.242,-0.211 -0.519,-0.316 -0.84,-0.316 -0.562,-0.027 -1.16,0.027 -1.801,0.16 -1.253,0.293 -2.175,0.824 -2.761,1.598 l 0.722,0.281 z m 8.68,-9.36 c 0.051,-0.265 0.133,-0.664 0.238,-1.199 0.106,-0.48 0.055,-0.894 -0.16,-1.238 -0.027,0.879 -0.054,1.691 -0.078,2.437 z M 67.799,29 c -1.336,-2.668 -2.613,-4.91 -3.84,-6.722 -1.789,-2.614 -2.75,-4.719 -2.883,-6.321 -0.051,1.629 -0.09,2.883 -0.117,3.762 -0.106,2.453 -0.734,4.16 -1.883,5.121 0.883,-0.027 2.469,0.586 4.762,1.84 1.199,0.664 2.519,1.437 3.961,2.32 z m 14.879,-7.082 c 0,-2.586 -0.387,-4.16 -1.16,-4.718 -0.641,-0.481 -2.387,-0.719 -5.239,-0.719 -0.508,0 -1,0.121 -1.48,0.359 L 75.6,17 c 4.05,0.266 5.839,3.614 5.359,10.039 1.144,-1.601 1.719,-3.308 1.719,-5.121 z"
         style="fill:#635b52;fill-rule:evenodd"
         id="path18" /><path
         d="M 203.44,6.321 202.761,5.879 198.878,3.68 v 2.758 c -0.027,0 -0.254,0.269 -0.68,0.801 -1.094,-1.84 -1.625,-2.895 -1.601,-3.161 -0.211,0.563 -0.344,1.907 -0.399,4.039 0.293,-0.585 0.774,-0.929 1.442,-1.039 0,0.188 0.05,0.508 0.16,0.961 0.078,0.453 0.117,0.828 0.117,1.118 0,0.8 -0.078,1.628 -0.238,2.484 -0.426,0.238 -0.856,0.398 -1.282,0.476 -0.132,-0.746 -0.16,-1.718 -0.078,-2.917 0.078,-1.122 0.012,-1.282 -0.203,-0.481 l -0.32,0.883 c -0.133,-0.11 -0.465,0.289 -1,1.199 l -0.199,-0.199 -0.039,1.199 -0.161,0.481 c 0.055,0.16 -0.054,0.359 -0.32,0.597 -0.371,0.321 -0.68,0.602 -0.918,0.84 -2.133,1.496 -3.254,2.281 -3.359,2.359 l 1,-0.078 c 1.011,-0.027 1.945,-0.347 2.797,-0.961 0.429,-0.293 0.761,-0.597 1,-0.918 0.242,-0.507 0.535,-1 0.882,-1.48 1.758,0.586 3.239,1.105 4.442,1.559 0.824,0.105 1.476,0.265 1.957,0.48 l 3.043,-0.039 -0.121,1.519 -0.199,1.118 c -0.243,0.828 -0.524,1.656 -0.84,2.48 1.117,0 2.09,-0.57 2.918,-1.719 l 0.558,-0.8 c 0.215,-0.372 0.348,-0.747 0.403,-1.118 l -0.043,-0.281 -0.52,-0.32 c -0.531,0.801 -1.023,1.508 -1.48,2.121 l -0.399,0.519 c 0.078,-1.601 -0.011,-2.64 -0.281,-3.121 l 0.359,0.082 c 0.215,0 0.321,-0.16 0.321,-0.48 0,-0.32 0.254,-0.453 0.761,-0.402 0.293,0.054 0.786,0.132 1.481,0.242 -2.531,-4.614 -4,-7.336 -4.399,-8.16 z M 192.4,1.68 189.32,1.52 c 0.106,0.082 0.614,0.492 1.52,1.238 1.148,0.961 2.371,2.133 3.68,3.52 -0.028,-0.825 -0.149,-1.692 -0.36,-2.598 -0.238,-0.879 -0.492,-1.52 -0.762,-1.922 l -1,-0.078 z m -7.72,-0.199 c 0,1.625 0.16,3.011 0.48,4.16 0.32,1.172 0.707,1.758 1.16,1.758 0.453,0 0.84,-0.586 1.16,-1.758 0.321,-1.149 0.465,-2.535 0.442,-4.16 z m -8.84,0.437 c 0,0.801 0.066,1.481 0.199,2.039 0.133,0.563 0.309,0.934 0.52,1.121 0.214,0.188 0.414,0.149 0.601,-0.121 0.188,-0.265 0.348,-0.718 0.481,-1.355 0.105,-0.617 0.148,-1.215 0.121,-1.801 z m -48.602,11.801 c 0.508,0.668 1.668,1.668 3.485,3 1.652,1.227 2.89,2.055 3.718,2.481 l -0.281,-0.598 c -0.719,-0.535 -1.226,-1.254 -1.519,-2.16 -0.133,-0.403 -0.282,-1.188 -0.442,-2.364 L 132.079,12 c 5.949,-0.508 9.402,-0.8 10.363,-0.883 l 0.079,-0.16 c 0.027,-0.183 0.042,-0.437 0.042,-0.757 0,-0.532 -0.082,-0.879 -0.242,-1.04 -0.242,-0.269 -0.785,-0.359 -1.64,-0.281 0.242,-1.308 0.066,-2.574 -0.52,-3.801 -0.719,-1.546 -1.972,-2.707 -3.758,-3.48 l -2.24,-0.918 c 0.402,1.812 0.652,3.078 0.762,3.801 l 0.117,1.238 c -0.24,-0.801 -0.5,-1.547 -0.8,-2.238 -0.72,-1.524 -1.2,-2.574 -1.44,-3.16 l -0.24,-0.082 -0.6,-0.122 c -0.48,-0.05 -1.29,-0.089 -2.44,-0.117 -1.172,0 -2.028,0.028 -2.559,0.078 0.664,1.149 1.277,3.161 1.84,6.043 0,1.731 0.265,3.293 0.801,4.68 0.796,2.051 1.199,3.094 1.199,3.117 -0.028,0.348 -0.11,0.602 -0.242,0.762 l -0.2,0.121 c -0.691,-0.375 -1.547,-1.562 -2.558,-3.562 -0.055,0.027 -0.375,-0.586 -0.961,-1.84 0.055,0.293 0.082,0.586 0.082,0.883 0,0.453 -0.176,0.773 -0.52,0.957 -0.507,0.269 -0.933,0.75 -1.281,1.441 0.453,-0.188 1.027,-0.375 1.719,-0.559 -0.028,0.45 0.109,0.985 0.402,1.598 h -0.004 z m 51.801,-4.121 c -2.078,-0.453 -3.437,-0.68 -4.078,-0.68 -2.586,0 -4.883,0.586 -6.883,1.762 -2.023,1.172 -3.84,1.758 -5.437,1.758 -0.375,0 -0.774,-0.531 -1.203,-1.598 -0.344,-0.91 -0.516,-1.484 -0.516,-1.723 0,-0.773 0.68,-1.574 2.039,-2.398 1.519,-0.961 2.453,-1.949 2.801,-2.961 -0.11,-0.32 -0.309,-0.508 -0.602,-0.558 -0.293,-0.083 -0.707,-0.122 -1.238,-0.122 l -2.684,0.243 c -0.293,0.05 -0.586,0.105 -0.879,0.16 -0.906,0.16 -1.558,0.426 -1.961,0.797 -0.586,0.562 -0.878,1.496 -0.878,2.8 0.105,0.907 0.253,1.879 0.441,2.922 0.344,2.078 0.703,3.492 1.078,4.239 1.094,-0.028 4.652,-0.786 10.68,-2.282 3.043,-0.769 6.148,-1.558 9.32,-2.359 z m -25.68,-5.52 0.481,-0.16 -4.117,0.082 -1.364,0.039 c 0.668,1.387 1.629,2.426 2.883,3.121 0.637,0.321 1.238,0.52 1.797,0.598 0.535,0 0.934,-0.078 1.203,-0.238 0,-0.106 0.039,-0.227 0.117,-0.36 0.055,-0.132 0.082,-0.347 0.082,-0.64 0,-0.403 -0.226,-0.813 -0.679,-1.242 -0.535,-0.504 -0.828,-0.813 -0.883,-0.918 l 0.32,-0.243 z m -41.88,21.039 c 2.082,-0.929 4.215,-2.679 6.399,-5.238 2.961,-3.465 4.668,-5.398 5.121,-5.801 -0.879,0.293 -1.426,0.454 -1.641,0.481 -0.105,0.16 -0.453,0.148 -1.039,-0.039 -0.265,0.133 -1.32,1.359 -3.16,3.68 -2.535,3.171 -4.426,5.48 -5.68,6.917 z m 14.52,-17.476 c -0.16,-0.297 -0.32,-0.617 -0.48,-0.961 -0.72,-1.574 -1.44,-3.133 -2.16,-4.68 l -0.8,-0.922 -0.039,-0.039 -4.399,1.239 c -0.586,0.8 -1.414,1.668 -2.48,2.601 1.652,-0.293 3.226,-0.441 4.718,-0.441 1.735,0 3.293,0.707 4.68,2.121 0.375,0.375 0.695,0.734 0.961,1.082 z m -17.641,4.719 c 1.442,0 2.68,0.359 3.719,1.082 1.016,0.718 1.52,1.597 1.52,2.636 l 0.043,-0.039 0.078,-0.082 c 0.109,-1.066 0.121,-2.476 0.043,-4.238 -0.055,-1.762 -0.176,-3.172 -0.364,-4.238 -0.023,0.183 -0.25,0.519 -0.679,1 -0.797,0.933 -2.281,2.226 -4.438,3.879 z M 67.799,29 c 1.547,0.825 4.293,1.934 8.238,3.317 2.43,0.855 4.094,1.949 5,3.281 1.414,0.375 4.75,2.109 10,5.203 4.481,2.637 7.723,3.824 9.723,3.559 h 0.398 C 99.318,43.371 97.639,41.52 96.119,38.801 94.623,36.16 94.025,34.078 94.318,32.559 94.959,29.332 94.037,25.625 91.557,21.442 91.318,21.067 90.346,19.586 88.639,17 87.65,15.481 87.064,14.36 86.877,13.641 84.799,12.653 82.865,11.852 81.076,11.239 76.119,9.532 73.318,8.559 72.678,8.321 l -1.16,0.398 0.199,-0.758 C 71.693,7.879 71.037,7.614 69.76,7.16 68.584,6.735 67.853,6.481 67.557,6.403 65.986,5.813 64.732,5.426 63.799,5.242 62.33,4.973 59.783,4.922 56.158,5.082 L 56.037,6.52 c 2.16,0.402 3.496,2.039 4,4.922 0.348,2.105 0.281,3.961 -0.199,5.558 0.375,1.332 0.426,2.758 0.16,4.282 -0.293,1.734 -0.945,2.851 -1.961,3.359 l 1.039,0.199 c 1.149,-0.961 1.777,-2.668 1.883,-5.121 0.027,-0.879 0.066,-2.133 0.117,-3.758 0.137,1.598 1.094,3.707 2.883,6.321 1.227,1.812 2.504,4.05 3.84,6.718 z m 4.64,-9.961 c 1.946,0.133 3.211,0.493 3.797,1.078 1.84,1.84 3.309,4.43 4.403,7.762 -2,1.227 -4.879,0.613 -8.641,-1.84 -3.52,-2.293 -5.281,-4.066 -5.281,-5.32 0,-0.531 0.562,-1.48 1.679,-2.84 0.723,0.641 2.067,1.028 4.043,1.16 z M 65.236,16.68 c -0.316,0 -0.586,-0.094 -0.797,-0.281 -0.242,-0.16 -0.363,-0.36 -0.363,-0.598 0,-0.242 0.121,-0.457 0.363,-0.644 0.211,-0.157 0.481,-0.239 0.797,-0.239 0.321,0 0.602,0.082 0.84,0.239 0.215,0.187 0.32,0.402 0.32,0.644 0,0.238 -0.105,0.438 -0.32,0.598 -0.238,0.187 -0.519,0.281 -0.84,0.281 z m -4.117,-1.762 c 0.024,-0.746 0.051,-1.558 0.078,-2.437 0.215,0.344 0.266,0.758 0.16,1.238 -0.105,0.535 -0.187,0.934 -0.238,1.199 z M 31.318,7.52 28.717,9.239 c -0.024,0.613 -0.172,1.308 -0.438,2.082 L 27.92,11.84 26.877,9.078 25.396,8.957 c 0.27,0.535 0.762,1.348 1.481,2.442 0.586,1.043 0.883,2.082 0.883,3.121 0,1.574 -0.602,3.465 -1.801,5.68 -1.254,2.32 -2.668,4.054 -4.242,5.199 l -0.239,0.16 -0.519,0.281 c 0.879,0 2.652,0.414 5.32,1.238 0.16,-1.011 0.547,-3.121 1.16,-6.32 0.454,-2.504 0.758,-4.48 0.918,-5.918 l 0.039,-1.238 c 0.028,2.211 0.122,3.945 0.282,5.199 0.132,1.012 0.386,2.371 0.761,4.078 -0.054,-1.199 -0.253,-3.199 -0.601,-6 0,-2.531 0.082,-4.078 0.238,-4.64 0.16,-0.614 0.617,-0.918 1.363,-0.918 0.532,0 0.957,0.398 1.278,1.199 0.269,0.613 0.656,1.988 1.16,4.121 0.027,-0.27 0.016,-1.629 -0.039,-4.082 0,-2.746 1.441,-4.399 4.32,-4.957 0.879,-0.188 2.332,-0.414 4.36,-0.684 1.921,-0.316 3.546,-0.812 4.878,-1.48 l -1.117,0.043 c -3.226,0.32 -5.894,0.664 -8,1.039 C 35.76,6.813 34.943,6.973 34.838,7 H 34.6 l -0.762,0.078 c -0.266,0.426 -0.492,1.176 -0.68,2.243 -0.426,2.265 -0.64,3.425 -0.64,3.48 l -0.2,0.52 C 31.893,12.254 31.639,11.492 31.557,11.039 31.506,10.692 31.424,9.52 31.318,7.52 Z m -13.84,3.32 -0.121,2.238 0.321,0.481 v -0.84 c -0.028,-0.691 -0.094,-1.32 -0.2,-1.879 z M 10.557,10.758 8.6,11.078 8.119,11.52 C 7.986,11.813 7.732,12.785 7.357,14.438 6.959,16.145 6.705,17.133 6.6,17.399 6.572,17.16 6.373,16.36 5.998,15 5.623,13.586 5.373,12.774 5.236,12.559 c -2.398,1.894 -3.785,3.348 -4.16,4.359 0.641,-0.211 1.402,-0.32 2.281,-0.32 1.121,0 1.879,0.082 2.282,0.242 0.531,0.211 0.972,0.707 1.32,1.481 l 0.359,0.597 C 7.346,16.387 7.865,14.414 8.877,13 c 0.933,-1.332 2.082,-1.906 3.441,-1.718 -0.453,-0.348 -1,-0.524 -1.64,-0.524 z m 1.16,16.043 c 0,-1.121 0.148,-3.414 0.441,-6.883 0.801,1.895 1.774,3.961 2.918,6.199 1.469,-0.183 3.094,-0.277 4.883,-0.277 L 19.76,24.918 c -3.735,-0.851 -5.75,-1.519 -6.043,-2 -0.211,-0.293 -0.481,-2.84 -0.797,-7.64 l -2.563,1 -0.398,0.32 2.16,0.043 c 0.024,-0.137 0.039,0.066 0.039,0.598 0,2.988 -0.254,5.242 -0.762,6.761 C 10.81,25.731 9.799,26.84 8.357,27.317 8.037,27.293 7.81,27.051 7.678,26.598 7.6,26.278 7.545,25.707 7.518,24.879 l -1,1.36 -0.04,-1.719 c -0.292,1.519 -0.906,2.492 -1.839,2.918 -0.961,0.187 -1.536,0.336 -1.719,0.441 -0.348,0.215 -0.684,0.492 -1,0.84 -0.508,0.586 -1.094,1.172 -1.762,1.762 L 1.076,31 C 6.33,28.785 9.877,27.387 11.717,26.801 Z m 201.48,-5 c 0.215,0.449 0.746,1.356 1.602,2.719 0.531,0.824 0.984,1.531 1.359,2.117 l 0.117,-1.598 c 0,-2.453 -0.515,-4.855 -1.558,-7.199 -0.184,0.371 -0.453,0.985 -0.797,1.84 -0.375,0.961 -0.613,1.664 -0.723,2.121 z m -2.277,-1.48 -1.203,1.359 c -0.051,0.051 -0.731,0.48 -2.039,1.277 l -0.922,0.602 c 1.176,-0.078 2.121,-0.32 2.84,-0.719 l 0.562,-0.398 c 0.613,-0.59 1.133,-1.242 1.559,-1.961 l -0.801,-0.16 z m -28.961,-10.883 0.359,0.043 0.879,0.117 c -0.187,-1.199 -0.426,-2.426 -0.719,-3.68 l -0.16,-0.359 c -0.082,1.574 -0.199,2.867 -0.359,3.879 z m 4.359,0.64 -1.718,-1.64 C 183.85,9 183.396,9.387 183.236,9.598 Z M 36.238,25.321 34.121,25.239 34.32,25.36 Z M 46.441,24.68 45.719,24.399 c 0.586,-0.774 1.508,-1.309 2.761,-1.598 0.641,-0.137 1.239,-0.187 1.801,-0.16 0.321,0 0.598,0.105 0.84,0.316 0.184,0.188 0.625,0.629 1.32,1.321 2,0.32 3.414,0.242 4.239,-0.239 0.082,-0.054 0.48,-0.535 1.199,-1.441 -0.504,0.242 -0.867,0.402 -1.078,0.48 -0.321,0.133 -0.656,0.2 -1,0.2 -0.426,0 -0.813,-0.239 -1.16,-0.719 -0.348,-0.481 -0.746,-0.719 -1.2,-0.719 -2.214,0 -4.136,0.293 -5.761,0.879 -3.465,1.254 -5.813,2.039 -7.039,2.359 z m 67.957,38.961 0.122,0.559 0.199,1 c 0.828,-0.321 1.988,-1.293 3.48,-2.922 1.547,-1.68 2.586,-3.133 3.121,-4.36 l -3.679,-1.84 c -0.188,0.243 -0.817,1.227 -1.883,2.961 -1.094,1.762 -1.707,2.801 -1.84,3.121 0.16,0.454 0.32,0.946 0.48,1.481 z m 2.082,-8.121 -3.519,-1.879 c -0.16,0.293 -0.426,1 -0.801,2.117 l -0.519,1.602 c 0,0.425 0.066,1.011 0.199,1.757 z M 90.879,37.16 c -1.574,-1.656 -2.414,-2.535 -2.52,-2.64 -0.32,-0.348 -0.785,-1.094 -1.398,-2.242 -0.723,-1.278 -1.082,-2.172 -1.082,-2.68 0,-0.797 0.32,-1.398 0.961,-1.797 0.398,-0.242 0.762,-0.363 1.082,-0.363 0.504,0 1.223,1.082 2.156,3.242 0.91,2.105 1.602,4.254 2.082,6.437 0.559,1.364 0.133,1.375 -1.281,0.043 z M 86.32,23.559 c -0.16,0.215 -0.347,0.32 -0.558,0.32 -0.215,0 -0.403,-0.105 -0.563,-0.32 -0.16,-0.211 -0.238,-0.481 -0.238,-0.801 0,-0.316 0.078,-0.586 0.238,-0.801 0.16,-0.211 0.348,-0.316 0.563,-0.316 0.211,0 0.398,0.105 0.558,0.316 0.16,0.215 0.239,0.485 0.239,0.801 0,0.32 -0.079,0.586 -0.239,0.801 z m -3.64,-1.641 c 0,1.817 -0.575,3.52 -1.719,5.121 C 81.441,20.614 79.652,17.266 75.602,17 l -0.801,-0.16 c 0.48,-0.242 0.972,-0.359 1.48,-0.359 2.852,0 4.598,0.238 5.239,0.719 0.773,0.558 1.16,2.132 1.16,4.718 z m 24.961,5.641 0.078,0.242 2.961,-1.801 -0.442,-1.043 c -0.613,-0.425 -1.265,-1.211 -1.957,-2.355 -0.613,-1.016 -1.269,-1.656 -1.961,-1.922 -0.293,-0.133 -0.707,-0.133 -1.242,0 l -0.598,0.238 c 0.028,0 0.36,-0.039 1,-0.117 0.559,-0.055 0.84,-0.094 0.84,-0.121 0.559,0.562 0.918,1.109 1.078,1.641 0.297,0.851 0.375,2.597 0.243,5.238 z m -5.68,2.68 0.16,0.242 1.559,-0.68 -0.442,-1.883 -0.117,-0.039 c -0.109,0.375 -0.187,0.68 -0.242,0.922 -0.133,0.453 -0.438,0.93 -0.918,1.438 z M 49.88,6 c 1.254,1.227 2.121,1.957 2.601,2.2 -0.082,1.386 -0.105,3.839 -0.082,7.359 0.028,-0.242 0.387,-1.719 1.082,-4.442 0.188,-1.039 0.282,-2.183 0.282,-3.437 0,-1.203 -0.364,-1.828 -1.082,-1.883 C 51.56,5.957 50.626,6.028 49.88,6 Z"
         style="fill:#7c7367;fill-rule:evenodd"
         id="path20" /><path
         d="m 114.52,64.2 -0.68,-1 c -2.266,-2.668 -7.52,-7.04 -15.762,-13.122 -9.84,-7.253 -16.297,-12.253 -19.359,-15 -0.051,-0.05 -1.321,-0.507 -3.801,-1.359 -2.934,-0.984 -5.719,-2.187 -8.359,-3.602 -1.68,-1.171 -3.387,-2.089 -5.121,-2.757 -3.172,-1.172 -7.477,-1.758 -12.918,-1.758 -0.774,0 -1.493,0.09 -2.161,0.277 -1.761,0.453 -5.441,1.11 -11.039,1.961 1.575,0.828 3.118,1.719 4.641,2.68 1.359,0.883 3.785,2.547 7.277,5 L 46.438,35 C 44.652,33.961 40.613,32.36 34.32,30.2 26.879,27.641 21.598,26.36 18.48,26.36 c -1.976,0 -4.773,0.707 -8.402,2.121 -4.051,1.597 -7.32,2.547 -9.801,2.84 L 0,31.438 c 7.145,5.308 12.641,8.789 16.48,10.441 1.227,0.535 3.161,1.305 5.797,2.321 2.801,1.093 5.75,2.414 8.844,3.96 5.199,2.586 11.426,6.747 18.68,12.481 2.558,2.023 4.613,3.426 6.16,4.199 2.105,1.067 4.293,1.598 6.559,1.598 0.535,0 2.906,-0.199 7.121,-0.598 0.48,0 1.613,0.078 3.398,0.238 1.973,0.188 3.465,0.36 4.481,0.52 -0.082,-0.023 -0.454,-0.293 -1.122,-0.797 -0.691,-0.562 -1.132,-0.934 -1.32,-1.121 0.906,-0.133 1.574,-0.199 2,-0.199 1.043,0 1.949,0.265 2.723,0.797 0.265,0.16 1.172,0.906 2.719,2.242 2.425,0.558 5.773,1.48 10.039,2.758 4.265,1.066 8.734,1.601 13.402,1.601 0.211,0 1.266,-0.16 3.16,-0.48 2.344,-0.375 4.238,-0.758 5.68,-1.16 L 114.719,65.2 Z M 79.801,60.719 c 0.211,0.133 0.32,0.281 0.32,0.441 0,0.161 -0.109,0.293 -0.32,0.399 -0.242,0.133 -0.52,0.199 -0.84,0.199 -0.32,0 -0.586,-0.066 -0.801,-0.199 -0.238,-0.106 -0.359,-0.238 -0.359,-0.399 0,-0.16 0.121,-0.308 0.359,-0.441 0.215,-0.105 0.481,-0.16 0.801,-0.16 0.32,0 0.598,0.055 0.84,0.16 z m 34.597,2.922 c -0.16,-0.535 -0.32,-1.027 -0.476,-1.481 l -0.442,-0.882 c 0.348,0.746 0.653,1.535 0.918,2.363 z m -1.437,-10 3.519,1.879 1.161,0.558 3.679,1.84 1.16,0.563 3.598,1.597 c -4.183,-3.304 -6.547,-5.16 -7.078,-5.558 -1.707,-1.254 -2.949,-1.879 -3.723,-1.879 -0.636,0 -1.664,0.199 -3.078,0.598 z m 94.277,-36.402 -0.558,0.8 4.32,1.719 c 0.508,0.082 0.133,-0.266 -1.121,-1.039 -1.094,-0.691 -1.973,-1.187 -2.641,-1.48 z m -3.476,6.718 c -1.043,0 -2.254,0.121 -3.641,0.364 -1.867,0.347 -3.109,0.812 -3.723,1.398 l 10.403,-0.801 c -0.215,-0.265 -0.668,-0.504 -1.36,-0.718 -0.613,-0.161 -1.175,-0.243 -1.679,-0.243 z m -9.16,-9.84 c 4.21,1.282 7.546,2.336 10,3.161 l 0.199,-1.118 -3.961,-1.601 -0.918,-0.359 c -1.203,-0.454 -2.684,-0.973 -4.442,-1.559 -0.347,0.476 -0.64,0.973 -0.878,1.476 z m -15.56,-4.519 c -3.172,0.801 -6.277,1.586 -9.316,2.359 -6.028,1.496 -9.59,2.254 -10.684,2.282 -16.91,-1.438 -25.89,-2.188 -26.96,-2.239 l 0.121,2.078 c 2.266,0.188 6.801,0.696 13.602,1.52 5.972,0.719 9.437,1.082 10.398,1.082 1.36,0 4.668,-0.867 9.922,-2.602 5.227,-1.707 9.973,-2.558 14.238,-2.558 0.321,0 2.121,0.265 5.403,0.801 3.597,0.586 6.066,1.05 7.398,1.398 0.238,-0.238 0.547,-0.519 0.918,-0.84 0.27,-0.238 0.375,-0.441 0.32,-0.601 -0.05,0 -2.746,-0.731 -8.078,-2.2 l -3.082,-0.48 h -0.039 l -0.879,-0.117 -0.441,-0.043 c -0.934,0 -1.879,0.054 -2.84,0.16 z m 17.16,-1.481 -0.078,0.602 c 0.211,-0.801 0.277,-0.641 0.199,0.481 -0.082,1.199 -0.054,2.171 0.078,2.917 0.43,-0.078 0.856,-0.238 1.282,-0.476 0.16,-0.856 0.242,-1.684 0.242,-2.484 0,-0.29 -0.043,-0.665 -0.121,-1.118 -0.106,-0.453 -0.16,-0.773 -0.16,-0.961 -0.668,0.11 -1.149,0.454 -1.442,1.039 z m -19.078,31.442 c 1.067,0 2.52,0.281 4.359,0.84 -1.468,-0.719 -2.335,-1.121 -2.601,-1.199 -1.172,-0.348 -2.188,-0.243 -3.039,0.32 0.027,0.027 0.453,0.039 1.281,0.039 z m 0.117,-6.121 c 0.989,0.64 2.137,1.269 3.442,1.883 l 1.043,-0.282 c -0.137,-0.453 -0.336,-0.882 -0.602,-1.281 -0.48,-0.773 -1.121,-1.16 -1.922,-1.16 -0.453,0 -0.879,0.082 -1.277,0.242 -0.453,0.16 -0.68,0.36 -0.68,0.598 z m -40.72,19.363 c 0.64,-0.562 0.96,-1 0.96,-1.32 0,-0.723 -0.347,-1.348 -1.042,-1.883 -0.719,-0.559 -1.626,-0.84 -2.719,-0.84 -3.332,1.414 -5.293,2.547 -5.879,3.402 0.586,0.399 2.824,0.918 6.719,1.559 0.453,0 0.773,-0.066 0.961,-0.199 0.027,-0.028 0.359,-0.266 1,-0.719 z m 9.199,-7.363 v -1 h -3.52 v 1 z m -11,-9.199 c 0.883,0.668 1.961,1 3.242,1 1.277,0 2.371,-0.332 3.277,-1 0.883,-0.668 1.321,-1.481 1.321,-2.438 0,-0.961 -0.438,-1.777 -1.321,-2.441 -0.906,-0.668 -2,-1 -3.277,-1 -1.281,0 -2.359,0.332 -3.242,1 -0.907,0.664 -1.36,1.48 -1.36,2.441 0,0.957 0.453,1.77 1.36,2.438 z m 10.2,-1.719 1.08,-0.242 c 0.719,-0.184 1.078,-0.411 1.078,-0.68 -0.051,-0.184 -0.344,-0.281 -0.879,-0.281 l -0.801,0.082 c -0.24,0.16 -0.4,0.359 -0.48,0.601 v 0.52 z m 36.84,-9.84 c -0.028,-0.027 -1.137,-0.695 -3.321,-2 -1.203,-0.109 -2,-0.039 -2.402,0.199 -0.238,0.106 -0.398,0.375 -0.48,0.801 0.269,0.641 0.64,1.051 1.121,1.238 0.828,0.321 2.691,0.586 5.597,0.801 l -0.519,-1.039 z m 8.758,-6.359 c -0.532,-0.536 -0.829,-0.817 -0.879,-0.84 -0.403,-0.293 -0.883,-0.442 -1.442,-0.442 -0.508,0 -1.187,0.188 -2.039,0.559 0.106,0.215 1.652,0.883 4.641,2 0,-0.16 -0.094,-0.586 -0.281,-1.277 z m -25,-7.403 c 0.558,-0.371 2.679,-1.039 6.359,-2 -2.957,0.348 -4.707,0.52 -5.238,0.52 l -3.602,-1 -0.199,-0.039 c 0.348,1.359 0.547,2.148 0.598,2.359 0.082,0.215 0.601,0.32 1.562,0.32 0.215,0 0.387,-0.05 0.52,-0.16 z m 25.32,-3.359 c -0.188,-0.215 -0.399,-0.32 -0.641,-0.32 -0.238,0 -0.437,0.105 -0.597,0.32 -0.188,0.215 -0.282,0.48 -0.282,0.801 0,0.32 0.094,0.586 0.282,0.8 0.16,0.211 0.359,0.321 0.597,0.321 0.242,0 0.453,-0.11 0.641,-0.321 0.16,-0.214 0.238,-0.48 0.238,-0.8 0,-0.321 -0.078,-0.586 -0.238,-0.801 z m -169.92,18.281 0.558,-0.281 0.239,-0.16 C 21.691,25.157 21.543,24.426 21.277,23.2 20.984,22 20.781,21.239 20.676,20.918 c -0.239,0.375 -0.442,0.785 -0.602,1.239 -0.293,0.828 -0.398,1.75 -0.316,2.761 l 0.199,0.922 z m 8.68,-2.601 c 0.023,0.402 0.078,0.828 0.16,1.281 0.16,0.879 0.383,1.371 0.679,1.48 -0.429,-0.613 -0.707,-1.535 -0.839,-2.761 z m 4.718,2.121 -0.199,-0.121 c -0.613,-0.747 -1.336,-2.266 -2.16,-4.559 -0.828,-2.32 -1.453,-4.574 -1.883,-6.762 -0.344,1.121 -0.598,2.547 -0.758,4.282 0.508,1.839 0.946,3.281 1.321,4.32 0.664,1.918 1.347,2.879 2.039,2.879 z m 77.16,-0.243 c -0.402,-2.503 -0.757,-5.144 -1.082,-7.917 -0.293,-1.493 -1.011,-2.243 -2.16,-2.243 -0.558,0 -0.933,0.254 -1.117,0.762 -0.055,0.188 -0.082,0.469 -0.082,0.84 0,0.508 0.496,1.973 1.481,4.398 0.8,1.977 1.375,3.309 1.718,4 l 0.442,1.043 -2.961,1.801 -0.078,-0.242 c -0.028,-0.481 -0.2,-1.012 -0.52,-1.602 -0.293,-0.558 -0.562,-0.89 -0.801,-1 h -0.281 l 0.242,3.602 0.481,-0.238 -0.684,0.359 -0.039,-0.039 c -0.32,-1.016 -0.812,-2.227 -1.48,-3.641 -0.774,-1.547 -1.36,-2.496 -1.758,-2.843 l -0.563,-0.477 c 0.082,0.344 0.254,1.277 0.524,2.797 0.293,1.734 0.449,2.883 0.476,3.441 l 0.442,1.883 -1.559,0.68 -0.16,-0.242 c -1.949,-3.122 -3.039,-4.918 -3.281,-5.399 -0.215,-0.453 -0.453,-1.242 -0.719,-2.359 0.211,4.344 0.414,7.453 0.598,9.32 l -1.797,0.84 c -0.11,0.078 -0.215,0.144 -0.321,0.199 -0.187,0.133 -0.347,0.25 -0.48,0.36 l -0.32,0.398 c 2.16,2.027 4.918,5.375 8.281,10.043 3.652,5.012 5.812,7.879 6.476,8.598 -0.531,-1.493 -1.785,-3.664 -3.757,-6.52 -2.801,-4.078 -4.879,-7.281 -6.243,-9.602 7.735,-3.011 13.414,-7.398 17.043,-13.16 2.051,-3.222 3.305,-5.09 3.758,-5.597 1.547,-1.758 3.563,-2.973 6.039,-3.641 -0.293,-0.613 -0.426,-1.148 -0.398,-1.602 -0.692,0.188 -1.266,0.375 -1.719,0.563 l -2.12,1.398 c -0.453,0.403 -2.16,2.336 -5.121,5.801 -2.188,2.559 -4.32,4.309 -6.399,5.238 z m -1.48,41.961 c 0,0.215 -0.121,0.387 -0.359,0.52 -0.243,0.16 -0.536,0.242 -0.879,0.242 -0.348,0 -0.641,-0.082 -0.883,-0.242 -0.238,-0.133 -0.359,-0.305 -0.359,-0.52 0,-0.211 0.121,-0.398 0.359,-0.558 0.242,-0.133 0.535,-0.199 0.883,-0.199 0.343,0 0.636,0.066 0.879,0.199 0.238,0.16 0.359,0.347 0.359,0.558 z m -4.602,1.723 v 1.277 h -3.398 v -1.277 z m -3.88,-10.363 c -0.133,1.121 -0.735,1.375 -1.801,0.762 -0.774,-0.426 -1.625,-1.176 -2.559,-2.243 0.559,-0.132 1,-0.199 1.32,-0.199 1.012,0 1.786,0.242 2.321,0.723 0.265,0.238 0.504,0.558 0.719,0.957 z m 16.441,-16.16 c 0.371,-0.161 0.559,-0.36 0.559,-0.598 0,-0.242 -0.188,-0.453 -0.559,-0.641 -0.375,-0.16 -0.816,-0.238 -1.32,-0.238 -0.508,0 -0.95,0.078 -1.321,0.238 -0.375,0.188 -0.558,0.399 -0.558,0.641 0,0.238 0.183,0.437 0.558,0.598 0.375,0.187 0.813,0.281 1.321,0.281 0.507,0 0.945,-0.094 1.32,-0.281 z M 91.354,66.481 c 0.161,0.16 0.243,0.359 0.243,0.597 0,0.243 -0.082,0.442 -0.243,0.602 -0.16,0.16 -0.359,0.238 -0.597,0.238 -0.242,0 -0.442,-0.078 -0.602,-0.238 -0.16,-0.16 -0.238,-0.359 -0.238,-0.602 0,-0.238 0.078,-0.437 0.238,-0.597 0.16,-0.16 0.36,-0.242 0.602,-0.242 0.238,0 0.437,0.082 0.597,0.242 z m -7.32,0.797 c -0.426,-0.161 -0.641,-0.36 -0.641,-0.598 0,-0.348 0.067,-0.563 0.204,-0.641 l 0.796,-0.16 c 0.563,0 1.161,0.145 1.801,0.442 0.266,0.132 1.535,0.812 3.801,2.039 -3.094,-0.426 -5.078,-0.785 -5.961,-1.082 z M 88.315,57.2 c -0.242,0.16 -0.519,0.238 -0.84,0.238 -0.32,0 -0.601,-0.078 -0.839,-0.238 -0.243,-0.133 -0.36,-0.293 -0.36,-0.481 0,-0.187 0.117,-0.359 0.36,-0.519 0.238,-0.133 0.519,-0.2 0.839,-0.2 0.321,0 0.598,0.067 0.84,0.2 0.239,0.16 0.36,0.332 0.36,0.519 0,0.188 -0.121,0.348 -0.36,0.481 z m -2.281,1.039 -0.039,1.082 c -1.707,-1.547 -2.602,-2.442 -2.68,-2.68 0.266,-0.16 0.426,-0.254 0.481,-0.281 0.187,-0.055 0.453,-0.082 0.801,-0.082 0.476,0 0.824,0.121 1.039,0.363 0.265,0.293 0.398,0.824 0.398,1.598 z m -4.559,2.16 c 0,0.293 -0.066,0.535 -0.199,0.718 -0.16,0.215 -0.336,0.321 -0.519,0.321 -0.188,0 -0.348,-0.106 -0.481,-0.321 -0.16,-0.183 -0.242,-0.425 -0.242,-0.718 0,-0.293 0.082,-0.547 0.242,-0.758 0.133,-0.188 0.293,-0.281 0.481,-0.281 0.183,0 0.359,0.093 0.519,0.281 0.133,0.211 0.199,0.465 0.199,0.758 z M 72.956,42.16 c 0.32,0.024 0.437,0.012 0.359,-0.043 -0.132,-0.078 -0.359,-0.292 -0.679,-0.636 0.027,-0.27 0.414,-0.403 1.16,-0.403 0.238,0 0.519,0.055 0.84,0.161 0.48,0.16 0.8,0.402 0.961,0.718 l -1.84,0.481 c 0.211,-0.028 0.293,0.137 0.238,0.48 -0.188,0.348 -0.281,0.563 -0.281,0.641 l -2.117,-0.52 0.078,-0.441 c 0.293,-0.293 0.718,-0.438 1.281,-0.438 z m -7.039,5.079 c -0.32,-0.188 -0.496,-0.348 -0.524,-0.481 0.082,-0.293 0.481,-0.437 1.204,-0.437 1.359,0 2.359,0.093 3,0.277 1.144,0.32 1.812,1 2,2.043 -1.067,-0.27 -2.043,-0.551 -2.922,-0.84 -0.481,-0.16 -0.907,-0.242 -1.282,-0.242 0.696,0.105 1.442,0.601 2.243,1.48 0.691,0.746 1.078,1.321 1.16,1.719 h -3.481 c -1.492,-0.133 -2.695,-0.465 -3.601,-1 -0.824,-0.504 -1.239,-1.051 -1.239,-1.641 0,-0.316 0.067,-0.519 0.2,-0.597 0.132,-0.106 0.199,-0.172 0.199,-0.199 1.066,-0.137 2.082,-0.161 3.043,-0.082 z m 0.879,-2.079 c -0.055,0.133 -0.149,0.239 -0.281,0.321 -0.239,0.16 -0.52,0.238 -0.84,0.238 -0.321,0 -0.586,-0.078 -0.801,-0.238 -0.238,-0.137 -0.359,-0.297 -0.359,-0.481 0,-0.187 0.121,-0.359 0.359,-0.519 0.215,-0.137 0.48,-0.203 0.801,-0.203 0.32,0 0.601,0.066 0.84,0.203 0.132,0.105 0.226,0.226 0.281,0.359 0.054,-0.055 0.121,-0.105 0.199,-0.16 0.16,-0.082 0.359,-0.121 0.602,-0.121 0.238,0 0.437,0.039 0.597,0.121 0.16,0.078 0.242,0.187 0.242,0.32 0,0.133 -0.082,0.239 -0.242,0.321 -0.16,0.078 -0.359,0.117 -0.597,0.117 -0.243,0 -0.442,-0.039 -0.602,-0.117 -0.078,-0.055 -0.145,-0.11 -0.199,-0.161 z m -6.321,-9.402 c 0.801,-0.238 1.387,-0.305 1.758,-0.199 0.723,0.187 1.657,0.906 2.801,2.16 0.453,0.293 0.734,0.586 0.84,0.879 0.027,0.055 0.066,0.375 0.121,0.961 -4.879,0.133 -8.508,-0.785 -10.879,-2.758 -1.441,-1.176 -2.16,-2.254 -2.16,-3.242 0,-0.531 0.305,-0.68 0.918,-0.442 0.641,-0.05 1.68,0.227 3.121,0.84 1.305,0.563 2.465,1.16 3.48,1.801 z m 60.879,-21.199 c 0.403,-0.508 0.668,-1.012 0.801,-1.52 0.078,-0.293 0.117,-0.707 0.117,-1.238 0,-1.867 -0.183,-3.121 -0.558,-3.762 -0.348,-0.64 -1.067,-0.961 -2.16,-0.961 -1.172,0 -2.106,0.348 -2.797,1.043 -0.617,0.637 -0.922,1.399 -0.922,2.282 0,0.906 0.586,1.746 1.762,2.515 0.636,0.43 1.546,0.961 2.718,1.602 0.586,0.187 0.934,0.199 1.039,0.039 z m -7.718,1.48 -0.039,0.039 -0.122,3.52 1.598,0.242 0.16,-2.242 c 0,-0.664 -0.09,-1.133 -0.277,-1.398 -0.16,-0.215 -0.481,-0.348 -0.961,-0.399 -0.188,0.133 -0.309,0.211 -0.359,0.238 z m -63.84,39.602 c 0.133,0 0.254,0.023 0.359,0.078 0.106,0.082 0.16,0.172 0.16,0.281 0,0.106 -0.054,0.184 -0.16,0.239 -0.105,0.082 -0.226,0.121 -0.359,0.121 -0.133,0 -0.254,-0.039 -0.36,-0.121 -0.109,-0.055 -0.16,-0.133 -0.16,-0.239 0,-0.109 0.051,-0.199 0.16,-0.281 0.106,-0.055 0.227,-0.078 0.36,-0.078 z m 13.277,7.918 c -0.316,0 -0.691,-0.305 -1.117,-0.918 l -0.52,-0.922 c 1.305,-0.078 2.211,-0.051 2.719,0.082 0.266,0.051 0.707,0.293 1.32,0.719 -1.066,0.691 -1.867,1.039 -2.402,1.039 z M 57.918,57 c -1.149,0 -2.121,-0.215 -2.922,-0.64 -0.828,-0.426 -1.238,-0.95 -1.238,-1.559 -0.188,-0.187 -0.336,-0.414 -0.442,-0.684 0.879,-0.636 1.614,-0.957 2.2,-0.957 0.668,0 1.253,0.25 1.761,0.758 0.481,0.481 1.25,1.563 2.321,3.242 z m -0.242,-3.199 c -0.293,-0.91 -0.453,-1.375 -0.481,-1.402 1.149,-0.106 2,0.105 2.563,0.64 0.426,0.399 1.078,1.426 1.957,3.078 -2.024,-0.558 -3.371,-1.332 -4.039,-2.316 z m -46.2,-17.082 c -0.292,-0.641 -0.492,-1 -0.601,-1.078 l 1,-0.203 c 0.883,0.027 1.613,0.16 2.199,0.402 0.402,0.184 0.641,0.36 0.723,0.52 -1.629,0.691 -2.735,0.812 -3.321,0.359 z m 27.04,6.199 -0.399,-0.48 c -0.828,-0.746 -1.828,-1.227 -3,-1.438 -1.254,-0.215 -1.894,-0.336 -1.922,-0.359 -0.054,-0.027 -0.679,-0.75 -1.879,-2.16 -0.828,-0.934 -1.785,-1.403 -2.879,-1.403 -2.773,0.243 -4.546,0.348 -5.32,0.321 0.133,-0.133 0.305,-0.293 0.52,-0.481 0.16,-0.183 0.238,-0.453 0.238,-0.801 0,-0.05 -0.625,-0.585 -1.879,-1.597 -1.254,-0.988 -1.879,-1.774 -1.879,-2.36 0,-0.132 0.078,-0.519 0.238,-1.16 -0.054,-0.215 -0.214,-0.398 -0.48,-0.558 0.723,0.265 1.574,0.652 2.562,1.16 1.305,0.664 2.879,1.531 4.719,2.598 l -0.121,-0.36 c -1.519,-1.519 -2.414,-2.453 -2.68,-2.801 l 0.36,-0.281 0.043,-0.078 c 0.078,-0.027 0.277,-0.039 0.597,-0.039 0.852,0 3.36,1.41 7.52,4.238 3.976,2.719 6.187,4.414 6.641,5.078 l -0.36,-0.277 c -2.375,-0.723 -3.601,-1.082 -3.68,-1.082 l 0.598,0.242 c 0.43,0.106 0.91,0.664 1.442,1.68 0.425,0.801 0.761,1.597 1,2.398 z M 30.277,43.84 C 29.371,43.598 28.488,43.278 27.637,42.879 25.93,42.051 25.074,41.16 25.074,40.2 c 0,-1.254 0.977,-1.493 2.922,-0.719 1.945,0.773 3.238,1.863 3.879,3.277 -0.531,0.723 -1.067,1.082 -1.598,1.082 z M 6.476,24.52 l 0.04,1.719 1,-1.36 0.601,-1 c 0.371,-0.719 0.559,-1.238 0.559,-1.558 0,-0.75 -0.039,-1.403 -0.121,-1.961 0.16,-0.082 -0.028,-0.121 -0.559,-0.121 -0.48,0 -0.828,0.269 -1.039,0.8 C 6.691,21.68 6.531,22.84 6.476,24.52 Z m 8.161,-9.442 c -0.106,0.082 -0.161,0.293 -0.161,0.641 0.293,0.906 0.532,1.906 0.719,3 0.375,2.133 0.336,3.762 -0.121,4.883 l 1.32,0.238 c -0.105,-5.148 -0.558,-8.121 -1.359,-8.922 -0.184,0.055 -0.32,0.11 -0.398,0.16 z m 39.16,2.84 c 0.664,-0.48 1.199,-1.437 1.597,-2.879 0.43,-1.492 0.59,-3.093 0.481,-4.8 -1.492,1.839 -2.238,3.574 -2.238,5.199 z m -9.879,5.199 h 0.117 c 0.082,-0.078 0.121,-0.277 0.121,-0.597 0,-0.375 -0.148,-0.629 -0.441,-0.762 -0.481,-0.133 -0.934,-0.266 -1.36,-0.398 l -0.398,-0.121 c 0.613,-0.106 1.773,-0.211 3.48,-0.321 l 0.84,-0.078 c -0.402,-0.348 -1.176,-0.574 -2.32,-0.68 -1.973,-0.187 -3.055,-0.308 -3.242,-0.359 -2.797,-0.508 -4.387,-2.094 -4.758,-4.762 l -0.121,-0.718 0.039,2.961 c -0.024,-0.215 -0.371,-1.536 -1.039,-3.961 l -0.199,-0.879 -0.321,-0.602 -0.082,1.84 c 0,1.867 0.375,3.973 1.121,6.32 0.774,2.399 1.481,3.602 2.121,3.602 0.719,0 1.774,-0.043 3.161,-0.121 1.785,-0.11 2.879,-0.227 3.281,-0.364 z"
         style="fill:#b3aa9e;fill-rule:evenodd"
         id="path22" /><path
         d="m 202.76,5.879 0.679,0.442 c 0.051,0.05 0.707,0.359 1.957,0.918 -0.773,-0.372 -1.652,-0.825 -2.636,-1.36 z m -9.364,-4.121 1.922,0.16 c -0.93,-0.105 -1.91,-0.183 -2.92,-0.238 l 1,0.078 z m -4.08,-0.238 -1.4,-0.039 c 0.023,1.625 -0.121,3.011 -0.442,4.16 -0.32,1.172 -0.707,1.758 -1.16,1.758 -0.453,0 -0.84,-0.586 -1.16,-1.758 -0.32,-1.149 -0.48,-2.535 -0.48,-4.16 -2.614,0.078 -4.918,0.183 -6.918,0.32 0.023,0.586 -0.016,1.184 -0.121,1.797 -0.133,0.641 -0.293,1.094 -0.481,1.359 -0.187,0.27 -0.387,0.309 -0.601,0.121 -0.211,-0.187 -0.387,-0.558 -0.52,-1.121 -0.133,-0.558 -0.199,-1.238 -0.199,-2.039 l -11.918,1.16 c 0.531,0 0.945,0.039 1.238,0.122 0.293,0.05 0.492,0.238 0.602,0.558 -0.348,1.016 -1.282,2 -2.801,2.961 -1.359,0.824 -2.039,1.625 -2.039,2.398 0,0.243 0.172,0.817 0.516,1.723 0.429,1.067 0.828,1.598 1.203,1.598 1.597,0 3.414,-0.586 5.437,-1.758 2,-1.176 4.293,-1.762 6.883,-1.762 0.641,0 2,0.227 4.078,0.68 0.961,-0.106 1.906,-0.16 2.84,-0.16 h 0.082 c 0.16,-1.012 0.281,-2.305 0.359,-3.879 l 0.16,0.359 c 0.293,1.254 0.532,2.481 0.719,3.68 h 0.039 c 0.16,-0.211 0.617,-0.598 1.364,-1.16 l 1.718,1.64 c 5.332,1.469 8.028,2.2 8.078,2.2 l 0.161,-0.477 0.043,-1.203 c 0,-1.52 -0.028,-2.957 -0.082,-4.32 -1.309,-1.387 -2.532,-2.559 -3.68,-3.52 -0.906,-0.746 -1.414,-1.16 -1.52,-1.238 z m -56.761,-1.281 0.242,0.082 0.32,0.039 z m 26.281,3.32 1.519,-0.078 c 0.293,-0.055 0.586,-0.11 0.879,-0.16 z m -5,0.359 -0.481,0.16 0.52,-0.16 z m -6.52,0.039 1.039,0.082 1.36,-0.039 c -0.797,0 -1.598,-0.015 -2.399,-0.043 z m -33.718,12.121 c 0,-1.039 -0.508,-1.918 -1.524,-2.64 -1.039,-0.719 -2.277,-1.078 -3.719,-1.078 -0.05,0.027 -2.171,1.48 -6.359,4.359 -3.84,2.613 -5.934,4.133 -6.277,4.559 0.023,0.347 -0.016,1.242 -0.121,2.679 -0.133,1.575 -0.2,2.453 -0.2,2.641 0,1.254 0.266,3.387 0.797,6.402 l 0.242,-0.16 c 0.106,-0.055 0.215,-0.121 0.321,-0.199 l 1.8,-0.84 c -0.187,-1.867 -0.386,-4.976 -0.601,-9.32 0.266,1.117 0.508,1.906 0.719,2.359 0.242,0.481 1.336,2.277 3.281,5.399 0.48,-0.508 0.785,-0.985 0.918,-1.438 0.055,-0.242 0.137,-0.551 0.242,-0.922 l 0.121,0.039 c -0.027,-0.558 -0.187,-1.707 -0.48,-3.437 -0.266,-1.524 -0.442,-2.453 -0.52,-2.801 l 0.559,0.48 c 0.398,0.348 0.988,1.293 1.761,2.84 0.665,1.414 1.161,2.625 1.477,3.641 l 0.043,0.039 0.199,-0.121 -0.242,-3.602 h 0.281 c 0.242,0.11 0.508,0.442 0.801,1 0.32,0.59 0.492,1.121 0.52,1.602 0.132,-2.641 0.054,-4.387 -0.239,-5.238 -0.16,-0.536 -0.523,-1.082 -1.082,-1.641 0,0.027 -0.281,0.066 -0.84,0.121 -0.64,0.078 -0.972,0.117 -1,0.117 l 0.602,-0.238 c 0.531,-0.137 0.945,-0.137 1.238,0 0.696,0.266 1.348,0.906 1.961,1.918 0.692,1.148 1.348,1.934 1.961,2.359 -0.347,-0.691 -0.922,-2.027 -1.722,-4 -0.985,-2.425 -1.481,-3.89 -1.481,-4.398 0,-0.375 0.027,-0.652 0.082,-0.84 0.188,-0.508 0.559,-0.762 1.121,-0.762 1.145,0 1.867,0.746 2.16,2.243 0.321,2.773 0.68,5.414 1.078,7.917 1.254,-1.441 3.149,-3.746 5.68,-6.917 1.84,-2.321 2.895,-3.547 3.16,-3.684 -1.172,-0.637 -2.078,-1.172 -2.718,-1.598 -1.172,-0.773 -1.762,-1.613 -1.762,-2.519 0,-0.883 0.308,-1.641 0.922,-2.282 0.691,-0.691 1.625,-1.039 2.8,-1.039 1.094,0 1.813,0.321 2.161,0.961 0.371,0.637 0.558,1.891 0.558,3.758 0,0.535 -0.039,0.945 -0.121,1.242 -0.133,0.504 -0.398,1.012 -0.797,1.516 0.211,-0.023 0.758,-0.184 1.637,-0.477 l 2.121,-1.398 c 0.348,-0.695 0.774,-1.176 1.281,-1.441 0.348,-0.188 0.52,-0.508 0.52,-0.961 0,-0.293 -0.027,-0.586 -0.082,-0.879 -0.16,-0.586 -0.438,-1.172 -0.84,-1.758 -0.266,-0.348 -0.586,-0.707 -0.961,-1.082 -1.383,-1.414 -2.945,-2.121 -4.68,-2.121 -1.492,0 -3.066,0.148 -4.718,0.441 -0.532,0.535 -1.282,1.399 -2.239,2.602 0.184,1.066 0.305,2.476 0.36,4.238 0.078,1.762 0.066,3.172 -0.039,4.238 l -0.082,0.082 c 0.054,-0.027 0.175,-0.105 0.359,-0.238 0.48,0.051 0.801,0.184 0.961,0.399 0.187,0.265 0.281,0.734 0.281,1.398 l -0.16,2.242 -1.602,-0.242 z M 72.678,8.321 71.717,7.957 71.518,8.719 Z m -7.442,8.359 c 0.321,0 0.602,-0.094 0.84,-0.281 0.215,-0.16 0.32,-0.36 0.32,-0.598 0,-0.242 -0.105,-0.457 -0.32,-0.644 -0.238,-0.157 -0.519,-0.239 -0.84,-0.239 -0.316,0 -0.586,0.082 -0.797,0.239 -0.242,0.187 -0.363,0.402 -0.363,0.644 0,0.238 0.121,0.438 0.363,0.598 0.211,0.187 0.481,0.281 0.797,0.281 z m 7.203,2.359 c -1.972,-0.132 -3.32,-0.519 -4.043,-1.16 -1.117,1.36 -1.679,2.309 -1.679,2.84 0,1.254 1.761,3.027 5.281,5.32 3.762,2.453 6.641,3.067 8.641,1.84 -1.094,-3.332 -2.563,-5.922 -4.403,-7.762 -0.586,-0.585 -1.851,-0.945 -3.797,-1.078 z M 53.478,11.117 c -0.695,2.723 -1.054,4.204 -1.082,4.442 -0.023,-3.52 0,-5.973 0.082,-7.359 C 51.998,7.957 51.131,7.227 49.877,6 48.412,6.051 47.33,5.852 46.639,5.399 l -1.36,0.082 1.117,-0.043 c -1.332,0.668 -2.957,1.16 -4.878,1.48 -2.028,0.27 -3.481,0.496 -4.36,0.684 -2.879,0.558 -4.32,2.211 -4.32,4.957 0.055,2.453 0.066,3.812 0.039,4.082 -0.504,-2.133 -0.891,-3.508 -1.16,-4.121 -0.321,-0.801 -0.746,-1.199 -1.278,-1.199 -0.746,0 -1.203,0.304 -1.363,0.918 -0.156,0.562 -0.238,2.109 -0.238,4.64 0.348,2.801 0.547,4.801 0.601,6 L 29.6,23.2 c -0.028,-0.106 -0.043,-0.227 -0.043,-0.36 -0.028,-0.398 -0.051,-0.867 -0.079,-1.398 l -0.32,-3.961 0.16,0.719 c 0.16,-1.735 0.414,-3.161 0.758,-4.282 0.43,2.188 1.055,4.442 1.883,6.762 0.824,2.293 1.547,3.812 2.16,4.559 l 2.117,0.078 4.403,-0.239 c 1.226,-0.32 3.574,-1.105 7.039,-2.359 1.625,-0.586 3.547,-0.879 5.761,-0.879 0.454,0 0.852,0.238 1.2,0.719 0.347,0.48 0.734,0.719 1.16,0.719 0.344,0 0.679,-0.067 1,-0.2 0.211,-0.082 0.574,-0.242 1.078,-0.48 0.215,-0.293 0.519,-1.453 0.922,-3.481 l 0.039,-0.519 c 0.293,-4.242 0.453,-7.043 0.48,-8.398 0.106,3.011 0.282,5.277 0.52,6.796 0.48,-1.597 0.547,-3.453 0.199,-5.558 -0.504,-2.883 -1.84,-4.52 -4,-4.922 0,1.281 -0.238,2.363 -0.719,3.242 -0.508,0.906 -1.121,1.359 -1.84,1.359 z M 33.838,7.078 34.6,7 C 34.119,7.024 33.611,7.039 33.076,7.039 Z M 28.717,9.239 31.318,7.52 31.998,7.039 28.396,9.438 Z M 12.318,11.278 C 10.959,11.094 9.81,11.664 8.877,13 7.865,14.414 7.346,16.387 7.318,18.918 L 6.959,18.321 C 6.611,17.547 6.17,17.051 5.639,16.84 5.236,16.68 4.478,16.598 3.357,16.598 c -0.879,0 -1.64,0.109 -2.281,0.32 -0.316,1.625 -0.547,4.266 -0.68,7.922 -0.105,3.41 -0.183,5.293 -0.238,5.637 L -0.002,31.438 0.279,31.321 1.076,31 0.158,30.481 c 0.668,-0.59 1.254,-1.176 1.762,-1.762 0.316,-0.348 0.652,-0.625 1,-0.84 0.183,-0.105 0.758,-0.254 1.719,-0.441 0.933,-0.426 1.547,-1.399 1.839,-2.918 0.051,-1.68 0.215,-2.84 0.481,-3.481 0.211,-0.535 0.559,-0.8 1.039,-0.8 0.535,0 0.719,0.039 0.559,0.121 0.082,0.558 0.121,1.211 0.121,1.957 0,0.32 -0.188,0.84 -0.559,1.562 l -0.601,1 c 0.027,0.828 0.082,1.399 0.16,1.719 0.132,0.453 0.359,0.695 0.679,0.719 1.442,-0.477 2.453,-1.586 3.039,-3.317 0.508,-1.519 0.762,-3.773 0.762,-6.761 0,-0.532 -0.015,-0.735 -0.039,-0.598 l -2.16,-0.043 0.398,-0.32 2.563,-1 c 0.316,4.8 0.586,7.347 0.797,7.64 0.293,0.481 2.308,1.149 6.043,2 -0.082,-1.011 0.023,-1.933 0.316,-2.758 0.16,-0.453 0.363,-0.867 0.602,-1.242 0.105,0.321 0.308,1.082 0.601,2.282 0.266,1.226 0.414,1.96 0.438,2.199 1.574,-1.145 2.988,-2.879 4.242,-5.199 1.199,-2.215 1.801,-4.106 1.801,-5.68 0,-1.039 -0.297,-2.082 -0.883,-3.121 C 26.158,10.305 25.666,9.492 25.396,8.957 24.92,8.907 24.545,8.879 24.279,8.879 c -0.613,0 -2.867,0.266 -6.761,0.801 l -0.04,1.16 c 0.106,0.559 0.172,1.184 0.2,1.879 v 0.84 l -0.321,-0.481 c -0.105,2.161 -0.32,3.774 -0.64,4.84 l -0.199,-1.039 c -0.133,-1.066 -0.801,-2.265 -2,-3.601 -0.961,-1.09 -1.692,-1.758 -2.2,-2 z M 8.119,11.52 8.6,11.078 H 8.557 Z m 191.8,2.68 0.918,0.359 1.039,0.121 c -0.481,-0.215 -1.133,-0.375 -1.957,-0.48 z m -9.08,-6.641 c 0.16,0.215 0.238,0.48 0.238,0.801 0,0.32 -0.078,0.586 -0.238,0.8 -0.188,0.211 -0.399,0.321 -0.641,0.321 -0.238,0 -0.437,-0.11 -0.597,-0.321 -0.188,-0.214 -0.282,-0.48 -0.282,-0.8 0,-0.321 0.094,-0.586 0.282,-0.801 0.16,-0.215 0.359,-0.32 0.597,-0.32 0.242,0 0.453,0.105 0.641,0.32 z m -25.32,3.359 c -0.133,0.11 -0.309,0.16 -0.52,0.16 -0.961,0 -1.48,-0.105 -1.559,-0.32 -0.054,-0.211 -0.253,-1 -0.601,-2.359 l 0.199,0.043 3.602,1 c 0.531,0 2.281,-0.176 5.238,-0.524 -3.68,0.961 -5.801,1.629 -6.359,2 z M 20.959,25.84 21.478,25.559 20.92,25.84 Z m 69.918,11.32 c 1.414,1.332 1.84,1.321 1.281,-0.043 -0.48,-2.183 -1.172,-4.332 -2.082,-6.437 -0.933,-2.16 -1.652,-3.242 -2.156,-3.242 -0.32,0 -0.684,0.121 -1.082,0.363 -0.641,0.399 -0.961,1 -0.961,1.797 0,0.508 0.359,1.402 1.082,2.68 0.613,1.148 1.078,1.894 1.398,2.242 0.106,0.105 0.946,0.984 2.52,2.64 z M 86.318,23.559 c 0.16,-0.215 0.239,-0.481 0.239,-0.801 0,-0.316 -0.079,-0.586 -0.239,-0.801 -0.16,-0.211 -0.347,-0.316 -0.558,-0.316 -0.215,0 -0.403,0.105 -0.563,0.316 -0.16,0.215 -0.238,0.485 -0.238,0.801 0,0.32 0.078,0.586 0.238,0.801 0.16,0.215 0.348,0.32 0.563,0.32 0.211,0 0.398,-0.105 0.558,-0.32 z M 14.639,15.078 c 0.078,-0.05 0.214,-0.105 0.398,-0.16 0.801,0.801 1.254,3.774 1.359,8.922 l -1.32,-0.242 c 0.453,-1.117 0.496,-2.746 0.121,-4.879 -0.187,-1.094 -0.426,-2.094 -0.719,-3 0,-0.348 0.055,-0.559 0.161,-0.641 z m 39.16,2.84 -0.16,-2.48 c 0,-1.625 0.746,-3.36 2.238,-5.199 0.109,1.707 -0.051,3.308 -0.481,4.8 -0.398,1.442 -0.933,2.399 -1.597,2.879 z m -9.879,5.199 c -0.402,0.137 -1.496,0.254 -3.281,0.364 -1.387,0.078 -2.442,0.117 -3.161,0.117 -0.64,0 -1.347,-1.199 -2.121,-3.598 -0.746,-2.347 -1.121,-4.453 -1.121,-6.32 l 0.082,-1.84 0.321,0.598 0.199,0.883 c 0.668,2.425 1.015,3.746 1.039,3.957 l -0.039,-2.957 0.121,0.718 c 0.371,2.668 1.961,4.254 4.758,4.762 0.187,0.051 1.269,0.172 3.242,0.356 1.144,0.109 1.918,0.335 2.32,0.683 l -0.84,0.078 c -1.707,0.11 -2.867,0.215 -3.48,0.321 l 0.398,0.121 c 0.426,0.132 0.879,0.265 1.36,0.398 0.293,0.133 0.441,0.387 0.441,0.762 0,0.32 -0.039,0.519 -0.121,0.597 z"
         style="fill:#9b9286;fill-rule:evenodd"
         id="path24" /><path
         d="m 77.52,66.598 5,0.961 V 67.52 c -1.547,-1.336 -2.454,-2.082 -2.719,-2.242 -0.774,-0.532 -1.68,-0.797 -2.723,-0.797 -0.426,0 -1.09,0.066 -2,0.199 0.188,0.187 0.629,0.559 1.32,1.121 0.668,0.504 1.043,0.774 1.122,0.797 z m 2.281,-5.879 c -0.242,-0.105 -0.52,-0.16 -0.84,-0.16 -0.32,0 -0.586,0.055 -0.801,0.16 -0.238,0.133 -0.359,0.281 -0.359,0.441 0,0.161 0.121,0.293 0.359,0.399 0.215,0.133 0.481,0.199 0.801,0.199 0.32,0 0.598,-0.066 0.84,-0.199 0.211,-0.106 0.32,-0.238 0.32,-0.399 0,-0.16 -0.109,-0.308 -0.32,-0.441 z m 34.719,3.481 -0.122,-0.559 c -0.265,-0.828 -0.57,-1.617 -0.918,-2.363 C 105.83,54.801 99.906,50 95.719,46.879 89.879,42.532 84.988,38.774 81.039,35.598 c -0.906,-1.332 -2.57,-2.426 -5,-3.281 C 72.094,30.934 69.348,29.825 67.801,29 66.359,28.117 65.039,27.344 63.84,26.68 61.547,25.426 59.961,24.813 59.078,24.84 l -1.039,-0.199 c 1.016,-0.508 1.668,-1.629 1.961,-3.363 0.266,-1.52 0.215,-2.946 -0.16,-4.278 -0.238,-1.519 -0.414,-3.789 -0.52,-6.8 -0.027,1.359 -0.187,4.16 -0.48,8.398 l -0.039,0.519 c -0.403,2.028 -0.707,3.188 -0.922,3.485 -0.719,0.906 -1.117,1.383 -1.199,1.437 -0.825,0.481 -2.239,0.563 -4.239,0.243 l -6,0.398 -5.8,0.398 -4.403,0.243 -1.918,0.039 -1.64,0.039 c -0.692,0 -1.375,-0.961 -2.039,-2.879 -0.375,-1.043 -0.813,-2.481 -1.321,-4.32 l -0.16,-0.719 0.32,3.957 c 0.028,0.535 0.051,1 0.079,1.402 0,0.133 0.015,0.25 0.043,0.36 v 0.039 c 0.132,1.226 0.41,2.148 0.839,2.761 l 1.039,0.438 c 0.985,0.613 1.559,0.976 1.719,1.082 0.426,0.215 2.293,1.254 5.602,3.121 -7.895,-2.242 -12.067,-3.43 -12.52,-3.563 -2.668,-0.824 -4.441,-1.238 -5.32,-1.238 h -1 c -1.789,0 -3.414,0.094 -4.883,0.277 -1.117,0.188 -2.238,0.415 -3.359,0.684 C 9.879,27.387 6.332,28.785 1.078,31 l -0.797,0.321 c 2.481,-0.293 5.746,-1.243 9.797,-2.84 3.629,-1.414 6.43,-2.121 8.402,-2.121 3.122,0 8.399,1.281 15.84,3.84 6.293,2.16 10.332,3.757 12.121,4.8 l 0.797,0.52 c -3.492,-2.453 -5.918,-4.121 -7.277,-5 -1.52,-0.961 -3.066,-1.852 -4.641,-2.68 5.602,-0.855 9.282,-1.508 11.039,-1.961 0.668,-0.187 1.387,-0.281 2.161,-0.281 5.441,0 9.746,0.586 12.921,1.762 1.731,0.664 3.438,1.586 5.118,2.757 2.64,1.415 5.429,2.614 8.363,3.602 2.476,0.852 3.746,1.305 3.797,1.359 3.066,2.747 9.519,7.747 19.359,15 8.242,6.079 13.496,10.454 15.762,13.122 z M 57.922,57 c -2.453,-1.359 -3.844,-2.093 -4.16,-2.199 0,0.613 0.41,1.133 1.238,1.559 0.801,0.425 1.773,0.64 2.922,0.64 z"
         style="fill:#d2c8ba;fill-rule:evenodd"
         id="path26" /></g></g><metadata
     id="metadata11"><rdf:RDF><cc:Work><dc:format>image/svg+xml</dc:format><dc:type
           rdf:resource="http://purl.org/dc/dcmitype/StillImage" /><cc:license
           rdf:resource="http://creativecommons.org/publicdomain/zero/1.0/" /><dc:publisher><cc:Agent
             rdf:about="http://openclipart.org/"><dc:title>Openclipart</dc:title></cc:Agent></dc:publisher><dc:title></dc:title></cc:Work><cc:License
         rdf:about="http://creativecommons.org/publicdomain/zero/1.0/"><cc:permits
           rdf:resource="http://creativecommons.org/ns#Reproduction" /><cc:permits
           rdf:resource="http://creativecommons.org/ns#Distribution" /><cc:permits
           rdf:resource="http://creativecommons.org/ns#DerivativeWorks" /></cc:License></rdf:RDF></metadata></svg>