<?xml version="1.0" encoding="UTF-8" standalone="no"?>
<svg
   xmlns:dc="http://purl.org/dc/elements/1.1/"
   xmlns:cc="http://creativecommons.org/ns#"
   xmlns:rdf="http://www.w3.org/1999/02/22-rdf-syntax-ns#"
   xmlns:svg="http://www.w3.org/2000/svg"
   xmlns="http://www.w3.org/2000/svg"
   height="20"
   width="20"
   version="1.1"
   viewBox="0 0 19.999999 20"
   xml:space="preserve"
   id="rock"><defs
     id="defs33" /><g
     transform="matrix(0.13960912,0,0,-0.13960912,6.0540282,19.713734)"
     id="g10"><g
       id="g12"><path
         d="m 46.676,37.792 c -1.918,1.519 -4.039,2.64 -6.36,3.359 -0.293,0.051 -0.558,0.105 -0.796,0.16 l -1.922,2.918 c -0.668,1.547 -1.762,2.695 -3.282,3.441 -0.183,0.082 -0.359,0.172 -0.519,0.282 2.027,-0.563 4.039,-1.11 6.039,-1.641 4.773,-1.281 8.109,-3.973 10,-8.082 -0.504,-0.371 -1.066,-0.559 -1.68,-0.559 -0.531,-0.054 -1,-0.027 -1.398,0.082 z"
         style="fill:#979681;fill-rule:evenodd"
         id="path14" /><path
         d="m 29.117,38.19 -4.359,-4.961 -0.399,-0.078 2.477,5.641 -1.238,1.718 0.8,1.879 c 0.532,1.094 1.36,1.867 2.481,2.32 0.133,0.055 0.277,0.083 0.437,0.083 1.254,-0.266 2.375,-0.055 3.36,0.64 0.054,0.051 0.109,0.094 0.16,0.117 1.336,-0.48 2.402,-1.547 3.203,-3.199 l -0.402,0.121 c -2.664,-0.719 -4.84,-2.148 -6.52,-4.281 z M 11.957,31.831 V 31.35 L 9.199,27.592 6.238,31.87 c 0.453,0.988 1.399,1.414 2.84,1.281 2.055,-0.215 3.692,0.719 4.918,2.801 l -2.039,-3.719 z m 0.082,-1.2 0.039,0.239 0.039,-0.239 z"
         style="fill:#c8c0ab;fill-rule:evenodd"
         id="path16" /><path
         d="m 36.039,42.35 0.637,-3.558 v -0.243 l -2.84,2.203 c -0.16,0.024 -0.316,0.012 -0.477,-0.043 -1.629,-0.398 -3.043,-1.238 -4.242,-2.519 1.68,2.133 3.852,3.562 6.52,4.281 z"
         style="fill:#cebeaf;fill-rule:evenodd"
         id="path18" /><path
         d="m 36.676,38.792 1.883,-1.083 0.199,-0.796 -2.082,1.636 z"
         style="fill:#474136;fill-rule:evenodd"
         id="path20" /><path
         d="m 36.676,38.792 -0.637,3.558 c -0.801,1.652 -1.867,2.719 -3.203,3.199 -0.051,-0.023 -0.106,-0.066 -0.16,-0.117 -0.985,-0.695 -2.106,-0.906 -3.36,-0.64 l 4.161,1.757 4.121,-2.32 1.922,-2.918 c 0.238,-0.055 0.503,-0.105 0.796,-0.16 2.321,-0.719 4.442,-1.84 6.36,-3.359 l -8.117,-0.079 z m 14.48,-4.403 c 0.11,-1.359 0.094,-2.746 -0.039,-4.16 -0.187,-1.918 -0.547,-3.824 -1.078,-5.719 -0.215,1.629 -0.84,3.028 -1.883,4.199 l -3.84,0.719 v 0.242 c 0.161,2.719 0.84,5.375 2.043,7.961 0.133,0.051 0.266,0.094 0.399,0.118 0.398,-0.106 0.867,-0.133 1.398,-0.079 0.614,0 1.176,0.184 1.68,0.559 0.137,0.055 0.242,0 0.32,-0.16 0.614,-1.067 0.949,-2.293 1,-3.68 z"
         style="fill:#746957;fill-rule:evenodd"
         id="path22" /><path
         d="m 31.676,26.831 -0.078,2.679 6.558,4.199 c 1.52,0.083 2.481,-0.574 2.883,-1.957 0.453,-1.734 0.891,-3.496 1.32,-5.281 l -9.203,-3.281 3.321,-1.481 c 0.402,-0.183 0.734,-0.371 1,-0.558 0.402,-0.293 1.082,-4.188 2.043,-11.68 L 39.039,9.549 C 37.09,6.163 34.293,5.19 30.637,6.631 27.465,13.643 26.703,20.897 28.359,28.389 l -0.32,0.84 c 0.078,-0.023 0.145,-0.051 0.199,-0.078 1.438,-0.641 2.574,-1.602 3.399,-2.883 z"
         style="fill:#908e81;fill-rule:evenodd"
         id="path24" /><path
         d="m 49.996,24.311 c 3.442,-4.535 3.309,-8.227 -0.398,-11.082 -0.028,0.027 -0.055,0.066 -0.078,0.121 -1.387,1.309 -1.895,2.934 -1.524,4.879 z M 30.238,6.311 24.477,1.792 C 19.996,1.444 16.062,1.858 12.676,3.03 l 0.082,0.082 c 3.707,1.84 6.387,4.691 8.039,8.558 0.16,-0.078 0.293,-0.171 0.402,-0.281 2.664,-2.398 5.68,-4.094 9.039,-5.078 z"
         style="fill:#756f59;fill-rule:evenodd"
         id="path26" /><path
         d="m 42.477,26.272 -0.118,0.199 c -0.429,1.785 -0.867,3.547 -1.32,5.281 -0.402,1.387 -1.363,2.04 -2.883,1.961 l 0.602,2.758 v 0.281 c 2.32,-0.48 4.574,-0.308 6.762,0.52 0.292,0.105 0.57,0.227 0.839,0.359 -1.203,-2.586 -1.882,-5.242 -2.043,-7.961 v -0.238 c 0,-0.883 -0.183,-1.629 -0.558,-2.242 -0.375,-0.613 -0.801,-0.918 -1.281,-0.918 z M 25.078,20.35 c 0.133,0.852 -0.066,1.016 -0.601,0.481 -1.2,1.121 -1.774,2.507 -1.719,4.16 0.078,1.414 0.68,2.601 1.801,3.558 l -1.121,-0.32 0.359,3.16 -2.598,-1.437 3.16,3.199 0.399,0.078 -0.16,-0.398 1.64,-2.442 c 0.16,0 0.305,-0.012 0.438,-0.039 2.269,-0.32 3.933,-1.492 5,-3.519 l -0.039,-0.559 c -0.825,1.277 -1.961,2.238 -3.399,2.879 -0.054,0.027 -0.121,0.051 -0.199,0.078 l 0.32,-0.84 C 26.703,20.897 27.465,13.643 30.637,6.631 l -0.68,0.078 c -1.895,3.895 -3.027,8.016 -3.398,12.36 -0.266,2.988 -0.106,5.922 0.48,8.801 z M 12.117,30.631 c -0.32,-2.132 -1,-4.265 -2.039,-6.402 -0.535,-1.012 -1.027,-2.066 -1.48,-3.16 l 3.441,9.562 z"
         style="fill:#6d645b;fill-rule:evenodd"
         id="path28" /><path
         d="m 40.676,7.229 c 1.121,-2.293 2.75,-3.652 4.883,-4.078 0.398,0 0.8,0.039 1.199,0.121 C 44.305,2.151 41.957,2.284 39.719,3.67 39.586,3.752 39.465,3.846 39.359,3.952 36.238,1.096 32.41,0.19 27.879,1.229 Z m 8.32,-3.039 c 1.469,1.469 1.934,3.227 1.402,5.281 -0.105,0.426 -0.199,0.813 -0.281,1.16 2.16,2.188 3.281,4.828 3.36,7.918 0.668,-3.359 0.121,-6.465 -1.641,-9.32 0.027,-0.078 0.043,-0.145 0.043,-0.199 0.48,-2.504 -0.481,-4.117 -2.883,-4.84 z"
         style="fill:#271e0f;fill-rule:evenodd"
         id="path30" /><path
         d="m 38.559,37.709 8.117,0.083 0.082,-0.04 c -0.133,-0.027 -0.266,-0.07 -0.399,-0.121 -0.269,-0.132 -0.547,-0.254 -0.839,-0.359 -2.188,-0.828 -4.442,-1 -6.762,-0.52 v 0.161 z m 0.199,-1.238 -0.602,-2.758 -6.558,-4.203 -0.68,1 z M 27.879,1.229 C 25.797,0.163 23.625,-0.208 21.359,0.112 17.117,0.698 12.824,1.256 8.477,1.792 8.824,1.846 9.172,1.885 9.52,1.913 c 0.984,0.211 1.625,0.773 1.918,1.679 l -1.2,1.239 0.36,2.238 1.281,-3.117 c 1.277,0.32 3.824,3.066 7.641,8.238 0.05,0.105 0.117,0.215 0.199,0.32 3.707,5.121 5.293,7.895 4.758,8.321 0.535,0.535 0.734,0.375 0.601,-0.481 C 23.477,16.936 22.051,14.045 20.797,11.67 19.145,7.803 16.465,4.952 12.758,3.112 L 12.676,3.03 c 3.386,-1.172 7.32,-1.586 11.801,-1.238 l 5.761,4.519 -0.281,0.398 0.68,-0.078 C 34.293,5.19 37.09,6.163 39.039,9.549 l 0.481,-0.078 1.918,-0.558 6.558,9.316 C 47.492,15.963 46.531,13.924 45.117,12.112 43.703,10.377 42.223,8.752 40.676,7.229 Z m -19.84,15.84 c -0.055,-0.371 -0.055,-0.774 0,-1.199 L 6.676,10.389 2.117,6.952 c 2.668,3.812 4.613,7.558 5.84,11.238 z"
         style="fill:#5d5139;fill-rule:evenodd"
         id="path32" /><path
         d="M 2.117,6.952 V 6.913 L 1.238,9.35 0.836,15.549 c -0.746,4.668 0.121,9.016 2.602,13.043 0.773,1.2 1.707,2.293 2.8,3.278 l 2.961,-4.278 2.758,3.758 v 0.481 c 0.027,0 0.055,-0.012 0.082,-0.039 3.172,-1.176 6.371,-1.266 9.598,-0.282 l -0.84,-1.199 c -0.613,-1.84 -1.492,-3.574 -2.641,-5.199 -0.078,-0.133 -0.16,-0.254 -0.238,-0.36 C 15.703,20.831 12.625,17.979 8.676,16.19 L 8.039,17.069 7.957,18.19 C 6.73,14.51 4.785,10.764 2.117,6.952 Z m 9.84,25.277 2.039,3.723 c 2.109,2.746 4.68,5.078 7.723,7 0.051,0.027 0.133,0.05 0.238,0.078 h 0.879 c -0.293,-3.227 -0.957,-6.399 -2,-9.52 -0.293,-0.051 -0.559,-0.144 -0.797,-0.281 -2.641,-1.25 -5.336,-1.586 -8.082,-1 z m 0.082,-1.598 -3.441,-9.562 c 0.453,1.094 0.945,2.148 1.48,3.16 1.039,2.137 1.719,4.27 2.039,6.402 l -0.039,0.239 z"
         style="fill:#e4d9c5;fill-rule:evenodd"
         id="path34" /><path
         d="m 24.359,33.151 -3.16,-3.199 -0.402,0.359 0.84,1.199 -0.801,2 c 1.043,3.121 1.707,6.293 2,9.52 h -0.879 l 1.199,0.402 0.922,0.117 0.719,0.922 0.039,-1.519 -1.797,-2.039 c 0.051,-0.055 0.133,-0.11 0.238,-0.161 1.094,-0.269 2.133,0.278 3.121,1.637 l -0.8,-1.879 1.238,-1.718 z"
         style="fill:#91847b;fill-rule:evenodd"
         id="path36" /><path
         d="M 10.598,7.069 10.238,4.831 4.199,4.069 c 0,0.64 -0.176,1.269 -0.523,1.883 C 3.359,6.51 2.836,6.831 2.117,6.913 v 0.039 l 4.559,3.437 1.363,5.481 z"
         style="fill:#8b8875;fill-rule:evenodd"
         id="path38" /><path
         d="m 40.676,7.229 c 1.551,1.523 3.027,3.148 4.441,4.883 1.414,1.812 2.375,3.851 2.879,6.117 -0.371,-1.945 0.137,-3.57 1.524,-4.879 0.023,-0.055 0.05,-0.094 0.078,-0.121 3.707,2.855 3.84,6.551 0.398,11.082 l 0.043,0.199 c 0.531,1.895 0.891,3.801 1.078,5.719 0.133,1.414 0.149,2.801 0.039,4.16 0.481,-0.851 0.922,-1.719 1.321,-2.597 1.839,-4.266 2.175,-8.68 1,-13.243 -0.079,-3.093 -1.2,-5.73 -3.36,-7.918 0.082,-0.347 0.176,-0.734 0.281,-1.16 C 50.93,7.417 50.465,5.659 48.996,4.19 L 46.758,3.272 C 46.359,3.19 45.957,3.151 45.559,3.151 43.426,3.577 41.797,4.936 40.676,7.229 Z"
         style="fill:#665f4a;fill-rule:evenodd"
         id="path40" /><path
         d="m 8.039,15.87 c -0.055,0.425 -0.055,0.828 0,1.199 L 8.676,16.19 c 3.949,1.789 7.027,4.641 9.242,8.562 0.078,0.106 0.16,0.227 0.238,0.36 0.082,-5.309 0.16,-8.387 0.242,-9.242 0.161,-1.68 0.532,-2.907 1.122,-3.68 C 15.703,7.018 13.156,4.272 11.879,3.952 l -1.281,3.117 z"
         style="fill:#b7aa8e;fill-rule:evenodd"
         id="path42" /><path
         d="m 31.676,26.831 c -1.067,2.027 -2.731,3.199 -5,3.519 -0.133,0.027 -0.278,0.039 -0.438,0.039 l -1.64,2.442 0.16,0.398 4.359,4.961 c 1.199,1.281 2.613,2.121 4.242,2.519 0.161,0.055 0.317,0.067 0.477,0.043 l 2.84,-2.203 2.082,-1.636 v -0.442 l -7.84,-5.961 0.68,-1 z"
         style="fill:#92846b;fill-rule:evenodd"
         id="path44" /><path
         d="m 26.398,42.389 c -0.988,-1.359 -2.027,-1.906 -3.121,-1.637 -0.105,0.051 -0.187,0.106 -0.238,0.161 l 1.797,2.039 -0.039,1.519 c 0.027,0.481 0.265,0.852 0.723,1.121 1.972,1.438 4.089,2.571 6.359,3.399 l 1.918,-1.039 c 0.16,-0.11 0.336,-0.2 0.519,-0.282 1.52,-0.746 2.614,-1.894 3.282,-3.441 l -4.121,2.32 -4.161,-1.757 c -0.16,0 -0.304,-0.028 -0.437,-0.083 -1.121,-0.453 -1.949,-1.226 -2.481,-2.32 z"
         style="fill:#c7bcb1;fill-rule:evenodd"
         id="path46" /><path
         d="M 23.156,43.432 21.957,43.03 C 21.852,43.002 21.77,42.979 21.719,42.952 18.676,41.03 16.105,38.698 13.996,35.952 12.77,33.87 11.133,32.936 9.078,33.151 7.637,33.284 6.691,32.858 6.238,31.87 5.145,30.885 4.211,29.792 3.438,28.588 0.957,24.565 0.09,20.217 0.836,15.549 c -0.184,0.508 -0.332,1.028 -0.438,1.563 -0.855,4.133 -0.336,8.144 1.559,12.039 1.973,4.027 4.895,7.094 8.762,9.199 3.89,2.078 7.906,3.895 12.039,5.442 z"
         style="fill:#ede6d8;fill-rule:evenodd"
         id="path48" /><path
         d="m 18.156,25.112 c 1.149,1.625 2.028,3.359 2.641,5.199 l 0.402,-0.359 2.598,1.437 -0.359,-3.16 1.121,0.32 c -1.121,-0.957 -1.723,-2.144 -1.801,-3.558 -0.055,-1.653 0.519,-3.039 1.719,-4.16 0.535,-0.426 -1.051,-3.2 -4.758,-8.321 -0.082,-0.105 -0.149,-0.215 -0.199,-0.32 -0.59,0.773 -0.961,2 -1.122,3.68 -0.082,0.855 -0.16,3.933 -0.242,9.242 z"
         style="fill:#a79674;fill-rule:evenodd"
         id="path50" /><path
         d="m 36.477,21.709 6,4.563 c 0.48,0 0.906,0.305 1.281,0.918 0.375,0.613 0.558,1.359 0.558,2.242 l 3.84,-0.719 c 1.043,-1.175 1.668,-2.574 1.883,-4.203 l -0.043,-0.199 -2,-6.078 -6.558,-9.32 -1.918,0.558 c -0.961,7.492 -1.641,11.387 -2.043,11.68 -0.266,0.187 -0.598,0.375 -1,0.558 z"
         style="fill:#807d71;fill-rule:evenodd"
         id="path52" /><path
         d="m 33.156,23.19 9.203,3.281 0.118,-0.199 -6,-4.563 z"
         style="fill:#a9a89e;fill-rule:evenodd"
         id="path54" /><path
         d="m 25.078,20.35 1.961,7.52 c -0.586,-2.879 -0.746,-5.813 -0.48,-8.801 0.371,-4.344 1.503,-8.465 3.398,-12.36 l 0.281,-0.398 c -3.359,0.984 -6.375,2.68 -9.039,5.078 -0.109,0.11 -0.242,0.203 -0.402,0.281 1.254,2.375 2.68,5.266 4.281,8.68 z"
         style="fill:#989176;fill-rule:evenodd"
         id="path56" /><path
         d="m 11.957,31.831 v 0.398 c 2.746,-0.586 5.441,-0.25 8.082,1 0.238,0.137 0.504,0.227 0.797,0.281 l 0.801,-2 c -3.227,-0.984 -6.426,-0.89 -9.598,0.282 -0.027,0.027 -0.055,0.039 -0.082,0.039 z"
         style="fill:#c5ad81;fill-rule:evenodd"
         id="path58" /><path
         d="M 8.477,1.792 C 5.227,1.151 3.504,2.245 3.316,5.069 c 0,0.16 0.016,0.308 0.043,0.441 L 2.238,5.229 C 1.012,6.405 0.676,7.776 1.238,9.35 L 2.117,6.913 C 2.836,6.831 3.359,6.51 3.676,5.952 4.023,5.338 4.199,4.709 4.199,4.069 l 6.039,0.762 1.2,-1.239 C 11.145,2.686 10.504,2.124 9.52,1.913 9.172,1.885 8.824,1.846 8.477,1.792 Z"
         style="fill:#a6a495;fill-rule:evenodd"
         id="path60" /></g></g><metadata
     id="metadata28"><rdf:RDF><cc:Work><dc:format>image/svg+xml</dc:format><dc:type
           rdf:resource="http://purl.org/dc/dcmitype/StillImage" /><cc:license
           rdf:resource="http://creativecommons.org/publicdomain/zero/1.0/" /><dc:publisher><cc:Agent
             rdf:about="http://openclipart.org/"><dc:title>Openclipart</dc:title></cc:Agent></dc:publisher><dc:title></dc:title></cc:Work><cc:License
         rdf:about="http://creativecommons.org/publicdomain/zero/1.0/"><cc:permits
           rdf:resource="http://creativecommons.org/ns#Reproduction" /><cc:permits
           rdf:resource="http://creativecommons.org/ns#Distribution" /><cc:permits
           rdf:resource="http://creativecommons.org/ns#DerivativeWorks" /></cc:License></rdf:RDF></metadata></svg>