<?xml version="1.0" encoding="UTF-8" standalone="no"?>
<svg
   xmlns:dc="http://purl.org/dc/elements/1.1/"
   xmlns:cc="http://creativecommons.org/ns#"
   xmlns:rdf="http://www.w3.org/1999/02/22-rdf-syntax-ns#"
   xmlns:svg="http://www.w3.org/2000/svg"
   xmlns="http://www.w3.org/2000/svg"
   xmlns:xlink="http://www.w3.org/1999/xlink"
   height="20"
   width="20"
   version="1.0"
   viewBox="0 0 20 20"
   id="svg2">
  <defs
     id="defs4">
    <linearGradient
       id="linearGradient3193">
      <stop
         offset="0"
         style="stop-color:#c2a05c"
         id="stop3195" />
      <stop
         offset="1"
         style="stop-color:#d6be91"
         id="stop3197" />
    </linearGradient>
    <linearGradient
       id="linearGradient2320">
      <stop
         offset="0"
         style="stop-color:#6a3c1d"
         id="stop2322" />
      <stop
         offset="1"
         style="stop-color:#8f5127"
         id="stop2324" />
    </linearGradient>
    <linearGradient
       id="linearGradient2338">
      <stop
         offset="0"
         style="stop-color:#b1b1b1"
         id="stop2340" />
      <stop
         offset="1"
         style="stop-color:#e4e4e4"
         id="stop2342" />
    </linearGradient>
    <linearGradient
       x1="18.882"
       y1="91.880997"
       gradientTransform="matrix(0.14850996,0,0,0.14850996,0.45469092,109.65498)"
       x2="30.454"
       gradientUnits="userSpaceOnUse"
       xlink:href="#linearGradient2338"
       y2="74.827003"
       id="linearGradient2449" />
    <linearGradient
       x1="58.472"
       y1="118.92"
       gradientTransform="matrix(0.14850996,0,0,0.14850996,0.45469092,109.65498)"
       x2="122.43"
       gradientUnits="userSpaceOnUse"
       xlink:href="#linearGradient2338"
       y2="73.609001"
       id="linearGradient2453" />
    <linearGradient
       x1="85.150002"
       y1="107.47"
       gradientTransform="matrix(0.14850996,0,0,0.14850996,0.45469092,109.65498)"
       x2="99.402"
       gradientUnits="userSpaceOnUse"
       xlink:href="#linearGradient2320"
       y2="89.689003"
       id="linearGradient2457" />
    <linearGradient
       x1="10.341"
       y1="107.1"
       gradientTransform="matrix(0.14850996,0,0,0.14850996,0.45469092,109.65498)"
       x2="20.683001"
       gradientUnits="userSpaceOnUse"
       xlink:href="#linearGradient2320"
       y2="86.678001"
       id="linearGradient3042" />
    <linearGradient
       x1="28.903"
       y1="98.832001"
       gradientTransform="matrix(0.14850996,0,0,0.14850996,0.45469092,109.65498)"
       x2="23.158001"
       gradientUnits="userSpaceOnUse"
       xlink:href="#linearGradient2320"
       y2="113.33"
       id="linearGradient3046" />
    <linearGradient
       x1="25.907"
       y1="101.7"
       gradientTransform="matrix(0.14850996,0,0,0.14850996,0.45469092,109.65498)"
       x2="34.275002"
       gradientUnits="userSpaceOnUse"
       xlink:href="#linearGradient2320"
       y2="97.477997"
       id="linearGradient3056" />
    <linearGradient
       x1="48.238998"
       y1="95.566002"
       gradientTransform="matrix(0.14850996,0,0,0.14850996,0.45469092,109.65498)"
       x2="34.657001"
       gradientUnits="userSpaceOnUse"
       xlink:href="#linearGradient2320"
       y2="100.74"
       id="linearGradient3060" />
    <linearGradient
       x1="37.778999"
       y1="79.457001"
       gradientTransform="matrix(0.14850996,0,0,0.14850996,0.45469092,109.65498)"
       x2="45.863998"
       gradientUnits="userSpaceOnUse"
       xlink:href="#linearGradient2320"
       y2="68.776001"
       id="linearGradient3064" />
    <linearGradient
       x1="39.125"
       y1="80.280998"
       gradientTransform="matrix(0.14850996,0,0,0.14850996,0.45469092,109.65498)"
       x2="40.062"
       gradientUnits="userSpaceOnUse"
       xlink:href="#linearGradient2320"
       y2="74.094002"
       id="linearGradient3076" />
    <linearGradient
       x1="17.312"
       y1="63.812"
       gradientTransform="matrix(0.14850996,0,0,0.14850996,0.45469092,109.65498)"
       x2="28.438"
       gradientUnits="userSpaceOnUse"
       xlink:href="#linearGradient2320"
       y2="62.938"
       id="linearGradient3082" />
    <linearGradient
       x1="26.625"
       y1="67.469002"
       gradientTransform="matrix(0.14850996,0,0,0.14850996,0.45469092,109.65498)"
       x2="40.188"
       gradientUnits="userSpaceOnUse"
       xlink:href="#linearGradient2320"
       y2="70.530998"
       id="linearGradient3086" />
    <linearGradient
       x1="27.062"
       y1="68.311996"
       gradientTransform="matrix(0.14850996,0,0,0.14850996,0.45469092,109.65498)"
       x2="34.219002"
       gradientUnits="userSpaceOnUse"
       xlink:href="#linearGradient2320"
       y2="50.938"
       id="linearGradient3097" />
    <linearGradient
       x1="7"
       y1="40.219002"
       gradientTransform="matrix(0.14850996,0,0,0.14850996,0.45469092,109.65498)"
       x2="9.6562004"
       gradientUnits="userSpaceOnUse"
       xlink:href="#linearGradient2320"
       y2="40.219002"
       id="linearGradient3101" />
    <linearGradient
       x1="79.061996"
       y1="81.061996"
       gradientTransform="matrix(0.14850996,0,0,0.14850996,0.45469092,109.65498)"
       x2="82.311996"
       gradientUnits="userSpaceOnUse"
       xlink:href="#linearGradient2320"
       y2="67.25"
       id="linearGradient3126" />
    <linearGradient
       x1="88.688004"
       y1="82.811996"
       gradientTransform="matrix(0.14850996,0,0,0.14850996,0.45469092,109.65498)"
       x2="90.25"
       gradientUnits="userSpaceOnUse"
       xlink:href="#linearGradient2320"
       y2="57.812"
       id="linearGradient3130" />
    <linearGradient
       x1="85.938004"
       y1="69.75"
       gradientTransform="matrix(0.14850996,0,0,0.14850996,0.45469092,109.65498)"
       x2="88.75"
       gradientUnits="userSpaceOnUse"
       xlink:href="#linearGradient2320"
       y2="44.812"
       id="linearGradient3134" />
    <linearGradient
       x1="120.69"
       y1="51.030998"
       gradientTransform="matrix(0.14850996,0,0,0.14850996,0.45469092,109.65498)"
       x2="124.38"
       gradientUnits="userSpaceOnUse"
       xlink:href="#linearGradient2320"
       y2="49.655998"
       id="linearGradient3138" />
    <linearGradient
       x1="57.312"
       y1="79.125"
       gradientTransform="matrix(0.14850996,0,0,0.14850996,0.45469092,109.65498)"
       x2="57.312"
       gradientUnits="userSpaceOnUse"
       xlink:href="#linearGradient2320"
       y2="65.811996"
       id="linearGradient3148" />
    <linearGradient
       x1="45.387001"
       y1="94.611"
       gradientTransform="matrix(0.14850996,0,0,0.14850996,0.45469092,109.65498)"
       x2="44.150002"
       gradientUnits="userSpaceOnUse"
       xlink:href="#linearGradient2320"
       y2="91.208"
       id="linearGradient3179" />
    <linearGradient
       x1="66.910004"
       y1="93.461998"
       gradientTransform="matrix(0.14850996,0,0,0.14850996,0.45469092,109.65498)"
       x2="68.279999"
       gradientUnits="userSpaceOnUse"
       xlink:href="#linearGradient2320"
       y2="91.738998"
       id="linearGradient3189" />
    <linearGradient
       x1="40.173"
       y1="103.91"
       gradientTransform="matrix(0.14850996,0,0,0.14850996,0.45469092,109.65498)"
       x2="50.823002"
       gradientUnits="userSpaceOnUse"
       xlink:href="#linearGradient3193"
       y2="94.147003"
       id="linearGradient3199" />
    <linearGradient
       x1="64.125999"
       y1="100"
       gradientTransform="matrix(0.14850996,0,0,0.14850996,0.45469092,109.65498)"
       x2="76.808998"
       gradientUnits="userSpaceOnUse"
       xlink:href="#linearGradient3193"
       y2="100"
       id="linearGradient3203" />
    <filter
       id="filter3233">
      <feGaussianBlur
         stdDeviation="0.95224764"
         id="feGaussianBlur3235" />
    </filter>
    <linearGradient
       id="linearGradient3392">
      <stop
         offset="0"
         style="stop-color:#4a585b"
         id="stop3394" />
      <stop
         offset="1"
         style="stop-color:#5e7074"
         id="stop3396" />
    </linearGradient>
    <linearGradient
       gradientTransform="matrix(0.14850996,0,0,0.14850996,0.25001446,109.65498)"
       x1="92.068001"
       y1="43.622002"
       x2="80.153"
       gradientUnits="userSpaceOnUse"
       xlink:href="#linearGradient3392"
       y2="12.833"
       id="linearGradient2628" />
    <linearGradient
       gradientTransform="matrix(0.14850996,0,0,0.14850996,0.25001446,109.65498)"
       x1="42.875"
       y1="20.268"
       x2="59.957001"
       gradientUnits="userSpaceOnUse"
       xlink:href="#linearGradient3392"
       y2="55.727001"
       id="linearGradient2630" />
  </defs>
  <g
     transform="translate(0,-108)"
     id="layer2">
    <path
       transform="matrix(0.14850996,0,0,0.14850996,0.25001447,109.65498)"
       d="M 34.627,116.46 29.976,114.39 19.812,113.18 1.895,104.23 12.748,90.961 1.378,85.793 13.61,73.734 l 68.393,15.849 -2.929,20.327 -20.501,10.17 -7.235,-1.73 -4.307,-1.89 z"
       style="fill:#000000;fill-opacity:0.63014;fill-rule:evenodd;filter:url(#filter3233)"
       id="path3207" />
    <path
       d="m 2.2456914,118.64191 -0.2532095,0.14465 -0.4523316,3.58206 7.4173303,5.0838 0.2352394,-3.52801 0.090443,-0.34365 -7.0374417,-4.93885 z"
       style="fill:url(#linearGradient2449);fill-rule:evenodd;stroke-width:0.14850996"
       id="path2447" />
    <path
       d="m 8.9393329,127.47024 0.199003,-3.50959 0.090443,-0.3438 8.9909401,-3.31058 v -0.16292 l 0.452956,0.199 0.380185,3.6183 -3.239002,1.12155 0.01782,-0.14406 -2.966635,1.0663 -0.09044,0.12772 z"
       style="fill:url(#linearGradient2453);fill-rule:evenodd;stroke-width:0.14850996"
       id="path2451" />
    <path
       d="m 12.774602,126.00444 v -0.41583 l 0.07247,-0.90442 0.415977,-0.90442 0.814132,-0.99502 0.578892,-0.3438 c 0.310534,0.01 0.455331,0.1439 0.633543,0.25336 l 0.325236,0.43409 0.199004,0.7779 -0.01782,1.03184 z"
       style="fill:url(#linearGradient2457);fill-rule:evenodd;stroke-width:0.14850996"
       id="path2455" />
    <path
       d="m 2.5345433,119.23254 -0.5552788,-0.38033 -0.4391142,3.51641 7.4173303,5.0838 0.2352394,-3.52801 -1.2878782,-0.85571 -5.3702687,-3.83616 z"
       style="fill:#000000;fill-opacity:0.15685999;fill-rule:evenodd;stroke-width:0.14850996"
       id="path2459" />
    <path
       d="m 14.775774,122.40293 0.577703,0.0263 0.498994,0.49869 0.236131,0.81384 0.05198,1.18154 -0.328207,0.14406 0.02673,-0.61677 -0.06534,-0.7219 -0.236131,-0.80077 -0.249496,-0.24935 z"
       style="fill:#000000;fill-opacity:0.15685999;fill-rule:evenodd;stroke-width:0.14850996"
       id="path3038" />
    <path
       d="m 2.8305237,122.04844 -0.433055,-0.0787 -0.5251313,0.19693 -0.5119138,0.47256 -0.3544191,0.6169 -0.18376623,0.61691 -0.0131279,0.4595 0.18376621,0.56404 0.32816252,0.28959 0.065642,0.22277 0.1312679,0.0921 0.1443814,-0.0401 0.7612769,0.59107 0.1575691,0.17079 0.1969242,0.0134 0.8007658,0.39356 -0.170638,-0.23614 -0.1575691,-0.74849 0.2232105,-0.87917 0.2362793,-0.45964 0.3543448,-0.41999 0.4856276,-0.26256 -0.223062,-0.93206 -0.3412759,-0.22306 -0.6038415,-0.23628 -0.1049965,-0.0132 -0.052573,-0.0918 -0.2362793,-0.0919 -0.078711,0.0787 z"
       style="fill:url(#linearGradient3042);fill-rule:evenodd;stroke-width:0.14850996"
       id="path3040" />
    <path
       d="m 4.5501205,123.62368 -0.3412759,0.17064 -0.2493482,0.22321 -0.3938484,0.55082 -0.2230619,0.6178 -0.052573,0.34158 0.013069,0.45889 0.2362794,0.60296 0.3414244,0.21088 0.2756345,0.0268 0.3543447,-0.10543 0.2888519,-0.15742 0.3937,-0.40692 z"
       style="fill:url(#linearGradient3046);fill-rule:evenodd;stroke-width:0.14850996"
       id="path3044" />
    <path
       d="m 4.3794826,122.96727 -0.6038415,0.38078 -0.4593413,0.60384 -0.3019208,0.48562 -0.1969242,0.59122 -0.091928,0.93116 0.039504,0.26286 H 2.5287516 l -0.091928,-0.22276 -0.039355,-0.76186 0.1180654,-0.72176 0.2232104,-0.49884 0.5775553,-0.64335 0.7219069,-0.56433 0.2625656,-0.15758 z"
       style="fill:#1a1a1a;fill-rule:evenodd;stroke-width:0.14850996"
       id="path3048" />
    <path
       d="m 3.2637273,122.206 -0.3806311,0.24935 -0.4462724,0.3545 -0.3806311,0.49884 -0.275783,0.53805 -0.065568,0.49885 -0.078769,0.42028 0.039385,0.68166 -0.1575096,0.0401 -0.1443963,-0.0921 -0.039385,-0.11732 -0.03937,-0.68315 0.065627,-0.51206 0.1837662,-0.57755 0.393789,-0.59063 0.5644863,-0.5382 0.5249828,-0.35449 0.1838553,0.11821 z"
       style="fill:#1a1a1a;fill-rule:evenodd;stroke-width:0.14850996"
       id="path3050" />
    <path
       d="m 2.8305237,122.04844 -0.433055,-0.0787 -0.5251313,0.19693 -0.5119138,0.47256 -0.3544191,0.6169 -0.18376623,0.61691 -0.0131279,0.4595 0.18376621,0.56404 0.32816252,0.28959 0.065642,0.22277 0.1312679,0.0921 0.1443814,-0.0401 0.7612769,0.59107 0.1575691,0.17079 0.1969242,0.0134 0.8007658,0.39356 -0.170638,-0.23614 -0.1575691,-0.74849 0.2232105,-0.87917 0.2362793,-0.45964 0.3543448,-0.41999 0.4856276,-0.26256 -0.223062,-0.93206 -0.3412759,-0.22306 -0.6038415,-0.23628 -0.1049965,-0.0132 -0.052573,-0.0918 -0.2362793,-0.0919 -0.078711,0.0787 z"
       style="fill:#000000;fill-opacity:0.15685999;fill-rule:evenodd;stroke-width:0.14850996"
       id="path3052" />
    <path
       d="m 5.3369264,126.94748 1.550147,0.69503 0.064898,-0.0639 -0.640375,-2.08954 -0.798241,-2.71892 -0.4363223,-1.41085 -0.3341475,-1.17872 -1.7264282,-1.10447 1.3180258,-0.52914 -0.074255,-0.10202 -1.438616,0.58468 -0.092819,1.44797 1.2808984,0.92819 z"
       style="fill:url(#linearGradient3056);fill-rule:evenodd;stroke-width:0.14850996"
       id="path3054" />
    <path
       d="m 6.9313293,127.58756 -2.1890368,-7.39892 -0.6965118,-0.4433 0.3255339,-0.12653 0.027177,0.0632 1.2483747,0.91363 -0.018118,0.40707 0.8773969,2.61407 0.8773969,2.71432 0.9316026,0.71434 z"
       style="fill:url(#linearGradient3060);fill-rule:evenodd;stroke-width:0.14850996"
       id="path3058" />
    <path
       d="m 1.4942607,116.5699 0.018563,1.16967 1.6521733,1.15095 1.1138247,-0.42711 0.2371704,-0.0991 -2.6485266,-1.81064 -0.168841,0.14109 -0.2043349,-0.1249 z m 4.1908027,2.82169 -0.02792,1.61044 0.8493285,2.63145 0.8585361,2.6962 0.9792749,0.77077 -0.7331939,-2.05686 -1.3691134,-4.0322 v -0.0557 l 2.6360517,1.76356 -0.018559,-1.12779 -0.1528171,-0.17642 0.00789,-0.21192 -2.8717368,-1.92128 z"
       style="fill:url(#linearGradient3064);fill-rule:evenodd;stroke-width:0.14850996"
       id="path3062" />
    <path
       d="m 5.3731628,126.94748 1.3872316,0.59701 -0.5754762,-2.00934 -0.8073001,-2.68342 -0.7974986,-2.64392 -1.7856837,-1.12393 -0.065642,1.39376 1.2808984,0.92819 z"
       style="fill:#000000;fill-opacity:0.15685999;fill-rule:evenodd;stroke-width:0.14850996"
       id="path3066" />
    <path
       d="m 2.3110359,118.33361 -0.00921,0.42681 0.4733013,0.33415 0.046484,-0.0464 0.3433551,-0.15771 z m 3.9634338,2.62669 -0.02792,0.0557 0.2506847,0.72399 2.7474342,1.83781 -0.018567,-0.99324 -0.3620669,0.13009 z"
       style="fill:url(#linearGradient3076);fill-rule:evenodd;stroke-width:0.14850996"
       id="path3071" />
    <path
       d="m 2.3110359,118.33361 -0.00921,0.42681 0.4733013,0.33415 0.046484,-0.0464 0.3433551,-0.15771 z m 3.9634338,2.62669 -0.02792,0.0557 0.2506847,0.72399 2.7474342,1.83781 -0.018567,-0.99324 -0.3620669,0.13009 z"
       style="fill:#000000;fill-opacity:0.15685999;fill-rule:evenodd;stroke-width:0.14850996"
       id="path3078" />
    <path
       d="m 3.0258143,119.08536 c 0.092819,-0.0371 1.3365897,-0.55691 1.3365897,-0.55691 l 0.029702,-0.0741 0.1373717,-0.0649 0.079601,1.13284 -0.2281113,0.11079 -0.3155837,0.10202 z"
       style="fill:url(#linearGradient3082);fill-rule:evenodd;stroke-width:0.14850996"
       id="path3080" />
    <path
       d="m 2.2647007,116.53277 -0.3527112,0.0558 0.371275,0.25054 z m 2.2925483,2.20924 0.055691,0.79809 -0.074255,0.0279 -0.1299462,0.11138 1.243771,0.92819 0.00936,-0.98387 z"
       style="fill:url(#linearGradient3086);fill-rule:evenodd;stroke-width:0.14850996"
       id="path3084" />
    <path
       d="m 2.2647007,116.53277 -0.3527112,0.0558 0.371275,0.25054 z m 2.2925483,2.20924 0.055691,0.79809 -0.074255,0.0279 -0.1299462,0.11138 1.243771,0.92819 0.00936,-0.98387 z"
       style="fill:#000000;fill-opacity:0.15685999;fill-rule:evenodd;stroke-width:0.14850996"
       id="path3093" />
    <path
       d="m 2.2739084,115.09416 0.018563,1.76356 0.5569124,0.38983 1.6800932,1.11383 0.00921,0.36191 1.1138248,0.90978 0.018563,-0.26925 0.1764299,-0.0928 2.8680246,1.9492 0.083611,-1.81925 z"
       style="fill:url(#linearGradient3097);fill-rule:evenodd;stroke-width:0.14850996"
       id="path3095" />
    <path
       d="m 1.4942607,116.54213 0.027846,-1.94919 0.4084469,0.25989 -0.055691,1.54079 0.4084025,-0.0649 v 0.20405 l -0.3620673,0.0465 -0.083463,-0.0371 -0.1207088,0.12074 z"
       style="fill:url(#linearGradient3101);fill-rule:evenodd;stroke-width:0.14850996"
       id="path3099" />
    <path
       d="m 1.4942607,116.54213 0.027846,-1.94919 0.2320171,0.15772 -0.037098,1.91221 z"
       style="fill:#000000;fill-opacity:0.15685999;fill-rule:evenodd;stroke-width:0.14850996"
       id="path3103" />
    <path
       d="m 6.4136236,119.61436 0.018563,-1.43862 0.7704698,0.48266 -0.018563,1.50366 z"
       style="fill:#000000;fill-opacity:0.15685999;fill-rule:evenodd;stroke-width:0.14850996"
       id="path3105" />
    <path
       d="m 3.759008,116.19863 0.00936,1.09541 1.0673411,0.72383 -0.027771,-1.11382 z"
       style="fill:#000000;fill-opacity:0.15685999;fill-rule:evenodd;stroke-width:0.14850996"
       id="path3107" />
    <path
       d="m 3.9121217,116.48183 0.00476,0.27846 0.2644962,0.18564 0.01396,-0.27845 z m 0.4223623,0.27371 0.01396,0.31573 0.3016238,0.18089 v -0.28306 z m -0.4037985,0.20435 -0.018563,0.25989 0.292416,0.20881 -0.01396,-0.29702 z m 0.4177585,0.24593 0.0046,0.32019 0.3016237,0.23198 -0.0046,-0.34797 z"
       style="fill:#d59163;fill-rule:evenodd;stroke-width:0.14850996"
       id="path3111" />
    <path
       d="m 7.4439857,118.71409 0.00921,1.09526 1.0674897,0.72399 -0.027919,-1.11383 z"
       style="fill:#000000;fill-opacity:0.15685999;fill-rule:evenodd;stroke-width:0.14850996"
       id="path3120" />
    <path
       d="m 7.5970995,118.99715 0.0046,0.27845 0.2644962,0.18564 0.01396,-0.27845 z m 0.4223624,0.27385 0.013812,0.31559 0.3017724,0.18103 v -0.28306 z m -0.4037986,0.2042 -0.018563,0.2599 0.2924161,0.2088 -0.01396,-0.29702 z m 0.4176099,0.24593 0.00478,0.32034 0.3016235,0.23197 -0.00462,-0.3481 z"
       style="fill:#d59163;fill-rule:evenodd;stroke-width:0.14850996"
       id="path3122" />
    <path
       d="m 8.8733941,122.68673 0.00921,-1.11382 0.3527114,-0.12995 0.00936,-0.2042 9.4309755,-3.36939 0.185637,0.10217 0.0089,1.14174 z"
       style="fill:url(#linearGradient3126);fill-rule:evenodd;stroke-width:0.14850996"
       id="path3124" />
    <path
       d="m 9.2167494,123.60571 0.00936,-1.00244 8.9847036,-3.26722 v 0.9466 z"
       style="fill:url(#linearGradient3130);fill-rule:evenodd;stroke-width:0.14850996"
       id="path3128" />
    <path
       d="m 9.2261056,121.22955 -0.018559,-1.98647 4.5016334,-2.90515 4.483813,-0.2691 v 1.94904 l -3.258605,1.20679 z"
       style="fill:url(#linearGradient3134);fill-rule:evenodd;stroke-width:0.14850996"
       id="path3132" />
    <path
       d="m 18.219719,118.00867 0.02821,-0.2691 -0.01782,-0.19499 0.240587,0.0742 0.02821,-1.56871 0.426223,0.0371 -0.08317,1.84717 -0.213855,-0.0742 z"
       style="fill:url(#linearGradient3138);fill-rule:evenodd;stroke-width:0.14850996"
       id="path3136" />
    <path
       d="m 18.219719,118.00867 0.02821,-0.2691 0.390582,0.10202 v -1.78212 l 0.286624,0.0278 -0.08317,1.84717 -0.213854,-0.0742 z"
       style="fill:#000000;fill-opacity:0.15685999;fill-rule:evenodd;stroke-width:0.14850996"
       id="path3140" />
    <path
       d="m 10.024347,120.92317 0.01857,-1.54078 1.09526,-0.45474 -0.02792,1.64281 z"
       style="fill:#000000;fill-opacity:0.15685999;fill-rule:evenodd;stroke-width:0.14850996"
       id="path3142" />
    <path
       d="m 14.915818,119.21531 0.01857,-1.54079 1.094815,-0.45474 -0.02673,1.64282 z"
       style="fill:#000000;fill-opacity:0.15685999;fill-rule:evenodd;stroke-width:0.14850996"
       id="path3144" />
    <path
       d="m 8.7063206,121.37806 c 0,-0.0371 0.046335,-1.88429 0.046335,-1.88429 l 0.4640939,-0.23197 0.00936,2.19052 -0.3063765,0.1298 z"
       style="fill:url(#linearGradient3148);fill-rule:evenodd;stroke-width:0.14850996"
       id="path3146" />
    <path
       d="m 8.7063206,121.37806 c 0,-0.0371 0.046335,-1.88429 0.046335,-1.88429 l 0.2413283,-0.0835 -0.074254,2.17181 z"
       style="fill:#000000;fill-opacity:0.15685999;fill-rule:evenodd;stroke-width:0.14850996"
       id="path3150" />
    <path
       d="m 11.444398,118.64904 v 1.16967 l 1.447972,-0.5385 v -1.16937 z"
       style="fill:#000000;fill-opacity:0.15685999;fill-rule:evenodd;stroke-width:0.14850996"
       id="path3152" />
    <path
       d="m 12.660397,118.37994 -0.431718,0.16247 0.0094,0.3248 0.426967,-0.19025 z m -0.617355,0.25068 -0.380483,0.14376 v 0.29703 l 0.380483,-0.12535 z m 0.626563,0.22277 -0.413006,0.15312 v 0.35271 l 0.403798,-0.15787 z m -0.612604,0.27831 -0.403798,0.1393 v 0.30623 l 0.403798,-0.15311 z"
       style="fill:#d59163;fill-rule:evenodd;stroke-width:0.14850996"
       id="path3154" />
    <path
       d="m 16.341069,116.91637 v 1.16952 l 1.447972,-0.53834 v -1.16952 z"
       style="fill:#000000;fill-opacity:0.15685999;fill-rule:evenodd;stroke-width:0.14850996"
       id="path3165" />
    <path
       d="m 17.55588,116.64728 -0.430679,0.16232 0.0089,0.32494 0.427709,-0.19024 z m -0.616317,0.25053 -0.380185,0.14391 v 0.29702 l 0.380185,-0.12534 z m 0.626713,0.22277 -0.412858,0.15311 v 0.35271 l 0.402462,-0.15772 z m -0.613347,0.27845 -0.403946,0.13931 v 0.30622 l 0.403946,-0.15311 z"
       style="fill:#d59163;fill-rule:evenodd;stroke-width:0.14850996"
       id="path3167" />
    <path
       d="m 13.584575,116.68633 0.1246,-0.11821 0.196925,-0.0852 0.219942,0.0229 0.157421,0.15103 0.04604,0.17064 0.0098,0.14109 -0.147619,0.27236 0.0196,-0.40038 -0.223063,-0.24935 z"
       style="fill:#000000;fill-opacity:0.15685999;fill-rule:evenodd;stroke-width:0.14850996"
       id="path3171" />
    <path
       d="m 13.53527,116.73549 0.06891,-0.0624 0.233012,-0.0787 0.200192,0.003 0.09846,0.0624 0.101729,0.15089 -0.02629,0.27564 -0.08525,0.28232 -0.354493,0.15088 -0.177173,-0.0261 c 0,0 -0.193656,-0.13455 -0.196924,-0.14777 -0.0033,-0.0131 -0.04915,-0.23628 -0.04915,-0.23628 l 0.04589,-0.19692 z"
       style="fill:#d59163;fill-rule:evenodd;stroke-width:0.14850996"
       id="path3169" />
    <path
       d="m 1.5310615,114.59264 7.3770843,4.86994 4.8699382,-3.15035 -6.9964527,-4.89622 z"
       style="fill:url(#linearGradient2630);fill-rule:evenodd;stroke-width:0.14850996"
       id="path3173" />
    <path
       d="m 5.9940829,123.84021 3.0059905,-1.09601 0.091928,0.0196 0.065643,0.17064 -0.1247484,0.20361 -1.9033038,0.69562 -1.0305106,0.37409 -0.085245,-0.105 z"
       style="fill:url(#linearGradient3179);fill-rule:evenodd;stroke-width:0.14850996"
       id="path3177" />
    <path
       d="m 9.492384,122.61292 2.57932,1.66049 0.0196,0.1641 -0.06549,0.15163 -2.5990718,-1.66123 -0.078858,-0.19024 0.052572,-0.11168 z"
       style="fill:url(#linearGradient3189);fill-rule:evenodd;stroke-width:0.14850996"
       id="path3187" />
    <path
       d="m 6.204076,124.15534 0.052573,1.30556 2.1199798,-0.74107 c 0,0 -0.026286,-1.30614 -0.052572,-1.30614 -0.026286,0 -2.1134453,0.7678 -2.1199808,0.74165 z"
       style="fill:url(#linearGradient3199);fill-rule:evenodd;stroke-width:0.14850996"
       id="path3191" />
    <path
       d="m 10.037118,123.31523 -0.059104,1.14857 1.8376616,1.23322 0.04604,-1.2004 z"
       style="fill:url(#linearGradient3203);fill-rule:evenodd;stroke-width:0.14850996"
       id="path3201" />
    <path
       d="m 13.778084,116.31223 5.080228,-0.26256 -7.206743,-5.0275 -4.8699377,0.39384 z"
       style="fill:url(#linearGradient2628);fill-rule:evenodd;stroke-width:0.14850996"
       id="path2626" />
    <path
       d="m 1.5310615,114.59264 7.3770843,4.86994 4.8699382,-3.15035 -6.9964527,-4.89622 z"
       style="fill:#000000;fill-opacity:0.15685999;fill-rule:evenodd;stroke-width:0.14850996"
       id="path3175" />
  </g>
  <g
     transform="translate(0,-108)"
     id="layer1">
    <path
       d="m 11.691964,111.00151 -4.9425594,0.40381 -5.3184388,3.16965 0.046364,0.0325 -0.018563,3.179 0.7982113,0.53835 v 0.32033 l -0.3155837,0.12995 -0.4640639,3.58741 0.069607,0.0464 c -0.021326,0.0189 -0.044345,0.0367 -0.064973,0.0557 -0.57048624,0.6285 -0.87898607,1.51273 -0.58010969,2.33399 0.083522,0.19751 0.24559089,0.32078 0.41303589,0.44107 0.00484,0.0356 0.00846,0.0713 0.01393,0.10693 0.094334,0.10841 0.019618,0.20939 0.3063018,0.16187 0.2516205,0.21386 0.512701,0.42325 0.826057,0.62226 0.040394,0.0773 0.033415,0.13514 0.1995974,0.1203 0.260635,0.1485 0.5610707,0.28959 0.9281873,0.41434 0.5177057,0.36385 1.0717964,0.0564 1.4850996,-0.32524 0.030148,-0.0312 0.059256,-0.0639 0.088215,-0.098 l 0.1856374,0.7381 1.5222272,0.6772 1.4432201,-0.57473 0.6311674,0.43662 3.9494731,-1.38857 v -0.0876 l 2.85451,-1.06779 -0.01485,0.14406 3.347414,-1.16031 -0.334148,-3.58741 0.01337,-0.0325 -0.478201,-0.23672 -0.02376,-0.72859 0.646018,-0.23212 v -1.29011 l 0.03713,-1.76355 0.08316,-0.005 -7.332679,-5.08187 z m -0.06489,0.065 7.050064,4.91479 -4.906026,0.25529 -6.8081416,-4.73836 4.6641036,-0.43166 z m -0.417759,0.19034 -0.05094,0.0138 c 0.03446,0.0242 0.10173,0.0815 0.157718,0.12534 l -2.4410582,0.26925 c -0.08465,-0.0643 -0.1707862,-0.12608 -0.2552884,-0.19039 l -0.055694,0.009 c 0.083908,0.0627 0.1667764,0.12742 0.2505363,0.19024 l -0.8539322,0.0928 -0.023167,0.0417 0.9235836,-0.10203 c 0.4015707,0.30103 0.80032,0.60532 1.2020399,0.90963 -0.2050929,0.0393 -0.408254,0.0778 -0.6126042,0.0974 l 0.018567,0.0465 c 0.2208348,-0.0218 0.4385503,-0.0584 0.6543352,-0.10217 1.327827,1.0063 2.657883,2.02404 4.005165,2.98876 l 0.02317,-0.0464 c -1.331837,-0.97897 -2.656843,-1.96063 -3.977244,-2.95163 0.399937,-0.0835 0.793042,-0.19069 1.192683,-0.28321 l 0.849328,0.63116 -1.025758,0.17183 0.0094,0.0557 1.072093,-0.18563 1.229811,0.91422 -0.538349,0.0696 -0.01857,0.0464 0.603248,-0.0789 0.914375,0.68226 0.0046,-0.0465 -0.858536,-0.64512 1.619946,-0.20881 -0.02821,-0.0325 -1.638214,0.20895 -1.22981,-0.91898 1.039569,-0.18563 c 0.20034,0.14673 0.403056,0.29211 0.612604,0.43157 l -0.278456,0.079 -0.0094,0.0232 0.310979,-0.0882 c 0.109898,0.0732 0.221726,0.14702 0.334147,0.22276 l 0.02792,-0.0139 c -0.105739,-0.0753 -0.212517,-0.14955 -0.320336,-0.22277 l 0.32494,-0.0928 v -0.0186 l -0.343503,0.0976 c -0.20628,-0.14004 -0.414937,-0.27667 -0.617207,-0.42236 l 0.185637,-0.0325 -0.02777,-0.0417 -0.208953,0.0371 c -0.188459,-0.13753 -0.371869,-0.28232 -0.542953,-0.44093 l -0.01857,0.0232 c 0.170193,0.15445 0.34291,0.29093 0.519785,0.42236 l -1.044173,0.17642 -0.849329,-0.63116 c 0.13559,-0.0307 0.271179,-0.0586 0.408402,-0.0836 l 0.0094,-0.0417 c -0.152668,0.027 -0.305782,0.0585 -0.45949,0.0928 l -0.07425,-0.0557 -0.05569,0.0186 0.06965,0.0511 c -0.398303,0.0904 -0.801062,0.1941 -1.202038,0.2737 -0.4008284,-0.30088 -0.8023991,-0.60162 -1.2020398,-0.90488 l 2.4458108,-0.26925 c 0.15044,0.11956 0.315881,0.25664 0.491865,0.4038 l -0.696066,0.13456 -0.01396,0.0417 0.751906,-0.14376 c 0.217716,0.18252 0.426967,0.36191 0.426967,0.36191 l 0.04633,-0.0232 c 0,0 -0.204053,-0.17375 -0.413007,-0.3481 l 0.292416,-0.0557 -0.01396,-0.0417 -0.320187,0.0603 c -0.173312,-0.14421 -0.338751,-0.27326 -0.492014,-0.39445 l 0.287812,-0.0325 -0.04188,-0.0417 -0.29702,0.0325 c -0.05926,-0.0462 -0.129204,-0.10351 -0.167074,-0.12994 z m -4.3716871,0.25513 6.7849731,4.79881 -4.7337531,3.08158 -6.947445,-4.59921 -0.3341177,-0.22276 5.179285,-3.05366 0.051087,-0.005 z m -0.2413286,0.45029 -0.751906,0.44077 -0.069503,-0.0557 -0.02792,0.005 0.074255,0.0603 -3.1650444,1.84242 c -0.015297,-0.0112 -0.031187,-0.0213 -0.046484,-0.0325 l -0.0046,0.0186 c 0.010693,0.008 0.021683,0.0155 0.032524,0.0233 l -0.4177586,0.24593 0.018563,0.0649 0.454886,-0.26911 c 0.290337,0.21015 0.5805255,0.41985 0.8724961,0.62657 l -0.2784562,0.18564 0.032375,0.0186 0.2878123,-0.17643 c 0.5024092,0.35539 1.0071945,0.70394 1.5176233,1.04893 l -0.01396,0.009 0.032524,0.0465 0.032375,-0.0233 c 0.1297977,0.0876 0.2594469,0.17776 0.3898387,0.26464 l 0.01396,-0.0605 c -0.1189594,-0.0807 -0.2379158,-0.16137 -0.3573178,-0.24141 l 1.1880797,-0.88171 c 0.5610707,0.40752 1.1271907,0.80804 1.693905,1.20665 l -0.5151814,0.33875 -0.8260125,-0.58468 -0.055691,0.0278 0.8353686,0.58483 -0.7565098,0.50122 0.060295,0.0417 0.7473022,-0.50583 1.0627376,0.74256 c -0.2465273,0.17464 -0.4923106,0.3475 -0.7379463,0.51503 v 0.0233 c 0.2453386,-0.1831 0.5000328,-0.3536 0.7565098,-0.52453 l 0.9327908,0.64973 0.037127,-0.0278 -0.9281869,-0.64973 c 0.4424111,-0.2945 0.8851193,-0.59167 1.2855025,-0.93755 0.272812,0.22039 0.541912,0.43841 0.79824,0.63117 l -0.8399719,0.52454 0.013963,0.0509 0.8678919,-0.54756 c 0.02658,0.0198 0.05242,0.0412 0.07886,0.0603 l 0.0092,-0.0696 c -0.01158,-0.008 -0.02539,-0.015 -0.03713,-0.0232 l 0.747302,-0.4733 c 0.125491,0.0973 0.252765,0.19395 0.385087,0.28306 l 0.0094,-0.0557 c -0.119253,-0.0832 -0.229893,-0.17212 -0.343503,-0.25989 l 0.594039,-0.37588 -0.02317,-0.0325 -0.608,0.38049 c -0.337563,-0.26316 -0.661314,-0.54014 -1.007046,-0.80285 l -0.02777,0.0417 c 0.337563,0.25544 0.652107,0.53419 0.983878,0.79364 l -0.747302,0.4687 c -0.26806,-0.1898 -0.539388,-0.40826 -0.812052,-0.63117 0.05109,-0.0448 0.10366,-0.0876 0.153113,-0.13455 l -0.03252,-0.0325 c -0.05302,0.0453 -0.10856,0.09 -0.162469,0.13469 -0.3120196,-0.25492 -0.624633,-0.51006 -0.9467515,-0.71947 l 0.3991946,-0.26925 -0.023172,-0.0138 -0.4037986,0.26911 c -0.081235,-0.0521 -0.1639543,-0.10292 -0.2459323,-0.14851 l -0.023315,0.0325 c 0.073959,0.0444 0.1479159,0.094 0.2227647,0.1439 l -0.8306157,0.54756 C 7.5664023,115.87953 6.994936,115.49801 6.4384691,115.10401 l 0.394591,-0.29242 -0.051087,-0.0278 -0.3898387,0.28767 c -0.308757,-0.2195 -0.6126083,-0.44523 -0.9096283,-0.68226 l 0.6126036,-0.40839 v -0.0232 l -0.6405234,0.4084 C 5.3192937,114.2576 5.183407,114.15126 5.0509361,114.03646 l -0.051087,0.0139 c 0.1395994,0.11361 0.2802383,0.22351 0.4223624,0.33415 l -0.886456,0.56627 0.018563,0.0557 0.8956636,-0.5988 c 0.2998416,0.23301 0.6071087,0.4586 0.9142273,0.68226 l -1.1926835,0.88184 C 4.6588694,115.62902 4.145025,115.28849 3.6353388,114.94142 l 0.7611136,-0.4733 -0.055691,-0.0511 -0.7471536,0.49662 c -0.2962775,-0.20228 -0.5915153,-0.40647 -0.8817037,-0.61736 l 3.1464806,-1.85162 0.6590872,0.52439 -1.2716909,0.75651 0.046484,0.0232 1.2623347,-0.75191 0.6914624,0.55691 -0.5243887,0.38064 -0.3666711,-0.28306 -0.037128,0.0417 0.3573149,0.27385 -0.6265635,0.45934 -0.0046,0.0419 0.6682948,-0.47345 1.021006,0.77968 0.046484,-0.0139 -1.0210061,-0.79349 0.5289925,-0.37603 1.216,0.97467 -0.4780541,0.34335 -0.00462,0.0233 0.5012215,-0.3481 0.4918646,0.39444 0.046486,-0.0325 -0.4966175,-0.38984 0.7239863,-0.50121 c 0.1949941,0.15163 0.3886507,0.30325 0.5800802,0.45948 l -1.1415962,0.85394 0.00921,0.0279 1.1555556,-0.85869 c 0.3339987,0.27296 0.6671067,0.54948 0.9978387,0.82616 l 0.02792,-0.0511 c -0.331178,-0.26984 -0.652701,-0.54206 -0.9792745,-0.80744 l 0.083462,-0.0651 -0.027767,-0.0186 -0.083612,0.0603 C 9.7196394,114.3276 9.526428,114.177 9.329801,114.02716 l 0.3481074,-0.24133 -0.041731,-0.0325 -0.3435034,0.24593 c -0.055543,-0.0421 -0.11064,-0.0836 -0.1670744,-0.12519 l -0.032523,0.0278 c 0.0545,0.0414 0.1084129,0.0835 0.1624704,0.12534 l -0.7100261,0.51044 -1.2252073,-0.96992 0.3387512,-0.23673 -0.051087,-0.0417 -0.3341474,0.24133 -0.6914624,-0.54756 0.9978385,-0.59404 -0.046484,-0.0233 -0.9884823,0.58944 -0.663691,-0.52439 0.723986,-0.42696 z m -1.5036634,1.25298 -1.183476,0.74254 0.01396,0.009 1.1926836,-0.70082 z m 3.4714203,0.0232 -0.649731,0.45949 0.023167,0.0325 0.6405237,-0.4687 z m 6.4276588,1.06288 -0.03252,0.0278 c 0.325979,0.24326 0.639335,0.50597 0.955662,0.76112 -0.438105,0.0315 -0.897594,0.0959 -1.42436,0.12533 l 0.125343,0.0232 c 0.511914,0.0182 0.941108,-0.0426 1.383667,-0.0835 0.236131,0.18935 0.473747,0.37528 0.723244,0.54755 l 0.01337,-0.0417 c -0.230191,-0.16366 -0.45147,-0.33608 -0.67275,-0.51057 0.294049,-0.0256 0.594039,-0.0438 0.932642,-0.0186 l -0.01337,-0.0138 c -0.334148,-0.0557 -0.659384,-0.0541 -0.997987,-0.0325 -0.329692,-0.26212 -0.654929,-0.5287 -0.992938,-0.78429 z m -13.421587,0.36652 0.1299462,0.0836 -0.027845,1.86098 -0.1438764,-0.0974 z m 0.2087753,0.13931 0.1113825,0.0742 -0.060295,1.59188 -0.097437,0.0881 z m 0.1578661,0.10678 0.3062276,0.19944 0.018563,1.20665 -0.3665225,0.0419 z m 0.3898387,0.25989 6.4044922,4.2557 -0.055694,1.74499 -1.4479722,-0.98848 v -1.54079 l -0.8399724,-0.51978 -0.00936,1.48035 -0.5475562,-0.37128 -0.1764299,0.0928 -0.018563,0.24608 -1.0487774,-0.83077 -0.018563,-0.38063 -1.0164021,-0.6821 v -1.54554 l -0.8399724,-0.51979 -0.00936,1.48509 0.074255,0.0419 0.01396,-1.37847 0.6868586,0.44554 v 1.42019 L 2.7024778,117.0997 2.3591227,116.86773 Z m 6.6829481,0.59404 c 0.3145443,0.21177 0.6350291,0.46425 0.9513552,0.71924 -0.4042439,0.3331 -0.8310618,0.64973 -1.2623348,0.9561 l -1.0581374,-0.74255 0.5058247,-0.3435 c 0.041731,0.0294 0.08376,0.0588 0.1253426,0.0882 l 0.06965,-0.0139 c -0.049752,-0.0361 -0.098908,-0.0711 -0.1485101,-0.10662 z m 9.8383388,0.32479 -0.04604,1.79608 -0.106928,-0.0603 0.01931,-1.72643 z m -0.231676,0.0139 -0.01337,1.61966 -0.106926,-0.0928 0.05495,-1.52223 z m -0.14851,0.009 -0.02821,1.4805 -0.190093,-0.0649 -0.0045,0.005 -0.0045,-1.40623 z m -0.310385,0.0186 0.0089,1.8889 -2.125178,0.7519 V 117.132 l -1.15615,0.49662 -0.01381,1.55935 -3.712749,1.31803 v -1.64758 l -1.155704,0.49663 -0.013812,1.56396 -0.7193823,0.25528 0.013963,-1.93523 4.4784664,-2.84961 z m -14.4059114,0.0279 -0.00476,1.14159 1.0906571,0.75191 -0.00921,-1.15095 z m 0.037128,0.0882 1.0024422,0.6683 -0.00936,1.03021 -0.9884823,-0.67289 z m 14.0064194,0.10203 -1.480645,0.55691 -0.0089,1.23457 1.498466,-0.56627 z m -15.5519626,0.0325 -0.0046,0.0974 -0.3295436,0.0696 0.018563,-0.11598 z m 15.4955286,0.0325 -0.0089,1.11382 -1.358866,0.51979 -0.01039,-1.09065 z m -13.8339992,0.0371 -0.0046,0.77968 0.2970199,0.20881 v 0.005 l 0.060295,0.0465 0.4084024,0.28306 v -0.80759 l -0.3249397,-0.22277 -0.013811,-0.009 v 0.005 z m 10.0801132,0.009 c -0.276081,0 -0.563893,0.24326 -0.640524,0.54295 -0.07648,0.29985 0.08599,0.5431 0.362067,0.5431 0.27608,0 0.563893,-0.24325 0.640376,-0.5431 0.07663,-0.29969 -0.08584,-0.54295 -0.361919,-0.54295 z m -10.0523418,0.0465 0.2413287,0.16232 0.00936,0.25989 -0.2459325,-0.19024 z m 10.0337778,0.009 c 0.219943,0 0.387017,0.24399 0.324791,0.48726 -0.01307,0.0517 -0.03905,0.10009 -0.06951,0.14851 0.12564,-0.52321 -0.147767,-0.70542 -0.570872,-0.50583 0.10173,-0.0769 0.215785,-0.12994 0.315583,-0.12994 z m -12.1221248,0.0603 2.6035281,1.78213 -0.1159863,0.0511 -2.5849644,-1.7496 z m 0.4037985,0 0.0046,0.21357 -0.2644963,-0.17643 z m 11.6718423,0.0233 c 0.239844,0.002 0.371572,0.20346 0.227517,0.65433 -0.118362,0.1301 -0.28306,0.22738 -0.422362,0.22738 -0.220092,0 -0.396225,-0.23465 -0.334148,-0.47806 0.03,-0.11777 0.113908,-0.23494 0.218162,-0.32479 0.112274,-0.0538 0.220091,-0.0795 0.310831,-0.0789 z m 3.652602,0.0232 -0.449984,0.17168 -0.01931,0.005 v 0.005 l -0.579189,0.22276 -0.01039,0.84458 0.408402,-0.14851 v 0.005 l 0.08911,-0.0323 0.556912,-0.2042 z m -16.0153127,0.0186 2.6593679,1.81464 -1.0210059,0.39905 -1.638362,-1.12304 5.95e-5,-1.09065 z m 15.9588797,0.0325 0.006,0.25989 -0.377216,0.17168 -0.0089,-0.27846 z m -13.3050066,0.0186 0.1161347,0.0742 0.013811,0.72859 -0.1159862,-0.0789 z m 0.1393023,0.0928 0.2784562,0.18089 v 0.25068 l -0.2738524,-0.16247 z m -0.4130062,0.005 0.2459325,0.17628 0.0046,0.14851 -0.2505363,-0.18088 z m 13.1658525,0.0464 0.01931,0.76587 -0.157421,0.0557 -0.01931,-0.75651 z m -0.207914,0.0836 0.0089,0.27386 -0.338603,0.10662 -0.0045,-0.24593 z m -12.9579385,0.0417 0.2505363,0.18564 0.00936,0.24593 -0.2598924,-0.18563 z m 13.5846505,0.0139 v 0.12995 l -0.371274,0.14851 -0.006,-0.11599 z m -13.1670405,0.10679 0.2738524,0.17167 v 0.12059 l -0.2692485,-0.17628 z m 13.1670405,0.0789 0.0045,0.29702 -0.362364,0.12995 -0.0089,-0.30163 z m -13.1576844,0.0696 0.2644963,0.19485 0.0046,0.28306 -0.2644963,-0.19024 z m 12.5398834,0 0.0089,0.15311 -0.347513,0.12535 v -0.15787 z m -0.965315,0.0695 v 1.50842 l -0.965463,0.34336 0.01856,-1.46193 z m 0.974225,0.11614 0.0089,0.25514 -0.35197,0.12534 -0.0045,-0.25989 z m 1.332135,0.16232 0.194548,0.0511 0.1396,0.1485 -0.334148,-0.0928 z m 0.0045,0.17643 0.31187,0.0974 v 0.0232 l -0.31187,0.11138 z m 0.380185,0.15772 0.08911,0.005 -9.449243,3.45285 v -0.11614 l 6.752301,-2.40853 h 0.01931 v -0.009 z m 0.163361,0.0976 0.04158,1.03482 -9.8946234,3.56423 -0.027767,-0.97912 z m -5.8804,0.0649 -1.480496,0.55692 -0.0092,1.23456 1.49906,-0.56627 z m -0.0557,0.0651 -0.0092,1.11383 -1.359905,0.51978 -0.0092,-1.09065 z m -6.3905307,0.12995 0.6868586,0.44553 v 1.41545 l -0.7008185,-0.48266 z m 6.2234577,0.0789 -0.450134,0.17168 -0.01857,0.005 v 0.005 l -0.58008,0.22277 -0.0094,0.84457 0.408402,-0.14851 v 0.005 l 0.08821,-0.0323 0.556913,-0.20421 z m -10.3214416,0.0464 0.737946,0.49661 -0.3435035,0.13455 -0.3850864,-0.26909 z m 10.2657506,0.005 0.0046,0.25989 -0.375878,0.17167 -0.0092,-0.27845 z m -8.1355237,0.0186 0.078859,1.09986 -0.1577175,0.0417 -0.02792,-1.10922 z m -0.2321211,0.0742 0.055691,0.0417 -1.3922809,0.529 1.7868718,1.14174 0.4130063,1.41085 0.00921,0.0278 1.0395699,3.5176 0.00936,0.32524 -1.5872746,-5.29542 -1.7635558,-1.12779 z m 7.9546388,0.0695 0.01857,0.76586 -0.157866,0.0557 -0.01857,-0.75651 z m -7.8989475,0.009 0.04188,1.00245 -0.3295437,0.12994 -0.9513548,-0.63116 z m 7.6901425,0.0742 0.0092,0.27386 -0.338752,0.10663 -0.0046,-0.24594 z m -4.5852447,0.0232 -0.00936,1.14174 1.0906574,0.75176 -0.00462,-1.15095 z m 5.2116587,0.0325 v 0.12995 l -0.371274,0.1485 -0.0046,-0.11598 z m -10.3817361,0.0557 v 0.0511 l 0.4826574,0.33415 -0.0046,0.0881 -0.092819,0.0465 -0.5894361,-0.41301 z m 5.2024526,0 1.0024421,0.66829 -0.00462,1.03021 -0.9884821,-0.6729 z m -2.8680245,0.0139 1.0441736,0.86314 -0.0046,0.93279 -1.2112474,-0.89566 0.2088051,-0.12059 z m 8.047308,0.11598 0.0048,0.29702 -0.362067,0.12995 -0.0092,-0.30162 z m -10.604501,0.0371 0.5754761,0.4084 -0.1113824,0.53375 -0.5289926,-0.38523 z m 9.987295,0.0325 0.0094,0.15311 -0.348107,0.12535 v -0.15787 z m -4.4413389,0.005 -0.00936,0.77967 0.2970199,0.20881 v 0.005 l 0.065047,0.0465 0.4037987,0.28306 0.00462,-0.80745 -0.329544,-0.22277 -0.00921,-0.005 z m 0.023167,0.0557 0.2459325,0.15771 0.00476,0.26465 -0.246081,-0.19039 z m 3.4528569,0.009 v 1.51302 l -0.965315,0.33875 0.01856,-1.46194 z m -8.2237394,0.11138 1.7357843,1.07669 2.1579984,7.28605 -1.3180259,-0.57918 -1.2252074,-4.97108 -0.018563,-0.0789 -0.1253424,-0.51058 -1.2391671,-0.89567 z m 9.1984104,0.005 0.0092,0.25514 -0.352712,0.12534 -0.0046,-0.25989 z m -4.1444679,0.0603 0.1161351,0.0742 0.00921,0.72859 -0.1113828,-0.0789 z m -5.1513651,0.0696 -0.0046,0.0789 -0.055691,-0.0511 z m 3.0955417,0.0138 2.8448569,1.96315 -0.00462,0.0974 -2.942428,-1.97697 z m 2.195126,0.009 0.273852,0.18104 0.00462,0.24593 -0.2738519,-0.15786 z m -0.4177587,0.005 0.246081,0.17644 0.00921,0.1485 -0.2552886,-0.18103 z m 1.5501469,0.0186 0.013963,2.08375 -0.19039,0.0742 0.041882,-2.07439 z m -6.5112708,0.0417 0.083611,0.0696 -0.01396,0.59404 -0.1810336,-0.12995 c 0.040543,-0.16796 0.052276,-0.36771 0.1113825,-0.53374 z m 15.5237459,0.0419 0.0045,0.83062 -7.787268,2.88673 -0.8539323,-0.56151 c -0.2500903,-0.0648 -0.2643476,0.26524 -0.1020262,0.38984 l 0.5150328,0.33875 -0.6682951,0.24593 -0.00462,-0.93279 z m -9.2307848,0.0557 -0.05109,2.03726 -0.1159864,-0.0789 0.06965,-1.91667 0.013963,0.009 z m -1.3319858,0.0138 0.2552887,0.18563 0.0046,0.24609 -0.2551401,-0.18564 z m -1.9027096,0.005 3.1418765,2.14864 -0.027768,0.98863 -2.5897164,-1.74039 -0.01396,0.12059 0.8307648,2.43185 -0.5151811,0.19039 -0.84918,-2.60368 z m -3.7452729,0.0789 0.7519061,0.54295 -0.00936,0.3992 0.3852348,0.28306 -0.046484,0.2691 -1.1601598,-0.84918 z m 6.0703449,0.0371 0.273852,0.17168 v 0.12074 l -0.2692504,-0.17688 z m -3.6616618,0.0789 0.018563,0.0186 1.2391672,0.94215 v 0.34335 l -0.5662685,0.24133 -0.3109799,-1.03481 -0.6357712,-0.42236 z m 3.671018,0.0696 0.2644958,0.19484 0.00462,0.28321 -0.2644957,-0.19039 z m 10.242434,0.42236 0.338603,0.2042 v 0.005 l -2.98802,1.10922 -0.334147,-0.0651 2.98802,-1.10446 z m -16.4058946,0.10663 0.4130061,0.30638 -0.1207386,0.64037 -0.3758787,-0.2691 z m 16.7534086,0.20895 0.04752,0.47331 -1.104914,0.42696 -0.01337,-0.50122 z m -16.2796619,0.13916 1.4711397,1.06749 -0.1299462,0.62642 -1.4571797,-1.04878 z m 0.7842812,0.19499 0.8353685,0.62182 0.088215,0.35731 -0.9792747,-0.71923 z m 14.3549717,0.0881 0.0089,0.50597 -1.744992,0.6729 -0.01337,-0.53374 z m 1.192536,0.10217 0.0698,0.65894 -1.875681,0.73335 0.0045,-0.69622 z m -16.893008,0.0139 1.0487774,0.76111 -0.037128,0.25515 c -0.1015809,-0.044 -0.2018251,-0.0664 -0.3016238,-0.0695 -0.1048481,-0.003 -0.2101416,0.0147 -0.3109799,0.0464 l -0.4779514,-0.33913 z m 3.8380915,0.005 v 0.009 l 0.050939,0.14851 -0.5569124,0.24133 -0.050939,-0.16708 z m 0.6589387,0.0139 2.5571931,1.71707 0.3481074,-0.12534 -0.023315,0.87725 -0.3341472,-0.23673 0.1578655,-0.0557 c 0.2572193,-0.079 0.1932114,-0.54028 0.013963,-0.50582 l -0.6405236,0.23658 -1.8703341,-1.30407 z m -0.5986436,0.18563 0.041731,0.12995 -0.5569124,0.24594 -0.041731,-0.14392 z m 0.055691,0.17168 0.055691,0.15772 -0.5662685,0.24608 -0.050939,-0.17183 z m 9.4908254,0.0464 0.310387,0.079 -1.647125,0.61261 -0.301624,-0.0882 z m 0.426224,0.1393 0.02821,0.529 -0.58513,0.22751 c -0.246229,-0.0144 -0.504785,0.06 -0.74656,0.18089 -0.114649,0.0714 -0.222318,0.15074 -0.324939,0.23212 l -0.02317,0.009 -0.0557,-0.54756 z m -9.8521506,0.009 0.046484,0.14391 -0.5662685,0.24593 -0.046335,-0.15311 z m 12.9485826,0.1347 0.06535,0.64973 -1.100459,0.42222 v -0.6683 z m -1.949935,0.005 -0.0045,0.69607 -0.956405,0.38062 c -0.04307,-0.0701 -0.08762,-0.13558 -0.138113,-0.19023 -0.152965,-0.15772 -0.325237,-0.2397 -0.506419,-0.26925 z m -12.9153173,0.009 0.1902413,0.1393 0.1856374,0.75651 c -0.1742449,-0.11454 -0.3478531,-0.20676 -0.5198275,-0.2831 l 0.023316,-0.005 z m -2.1905219,0.009 0.3620376,0.25528 -0.00936,0.0603 c -0.1510346,0.0675 -0.2901884,0.16589 -0.4223028,0.27385 z m 4.1676351,0.0232 0.050939,0.15312 -0.5707239,0.25068 -0.051087,-0.16708 z m 0.6821063,0.0325 1.3227782,0.92359 -0.2042011,0.0742 -1.0164023,-0.71478 z m -3.643098,0.0232 0.5800799,0.42236 c -0.062522,-0.0227 -0.1243028,-0.0459 -0.1856374,-0.0651 -0.010841,-0.11748 -0.2049437,-0.11287 -0.3108314,-0.16708 -0.028959,0.0296 -0.083314,0.0417 -0.1113824,0.0557 -0.00312,-0.002 -0.00624,-0.003 -0.00936,-0.005 z m 3.0212868,0.1393 0.046335,0.13916 -0.5754762,0.25068 -0.046335,-0.15325 z m -3.5550316,0.0789 c 0.025693,-0.002 0.052573,-4.4e-4 0.079008,0 0.093413,0.0435 0.1880136,0.0848 0.28306,0.12535 -0.1153923,0.0754 -0.2246956,0.15296 -0.3249399,0.23197 -0.149104,-0.0765 -0.297911,-0.15148 -0.4407775,-0.23197 0.1259365,-0.0711 0.2591499,-0.11554 0.4036494,-0.12535 z m 0.1995974,0.009 c 0.080641,0.0112 0.1629155,0.0299 0.2506849,0.0605 -0.016485,0.0103 -0.030296,0.0221 -0.046484,0.0323 -0.069057,-0.0297 -0.1358866,-0.0617 -0.2042009,-0.0928 z m 10.9526092,0.0186 0.278457,0.0928 -2.05122,0.76586 -0.222765,-0.12074 z m -10.4931193,0.0186 c 0.077522,0.004 0.1548958,0.0636 0.1902412,0.0976 -1.2492658,0.71923 -1.7571699,1.89008 -1.5918783,3.23439 -0.068686,0.0342 -0.2587786,0.0357 -0.2412693,-0.12029 -0.076809,-0.52721 -0.044984,-1.1214 0.1577919,-1.63376 0.2052556,-0.5183 0.6417264,-1.10061 1.4108595,-1.55935 0.025098,-0.0137 0.048414,-0.0198 0.074255,-0.0186 z m 2.9562393,0.0511 0.041732,0.13455 -0.5800799,0.25068 -0.041732,-0.1393 z m 11.667091,0.009 v 0.6729 l -1.4851,0.57086 -0.03267,-0.64972 z m -15.7093837,0.0278 -0.0046,0.0232 c 0.1434607,0.0784 0.2894459,0.1537 0.4363223,0.22751 -0.1076697,0.0866 -0.2022705,0.17465 -0.2924161,0.2645 -0.1538563,-0.0827 -0.305782,-0.16782 -0.4594601,-0.25068 0.1031996,-0.10753 0.2080327,-0.19783 0.3201577,-0.2645 z m 1.3319859,0.0417 c 0.351226,0.13306 0.6887891,0.29003 0.9421471,0.45028 -0.059404,0.0345 -0.1145012,0.0706 -0.1716775,0.10663 -0.2760799,-0.1941 -0.5860203,-0.34113 -0.9050196,-0.4779 0.044107,-0.0266 0.088215,-0.0534 0.13455,-0.079 z m 3.420333,0.005 0.8818522,0.6218 -0.1439062,0.43633 -0.14851,0.0557 -0.2738524,-0.19959 z m 7.1935258,0.009 0.03252,0.5523 -2.097703,0.8122 -0.03713,-0.58943 z m -7.8478607,0.0789 0.055691,0.16708 -0.589436,0.24133 -0.050939,-0.16708 z m -2.9422794,0.009 c 0.3140985,0.13382 0.6250784,0.27801 0.9096234,0.47806 -0.1257879,0.0808 -0.2484571,0.16351 -0.3620672,0.25053 -0.2882579,-0.16752 -0.5971586,-0.319 -0.9050198,-0.47329 0.1103429,-0.0894 0.2264778,-0.17435 0.3574636,-0.2553 z m 15.7242341,0.0974 0.07425,0.72399 -1.847464,0.68686 -0.0089,-0.71464 z m -17.227155,0.0557 c 0.1534553,0.0817 0.3064206,0.16395 0.4593859,0.24593 -0.085839,0.0876 -0.1664797,0.17479 -0.2365764,0.26464 -0.1515544,-0.0821 -0.3039108,-0.16276 -0.4548563,-0.24608 0.064498,-0.0836 0.1326788,-0.16113 0.2042011,-0.23657 0.00881,-0.01 0.018979,-0.0182 0.027846,-0.0279 z m 13.389064,0.005 c 0.210438,5.9e-4 0.410927,0.0787 0.608445,0.23672 0.02376,0.0258 0.04604,0.0574 0.0698,0.0882 l -0.204944,-0.009 c -0.121778,-0.14436 -0.276229,-0.2544 -0.473301,-0.31558 z m -0.181034,0.0233 c 0.04589,0.0101 0.08821,0.0223 0.129946,0.0371 l -0.01857,2.64556 -0.413007,0.14851 v -2.72457 c 0.103067,-0.0515 0.202271,-0.0867 0.301624,-0.10662 z m -8.6970398,0.0138 0.050939,0.1485 -0.5940398,0.24609 -0.046335,-0.16247 z m 8.9244088,0.0651 c 0.164103,0.0781 0.293307,0.19618 0.394294,0.33875 l -0.01782,2.08835 -0.404244,0.14405 z m -12.3169705,0.0186 c 0.3065246,0.15194 0.6137917,0.30223 0.9050198,0.47331 -0.1195506,0.093 -0.230339,0.19024 -0.3341474,0.28781 -0.2838026,-0.16796 -0.5736941,-0.32509 -0.8632885,-0.48266 0.087621,-0.0955 0.1863801,-0.19053 0.2924161,-0.27846 z m 6.7432432,0.0325 c 0.024804,-0.003 0.048119,0.002 0.065046,0.009 l 2.4735823,1.62901 c 0.08524,0.12223 0.03341,0.1898 0,0.26405 L 9.4653657,122.8868 c -0.1535594,-0.17732 -0.079009,-0.24207 -0.00462,-0.25053 z m 4.9565193,0.0232 0.0046,2.71075 -0.459341,0.16188 v -2.51531 c 0.140342,-0.12728 0.291525,-0.24846 0.454737,-0.35732 z m -10.126448,0.0464 0.013811,0.009 0.032524,0.1996 v 0.005 c -1.2599585,0.75606 -1.7426159,2.01423 -1.610442,3.27211 -0.051236,-0.0208 -0.1618759,-0.0342 -0.1994489,-0.0698 -0.082126,-0.54355 -0.1401934,-1.20145 0.069503,-1.73118 0.2120723,-0.53553 0.8756148,-1.2166 1.6940532,-1.6847 z m 1.8795422,0 0.055691,0.16247 -0.5986437,0.24593 -0.051087,-0.17167 z m 1.735636,0.0465 0.3435036,0.23672 -0.2042013,0.0742 -0.3387512,-0.23672 z m 8.1866118,0.009 0.02376,0.65908 -0.03268,0.0139 c -0.05049,-0.23361 -0.120293,-0.42756 -0.209398,-0.58484 z m -14.7488216,0.0139 c 0.151495,0.0829 0.3031534,0.1641 0.4547523,0.24593 -0.088467,0.11658 -0.1638065,0.23406 -0.227339,0.35271 l -0.44553,-0.25989 c 0.064319,-0.11792 0.1374609,-0.23123 0.2181167,-0.33875 z m 7.6853909,0.009 c 0.1112335,0.006 0.1361836,0.17286 -0.037127,0.33414 l -2.8588171,1.00705 c -0.1638065,-0.0944 -0.1021749,-0.24445 -0.023167,-0.28306 l 2.8680244,-1.04892 c 0.019157,-0.006 0.035199,-0.0101 0.05109,-0.009 z m 6.4456287,0.0371 0.213854,0.0186 c 0.0995,0.14286 0.182668,0.33652 0.246527,0.58008 l -0.176727,-0.0325 c -0.06238,-0.2137 -0.155936,-0.40811 -0.283654,-0.56612 z m -4.013779,0.0138 0.208806,0.12534 -0.974523,0.36667 -0.204201,-0.13455 z m 2.459623,0.005 c -0.343356,0.29657 -0.613644,0.64988 -0.812054,1.03957 l -0.208953,0.0835 c -0.0021,-0.23673 -0.0101,-0.48088 -0.04173,-0.71463 z m -6.2977138,0.0417 0.3109798,0.22277 -0.4223623,0.15312 z m -1.3829248,0.0232 0.041731,0.13456 -0.5986436,0.25988 -0.046484,-0.15771 z m -3.8380915,0.005 c 0.2882578,0.15758 0.5731,0.31945 0.8539323,0.48741 -0.088215,0.0845 -0.170935,0.16901 -0.2459326,0.25514 -0.2732582,-0.16038 -0.5490413,-0.31276 -0.8261609,-0.46409 0.065345,-0.0962 0.1376688,-0.18831 0.2181612,-0.27846 z m 1.9584008,0.10678 0.00476,0.0139 0.0046,0.0186 c -0.00773,-0.008 -0.015445,-0.0156 -0.023168,-0.0232 0.00445,-0.003 0.00936,-0.006 0.013811,-0.009 z m 11.1337913,0.009 c 0.301475,0.52216 0.30296,1.30644 0.277714,1.85697 l -0.277714,0.10098 z m -3.768588,0.0138 0.04649,0.58483 -0.399194,0.15311 -0.589437,-0.38983 z m -7.4161422,0.0139 c 0.027029,0.0249 0.052573,0.0524 0.078859,0.0789 l 0.1159863,0.4641 c -0.020049,0.008 -0.040394,0.0184 -0.060295,0.0279 v -0.009 C 4.3132624,123.4958 4.166683,123.38591 4.0123812,123.2815 c 0.09371,-0.0777 0.194251,-0.15222 0.2970199,-0.22737 z m 1.9815685,0.0232 0.055691,0.16707 -0.6032474,0.25068 -0.051087,-0.16707 z m 7.5740077,0.0279 v 2.46422 l -0.55216,0.19901 0.0046,-1.98098 c 0.150737,-0.24608 0.334444,-0.47463 0.547556,-0.68225 z m 3.123165,0.0371 0.0089,0.71002 -0.834625,0.32955 c -0.0074,-0.25707 -0.02673,-0.48697 -0.06534,-0.68686 z m -15.8816556,0.009 0.4408815,0.25988 c -0.035182,0.0687 -0.065537,0.14005 -0.092819,0.20896 -0.023316,0.0588 -0.041954,0.11703 -0.060325,0.17629 -0.1486139,-0.0912 -0.2966933,-0.18565 -0.44552995,-0.27846 0.0403497,-0.12564 0.0957888,-0.24846 0.15779245,-0.36667 z m 1.0535001,0.0696 c 0.2742978,0.14985 0.5484472,0.30356 0.8214085,0.46409 -0.1000956,0.11777 -0.1871225,0.23585 -0.2598924,0.35272 l -0.7703212,-0.44092 c 0.057622,-0.1298 0.1295007,-0.25515 0.2088051,-0.37589 z m 4.8868688,0.005 0.1856375,0.1347 -0.1205901,0.0464 z m 11.8623817,0.009 0.06534,0.64973 -1.021749,0.35731 -0.02821,-0.64512 z m -6.089057,0.0325 0.02317,0.71923 -0.742549,0.29242 c -0.02391,-0.0362 -0.05584,-0.0658 -0.09282,-0.0835 l -0.59404,-0.38983 c 0.471371,-0.18133 0.943484,-0.36623 1.406241,-0.53835 z m -6.4601833,0.0138 0.046484,0.14851 -0.6079998,0.26464 -0.051087,-0.18103 0.0046,0.005 z m -2.3807633,0.0279 c 8.921e-4,-7.4e-4 0.00371,7.4e-4 0.0046,0 0.1348471,0.0927 0.2665755,0.18994 0.3898387,0.29702 l 0.023167,0.0371 c -0.1170258,0.0606 -0.2267747,0.13915 -0.3341474,0.23197 l -0.00921,-0.0278 c -0.1263819,-0.0857 -0.2558827,-0.16558 -0.3852348,-0.24593 0.097423,-0.0988 0.1995974,-0.19855 0.3109799,-0.29241 z m 4.7337555,0.005 0.5058248,0.35271 0.4130059,-0.15311 0.194994,0.13454 -0.6219601,0.23212 -0.7006699,-0.49201 z m 1.3505491,0.0557 1.74024,1.14679 -0.02316,1.09006 -1.768159,-1.14619 z m -0.092818,0.0186 -0.00478,0.2088 -0.074254,0.0279 -0.1808857,-0.1393 z m 5.7960461,0.0279 0.181182,0.0464 c 0.04901,0.2036 0.08019,0.44359 0.09356,0.71938 l -0.158906,-0.0232 c -0.01485,-0.25068 -0.04901,-0.50687 -0.115837,-0.74255 z m -7.3739646,0.009 0.7517571,0.53374 -0.05109,0.69102 -0.7006699,-0.50538 -0.032523,-0.70542 z m -1.9725094,0.0417 0.037128,0.11613 -0.6126036,0.25989 -0.037128,-0.13469 0.00476,0.005 z m 1.8332073,0.009 0.092818,1.21079 -2.0559718,0.70543 -0.046335,-1.2108 z m -7.31871992,0.0789 c 0.14861392,0.0913 0.29655962,0.18341 0.44552992,0.27386 -0.042801,0.14509 -0.07075,0.29479 -0.08817,0.44092 -0.1438764,-0.0925 -0.2880945,-0.18504 -0.4316145,-0.27845 0.007886,-0.14822 0.0315583,-0.29406 0.0742546,-0.43633 z m 5.53199622,0.0603 0.00921,0.0233 -0.4779051,0.17628 c -0.032969,0.0539 -0.046632,0.11554 -0.046484,0.17644 l -0.055691,0.0232 -0.046335,-0.15787 0.013811,0.009 z m 11.3939804,0.005 0.01337,0.64973 -1.563809,0.55231 -0.02376,-0.62657 z m -15.9232373,0.009 0.7657174,0.44093 c -0.05881,0.0977 -0.1110855,0.19336 -0.14851,0.28766 -0.013217,0.0334 -0.020791,0.0687 -0.032524,0.10218 -0.2408832,-0.13559 -0.4819148,-0.27712 -0.7239861,-0.42236 0.036533,-0.14065 0.082572,-0.27624 0.1393027,-0.40841 z m 1.6985085,0 c 0.1280156,0.0805 0.2557341,0.16084 0.3806309,0.24593 l 0.01396,0.0279 c -0.036088,0.0325 -0.072473,0.0665 -0.1067787,0.10202 -0.042325,0.0466 -0.081383,0.0946 -0.1207386,0.14392 -0.1302432,-0.0884 -0.2616746,-0.17258 -0.3944424,-0.2553 0.071879,-0.0901 0.1445001,-0.17865 0.2273687,-0.26449 z m 0.8910597,0.0465 0.00476,0.0278 c -0.020494,0.009 -0.040691,0.0187 -0.060443,0.0279 l -0.00921,-0.0325 c 0.021386,-0.009 0.043662,-0.0155 0.064898,-0.0232 z m 5.4345739,0.0138 -0.00921,0.38984 -0.00936,-0.38048 z m -5.5319964,0.0186 0.018564,0.0325 c -0.1277187,0.0624 -0.2435564,0.14405 -0.3481075,0.23672 l -0.018563,-0.0465 c 0.1094519,-0.0925 0.2285568,-0.16855 0.3481074,-0.22276 z m 5.4531377,0.009 0.00921,0.63116 -0.7054229,0.27445 0.037127,-0.65969 z m -5.3417552,0.0139 0.5337447,2.14805 c -0.2261806,0.34602 -0.6310188,0.64156 -1.3597571,0.76185 -0.00936,-0.007 -0.018861,-0.0163 -0.02792,-0.0237 -0.7297779,-1.15096 0.2096961,-2.75026 0.8539323,-2.88615 z m 3.0676218,0.051 c -0.1002442,0.0144 -0.2047952,0.0961 -0.2784562,0.28781 l 0.5940399,0.0649 c 0.07574,-0.12593 -0.085839,-0.34647 -0.2737039,-0.35271 -0.014108,-4.5e-4 -0.027474,-0.002 -0.04188,0 z m -1.3829248,0.0696 -0.046484,0.009 c 0.031335,0.0962 0.017376,0.14733 0,0.19485 l 0.055691,-0.009 c 0.1110854,-0.084 0.014851,-0.13351 -0.00921,-0.195 z m -2.840253,0.0742 c 0.1300947,0.0814 0.2603379,0.16366 0.3898386,0.25069 0.00148,0.002 0.00297,0.003 0.0046,0.005 -0.083314,0.10752 -0.1605393,0.22083 -0.2273688,0.33905 l -0.4084024,-0.23702 c 0.070394,-0.12357 0.1520743,-0.24222 0.2413287,-0.35732 z m 7.3975781,0.005 c -0.01515,-1.4e-4 -0.02955,0.002 -0.04633,0.005 -0.03847,0.006 -0.08272,0.0196 -0.129947,0.0417 0.06609,0.11361 0.209845,0.27801 0.464094,0.25054 -0.0014,-0.009 -0.05866,-0.29346 -0.287812,-0.29703 z m 2.301904,0 c -0.118511,0.24208 -0.204498,0.49662 -0.2691,0.76053 l -0.858536,0.32969 -0.01857,-0.41731 0.06951,0.046 c 0.152371,-0.0861 0.164252,-0.2391 0.106779,-0.34766 l 0.747153,-0.28306 z m 0.14851,0.005 -0.0046,1.86068 -0.385235,0.1396 c -0.07707,-0.72324 0.06623,-1.40787 0.389839,-2.00028 z m -9.1750936,0.0186 0.023168,0.0371 c -0.076928,0.0701 -0.1446486,0.14895 -0.2088049,0.23197 l -0.027772,-0.0325 c 0.039504,-0.0529 0.082423,-0.10337 0.125194,-0.15311 0.028663,-0.0297 0.057919,-0.0567 0.088215,-0.0835 z m 6.5019146,0.0323 -0.09282,0.58454 c 0.04663,0.15593 0.179401,0.20791 0.399195,0.21385 l 0.204201,-0.48281 c -0.243408,0.0421 -0.437956,-0.13781 -0.510576,-0.31558 z m -9.69948257,0.0371 c 0.14436657,0.091 0.28776777,0.18326 0.43161457,0.27385 -0.0169,0.15401 -0.023242,0.30623 -0.018563,0.45919 -0.1193724,-0.0773 -0.2380912,-0.15742 -0.35735956,-0.23612 -0.0463796,-0.16604 -0.0612901,-0.33326 -0.055692,-0.49692 z m 5.09567397,0.005 c 0.00668,0.0631 0.023613,0.12489 0.060443,0.17167 l -0.055691,0.0232 -0.055691,-0.17628 z m -4.1628828,0.0464 c 0.2367248,0.14034 0.4749348,0.27786 0.7147784,0.413 -0.050048,0.15015 -0.085096,0.29865 -0.1067787,0.45013 -0.2310815,-0.12771 -0.4596383,-0.26286 -0.6868734,-0.40394 0.016559,-0.15698 0.042191,-0.31053 0.078874,-0.45919 z m 5.5180362,0.0603 -0.7796773,0.55632 0.00936,0.33414 h 0.14851 l -0.02792,-0.23167 0.3249398,0.009 0.018563,0.19603 0.14851,-0.0104 -0.018564,-0.22276 0.6775025,-0.36133 0.018563,0.24104 0.1299465,-0.0179 -0.01856,-0.42741 z m 8.5712522,0.0419 0.158905,0.0323 c 0.0089,0.21549 0.0104,0.4494 -0.01039,0.71078 l -0.14257,0.0505 c 0.0089,-0.2302 0.01188,-0.50821 -0.006,-0.79364 z m -9.7222044,0.0371 0.00476,0.16232 -0.1439061,0.0605 -0.055691,-0.18563 0.074255,-0.028 c 0.00861,0.009 0.018118,0.016 0.027772,0.0232 z m 10.0712024,0 0.0045,0.63177 -0.08762,0.0312 c 0.01634,-0.23762 0.01782,-0.45191 0.01337,-0.65374 z m -7.8064257,0.005 0.6636911,0.47271 -0.055694,0.76186 -0.7657173,-0.56138 0.023172,-0.11138 0.1299466,-0.046 -0.018567,-0.41375 z m -4.6038088,0.005 c 0.00936,0.01 0.020197,0.0205 0.02792,0.028 -0.156975,0.21148 -0.2679119,0.45949 -0.3435035,0.71493 l -0.055691,-0.0237 c 0.085987,-0.25544 0.2125177,-0.50048 0.3712749,-0.71908 z m 8.1448805,0.0465 -0.05569,0.009 c -0.111086,0.084 -0.0147,0.13351 0.0094,0.19499 l 0.04634,-0.009 c -0.03118,-0.0962 -0.01737,-0.14732 0,-0.19485 z m -8.8455504,0.051 0.4130062,0.23702 c -0.062522,0.11435 -0.1226692,0.23167 -0.1670737,0.35197 h -0.0046 c -0.1372233,-0.0684 -0.275486,-0.1396 -0.4131548,-0.21238 0.047374,-0.13068 0.1057391,-0.25632 0.1718263,-0.37661 z m 7.9776584,0.009 -0.08346,0.13915 c 0.149847,-0.0882 0.171084,0.0588 0.190241,0.0692 -0.05866,0.1203 -0.12653,0.0802 -0.218161,0.098 l -0.07425,0.12921 c 0.207616,0.0802 0.30192,-0.0134 0.426966,-0.16188 0.05525,-0.22588 -0.0453,-0.25856 -0.241329,-0.27371 z m -1.1555564,0.0371 -0.00462,0.12995 0.5846844,0.39919 -1.3783214,0.54355 0.041731,-0.77968 z m -3.7776477,0.0417 0.0046,0.15326 -0.097423,0.0416 -0.04188,-0.14376 z m -5.23972862,0.13989 c 0.11799112,0.0773 0.23570022,0.15445 0.35271122,0.23168 0.0038,0.10396 0.00744,0.20791 0.018564,0.31039 -0.1186743,-0.0772 -0.2136465,-0.16188 -0.2830898,-0.31039 -0.0362515,-0.0773 -0.0649733,-0.15445 -0.0881854,-0.23168 z m 0.78432572,0.009 c 0.2278588,0.1396 0.4570097,0.27772 0.6869031,0.40841 -0.020643,0.15445 -0.025246,0.3089 -0.023316,0.46335 -0.2301905,-0.12921 -0.4603809,-0.26435 -0.6867992,-0.40841 -0.00162,-0.1589 0.00814,-0.31187 0.023212,-0.46335 z m 4.4599027,0.0416 0.0046,0.19901 -0.037128,0.0148 -0.055691,-0.18118 z m -3.2300917,0.12475 c 0.1373717,0.0757 0.2740009,0.15149 0.4130062,0.22277 -0.047672,0.13663 -0.080641,0.27623 -0.1020263,0.4188 -0.1437576,-0.0639 -0.2860303,-0.13366 -0.4269662,-0.20494 0.026435,-0.15297 0.066681,-0.29554 0.1159863,-0.43663 z m 8.956932,0.0327 0.0048,0.28811 -0.01396,0.005 z m 0.895813,0.0193 c -0.04857,0.21979 -0.08035,0.44404 -0.09282,0.67275 l -0.835368,0.31038 0.01856,-0.63117 z m -4.5620774,0.0268 -0.00936,0.052 -0.046335,-0.0327 z m -2.055972,0.0237 v 0.12029 l -0.032524,-0.10693 z m 1.9723611,0.009 0.8864559,0.64601 -0.05109,0.64899 -1.2437712,-0.89551 -0.078859,-0.22277 z m 2.4132863,0.0847 0.603396,0.4084 -1.099864,0.42176 0.0046,-0.63562 h -0.01857 z m -7.1237257,0.055 0.060295,0.0193 c -0.038612,0.13515 -0.068018,0.2703 -0.083611,0.40841 l -0.069502,-0.0149 c 0.016633,-0.14108 0.049305,-0.2777 0.092819,-0.41285 z m 4.1628828,0.0609 0.6636912,1.93955 -0.8586848,-0.67275 -0.3479588,-1.06779 z m -5.9126271,0.009 c 0.2273093,0.14554 0.4566087,0.28513 0.6867991,0.41731 0.00268,0.12029 0.010544,0.24355 0.023316,0.36237 -0.2313785,-0.12773 -0.4602324,-0.2599 -0.6869032,-0.3995 -0.010916,-0.12772 -0.021356,-0.25544 -0.023212,-0.38018 z m 8.335122,0.0787 -0.0046,0.64454 -0.9096237,0.35345 0.032523,-0.65493 z m -7.2027336,0.0698 c 0.1403419,0.0728 0.2799413,0.14703 0.4223624,0.21386 h 0.0046 c -0.019752,0.15148 -0.023762,0.30147 -0.00921,0.45444 -0.1528168,-0.0668 -0.3053365,-0.13366 -0.454886,-0.2094 0.00178,-0.1589 0.013366,-0.31187 0.037127,-0.4589 z m 4.1815951,0.0609 0.018563,0.0505 -0.6544833,0.27771 -0.023168,-0.0876 z m 0.7749249,0.0787 0.2970199,0.2183 -0.088066,0.3891 z m -0.7471536,0.009 0.051087,0.14851 -0.6543349,0.27771 -0.051087,-0.16188 z m 4.2093662,0.0371 0.584684,0.39949 -0.672899,0.24949 -0.01396,-0.6074 z m -7.8941954,0.0371 0.064899,0.009 c -0.015,0.14554 -0.015445,0.2896 -0.0046,0.42771 l -0.055691,0.009 c -0.019158,-0.14852 -0.020049,-0.2985 -0.0046,-0.44553 z m -1.6336096,0.0282 c 0.2272648,0.13663 0.4555246,0.2688 0.6869031,0.39801 0.0052,0.0476 0.012178,0.0936 0.018563,0.1396 -0.246972,-0.16336 -0.4761229,-0.3386 -0.7008333,-0.51978 z m 9.369939,0 -0.0046,0.61187 -2.0048844,0.747 0.032523,-0.58958 z m 1.619798,0.0639 c -0.0076,0.18415 -0.0062,0.37127 0.0092,0.55691 l -0.635771,0.22871 -0.01396,-0.55246 z m -6.4184518,0.0104 0.6079998,2.05538 -0.088215,-0.0371 -0.5986437,-1.99152 z m 0.812201,0.009 0.037128,0.11584 -0.663691,0.2792 -0.037128,-0.13514 0.0046,0.005 z m 1.0348173,0.0653 0.8493289,0.61186 -0.041731,0.58512 -0.8724965,-0.61334 -0.046486,-0.13812 z m -0.9884822,0.0876 h 0.0046 l 0.037128,0.13069 -0.6635425,0.28217 -0.04188,-0.14406 z m -4.3578763,0.009 c 0.1516286,0.0787 0.3039998,0.15445 0.4594898,0.22277 0.016336,0.13514 0.046484,0.27177 0.092819,0.40394 -0.1777664,-0.0906 -0.3565723,-0.17969 -0.5337447,-0.27325 -0.011435,-0.1203 -0.018415,-0.23911 -0.018564,-0.35346 z m 9.221578,0.0742 0.01396,0.548 -1.86573,0.6683 -0.0046,-0.53761 z m -4.8080104,0.0891 0.055691,0.16187 -0.6682948,0.28366 -0.055691,-0.17673 z m -3.791608,0.0327 c 0.016485,0.17375 0.061483,0.33414 0.1205902,0.47671 l -0.032376,0.006 c -0.013366,-0.0268 -0.024949,-0.0505 -0.037128,-0.0802 -0.050345,-0.12921 -0.082869,-0.26138 -0.1021748,-0.39356 z m 1.6893008,0.0742 0.037128,0.13812 c -0.5396851,0.44998 -0.8977427,0.61631 -1.2066434,0.64156 -0.023019,-0.006 -0.047226,-0.0148 -0.069651,-0.0237 0.6653246,-0.12475 1.0196693,-0.4188 1.2391671,-0.75591 z m 2.1719583,0.0965 0.046335,0.1485 -0.6728987,0.28366 -0.051087,-0.16336 z m -4.464655,0.009 c 0.1871225,0.10395 0.3748391,0.20791 0.5616647,0.31187 0.029702,0.0579 0.062671,0.11287 0.1020263,0.16188 -0.2298935,-0.0921 -0.4425597,-0.20198 -0.6451273,-0.31484 -0.00758,-0.055 -0.013218,-0.10545 -0.018564,-0.15891 z m 2.3158643,0.0802 c -0.040394,0.0505 -0.081977,0.098 -0.1253424,0.14258 l -0.023167,-0.0134 c 0.04782,-0.0401 0.099056,-0.0832 0.14851,-0.12921 z m 2.2090858,0.0965 0.02792,0.0891 -0.677651,0.28216 -0.032524,-0.10692 0.00936,0.005 z m 0.7657169,0.009 0.5802284,0.40839 -0.037127,-0.0134 -0.06965,0.47821 -0.2227648,-0.15297 z m -3.1418764,0.0371 0.023168,0.0193 c -0.043365,0.0445 -0.087175,0.0861 -0.13455,0.12476 l -0.037128,-0.0268 c 0.049008,-0.0356 0.09772,-0.0742 0.14851,-0.11732 z m 2.4412069,0.10246 0.8491797,0.65939 -1.2808983,0.49603 -0.2644962,-0.87621 z m -3.8566553,0.005 c 0.024504,0.055 0.053018,0.10544 0.083462,0.15296 -0.038018,-0.0416 -0.073958,-0.0906 -0.1066301,-0.1485 z m 1.2483747,0.0237 0.032524,0.0282 c -0.058216,0.0476 -0.1189565,0.0906 -0.1810337,0.12921 l -0.051087,-0.0327 c 0.064899,-0.0356 0.1318769,-0.0772 0.1995972,-0.12475 z m 5.3371514,0.0371 -0.02792,0.548 -1.0535296,0.37573 0.027919,-0.53909 z m -5.5553126,0.098 0.046484,0.0371 c -0.061186,0.0356 -0.1228177,0.0713 -0.1856374,0.0965 l -0.065047,-0.0371 c 0.065939,-0.0268 0.1355896,-0.0594 0.2042004,-0.0965 z m -0.2227649,0.10544 0.046484,0.0371 c -0.062226,0.0237 -0.1238573,0.0371 -0.1856374,0.0476 l -0.046484,-0.0282 c 0.060295,-0.0163 0.1234118,-0.0312 0.1856374,-0.0565 z m 4.3764404,0.0327 0.2135568,0.15297 -0.037127,0.50642 -0.2506844,-0.17228 z m -4.5852455,0.0282 h 0.0046 l 0.032524,0.0327 c -0.058364,0.006 -0.1155408,0.007 -0.1716776,0 0.04485,-0.007 0.088809,-0.0208 0.1345498,-0.0327 z"
       style="fill:#000000;fill-rule:evenodd;stroke-width:0.14850996"
       id="path2309" />
  </g>
  <metadata
     id="metadata95">
    <rdf:RDF>
      <cc:Work>
        <dc:format>image/svg+xml</dc:format>
        <dc:type
           rdf:resource="http://purl.org/dc/dcmitype/StillImage" />
        <cc:license
           rdf:resource="http://creativecommons.org/publicdomain/zero/1.0/" />
        <dc:publisher>
          <cc:Agent
             rdf:about="http://openclipart.org/">
            <dc:title>Openclipart</dc:title>
          </cc:Agent>
        </dc:publisher>
        <dc:title></dc:title>
        <dc:date>2008-01-23T10:27:27</dc:date>
        <dc:description>Part of the fantasy RPG map elements collection (houses and various buildings): an inn</dc:description>
        <dc:source>https://openclipart.org/detail/11470/rpg-map-symbols:-inn-by-nicubunu</dc:source>
        <dc:creator>
          <cc:Agent>
            <dc:title>nicubunu</dc:title>
          </cc:Agent>
        </dc:creator>
        <dc:subject>
          <rdf:Bag>
            <rdf:li>building</rdf:li>
            <rdf:li>cartography</rdf:li>
            <rdf:li>fantasy</rdf:li>
            <rdf:li>geography</rdf:li>
            <rdf:li>inn</rdf:li>
            <rdf:li>map</rdf:li>
            <rdf:li>tavern</rdf:li>
          </rdf:Bag>
        </dc:subject>
      </cc:Work>
      <cc:License
         rdf:about="http://creativecommons.org/publicdomain/zero/1.0/">
        <cc:permits
           rdf:resource="http://creativecommons.org/ns#Reproduction" />
        <cc:permits
           rdf:resource="http://creativecommons.org/ns#Distribution" />
        <cc:permits
           rdf:resource="http://creativecommons.org/ns#DerivativeWorks" />
      </cc:License>
    </rdf:RDF>
  </metadata>
</svg>
