<?xml version="1.0" encoding="UTF-8" standalone="no"?>
<svg
   xmlns:dc="http://purl.org/dc/elements/1.1/"
   xmlns:cc="http://creativecommons.org/ns#"
   xmlns:rdf="http://www.w3.org/1999/02/22-rdf-syntax-ns#"
   xmlns:svg="http://www.w3.org/2000/svg"
   xmlns="http://www.w3.org/2000/svg"
   xmlns:xlink="http://www.w3.org/1999/xlink"
   id="tree"
   version="1.1"
   viewBox="0 0 5.2916665 5.2916665"
   height="20"
   width="20">
  <defs
     id="defs2">
    <linearGradient
       id="linearGradient976">
      <stop
         style="stop-color:#0d8b10;stop-opacity:1"
         offset="0"
         id="stop980" />
      <stop
         id="stop982"
         offset="0.47895771"
         style="stop-color:#1a681a;stop-opacity:1" />
      <stop
         id="stop974"
         offset="1"
         style="stop-color:#003a00;stop-opacity:0.98039216" />
    </linearGradient>
    <linearGradient
       id="linearGradient950">
      <stop
         id="stop946"
         offset="0"
         style="stop-color:#502d16;stop-opacity:1;" />
      <stop
         style="stop-color:#896137;stop-opacity:1"
         offset="0.47989869"
         id="stop954" />
      <stop
         id="stop948"
         offset="1"
         style="stop-color:#502d16;stop-opacity:1" />
    </linearGradient>
    <linearGradient
       gradientTransform="matrix(0.42437517,0,0,0.80240905,1.4986892,58.897012)"
       gradientUnits="userSpaceOnUse"
       y2="295.09879"
       x2="3.1972518"
       y1="295.09879"
       x1="1.4685727"
       id="linearGradient956"
       xlink:href="#linearGradient950" />
    <linearGradient
       gradientTransform="translate(-0.04289925,0.07769893)"
       gradientUnits="userSpaceOnUse"
       y2="293.89374"
       x2="3.5585411"
       y1="293.92255"
       x1="1.5815691"
       id="linearGradient988"
       xlink:href="#linearGradient976" />
    <linearGradient
       gradientTransform="matrix(0.51238424,0,0,0.93456393,1.2623817,19.217076)"
       gradientUnits="userSpaceOnUse"
       y2="293.89374"
       x2="3.5585411"
       y1="293.92255"
       x1="1.5815691"
       id="linearGradient988-0"
       xlink:href="#linearGradient976" />
  </defs>
  <metadata
     id="metadata5">
    <rdf:RDF>
      <cc:Work
         rdf:about="">
        <dc:format>image/svg+xml</dc:format>
        <dc:type
           rdf:resource="http://purl.org/dc/dcmitype/StillImage" />
        <dc:title></dc:title>
      </cc:Work>
    </rdf:RDF>
  </metadata>
  <g
     transform="translate(0,-291.70834)"
     id="layer1">
    <path
       id="path904"
       d="m 2.3096969,294.78013 c 0.00186,0.009 0.00401,0.0174 0.00559,0.0265 5.857e-4,0.003 0,0.0277 0,0.0317 0,0.0264 0,0.0529 0,0.0793 0,0.0758 0,0.15158 0,0.22738 0,0.0494 0,0.0987 0,0.14805 0,0.0159 0,0.0317 0,0.0476 0,0.006 3.952e-4,0.0106 0,0.0159 -5.432e-4,0.007 -0.00225,0.014 -0.0028,0.0212 -3.953e-4,0.006 3.469e-4,0.0106 0,0.0159 -0.00664,0.10039 0.00124,-0.0581 -0.00559,0.0582 -7.214e-4,0.0123 7.215e-4,0.0247 0,0.037 -0.00581,0.0988 2.156e-4,-0.0236 -0.00559,0.0423 -9.209e-4,0.0104 0.0011,0.0213 0,0.0317 -4.088e-4,0.004 -0.00239,0.006 -0.0028,0.0106 -5.474e-4,0.005 6.79e-4,0.0108 0,0.0159 -3.2e-4,0.002 -0.00248,0.003 -0.0028,0.006 -0.00136,0.0103 9.209e-4,0.0213 0,0.0317 -4.838e-4,0.006 -0.00186,0.0106 -0.0028,0.0159 0,0.007 5.262e-4,0.0142 0,0.0212 -4.166e-4,0.006 -0.00238,0.0104 -0.0028,0.0159 -5.262e-4,0.007 5.263e-4,0.0142 0,0.0212 -0.00151,0.0199 -0.00517,0.0156 -0.00839,0.037 -0.00154,0.0102 0.0011,0.0213 0,0.0317 -4.087e-4,0.004 -0.00239,0.006 -0.0028,0.0106 -5.474e-4,0.005 6.79e-4,0.0108 0,0.0159 -3.2e-4,0.002 -0.00207,0.003 -0.0028,0.006 -0.00115,0.003 -0.00214,0.007 -0.0028,0.0106 -2.953e-4,0.002 0,0.003 0,0.006 0,0.006 8.827e-4,0.0108 0,0.0159 -0.00107,0.006 -0.00409,0.0102 -0.00559,0.0159 -4.166e-4,0.002 2.257e-4,0.003 0,0.006 -7.172e-4,0.006 -0.00208,0.0104 -0.0028,0.0159 -2.256e-4,0.002 2.954e-4,0.004 0,0.006 -6.577e-4,0.004 -0.00214,0.007 -0.0028,0.0106 -8.827e-4,0.005 8.869e-4,0.0108 0,0.0159 -4.166e-4,0.002 -0.00221,0.003 -0.0028,0.006 -4.166e-4,0.002 2.953e-4,0.004 0,0.006 -9.337e-4,0.003 -0.00186,0.007 -0.0028,0.0106 0,0.002 2.953e-4,0.004 0,0.006 -6.577e-4,0.004 -0.00214,0.007 -0.0028,0.0106 -8.827e-4,0.005 6.79e-4,0.0107 0,0.0159 0.00168,0.01 -0.00453,0.01 -0.00559,0.0159 -5.898e-4,0.003 4.541e-4,0.007 0,0.0106 0.00168,0.01 -0.00453,0.01 -0.00559,0.0159 -5.899e-4,0.003 8.36e-4,0.007 0,0.0106 -0.00557,0.0211 -0.0056,3e-5 -0.00839,0.0212 -0.00148,0.0111 0.00249,0.0111 -0.0028,0.0212 -6.577e-4,0.002 -0.00238,-0.002 -0.0028,0 -0.0025,0.004 0.00125,0.0112 0,0.0159 -0.00426,0.0161 -0.00222,-0.01 -0.00559,0.0159 -4.54e-4,0.003 8.361e-4,0.007 0,0.0106 -0.00118,0.005 -0.00413,0.006 -0.00559,0.0106 -5.178e-4,0.002 4.166e-4,0.004 0,0.006 -0.0064,0.0242 0.00116,-0.0225 -0.00559,0.0159 -2.953e-4,0.002 4.166e-4,0.004 0,0.006 -0.00118,0.005 -0.00441,0.006 -0.00559,0.0106 -4.166e-4,0.002 4.165e-4,0.004 0,0.006 0.00155,0.0131 -0.00631,0.0132 -0.00839,0.0212 -4.166e-4,0.002 0,0.003 0,0.006 -0.00186,0.006 -0.00358,0.0107 -0.00559,0.0159 -4.371e-4,8e-4 -0.00552,0.0101 -0.00559,0.0106 -5.899e-4,0.003 8.36e-4,0.007 0,0.0106 -0.00118,0.005 -0.00413,0.006 -0.00559,0.0106 -5.178e-4,0.002 4.165e-4,0.004 0,0.006 -0.00118,0.005 -0.00441,0.006 -0.00559,0.0106 -4.166e-4,0.002 6.578e-4,0.004 0,0.006 -0.00147,0.002 -0.00412,0.002 -0.00559,0.006 -6.577e-4,0.002 2.954e-4,0.004 0,0.006 -6.577e-4,0.004 -0.00164,0.007 -0.0028,0.0106 -7.639e-4,0.002 -0.00724,0.0144 -0.00839,0.0159 -0.00174,0.002 -0.00412,0.002 -0.00559,0.006 -6.577e-4,0.002 4.166e-4,0.004 0,0.006 -5.898e-4,0.002 -0.00221,0.003 -0.0028,0.006 -4.166e-4,0.002 6.578e-4,0.004 0,0.006 -6.578e-4,0.002 -0.00196,-7.9e-4 -0.0028,0 -0.011639,0.011 0.00299,-3.6e-4 -0.0028,0.0106 -6.577e-4,0.002 -0.00214,-0.002 -0.0028,0 -6.578e-4,0.002 6.578e-4,0.004 0,0.006 -6.578e-4,0.002 -0.00191,-5.5e-4 -0.0028,0 -0.00269,0.002 -0.00849,0.009 -0.011186,0.0106 -0.00347,0.002 -0.00305,-0.004 -0.00559,0.006 -4.166e-4,0.002 -6.578e-4,0.004 0,0.006 6.578e-4,0.002 0.00202,-8e-4 0.0028,0 0.00219,0.002 0.0034,0.008 0.00559,0.0106 7.766e-4,8e-4 0.00196,-7.9e-4 0.0028,0 0.00118,8e-4 0.0017,0.004 0.0028,0.006 0.00174,0.002 0.00386,0.003 0.00559,0.006 0.0011,0.002 0.0017,0.004 0.0028,0.006 0.00174,0.002 0.00386,0.003 0.00559,0.006 0.00118,0.002 0.00781,0.0136 0.00839,0.0159 4.166e-4,0.002 -8.36e-4,0.005 0,0.006 0.00167,0.002 0.00393,-0.002 0.00559,0 0.00236,0.002 0.00348,0.007 0.00559,0.0106 0.00167,0.002 0.00373,0.003 0.00559,0.006 0.00373,0.003 0.00772,0.006 0.011186,0.0106 0.00219,0.002 0.00373,0.007 0.00559,0.0106 0.00466,0.003 0.00949,0.006 0.013983,0.0106 0.00118,8.1e-4 0.0017,0.004 0.0028,0.006 0.00174,0.002 0.00381,0.003 0.00559,0.006 0.00288,0.003 0.00538,0.008 0.00839,0.0106 8.36e-4,7.8e-4 0.00202,-8e-4 0.0028,0 0.00219,0.002 0.00323,0.008 0.00559,0.0106 0.00167,0.002 0.00373,0 0.00559,0 0.0028,0 0.00589,-0.002 0.00839,0 0.00186,0.002 0.00113,0.008 0.0028,0.0106 0.00845,0.012 0.00653,0.002 0.013983,0.006 0.00418,0.002 0.010976,0.013 0.013983,0.0159 8.36e-4,7.8e-4 0.00191,-5.6e-4 0.0028,0 0.023996,0.0151 -0.017825,-0.005 0.013983,0.006 0.00833,0.002 0.011426,0.0101 0.019576,0.0159 0.0072,0.005 0.015348,0.005 0.022373,0.0106 0.00962,0.008 0.011478,0.015 0.019576,0.0212 0.00547,0.004 0.011186,0.007 0.016779,0.0106 0.0028,0.002 0.0055,0.004 0.00839,0.006 0.00183,6.9e-4 0.00382,-8.1e-4 0.00559,0 0.00396,0.002 0.00723,0.008 0.011186,0.0106 0.00177,8e-4 0.00376,-7.1e-4 0.00559,0 0.00289,8e-4 0.00553,0.004 0.00839,0.006 9.039e-4,4.3e-4 0.00191,-5.5e-4 0.0028,0 0.00198,0.002 0.00357,0.004 0.00559,0.006 0.00181,8e-4 0.00376,-5.8e-4 0.00559,0 0.00379,8e-4 0.0074,0.004 0.011186,0.006 0.00105,3.3e-4 0.010814,-3.6e-4 0.011186,0 0.00236,0.002 0.0034,0.008 0.00559,0.0106 7.766e-4,8e-4 0.00186,0 0.0028,0 0.00328,0 0.014252,-8e-4 0.016779,0 0.00286,0.002 0.00553,0.004 0.00839,0.006 9.04e-4,4.2e-4 0.00186,0 0.0028,0 0.00373,0 0.00746,0 0.011186,0 0.011186,0 0.022373,0 0.033559,0 0.012118,0 0.024237,0 0.036355,0 8.445e-4,0 0.021132,7.8e-4 0.022373,0 0.00198,-0.002 0.00355,-0.005 0.00559,-0.006 0.00274,-8e-4 0.00562,7.4e-4 0.00839,0 0.00381,-8e-4 0.00737,-0.005 0.011186,-0.006 0.00463,-8e-4 0.00943,0.002 0.013983,0 0.00407,-0.002 0.00719,-0.008 0.011187,-0.0106 0.026403,-0.015 0.0072,3.1e-4 0.027966,-0.006 0.00292,-7.8e-4 0.00551,-0.004 0.00839,-0.006 0.00554,-0.002 0.011137,-0.004 0.016779,-0.006 0.00371,-7.1e-4 0.0076,0.002 0.011187,0 0.027056,-0.0146 -0.00902,-0.008 0.016779,-0.0159 0.00276,-8e-4 0.00563,8e-4 0.00839,0 0.012656,-0.004 0.00531,-0.008 0.019576,-0.0159 0.00269,-0.002 0.00565,8.1e-4 0.00839,0 0.00205,-7.7e-4 0.00366,-0.004 0.00559,-0.006 0.00274,-0.002 0.00575,-0.002 0.00839,-0.006 0.003,-0.003 0.0053,-0.008 0.00839,-0.0106 0.00353,-0.003 0.00754,-0.003 0.011186,-0.006 0.012216,-0.008 -0.00197,-0.004 0.013983,-0.0159 0.00173,-0.002 0.00382,8.1e-4 0.00559,0 0.0025,-0.002 0.00323,-0.008 0.00559,-0.0106 0.00167,-0.002 0.00393,0.002 0.00559,0 0.00118,-8e-4 0.00162,-0.004 0.0028,-0.006 0.00495,-0.005 9.548e-4,0.008 0.00559,-0.006 0.00116,-0.003 0.00186,-0.007 0.0028,-0.0106 9.336e-4,-0.003 0.00214,-0.007 0.0028,-0.0106 2.919e-4,-0.002 -4.155e-4,-0.004 0,-0.006 0.00582,-0.022 -1.909e-4,0.006 0.00559,-0.006 6.621e-4,-0.002 -2.919e-4,-0.004 0,-0.006 0.00675,-0.0383 -8.063e-4,0.008 0.00559,-0.0159 4.154e-4,-0.002 -6.62e-4,-0.004 0,-0.006 6.62e-4,-0.002 0.00214,0.002 0.0028,0 0.00132,-0.002 -5.941e-4,-0.007 0,-0.0106 9.336e-4,-0.003 0.00186,-0.007 0.0028,-0.0106 9.337e-4,0 0.00214,0.002 0.0028,0 0.00132,-0.002 -0.00132,-0.008 0,-0.0106 6.62e-4,-0.002 0.00214,0.002 0.0028,0 6.62e-4,-0.002 6.62e-4,-0.004 0,-0.006 -6.62e-4,-0.002 -0.00196,7.8e-4 -0.0028,0 -0.00118,-8e-4 -0.00162,-0.004 -0.0028,-0.006 -8.317e-4,-7.9e-4 -0.00196,7.8e-4 -0.0028,0 -0.00236,-0.002 -0.00309,-0.009 -0.00559,-0.0106 -0.00177,-8e-4 -0.00393,0.002 -0.00559,0 -8.317e-4,-7.9e-4 4.155e-4,-0.004 0,-0.006 -0.00124,-0.005 -0.00669,-0.0111 -0.00839,-0.0159 -0.00116,-0.003 -0.00154,-0.007 -0.0028,-0.0106 -0.00158,-0.004 -0.00413,-0.006 -0.00559,-0.0106 -5.178e-4,-0.002 2.919e-4,-0.004 0,-0.006 -0.00196,-0.0111 -0.00643,-0.0206 -0.00839,-0.0317 -2.92e-4,-0.002 4.154e-4,-0.004 0,-0.006 -5.942e-4,-0.002 -0.00248,-0.003 -0.0028,-0.006 -7.172e-4,-0.006 9.761e-4,-0.0262 0,-0.0317 -4.154e-4,-0.002 -0.00221,-0.003 -0.0028,-0.006 -4.155e-4,-0.002 0,-0.003 0,-0.006 0,-0.006 0,-0.0106 0,-0.0159 0,-0.003 5.941e-4,-0.007 0,-0.0106 -4.155e-4,-0.002 -0.00221,-0.003 -0.0028,-0.006 -4.155e-4,-0.002 0,-0.003 0,-0.006 0,-0.006 0,-0.0106 0,-0.0159 0,-0.003 5.941e-4,-0.007 0,-0.0106 -4.155e-4,-0.002 -0.00248,-0.003 -0.0028,-0.006 -6.747e-4,-0.005 5.517e-4,-0.0107 0,-0.0159 -4.042e-4,-0.004 -0.00229,-0.006 -0.0028,-0.0106 -0.00113,-0.009 7.639e-4,-0.0177 0,-0.0264 -4.838e-4,-0.006 -0.00208,-0.0104 -0.0028,-0.0159 -6.621e-4,-0.005 6.62e-4,-0.0109 0,-0.0159 -5.05e-4,-0.004 -0.00229,-0.006 -0.0028,-0.0106 -0.00113,-0.008 9.082e-4,-0.0178 0,-0.0264 -4.042e-4,-0.004 -0.00229,-0.006 -0.0028,-0.0106 -4.498e-4,-0.003 4.498e-4,-0.007 0,-0.0106 -5.05e-4,-0.004 -0.00229,-0.006 -0.0028,-0.0106 -5.262e-4,-0.004 0,-0.022 0,-0.0264 0,-0.0159 0,-0.0317 0,-0.0476 0,-0.006 4.583e-4,-0.0107 0,-0.0159 0.00544,-0.0147 -0.00458,-0.0135 -0.00559,-0.0212 -6.747e-4,-0.005 0,-0.0106 0,-0.0159 0,-0.009 0,-0.0177 0,-0.0264 0,-0.003 3.032e-4,-0.007 0,-0.0106 -6.28e-4,-0.007 -0.00216,-0.014 -0.0028,-0.0212 -3.031e-4,-0.003 4.498e-4,-0.007 0,-0.0106 -5.05e-4,-0.004 -0.00229,-0.006 -0.0028,-0.0106 -4.923e-4,-0.004 0,-0.0298 0,-0.0317 0,-0.002 2.245e-4,-0.003 0,-0.006 -0.00706,-0.0534 0.00101,0.004 -0.00559,-0.0212 -7.172e-4,-0.002 4.584e-4,-0.0221 0,-0.0265 -5.729e-4,-0.006 -0.00208,-0.0104 -0.0028,-0.0159 -2.246e-4,-0.002 0,-0.003 0,-0.006 0,-0.007 0,-0.0141 0,-0.0212 0,-0.003 0,-0.007 0,-0.0106 0,-0.002 2.246e-4,-0.003 0,-0.006 0.00562,-0.009 -0.00466,-0.0159 -0.00559,-0.0212 -5.05e-4,-0.003 0,-0.0167 0,-0.0212 0,-0.0141 0,-0.0282 0,-0.0423 0,-0.009 9.081e-4,-0.0178 0,-0.0264 -4.043e-4,-0.004 -0.00229,-0.006 -0.0028,-0.0106 -4.498e-4,-0.003 3.705e-4,-0.007 0,-0.0106 -5.729e-4,-0.006 -0.00222,-0.0104 -0.0028,-0.0159 -5.517e-4,-0.006 0,-0.0209 0,-0.0264 0,-0.0141 0,-0.0282 0,-0.0423 0,-0.006 0,-0.0106 0,-0.0159 0,-0.002 2.919e-4,-0.004 0,-0.006 -0.00159,-0.009 -0.00421,-0.0173 -0.00559,-0.0264 -5.178e-4,-0.003 0,-0.007 0,-0.0106 0,-0.009 0,-0.0177 0,-0.0265 0,-0.002 0,-0.003 0,-0.006 0,-0.002 6.62e-4,-0.004 0,-0.006 -6.621e-4,-0.002 -0.00238,0.002 -0.0028,0 -4.583e-4,-0.002 0,-0.0224 0,-0.0265 0,-0.0247 0,-0.0494 0,-0.0741 0,-0.0688 0,-0.13748 0,-0.20622 0,-0.0229 0,-0.0458 0,-0.0688 0,-0.006 0,-0.0106 0,-0.0159 0,-0.003 4.499e-4,-0.007 0,-0.0106 -5.05e-4,-0.004 -0.00229,-0.006 -0.0028,-0.0106 -5.262e-4,-0.004 0,-0.022 0,-0.0264 0,-0.0141 0,-0.0282 0,-0.0423 0,-0.03 0,-0.0599 0,-0.0899 0,-0.007 0,-0.0141 0,-0.0212 0,-0.002 0,-0.003 0,-0.006 0,-0.002 -9.336e-4,-0.006 0,-0.006 9.336e-4,0 0,0.003 0,0.006"
       style="fill:url(#linearGradient956);fill-opacity:1;stroke:none;stroke-width:0.15439576px;stroke-linecap:butt;stroke-linejoin:miter;stroke-opacity:1" />
    <path
       id="path960"
       d="m 2.4085329,294.89646 c 0.00773,0.002 0.027381,0.002 0.032949,0.0132 9.816e-4,0.002 -0.00155,0.005 0,0.007 0.00155,0.002 0.00463,-9.8e-4 0.00659,0 0.00175,8.7e-4 0.018895,0.018 0.01977,0.0198 9.816e-4,0.002 -9.816e-4,0.005 0,0.007 0.00139,0.003 0.00439,0.004 0.00659,0.007 0,0.004 -0.00107,0.009 0,0.0132 0.00119,0.005 0.00477,0.009 0.00659,0.0132 0.00258,0.006 0.00439,0.0132 0.00659,0.0198 0.0022,0.007 0.00491,0.013 0.00659,0.0198 5.319e-4,0.002 -9.816e-4,0.005 0,0.007 0.00139,0.003 0.0052,0.004 0.00659,0.007 0.00174,0.003 -0.00191,0.0169 0,0.0198 0.00345,0.005 0.00945,0.008 0.01318,0.0132 0.00295,0.004 0.00504,0.009 0.00659,0.0132 8.546e-4,0.003 -0.00102,0.0187 0,0.0198 0.00155,0.002 0.00504,-0.002 0.00659,0 0.00155,0.002 -5.319e-4,0.004 0,0.007 0.00169,0.007 0.00401,0.0133 0.00659,0.0198 0.00182,0.005 0.0054,0.008 0.00659,0.0132 0.00107,0.004 -0.00107,0.009 0,0.0132 0.00879,0.0351 0.0022,-0.007 0.01977,0.0198 0.02088,0.0313 -0.02531,-0.006 0.00659,0.0264 0.00347,0.003 0.00971,0.003 0.01318,0.007 0.00155,0.002 -9.816e-4,0.005 0,0.007 0.00139,0.003 0.00561,0.004 0.00659,0.007 0.00659,0.0198 -0.00329,0.007 0,0.0198 0.00169,0.007 0.00523,0.0129 0.00659,0.0198 0.00129,0.006 0,0.0132 0,0.0198 0,0.022 0,0.0439 0,0.0659 0,0.007 0,0.0132 0,0.0198 0,0.002 -0.00155,0.005 0,0.007 0.00303,0.003 0.015024,-0.003 0.01977,-0.007 0.00258,-0.002 0.00439,-0.004 0.00659,-0.007 0.043712,-0.0437 -0.00621,0.0124 0.01318,-0.0264 0.00491,-0.01 0.013677,-0.0172 0.01977,-0.0264 0.0022,-0.004 0.00439,-0.009 0.00659,-0.0132 0,-0.004 -0.00197,-0.009 0,-0.0132 0.00278,-0.006 0.00973,-0.008 0.01318,-0.0132 0.047028,-0.0705 -0.00755,0.009 0.01318,-0.0461 0.0045,-0.012 0.013549,-0.0218 0.01977,-0.033 0.00477,-0.009 0.00879,-0.0176 0.013179,-0.0264 0.00659,-0.009 0.014319,-0.0168 0.01977,-0.0264 0.00345,-0.006 0.00314,-0.0137 0.00659,-0.0198 0.00545,-0.01 0.013949,-0.017 0.01977,-0.0264 0.023662,-0.0379 0.00501,-0.015 0.01977,-0.0593 9.789e-4,-0.003 0.0052,-0.004 0.00659,-0.007 6.879e-4,-0.001 8e-7,-0.033 0,-0.033 -0.00119,-0.005 -0.00504,-0.009 -0.00659,-0.0132 -0.00127,-0.004 0,-0.0207 0,-0.0264 0,-0.009 0.00311,-0.0149 -0.00659,-0.0198 -0.00196,-9.8e-4 -0.00504,0.002 -0.00659,0 -0.00156,-0.002 9.79e-4,-0.005 0,-0.007 -0.0014,-0.003 -0.00879,-0.004 -0.00659,-0.007 0.0022,-0.002 0.00487,0.004 0.00659,0.007 0.00273,0.004 0.00504,0.009 0.00659,0.0132 6.879e-4,0.002 0,0.004 0,0.007 0.00439,0.004 0.00973,0.008 0.013179,0.0132 0.00122,0.002 -9.789e-4,0.005 0,0.007 0.0014,0.003 0.00487,0.004 0.00659,0.007 0.00273,0.004 0.00387,0.009 0.00659,0.0132 0.00172,0.003 0.0052,0.004 0.00659,0.007 9.79e-4,0.002 -9.789e-4,0.005 0,0.007 0.00889,0.0178 0.00295,-2.3e-4 0.013179,0.007 0.00517,0.003 0.00973,0.008 0.013179,0.0132 0.00122,0.002 -5.291e-4,0.004 0,0.007 0.00169,0.007 0.00348,0.0135 0.00659,0.0198 0.0014,0.003 0.00487,0.004 0.00659,0.007 0.00273,0.004 0.00387,0.009 0.00659,0.0132 0.00345,0.005 0.00973,0.008 0.013179,0.0132 0.00273,0.004 0.00387,0.009 0.00659,0.0132 0.00172,0.003 0.0052,0.004 0.00659,0.007 9.789e-4,0.002 -9.79e-4,0.005 0,0.007 0.00395,0.008 0.015817,0.0119 0.01977,0.0198 9.79e-4,0.002 -0.00156,0.005 0,0.007 0.00347,0.003 0.00971,0.003 0.013179,0.007 0.00347,0.003 0.00312,0.01 0.00659,0.0132 0.00156,0.002 0.00504,-0.002 0.00659,0 0.00347,0.003 0.00312,0.01 0.00659,0.0132 0.00347,0.003 0.00925,0.004 0.013179,0.007 0.00994,0.007 0.016417,0.0189 0.026361,0.0264 0.00393,0.003 0.00909,0.004 0.013179,0.007 0.015139,0.0101 -0.00283,0.004 0.013179,0.0198 0.00156,0.002 0.00446,-5.3e-4 0.00659,0 0.00674,0.002 0.013814,0.003 0.01977,0.007 0.010655,0.006 0.01602,0.0195 0.02636,0.0264 0.00817,0.005 0.017936,0.008 0.026361,0.0132 0.00533,0.003 0.00729,0.0112 0.013179,0.0132 0.00417,10e-4 0.00901,-10e-4 0.013179,0 0.00301,10e-4 0.016801,0.0168 0.01977,0.0198 0.00347,0.003 0.01801,0.0163 0.01977,0.0198 9.79e-4,0.002 -9.79e-4,0.005 0,0.007 0.0014,0.003 0.00561,0.004 0.00659,0.007 0.0014,0.004 -0.0014,0.009 0,0.0132 9.789e-4,0.003 0.00584,0.004 0.00659,0.007 0.00159,0.006 0,0.0132 0,0.0198 0,0.0176 0,0.0351 0,0.0527 0,0.0351 0,0.0703 0,0.10543 0,0.0132 0,0.0264 0,0.0395 0,0.004 -0.00196,0.009 0,0.0132 9.79e-4,0.002 0.00561,-0.002 0.00659,0 0.00196,0.004 -0.00196,0.009 0,0.0132 9.79e-4,0.002 0.00462,-9.8e-4 0.00659,0 0.00278,10e-4 0.00439,0.004 0.00659,0.007 0.00439,0.004 0.00801,0.01 0.013179,0.0132 9.789e-4,6.6e-4 0.017605,0 0.01977,0 0.01977,0 0.039539,0 0.059309,0 0.019889,0 0.025659,0.002 0.046129,-0.007 0.00288,-10e-4 0.00381,-0.005 0.00659,-0.007 0.01623,-0.008 -0.00595,0.0191 0.01977,-0.007 0.00347,-0.003 0.00387,-0.009 0.00659,-0.0132 0.00517,-0.008 0.014179,-0.0123 0.01977,-0.0198 0.00295,-0.004 0.00439,-0.009 0.00659,-0.0132 0.00439,-0.009 0.00813,-0.0179 0.013179,-0.0264 0.00159,-0.003 0.00561,-0.004 0.00659,-0.007 0.011655,-0.035 -0.014997,0.01 0.00659,-0.0264 0.00928,-0.0155 0.013745,-0.0179 0.01977,-0.033 0.00259,-0.006 0.00348,-0.0136 0.00659,-0.0198 0.0014,-0.003 0.00561,-0.004 0.00659,-0.007 0.00209,-0.006 0,-0.0132 0,-0.0198 0,-0.011 0,-0.022 0,-0.033 0,-0.0154 0,-0.0308 0,-0.0461 0,-0.007 0.00108,-0.0133 0,-0.0198 -0.00457,-0.0274 -0.00601,-0.0114 -0.013179,-0.033 -0.0014,-0.004 0.00196,-0.009 0,-0.0132 -0.0014,-0.003 -0.0052,-0.004 -0.00659,-0.007 -9.789e-4,-0.002 0.00156,-0.005 0,-0.007 -0.00156,-0.002 -0.00504,0.002 -0.00659,0 -0.00103,-10e-4 8.467e-4,-0.0172 0,-0.0198 -0.00156,-0.005 -0.00439,-0.009 -0.00659,-0.0132 -0.0022,-0.004 -0.00387,-0.009 -0.00659,-0.0132 -0.00804,-0.012 -0.0084,-6.6e-4 -0.013179,-0.0198 -0.00106,-0.004 0.0014,-0.009 0,-0.0132 -0.0052,-0.0156 -0.00797,0.002 -0.013179,-0.0132 -0.00209,-0.006 0.00209,-0.0135 0,-0.0198 -0.00156,-0.005 -0.0054,-0.008 -0.00659,-0.0132 -0.00106,-0.004 0.00164,-0.009 0,-0.0132 -0.00294,-0.007 -0.00964,-0.0127 -0.013179,-0.0198 -9.79e-4,-0.002 6.879e-4,-0.005 0,-0.007 -0.00156,-0.005 -0.00465,-0.009 -0.00659,-0.0132 -0.00466,-0.0109 -0.00944,-0.0217 -0.013179,-0.0329 -0.00286,-0.009 -0.00323,-0.018 -0.00659,-0.0264 -0.00116,-0.003 -0.00561,-0.004 -0.00659,-0.007 -0.00347,-0.0104 0.00347,-0.0225 0,-0.0329 -0.00251,-0.008 -0.010059,-0.0125 -0.013179,-0.0198 -0.010483,-0.0245 -0.0018,-0.0365 -0.013179,-0.0593 -0.00354,-0.007 -0.00964,-0.0127 -0.013179,-0.0198 -0.00892,-0.0178 -0.00659,-0.0338 -0.00659,-0.0527 0,-0.007 -0.00295,-0.0139 0,-0.0198 9.789e-4,-0.002 0.00504,0.002 0.00659,0 0.00156,-0.002 -9.79e-4,-0.005 0,-0.007 0.00278,-0.006 0.00998,-0.008 0.013179,-0.0132 0.00505,-0.008 0.00879,-0.0176 0.013179,-0.0264 0.00439,-0.009 0.00953,-0.0172 0.013179,-0.0264 0.00259,-0.006 0.00439,-0.0132 0.00659,-0.0198 0.0022,-0.007 0.00545,-0.0129 0.00659,-0.0198 0.00124,-0.007 -0.00201,-0.0401 0,-0.0461 9.789e-4,-0.003 0.00381,-0.005 0.00659,-0.007 0.00196,-9.8e-4 0.00439,0 0.00659,0 0.0022,0 0.00476,-0.001 0.00659,0 0.00775,0.005 0.013179,0.0132 0.01977,0.0198 0.029807,0.0298 -0.00621,-0.007 0.032949,0.0395 0.00398,0.005 0.00914,0.008 0.013179,0.0132 0.00915,0.0107 0.016415,0.023 0.026361,0.0329 0.00347,0.003 0.010652,0.002 0.013179,0.007 0.00466,0.008 0.00193,0.0186 0.00659,0.0264 0.00254,0.004 0.00909,0.004 0.013179,0.007 0.00877,0.006 0.013592,0.0202 0.01977,0.0264 0.00347,0.003 0.00971,0.003 0.013179,0.007 0.0056,0.006 0.00858,0.0133 0.013179,0.0198 0.013949,0.0195 0.021302,0.0267 0.032949,0.0461 0.00254,0.004 0.00167,0.0132 0.00659,0.0132 0.00439,0 0,-0.009 0,-0.0132 0,-0.0132 0,-0.0264 0,-0.0395 0,-0.0264 0,-0.0527 0,-0.0791 0,-0.0505 0,-0.10104 0,-0.15156 0,-0.0154 0,-0.0308 0,-0.0461 0,-0.009 0.00191,-0.0178 0,-0.0264 -0.00257,-0.0115 -0.010612,-0.0214 -0.013179,-0.033 -0.00191,-0.009 0.0019,-0.0178 0,-0.0264 -0.00257,-0.0115 -0.00914,-0.0218 -0.013179,-0.033 -0.00475,-0.0131 -0.00981,-0.0261 -0.013179,-0.0395 -0.00106,-0.004 0.0014,-0.009 0,-0.0132 -9.789e-4,-0.003 -0.00487,-0.004 -0.00659,-0.007 -0.00273,-0.004 -0.00504,-0.009 -0.00659,-0.0132 -0.00127,-0.004 0,-0.0206 0,-0.0264 0,-0.0154 0.00156,0.002 -0.013179,-0.0198 -0.00122,-0.002 0,-0.004 0,-0.007 0,-0.007 9.26e-4,-0.0132 0,-0.0198 -0.00127,-0.009 -0.00399,-0.0177 -0.00659,-0.0264 -0.00399,-0.0133 -0.00754,-0.0268 -0.013179,-0.0395 -0.012144,-0.0273 -0.014962,-0.0107 -0.01977,-0.0395 -0.00108,-0.006 0,-0.0132 0,-0.0198 0,-0.0176 0,-0.0351 0,-0.0527 0,-0.011 0,-0.022 0,-0.0329 0,-0.004 0,-0.009 0,-0.0132 0,-0.002 -5.292e-4,-0.004 0,-0.007 0.00169,-0.007 0.00491,-0.013 0.00659,-0.0198 5.292e-4,-0.002 -9.789e-4,-0.005 0,-0.007 0.0014,-0.003 0.0052,-0.004 0.00659,-0.007 9.79e-4,-0.002 0,-0.004 0,-0.007 0,-0.011 0,-0.022 0,-0.0329 0,-0.009 0,-0.0176 0,-0.0264 0,-0.002 -0.00196,-0.006 0,-0.007 0.00841,-0.004 0.043406,0.006 0.046129,0.007 0.00214,4.3e-4 0.00439,0 0.00659,0 0.0022,0 0.00589,0.002 0.00659,0 0.00278,-0.008 0,-0.0176 0,-0.0264 0,-0.004 0,-0.009 0,-0.0132 0,-0.002 6.879e-4,-0.005 0,-0.007 -0.00193,-0.006 -0.016293,-0.0343 -0.01977,-0.0395 -0.00172,-0.003 -0.00487,-0.004 -0.00659,-0.007 -0.014518,-0.003 -0.00348,-0.0136 -0.00659,-0.0198 -0.0014,-0.003 -0.0052,-0.004 -0.00659,-0.007 -0.00311,-0.006 -0.00348,-0.0136 -0.00659,-0.0198 -8.466e-4,-0.002 -0.011742,-0.008 -0.00659,-0.0132 0.00658,-0.007 0.010051,0.008 0.01977,0.0132 0.00393,0.002 0.00879,0 0.013179,0 0.0022,0.004 0.00312,0.01 0.00659,0.0132 0.00127,0.001 0.030543,-10e-4 0.032949,0 0.00196,9.8e-4 -0.00156,0.005 0,0.007 0.00156,0.002 0.00504,-0.002 0.00659,0 0.00164,0.002 -0.00549,0.0253 0.013179,0.007 0.00311,-0.003 0,-0.009 0,-0.0132 0,-0.022 0,-0.0439 0,-0.0659 0,-0.009 0.00146,-0.0177 0,-0.0264 -8.202e-4,-0.005 -0.00504,-0.009 -0.00659,-0.0132 -0.026231,-0.0787 0.016179,0.0282 -0.01977,-0.0527 -0.0048,-0.0108 -0.00879,-0.022 -0.013179,-0.033 -0.00659,-0.0132 -0.013539,-0.0262 -0.01977,-0.0395 -0.00915,-0.0196 -0.016685,-0.04 -0.02636,-0.0593 -0.00354,-0.007 -0.00879,-0.0132 -0.013179,-0.0198 -0.00659,-0.0132 -0.013671,-0.0261 -0.01977,-0.0395 -0.00489,-0.0108 -0.00852,-0.0221 -0.013179,-0.033 -0.00193,-0.005 -0.00477,-0.009 -0.00659,-0.0132 -0.00516,-0.0129 -0.00802,-0.0266 -0.013179,-0.0395 -0.00986,-0.0247 -0.0043,-0.002 -0.01977,-0.033 -0.00311,-0.006 -0.00401,-0.0133 -0.00659,-0.0198 -0.00539,-0.0135 -0.013279,-0.0266 -0.01977,-0.0395 -0.0022,-0.004 -0.00312,-0.01 -0.00659,-0.0132 -0.00156,-0.002 -0.00561,0.002 -0.00659,0 -0.00196,-0.004 0.00196,-0.009 0,-0.0132 -0.00278,-0.006 -0.00945,-0.008 -0.013179,-0.0132 -0.00295,-0.004 -0.00439,-0.009 -0.00659,-0.0132 -0.00659,-0.007 -0.013949,-0.0125 -0.01977,-0.0198 -0.00307,-0.004 -0.00374,-0.009 -0.00659,-0.0132 -0.00818,-0.0114 -0.018905,-0.021 -0.02636,-0.033 -0.00368,-0.006 -0.00302,-0.0138 -0.00659,-0.0198 -0.0032,-0.005 -0.00945,-0.008 -0.013179,-0.0132 -0.00295,-0.004 -0.00312,-0.01 -0.00659,-0.0132 -0.00347,-0.003 -0.00971,-0.003 -0.013179,-0.007 -0.00156,-0.002 6.88e-4,-0.005 0,-0.007 -0.00156,-0.005 -0.00387,-0.009 -0.00659,-0.0132 -0.00172,-0.003 -0.00487,-0.004 -0.00659,-0.007 -0.00273,-0.004 -0.00312,-0.01 -0.00659,-0.0132 -0.00156,-0.002 -0.00504,0.002 -0.00659,0 -0.00156,-0.002 6.879e-4,-0.005 0,-0.007 -0.015912,-0.0477 0.0019,0.0104 -0.013179,-0.0198 -9.79e-4,-0.002 6.879e-4,-0.005 0,-0.007 -0.00156,-0.005 -0.0054,-0.008 -0.00659,-0.0132 -0.00106,-0.004 0.00196,-0.009 0,-0.0132 -9.79e-4,-0.002 -0.00589,0.002 -0.00659,0 -0.00209,-0.006 0.00209,-0.0135 0,-0.0198 -0.019439,-0.0583 -0.00856,0.0165 -0.01977,-0.0395 -0.00254,-0.0127 0.00254,-0.0269 0,-0.0395 -6.086e-4,-0.003 -0.00499,-0.004 -0.00659,-0.007 -0.00505,-0.008 -0.00879,-0.0176 -0.013179,-0.0264 -0.0022,-0.004 -0.00563,-0.008 -0.00659,-0.0132 -0.0013,-0.006 0,-0.0132 0,-0.0198 0,-0.007 0,-0.0132 0,-0.0198 0,-0.0264 0,-0.0527 0,-0.0791 0,-0.022 0,-0.0439 0,-0.0659 0,-0.007 0,-0.0132 0,-0.0198 0,-0.004 -0.0014,-0.009 0,-0.0132 0.00419,-0.0126 0.012962,-0.003 0.01977,-0.007 0.00566,-0.003 0.018415,-0.0275 0.01977,-0.0329 0.00106,-0.004 0,-0.009 0,-0.0132 0,-0.007 0,-0.0132 0,-0.0198 0,-0.004 0,-0.0444 0,-0.0527 0,-0.0242 0,-0.0483 0,-0.0725 0,-0.0176 0.00267,-0.0353 0,-0.0527 -0.0018,-0.0117 -0.00863,-0.022 -0.013179,-0.033 -0.00643,-0.0154 -0.013557,-0.0306 -0.01977,-0.0461 -0.00536,-0.0134 -0.00545,-0.0214 -0.013179,-0.0329 -0.00865,-0.013 -0.013816,-0.002 -0.02636,-0.007 -0.013798,-0.005 -0.027908,-0.0107 -0.039539,-0.0198 -0.00867,-0.007 -0.012004,-0.0186 -0.01977,-0.0264 -0.056085,-0.0561 0.00566,0.0158 -0.059309,-0.0329 -0.00879,-0.007 -0.01143,-0.0192 -0.01977,-0.0264 -0.03618,-0.031 -0.015978,0.004 -0.046129,-0.0264 -0.0056,-0.006 -0.00758,-0.0142 -0.013179,-0.0198 -0.0056,-0.006 -0.013433,-0.008 -0.01977,-0.0132 -0.00249,-0.002 -0.00381,-0.005 -0.00659,-0.007 -0.00527,-0.003 -0.014497,0.003 -0.01977,0 -0.00196,-9.8e-4 0.00156,-0.005 0,-0.007 -0.00156,-0.002 -0.00462,9.9e-4 -0.00659,0 -0.00556,-0.003 -0.00801,-0.01 -0.013179,-0.0132 -0.00409,-0.003 -0.00852,-0.005 -0.013179,-0.007 -0.00209,-6.9e-4 -0.00504,0.002 -0.00659,0 -6.4e-6,0 9.8e-6,-0.0197 0,-0.0198 -9.79e-4,-0.003 -0.0052,-0.004 -0.00659,-0.007 -9.789e-4,-0.002 5.292e-4,-0.004 0,-0.007 -0.00169,-0.007 -0.00348,-0.0136 -0.00659,-0.0198 -0.012959,-0.0259 -0.014248,-0.0119 -0.01977,-0.0395 -8.732e-4,-0.004 8.731e-4,-0.009 0,-0.0132 -0.00135,-0.007 -0.00545,-0.0129 -0.00659,-0.0198 -0.00108,-0.006 0.00243,-0.0136 0,-0.0198 -0.0023,-0.006 -0.00973,-0.008 -0.013179,-0.0132 -0.00243,-0.004 8.731e-4,-0.009 0,-0.0132 -0.00177,-0.009 -0.00481,-0.0175 -0.00659,-0.0264 -8.731e-4,-0.004 0.00196,-0.009 0,-0.0132 -0.0014,-0.003 -0.0052,-0.004 -0.00659,-0.007 -9.79e-4,-0.002 -0.0022,-0.007 0,-0.007 0.0022,0 0.00156,0.008 0,0.007 -0.00347,-0.003 -0.00439,-0.009 -0.00659,-0.0132 -0.0022,-0.004 -0.0054,-0.008 -0.00659,-0.0132 -5.53e-5,-2.2e-4 3.49e-5,-0.0197 0,-0.0198 -0.00156,-0.002 -0.00439,0 -0.00659,0 0,-0.004 0.00106,-0.009 0,-0.0132 -0.00796,-0.0318 -0.00313,3.3e-4 -0.013179,-0.0198 -9.79e-4,-0.002 0.00156,-0.005 0,-0.007 -0.00156,-0.002 -0.00451,-6.9e-4 -0.00659,0 -0.018023,0.006 -0.014071,0.009 -0.026359,0.0264 -0.00638,0.009 -0.012622,0.018 -0.01977,0.0264 -0.041627,0.0486 8.176e-4,-0.0148 -0.032949,0.0527 -0.00354,0.007 -0.00879,0.0132 -0.01318,0.0198 -0.010455,0.0157 -0.025001,0.0368 -0.032949,0.0527 -0.00529,0.0106 -0.00944,0.0217 -0.01318,0.033 -6.959e-4,0.002 0.00132,0.005 0,0.007 -0.063067,0.0631 0.011788,-0.0177 -0.026359,0.0395 -0.00517,0.008 -0.013803,0.0126 -0.01977,0.0198 -0.00507,0.006 -0.00823,0.0136 -0.01318,0.0198 -0.00388,0.005 -0.010401,0.008 -0.01318,0.0132 -0.00405,0.008 -0.00219,0.0184 -0.00659,0.0264 -0.00683,0.0123 -0.018184,0.0215 -0.026359,0.0329 -0.00285,0.004 -0.00364,0.009 -0.00659,0.0132 -1.356e-4,1.8e-4 -0.023183,0.0248 -0.026359,0.0264 -0.00197,9.8e-4 -0.00504,0.002 -0.00659,0 -0.00347,-0.003 -0.00387,-0.009 -0.00659,-0.0132 -0.00172,-0.003 -0.00499,-0.004 -0.00659,-0.007 -0.00505,-0.008 -0.00729,-0.0185 -0.01318,-0.0264 -0.00132,-0.002 -0.00439,0 -0.00659,0 -0.0022,0 -0.00439,0 -0.00659,0 -0.00439,0 -0.0091,-0.002 -0.01318,0 -0.00735,0.003 -0.012893,0.009 -0.01977,0.0132 -0.00853,0.005 -0.017936,0.008 -0.026359,0.0132 -0.00266,0.002 -0.0041,0.005 -0.00659,0.007 -0.00634,0.005 -0.013585,0.008 -0.01977,0.0132 -0.0097,0.008 -0.017573,0.0176 -0.026359,0.0264 -0.00659,0.007 -0.014178,0.0123 -0.01977,0.0198 -0.00589,0.008 -0.00729,0.0185 -0.01318,0.0264 -0.00373,0.005 -0.010401,0.008 -0.01318,0.0132 -0.00405,0.008 -0.00373,0.0178 -0.00659,0.0264 -0.00155,0.005 -0.00439,0.009 -0.00659,0.0132 -0.00439,0.009 -0.00831,0.0178 -0.01318,0.0264 -0.014079,0.0246 -0.01914,0.0223 -0.032949,0.0527 -0.00575,0.0126 -0.00784,0.0267 -0.01318,0.0395 -0.00567,0.0136 -0.01511,0.0256 -0.01977,0.0395 -0.0064,0.0192 -0.00678,0.0401 -0.01318,0.0593 -0.00466,0.014 -0.01511,0.0256 -0.01977,0.0395 -0.00423,0.0127 -0.00397,0.0264 -0.00659,0.0395 -0.00178,0.009 -0.00439,0.0176 -0.00659,0.0264 -0.0022,0.009 -0.00254,0.0183 -0.00659,0.0264 -9.816e-4,0.002 -0.00561,-0.002 -0.00659,0 -0.00197,0.004 0,0.009 0,0.0132 0,0.0154 0,0.0308 0,0.0461 0,0.004 0.00139,0.009 0,0.0132 -0.00155,0.005 -0.00504,0.009 -0.00659,0.0132 -6.958e-4,0.002 9.816e-4,0.005 0,0.007 -0.00354,0.007 -0.00996,0.0125 -0.01318,0.0198 -0.00564,0.0127 -0.00926,0.0262 -0.01318,0.0395 -0.013722,0.0466 -0.023536,0.0847 -0.032949,0.1318 -0.00262,0.0131 -0.00292,0.0267 -0.00659,0.0395 -0.00516,0.018 -0.014377,0.0347 -0.01977,0.0527 -0.00126,0.004 0,0.009 0,0.0132 0,0.009 0.00147,0.0542 0,0.0593 -0.00217,0.008 -0.00898,0.0131 -0.01318,0.0198 -0.00679,0.0109 -0.013415,0.0218 -0.01977,0.0329 -0.00244,0.004 -0.00345,0.009 -0.00659,0.0132 -0.00795,0.01 -0.017573,0.0176 -0.026359,0.0264 -0.00879,0.009 -0.016656,0.0186 -0.026359,0.0264 -0.00618,0.005 -0.013585,0.008 -0.01977,0.0132 -0.00485,0.004 -0.00762,0.0104 -0.01318,0.0132 -0.0081,0.004 -0.018259,0.003 -0.026359,0.007 -0.00556,0.003 -0.00801,0.01 -0.01318,0.0132 -0.00183,0.001 -0.00463,-9.8e-4 -0.00659,0 -0.00278,0.001 -0.00401,0.005 -0.00659,0.007 -0.00409,0.003 -0.00925,0.004 -0.01318,0.007 -0.026559,0.0199 -0.00151,0.007 -0.01977,0.0395 -0.00945,0.017 -0.025598,0.0322 -0.039539,0.0461 -0.0022,0.002 -0.00473,0.004 -0.00659,0.007 -0.00475,0.006 -0.00758,0.0142 -0.01318,0.0198 -0.00155,0.002 -0.00504,-0.002 -0.00659,0 -2.12e-4,2.1e-4 0,0.0182 0,0.0198 0,0.009 -0.00278,0.018 0,0.0264 6.958e-4,0.002 0.00451,-7e-4 0.00659,0 0.00466,0.002 0.00879,0.004 0.01318,0.007 0.00659,0 0.013377,-0.002 0.01977,0 9.26e-4,2.3e-4 0.011266,0.0119 0.01318,0.0132 0.00409,0.003 0.00852,0.005 0.01318,0.007 0.00208,6.9e-4 0.00504,-0.002 0.00659,0 0.00347,0.003 0.00406,0.009 0.00659,0.0132 0.00407,0.007 0.0091,0.013 0.01318,0.0198 0.00253,0.004 0.00439,0.009 0.00659,0.0132 0.011482,0.023 0.017945,0.0341 0.026359,0.0593 0.00286,0.009 0.00373,0.0178 0.00659,0.0264 0.00374,0.0112 0.00944,0.0217 0.01318,0.0329 6.959e-4,0.002 6.959e-4,0.005 0,0.007 -0.013429,0.0403 -0.065499,0.071 -0.098848,0.0923 -0.010806,0.007 -0.022292,0.0127 -0.032949,0.0198 -0.00914,0.006 -0.017573,0.0132 -0.026359,0.0198 -0.00879,0.007 -0.017221,0.0137 -0.026359,0.0198 -0.016367,0.0109 -0.020358,0.004 -0.039539,0.0132 -0.00278,10e-4 -0.004,0.005 -0.00659,0.007 -0.00817,0.005 -0.018186,0.008 -0.026359,0.0132 -0.00259,0.002 -0.00439,0.004 -0.00659,0.007 -0.00439,0.004 -0.00973,0.008 -0.01318,0.0132 -0.00122,0.002 0.00122,0.005 0,0.007 -0.00345,0.005 -0.00945,0.008 -0.01318,0.0132 -0.00295,0.004 -0.00406,0.009 -0.00659,0.0132 -0.00407,0.007 -0.0091,0.013 -0.01318,0.0198 -0.00253,0.004 -0.00364,0.009 -0.00659,0.0132 -0.031039,0.0414 0.00589,-0.0208 -0.026359,0.0329 -0.00253,0.004 -0.00504,0.009 -0.00659,0.0132 -6.958e-4,0.002 0,0.004 0,0.007 0,0.0176 0,0.0351 0,0.0527 0,0.0132 0,0.0264 0,0.0395 0,0.0548 -0.00185,0.10327 0.00659,0.15815 0.00783,0.0509 0.0294,0.11405 0.039539,0.16475 0.0085,0.0425 0.00659,0.0571 0.00659,0.0989 0,0.0132 0,0.0264 0,0.0395 0,0.002 5.318e-4,0.004 0,0.007 -0.00795,0.0318 -0.00151,0.0108 -0.01318,0.0264 -0.00475,0.006 -0.0091,0.013 -0.01318,0.0198 -0.00253,0.004 -0.00312,0.01 -0.00659,0.0132 -0.01363,0.0136 -0.017591,0.008 -0.026359,0.0198 -0.00439,0.007 -0.00879,0.0132 -0.01318,0.0198 -0.0022,0 -0.00504,-0.002 -0.00659,0 -0.0056,0.006 -0.00758,0.0142 -0.01318,0.0198 -0.00347,0.003 -0.00925,0.004 -0.01318,0.007 -0.00497,0.004 -0.00879,0.009 -0.01318,0.0132 -0.00439,0.004 -0.010401,0.008 -0.01318,0.0132 -0.00197,0.004 0,0.009 0,0.0132 0,0.007 0,0.0132 0,0.0198 0,0.004 8.625e-4,0.009 0,0.0132 -0.00136,0.007 -0.00573,0.0129 -0.00659,0.0198 -0.00714,0.0571 0.011422,0.0114 0,0.0857 -1.943e-4,10e-4 -0.025848,0.0639 -0.026359,0.0659 -0.0016,0.006 0.0016,0.0134 0,0.0198 -0.00202,0.008 -0.016521,0.008 -0.01977,0.0132 -0.00244,0.004 8.626e-4,0.009 0,0.0132 -0.00136,0.007 -0.00348,0.0136 -0.00659,0.0198 -0.00573,0.0115 -0.014568,0.0213 -0.01977,0.033 -0.00368,0.008 -0.00373,0.0178 -0.00659,0.0264 -0.010984,0.033 -0.016877,0.0312 -0.01977,0.0659 -0.00128,0.0153 0,0.0308 0,0.0461 0,0.0154 0,0.0308 0,0.0461 0,0.0215 -0.0036,0.0678 0.00659,0.0857 0.00462,0.008 0.014353,0.0122 0.01977,0.0198 0.00571,0.008 0.00704,0.0187 0.01318,0.0264 0.00307,0.004 0.00918,0.004 0.01318,0.007 0.011445,0.008 0.022144,0.0174 0.032949,0.0264 0.00239,0.002 0.00381,0.005 0.00659,0.007 0.00197,9.8e-4 0.00504,-0.002 0.00659,0 0.00155,0.002 -0.00155,0.005 0,0.007 0.00177,0.002 0.021718,-0.002 0.026359,0 0.00466,0.002 0.00852,0.005 0.01318,0.007 0.00357,10e-4 0.024114,0 0.026359,0 0.021768,0 0.045131,0.002 0.065899,-0.007 0.010198,-0.004 0.017329,-0.0135 0.026359,-0.0198 0.019536,-0.0135 0.039539,-0.0264 0.059309,-0.0395 0.01318,-0.009 0.025633,-0.0188 0.039539,-0.0264 0.010385,-0.006 0.023107,-0.007 0.032949,-0.0132 0.00409,-0.003 0.00266,-0.0102 0.00659,-0.0132 0.00556,-0.004 0.013557,-0.003 0.01977,-0.007 0.00278,-0.001 0.00401,-0.005 0.00659,-0.007 0.04778,-0.0239 -0.01042,0.007 0.01977,-0.0132 0.00409,-0.003 0.00909,-0.004 0.01318,-0.007 0.00259,-0.002 0.00381,-0.005 0.00659,-0.007 0.00197,-9.8e-4 0.00444,4.3e-4 0.00659,0 0.00888,-0.002 0.01795,-0.003 0.026359,-0.007 0.00288,-0.001 0.00381,-0.005 0.00659,-0.007 0.00197,-9.8e-4 0.00463,9.8e-4 0.00659,0 0.00278,-0.001 0.00381,-0.005 0.00659,-0.007 0.00197,-9.8e-4 0.00439,0 0.00659,0 0.0022,0 0.00439,0 0.00659,0 0.015376,0 0.030753,0 0.046129,0 0.00659,0 0.013651,0.002 0.01977,0 0.00577,-0.002 0.00833,-0.009 0.01318,-0.0132 0.052719,-0.0351 -0.010983,0.011 0.032949,-0.0329 0.0056,-0.006 0.014169,-0.008 0.01977,-0.0132 0.00347,-0.003 0.00312,-0.01 0.00659,-0.0132 0.0056,-0.006 0.015695,-0.006 0.01977,-0.0132 0.00339,-0.006 -0.00208,-0.0135 0,-0.0198 0.00251,-0.008 0.0091,-0.013 0.01318,-0.0198 0.00253,-0.004 0.00387,-0.009 0.00659,-0.0132 0.00172,-0.003 0.00544,-0.004 0.00659,-0.007 0.00336,-0.008 0.00323,-0.0179 0.00659,-0.0264 2.989e-4,-7.4e-4 0.019165,-0.0196 0.01977,-0.0198 0.01977,-0.007 0.00659,0.003 0.01977,0 0.00674,-0.002 0.01318,-0.004 0.01977,-0.007 0.00659,-0.002 0.013739,-0.003 0.01977,-0.007 0.00954,-0.005 0.016536,-0.0149 0.026359,-0.0198 0.00393,-0.002 0.0091,0.002 0.01318,0 0.00735,-0.003 0.012686,-0.01 0.01977,-0.0132 0.00197,-9.8e-4 0.00463,9.8e-4 0.00659,0 0.00278,-0.001 0.00381,-0.005 0.00659,-0.007 0.00197,-9.8e-4 0.00463,9.8e-4 0.00659,0 0.00278,-0.001 0.00381,-0.005 0.00659,-0.007 0.00197,-9.8e-4 0.00439,0 0.00659,0 0.0022,0 0.00439,0 0.00659,0 0.011393,0 0.015442,6.8e-4 0.026359,-0.007 0.00517,-0.003 0.00801,-0.01 0.01318,-0.0132 0.00409,-0.003 0.00971,-0.003 0.01318,-0.007 0.013635,-0.0136 -0.020836,5.3e-4 0.00659,-0.0132 0.00197,-9.8e-4 0.00451,6.8e-4 0.00659,0 0.00466,-0.002 0.00852,-0.005 0.01318,-0.007 0.00208,-6.9e-4 0.00439,0 0.00659,0 0.00439,0 0.00879,0 0.01318,0"
       style="fill:url(#linearGradient988);fill-opacity:1;stroke:none;stroke-width:0.26458332px;stroke-linecap:butt;stroke-linejoin:miter;stroke-opacity:1" />
    <path
       id="path960-6"
       d="m 2.5184569,294.74403 c 0.00395,0.002 0.01403,0.002 0.016883,0.0123 5.029e-4,0.002 -7.942e-4,0.005 0,0.007 7.942e-4,0.002 0.00238,-9.2e-4 0.00338,0 8.967e-4,8.3e-4 0.00968,0.0168 0.010136,0.0185 5.029e-4,0.002 -5.029e-4,0.005 0,0.007 7.123e-4,0.002 0.00225,0.004 0.00338,0.007 0,0.004 -5.482e-4,0.008 0,0.0123 6.098e-4,0.005 0.00245,0.008 0.00337,0.0123 0.00132,0.006 0.00225,0.0123 0.00338,0.0185 0.00113,0.007 0.00251,0.0121 0.00337,0.0185 2.725e-4,0.002 -5.031e-4,0.005 0,0.007 7.123e-4,0.002 0.00266,0.004 0.00338,0.007 8.916e-4,0.002 -9.786e-4,0.0158 0,0.0185 0.00177,0.005 0.00484,0.007 0.00675,0.0123 0.00152,0.004 0.00259,0.008 0.00338,0.0123 4.379e-4,0.002 -5.225e-4,0.0174 0,0.0185 7.943e-4,0.002 0.00259,-0.002 0.00337,0 7.942e-4,0.002 -2.724e-4,0.004 0,0.007 8.66e-4,0.007 0.00205,0.0125 0.00338,0.0185 9.325e-4,0.005 0.00276,0.007 0.00337,0.0123 5.482e-4,0.004 -5.483e-4,0.008 0,0.0123 0.0045,0.0327 0.00113,-0.007 0.010136,0.0185 0.010696,0.0293 -0.012969,-0.006 0.00337,0.0247 0.00178,0.002 0.00497,0.002 0.00675,0.007 7.942e-4,0.002 -5.031e-4,0.005 0,0.007 7.123e-4,0.002 0.00287,0.004 0.00337,0.007 0.00338,0.0185 -0.00169,0.007 0,0.0185 8.659e-4,0.007 0.00267,0.0121 0.00338,0.0185 6.61e-4,0.006 0,0.0123 0,0.0185 0,0.0205 0,0.0411 0,0.0616 0,0.007 0,0.0123 0,0.0185 0,0.002 -7.941e-4,0.005 0,0.007 0.00155,0.002 0.0077,-0.002 0.010136,-0.007 0.00132,-0.002 0.00225,-0.004 0.00338,-0.007 0.022397,-0.0408 -0.00318,0.0119 0.00675,-0.0247 0.00251,-0.009 0.007,-0.0161 0.010136,-0.0247 0.00113,-0.004 0.00225,-0.008 0.00337,-0.0123 0,-0.004 -0.00101,-0.008 0,-0.0123 0.00143,-0.006 0.00499,-0.007 0.00675,-0.0123 0.024096,-0.0659 -0.00387,0.008 0.00675,-0.0431 0.0023,-0.0107 0.00694,-0.0204 0.010124,-0.0308 0.00245,-0.008 0.0045,-0.0165 0.00675,-0.0247 0.00337,-0.008 0.00734,-0.0157 0.010136,-0.0247 0.00177,-0.006 0.0016,-0.0128 0.00337,-0.0185 0.0028,-0.01 0.00715,-0.0159 0.010136,-0.0247 0.012126,-0.0355 0.00256,-0.014 0.010136,-0.0554 5.016e-4,-0.002 0.00266,-0.004 0.00337,-0.007 3.524e-4,-9.4e-4 3e-7,-0.0308 0,-0.0308 -6.098e-4,-0.005 -0.00259,-0.008 -0.00337,-0.0123 -6.507e-4,-0.004 0,-0.0193 0,-0.0247 0,-0.008 0.00159,-0.0139 -0.00338,-0.0185 -10e-4,-9.1e-4 -0.00259,0.002 -0.00338,0 -7.993e-4,-0.002 5.017e-4,-0.005 0,-0.007 -7.173e-4,-0.002 -0.0045,-0.004 -0.00337,-0.007 0.00113,-0.002 0.0025,0.004 0.00337,0.007 0.00139,0.004 0.00259,0.008 0.00338,0.0123 3.525e-4,0.002 0,0.004 0,0.007 0.00225,0.004 0.00499,0.007 0.00675,0.0123 6.25e-4,0.002 -5.016e-4,0.005 0,0.007 7.173e-4,0.002 0.0025,0.004 0.00338,0.007 0.00139,0.004 0.00198,0.008 0.00338,0.0123 8.813e-4,0.002 0.00266,0.004 0.00337,0.007 5.016e-4,0.002 -5.016e-4,0.005 0,0.007 0.00455,0.0166 0.00152,-2.2e-4 0.00675,0.007 0.00265,0.002 0.00499,0.007 0.00675,0.0123 6.251e-4,0.002 -2.711e-4,0.004 0,0.007 8.66e-4,0.007 0.00178,0.0126 0.00338,0.0185 7.174e-4,0.002 0.0025,0.004 0.00337,0.007 0.00139,0.004 0.00198,0.008 0.00338,0.0123 0.00177,0.005 0.00499,0.007 0.00675,0.0123 0.00139,0.004 0.00198,0.008 0.00338,0.0123 8.813e-4,0.002 0.00266,0.004 0.00338,0.007 5.016e-4,0.002 -5.017e-4,0.005 0,0.007 0.00203,0.007 0.00811,0.0107 0.010136,0.0185 5.016e-4,0.002 -7.993e-4,0.005 0,0.007 0.00178,0.002 0.00497,0.002 0.00675,0.007 0.00178,0.002 0.0016,0.009 0.00337,0.0123 7.995e-4,0.002 0.00259,-0.002 0.00338,0 0.00178,0.002 0.0016,0.009 0.00338,0.0123 0.00178,0.002 0.00474,0.004 0.00675,0.007 0.0051,0.007 0.00841,0.0177 0.013507,0.0247 0.00201,0.002 0.00465,0.004 0.00675,0.007 0.00776,0.009 -0.00146,0.004 0.00675,0.0185 7.993e-4,0.002 0.00229,-4.8e-4 0.00337,0 0.00346,0.002 0.00708,0.002 0.010136,0.007 0.00546,0.006 0.00821,0.0183 0.013506,0.0247 0.00419,0.005 0.00919,0.007 0.013506,0.0123 0.00274,0.002 0.00373,0.0107 0.00675,0.0123 0.00214,9.2e-4 0.00461,-9.4e-4 0.00675,0 0.00154,9.2e-4 0.00861,0.0157 0.010136,0.0185 0.00178,0.002 0.00923,0.0152 0.010136,0.0185 5.016e-4,0.002 -5.015e-4,0.005 0,0.007 7.174e-4,0.002 0.00287,0.004 0.00338,0.007 7.174e-4,0.004 -7.172e-4,0.008 0,0.0123 5.017e-4,0.002 0.003,0.004 0.00338,0.007 8.146e-4,0.006 0,0.0123 0,0.0185 0,0.0165 0,0.0328 0,0.0492 0,0.0327 0,0.0657 0,0.0985 0,0.0123 0,0.0247 0,0.0369 0,0.004 -10e-4,0.008 0,0.0123 5.016e-4,0.002 0.00287,-0.002 0.00338,0 0.001,0.004 -10e-4,0.008 0,0.0123 5.016e-4,0.002 0.00236,-9.1e-4 0.00338,0 0.00143,9.4e-4 0.00225,0.004 0.00338,0.007 0.00225,0.004 0.0041,0.009 0.00675,0.0123 5.017e-4,6.2e-4 0.00902,0 0.010136,0 0.010136,0 0.020259,0 0.030389,0 0.010186,0 0.013147,0.002 0.023636,-0.007 0.00148,-9.3e-4 0.00195,-0.005 0.00338,-0.007 0.00832,-0.007 -0.00305,0.0178 0.010136,-0.007 0.00178,-0.002 0.00198,-0.008 0.00337,-0.0123 0.00265,-0.007 0.00726,-0.0119 0.010136,-0.0185 0.00152,-0.004 0.00225,-0.008 0.00338,-0.0123 0.00225,-0.008 0.00417,-0.0167 0.00675,-0.0247 8.146e-4,-0.002 0.00287,-0.004 0.00338,-0.007 0.00597,-0.0328 -0.00769,0.009 0.00338,-0.0247 0.00475,-0.0145 0.00704,-0.0167 0.010136,-0.0308 0.00133,-0.006 0.00178,-0.0127 0.00337,-0.0185 7.173e-4,-0.002 0.00287,-0.004 0.00338,-0.007 0.00107,-0.006 0,-0.0123 0,-0.0185 0,-0.0107 0,-0.0205 0,-0.0308 0,-0.0144 0,-0.0288 0,-0.0431 0,-0.007 5.533e-4,-0.0125 0,-0.0185 -0.00234,-0.0256 -0.00308,-0.0107 -0.00675,-0.0309 -7.173e-4,-0.004 10e-4,-0.008 0,-0.0123 -7.173e-4,-0.002 -0.00266,-0.004 -0.00337,-0.007 -5.016e-4,-0.002 7.993e-4,-0.005 0,-0.007 -7.994e-4,-0.002 -0.00259,0.002 -0.00338,0 -5.279e-4,-9.3e-4 4.338e-4,-0.016 0,-0.0185 -7.993e-4,-0.005 -0.00225,-0.008 -0.00338,-0.0123 -0.00113,-0.004 -0.00198,-0.008 -0.00338,-0.0123 -0.00412,-0.0107 -0.0043,-6.2e-4 -0.00675,-0.0185 -5.432e-4,-0.004 7.173e-4,-0.008 0,-0.0123 -0.00266,-0.0146 -0.00408,0.002 -0.00675,-0.0123 -0.00107,-0.006 0.00107,-0.0126 0,-0.0185 -7.993e-4,-0.005 -0.00276,-0.007 -0.00338,-0.0123 -5.431e-4,-0.004 8.402e-4,-0.008 0,-0.0123 -0.0015,-0.007 -0.00494,-0.0119 -0.00675,-0.0185 -5.015e-4,-0.002 3.525e-4,-0.005 0,-0.007 -7.993e-4,-0.005 -0.00239,-0.008 -0.00338,-0.0123 -0.00239,-0.0107 -0.00484,-0.0203 -0.00675,-0.0307 -0.00147,-0.008 -0.00165,-0.0168 -0.00338,-0.0247 -5.944e-4,-0.002 -0.00287,-0.004 -0.00338,-0.007 -0.00178,-0.009 0.00178,-0.021 0,-0.0307 -0.00128,-0.007 -0.00515,-0.0119 -0.00675,-0.0185 -0.00537,-0.0229 -9.221e-4,-0.0342 -0.00675,-0.0554 -0.00182,-0.007 -0.00494,-0.0119 -0.00675,-0.0185 -0.00456,-0.0166 -0.00338,-0.0316 -0.00338,-0.0492 0,-0.007 -0.00152,-0.013 0,-0.0185 5.016e-4,-0.002 0.00259,0.002 0.00338,0 7.994e-4,-0.002 -5.017e-4,-0.005 0,-0.007 0.00143,-0.006 0.00511,-0.007 0.00675,-0.0123 0.00259,-0.007 0.0045,-0.0165 0.00675,-0.0247 0.00225,-0.008 0.00489,-0.0161 0.00675,-0.0247 0.00133,-0.006 0.00225,-0.0123 0.00338,-0.0185 0.00113,-0.007 0.0028,-0.0121 0.00338,-0.0185 6.353e-4,-0.007 -0.00103,-0.0375 0,-0.0431 5.016e-4,-0.002 0.00195,-0.005 0.00338,-0.007 10e-4,-9e-4 0.00225,0 0.00338,0 0.00113,0 0.00244,-9.4e-4 0.00337,0 0.00397,0.005 0.00675,0.0123 0.010136,0.0185 0.015272,0.0279 -0.00318,-0.007 0.016883,0.0369 0.00204,0.005 0.00469,0.007 0.00675,0.0123 0.00469,0.009 0.00841,0.0215 0.013506,0.0307 0.00178,0.002 0.00546,0.002 0.00675,0.007 0.00239,0.007 9.888e-4,0.0174 0.00338,0.0247 0.00131,0.004 0.00465,0.004 0.00675,0.007 0.00449,0.006 0.00696,0.0189 0.010136,0.0247 0.00178,0.002 0.00497,0.002 0.00675,0.007 0.00287,0.006 0.00439,0.0125 0.00675,0.0185 0.00715,0.0183 0.010919,0.0249 0.016883,0.0431 0.00131,0.004 8.557e-4,0.0123 0.00338,0.0123 0.00225,0 0,-0.008 0,-0.0123 0,-0.0123 0,-0.0247 0,-0.0369 0,-0.0247 0,-0.0492 0,-0.0739 0,-0.0472 0,-0.0944 0,-0.14165 0,-0.0144 0,-0.0288 0,-0.0431 0,-0.008 9.787e-4,-0.0166 0,-0.0247 -0.00132,-0.0107 -0.00543,-0.0201 -0.00675,-0.0308 -9.787e-4,-0.008 9.735e-4,-0.0166 0,-0.0247 -0.00132,-0.0107 -0.00469,-0.0204 -0.00675,-0.0308 -0.00244,-0.0122 -0.00502,-0.0244 -0.00675,-0.0369 -5.431e-4,-0.004 7.173e-4,-0.008 0,-0.0123 -5.017e-4,-0.002 -0.0025,-0.004 -0.00338,-0.007 -0.00139,-0.004 -0.00259,-0.008 -0.00338,-0.0123 -6.507e-4,-0.004 0,-0.0192 0,-0.0247 0,-0.0144 7.993e-4,0.002 -0.00675,-0.0185 -6.252e-4,-0.002 0,-0.004 0,-0.007 0,-0.007 4.745e-4,-0.0123 0,-0.0185 -6.508e-4,-0.008 -0.00204,-0.0165 -0.00338,-0.0247 -0.00204,-0.0125 -0.00387,-0.025 -0.00675,-0.0369 -0.00622,-0.0255 -0.00766,-0.009 -0.010136,-0.0369 -5.533e-4,-0.006 0,-0.0123 0,-0.0185 0,-0.0165 0,-0.0327 0,-0.0492 0,-0.0107 0,-0.0205 0,-0.0307 0,-0.004 0,-0.008 0,-0.0123 0,-0.002 -2.711e-4,-0.004 0,-0.007 8.66e-4,-0.007 0.00251,-0.0121 0.00337,-0.0185 2.712e-4,-0.002 -5.016e-4,-0.005 0,-0.007 7.173e-4,-0.002 0.00266,-0.004 0.00338,-0.007 5.016e-4,-0.002 0,-0.004 0,-0.007 0,-0.0107 0,-0.0205 0,-0.0307 0,-0.008 0,-0.0165 0,-0.0247 0,-0.002 -10e-4,-0.006 0,-0.007 0.0043,-0.004 0.022241,0.006 0.023636,0.007 0.0011,4.1e-4 0.00225,0 0.00338,0 0.00113,0 0.00302,0.002 0.00338,0 0.00143,-0.007 0,-0.0165 0,-0.0247 0,-0.004 0,-0.008 0,-0.0123 0,-0.002 3.525e-4,-0.005 0,-0.007 -9.888e-4,-0.006 -0.00835,-0.032 -0.010136,-0.0369 -8.813e-4,-0.002 -0.0025,-0.004 -0.00338,-0.007 -0.00744,-0.002 -0.00178,-0.0127 -0.00337,-0.0185 -7.173e-4,-0.002 -0.00266,-0.004 -0.00338,-0.007 -0.00159,-0.006 -0.00178,-0.0127 -0.00338,-0.0185 -4.338e-4,-0.002 -0.00602,-0.007 -0.00337,-0.0123 0.00337,-0.007 0.00515,0.007 0.010136,0.0123 0.00201,0.002 0.0045,0 0.00675,0 0.00113,0.004 0.0016,0.009 0.00338,0.0123 6.508e-4,9.4e-4 0.015649,-9.4e-4 0.016883,0 10e-4,9.1e-4 -7.993e-4,0.005 0,0.007 7.993e-4,0.002 0.00259,-0.002 0.00338,0 8.404e-4,0.002 -0.00281,0.0236 0.00675,0.007 0.00159,-0.002 0,-0.008 0,-0.0123 0,-0.0205 0,-0.0411 0,-0.0616 0,-0.008 7.48e-4,-0.0165 0,-0.0247 -4.204e-4,-0.005 -0.00259,-0.008 -0.00338,-0.0123 -0.013439,-0.0736 0.0083,0.0263 -0.010123,-0.0492 -0.00246,-0.009 -0.0045,-0.0205 -0.00675,-0.0308 -0.00338,-0.0123 -0.00694,-0.0244 -0.010136,-0.0369 -0.00469,-0.0183 -0.00854,-0.0374 -0.013506,-0.0554 -0.00182,-0.007 -0.0045,-0.0123 -0.00675,-0.0185 -0.00338,-0.0123 -0.007,-0.0244 -0.010136,-0.0369 -0.0025,-0.0107 -0.00437,-0.0206 -0.00675,-0.0308 -9.888e-4,-0.005 -0.00245,-0.008 -0.00338,-0.0123 -0.00265,-0.0121 -0.0041,-0.0249 -0.00675,-0.0369 -0.00505,-0.0231 -0.0022,-0.002 -0.010136,-0.0309 -0.00159,-0.006 -0.00205,-0.0125 -0.00338,-0.0185 -0.00276,-0.0126 -0.0068,-0.0248 -0.010124,-0.0369 -0.00113,-0.004 -0.0016,-0.009 -0.00338,-0.0123 -7.993e-4,-0.002 -0.00287,0.002 -0.00338,0 -10e-4,-0.004 10e-4,-0.008 0,-0.0123 -0.00143,-0.006 -0.00484,-0.007 -0.00675,-0.0123 -0.00152,-0.004 -0.00225,-0.008 -0.00338,-0.0123 -0.00338,-0.007 -0.00715,-0.0119 -0.010136,-0.0185 -0.00157,-0.004 -0.00192,-0.008 -0.00338,-0.0123 -0.00419,-0.0107 -0.00969,-0.0196 -0.013506,-0.0308 -0.00189,-0.006 -0.00154,-0.0129 -0.00338,-0.0185 -0.00164,-0.005 -0.00484,-0.007 -0.00675,-0.0123 -0.00152,-0.004 -0.0016,-0.01 -0.00338,-0.0123 -0.00178,-0.002 -0.00497,-0.002 -0.00675,-0.007 -7.993e-4,-0.002 3.526e-4,-0.005 0,-0.007 -7.993e-4,-0.005 -0.00198,-0.008 -0.00338,-0.0123 -8.813e-4,-0.002 -0.0025,-0.004 -0.00338,-0.007 -0.00139,-0.004 -0.0016,-0.009 -0.00338,-0.0123 -7.993e-4,-0.002 -0.00259,0.002 -0.00338,0 -7.993e-4,-0.002 3.526e-4,-0.005 0,-0.007 -0.00816,-0.0446 9.735e-4,0.009 -0.00675,-0.0185 -5.016e-4,-0.002 3.524e-4,-0.005 0,-0.007 -7.994e-4,-0.005 -0.00276,-0.007 -0.00338,-0.0123 -5.432e-4,-0.004 0.001,-0.008 0,-0.0123 -5.016e-4,-0.002 -0.00302,0.002 -0.00338,0 -0.00107,-0.006 0.00107,-0.0126 0,-0.0185 -0.00996,-0.0545 -0.00439,0.0154 -0.010136,-0.0369 -0.00131,-0.0119 0.00131,-0.0251 0,-0.0369 -3.118e-4,-0.002 -0.00256,-0.004 -0.00337,-0.007 -0.00259,-0.007 -0.0045,-0.0165 -0.00675,-0.0247 -0.00113,-0.004 -0.00289,-0.007 -0.00337,-0.0123 -6.662e-4,-0.006 0,-0.0123 0,-0.0185 0,-0.007 0,-0.0123 0,-0.0185 0,-0.0247 0,-0.0492 0,-0.0739 0,-0.0205 0,-0.041 0,-0.0616 0,-0.007 0,-0.0123 0,-0.0185 0,-0.004 -7.174e-4,-0.008 0,-0.0123 0.00215,-0.0119 0.00664,-0.002 0.010136,-0.007 0.0029,-0.002 0.00944,-0.0258 0.010136,-0.0307 5.432e-4,-0.004 0,-0.008 0,-0.0123 0,-0.007 0,-0.0123 0,-0.0185 0,-0.004 0,-0.0415 0,-0.0492 0,-0.0227 0,-0.0451 0,-0.0677 0,-0.0165 0.00137,-0.033 0,-0.0492 -9.223e-4,-0.0107 -0.00443,-0.0205 -0.00675,-0.0308 -0.0033,-0.0143 -0.00695,-0.0286 -0.010136,-0.0431 -0.00275,-0.0126 -0.0028,-0.0201 -0.00675,-0.0307 -0.00443,-0.0121 -0.00708,-0.002 -0.013506,-0.007 -0.00706,-0.005 -0.0143,-0.009 -0.020259,-0.0185 -0.00444,-0.007 -0.00616,-0.0174 -0.010136,-0.0247 -0.028738,-0.0524 0.0029,0.0148 -0.030389,-0.0307 -0.0045,-0.007 -0.00586,-0.0179 -0.010136,-0.0247 -0.018538,-0.029 -0.00818,0.004 -0.023636,-0.0247 -0.00287,-0.006 -0.00388,-0.0133 -0.00675,-0.0185 -0.00287,-0.006 -0.00688,-0.007 -0.010124,-0.0123 -0.00128,-0.002 -0.00195,-0.005 -0.00338,-0.007 -0.0027,-0.002 -0.00742,0.002 -0.010136,0 -10e-4,-9.2e-4 7.994e-4,-0.005 0,-0.007 -7.993e-4,-0.002 -0.00236,9.2e-4 -0.00337,0 -0.00285,-0.002 -0.0041,-0.009 -0.00675,-0.0123 -0.0021,-0.002 -0.00437,-0.005 -0.00675,-0.007 -0.00107,-6.5e-4 -0.00259,0.002 -0.00338,0 -3.4e-6,0 5.1e-6,-0.0184 0,-0.0185 -5.016e-4,-0.002 -0.00266,-0.004 -0.00338,-0.007 -5.016e-4,-0.002 2.711e-4,-0.004 0,-0.007 -8.658e-4,-0.007 -0.00178,-0.0127 -0.00337,-0.0185 -0.00664,-0.0242 -0.0073,-0.0107 -0.010136,-0.0369 -4.474e-4,-0.004 4.473e-4,-0.008 0,-0.0123 -6.917e-4,-0.007 -0.0028,-0.0121 -0.00337,-0.0185 -5.533e-4,-0.006 0.00124,-0.0127 0,-0.0185 -0.00118,-0.006 -0.00499,-0.007 -0.00675,-0.0123 -0.00124,-0.004 4.473e-4,-0.008 0,-0.0123 -9.07e-4,-0.008 -0.00246,-0.0164 -0.00338,-0.0247 -4.474e-4,-0.004 10e-4,-0.008 0,-0.0123 -7.174e-4,-0.002 -0.00266,-0.004 -0.00337,-0.007 -5.015e-4,-0.002 -0.00113,-0.007 0,-0.007 0.00113,0 7.993e-4,0.007 0,0.007 -0.00178,-0.002 -0.00225,-0.008 -0.00337,-0.0123 -0.00113,-0.004 -0.00276,-0.007 -0.00338,-0.0123 -2.82e-5,-2e-4 1.79e-5,-0.0184 0,-0.0185 -7.993e-4,-0.002 -0.00225,0 -0.00338,0 0,-0.004 5.431e-4,-0.008 0,-0.0123 -0.00408,-0.0298 -0.0016,3.1e-4 -0.00675,-0.0185 -5.015e-4,-0.002 7.994e-4,-0.005 0,-0.007 -7.993e-4,-0.002 -0.00231,-6.4e-4 -0.00338,0 -0.00924,0.006 -0.00721,0.008 -0.013506,0.0247 -0.00327,0.008 -0.00647,0.0168 -0.010136,0.0247 -0.021329,0.0454 4.189e-4,-0.0139 -0.016883,0.0492 -0.00182,0.007 -0.0045,0.0123 -0.00675,0.0185 -0.00536,0.0147 -0.01281,0.0344 -0.016883,0.0492 -0.00271,0.009 -0.00484,0.0203 -0.00675,0.0308 -3.565e-4,0.002 6.765e-4,0.005 0,0.007 -0.032314,0.059 0.00604,-0.0165 -0.013506,0.0369 -0.00265,0.007 -0.00708,0.0119 -0.010124,0.0185 -0.0026,0.006 -0.00422,0.0127 -0.00675,0.0185 -0.00199,0.005 -0.00534,0.007 -0.00675,0.0123 -0.00208,0.007 -0.00112,0.0172 -0.00337,0.0247 -0.00349,0.0119 -0.00932,0.0201 -0.013506,0.0307 -0.00146,0.004 -0.00187,0.008 -0.00337,0.0123 -6.95e-5,1.7e-4 -0.011877,0.0231 -0.013506,0.0247 -0.00101,9.3e-4 -0.00259,0.002 -0.00338,0 -0.00178,-0.002 -0.00198,-0.008 -0.00337,-0.0123 -8.813e-4,-0.002 -0.00256,-0.004 -0.00338,-0.007 -0.00259,-0.007 -0.00373,-0.0173 -0.00675,-0.0247 -6.763e-4,-0.002 -0.00225,0 -0.00337,0 -0.00113,0 -0.00225,0 -0.00338,0 -0.00225,0 -0.00466,-0.002 -0.00675,0 -0.00377,0.002 -0.0066,0.008 -0.010136,0.0123 -0.00437,0.005 -0.00919,0.007 -0.013506,0.0123 -0.00137,0.002 -0.0021,0.005 -0.00337,0.007 -0.00325,0.005 -0.00696,0.007 -0.010136,0.0123 -0.00497,0.007 -0.009,0.0165 -0.013506,0.0247 -0.00338,0.007 -0.00726,0.0119 -0.010136,0.0185 -0.00302,0.007 -0.00373,0.0173 -0.00675,0.0247 -0.00192,0.005 -0.00534,0.007 -0.00675,0.0123 -0.00208,0.007 -0.00192,0.0166 -0.00338,0.0247 -7.941e-4,0.005 -0.00225,0.008 -0.00338,0.0123 -0.00225,0.008 -0.00425,0.0166 -0.00675,0.0247 -0.00721,0.023 -0.00981,0.0209 -0.016883,0.0492 -0.00295,0.0119 -0.00402,0.0249 -0.00675,0.0369 -0.00291,0.0127 -0.00775,0.024 -0.010136,0.0369 -0.00328,0.0179 -0.00347,0.0375 -0.00675,0.0554 -0.00239,0.013 -0.00775,0.024 -0.010136,0.0369 -0.00216,0.0119 -0.00204,0.0247 -0.00337,0.0369 -9.122e-4,0.008 -0.00225,0.0165 -0.00337,0.0247 -0.00113,0.008 -0.00131,0.0171 -0.00338,0.0247 -5.029e-4,0.002 -0.00287,-0.002 -0.00338,0 -0.00101,0.004 0,0.008 0,0.0123 0,0.0144 0,0.0288 0,0.0431 0,0.004 7.123e-4,0.008 0,0.0123 -7.942e-4,0.005 -0.00259,0.008 -0.00337,0.0123 -3.566e-4,0.002 5.029e-4,0.005 0,0.007 -0.00182,0.007 -0.0051,0.0119 -0.00675,0.0185 -0.00289,0.0119 -0.00475,0.0244 -0.00675,0.0369 -0.00703,0.0435 -0.012064,0.0791 -0.016883,0.12318 -0.00134,0.0122 -0.00149,0.0249 -0.00337,0.0369 -0.00265,0.0168 -0.00736,0.0324 -0.010136,0.0492 -6.456e-4,0.004 0,0.008 0,0.0123 0,0.008 7.531e-4,0.0507 0,0.0554 -0.00111,0.007 -0.0046,0.0122 -0.00675,0.0185 -0.00348,0.0107 -0.00688,0.0204 -0.010136,0.0307 -0.00126,0.004 -0.00177,0.008 -0.00338,0.0123 -0.00408,0.009 -0.009,0.0165 -0.013506,0.0247 -0.0045,0.008 -0.00853,0.0174 -0.013506,0.0247 -0.00317,0.005 -0.00696,0.007 -0.010136,0.0123 -0.00249,0.004 -0.00391,0.009 -0.00675,0.0123 -0.00415,0.004 -0.00935,0.002 -0.013506,0.007 -0.00285,0.002 -0.0041,0.01 -0.00675,0.0123 -9.376e-4,9.3e-4 -0.00238,-9.1e-4 -0.00338,0 -0.00143,9.3e-4 -0.00205,0.005 -0.00338,0.007 -0.00209,0.002 -0.00474,0.004 -0.00675,0.007 -0.013608,0.0186 -7.737e-4,0.007 -0.010136,0.0369 -0.00484,0.0159 -0.013116,0.0301 -0.020259,0.0431 -0.00113,0.002 -0.00243,0.004 -0.00338,0.007 -0.00244,0.006 -0.00388,0.0133 -0.00675,0.0185 -7.941e-4,0.002 -0.00259,-0.002 -0.00337,0 -1.086e-4,1.9e-4 0,0.017 0,0.0185 0,0.008 -0.00143,0.0168 0,0.0247 3.566e-4,0.002 0.00231,-6.6e-4 0.00337,0 0.00239,0.002 0.0045,0.004 0.00675,0.007 0.00338,0 0.00685,-0.002 0.010136,0 4.745e-4,2.1e-4 0.00577,0.0107 0.00675,0.0123 0.0021,0.002 0.00437,0.005 0.00675,0.007 0.00107,6.5e-4 0.00259,-0.002 0.00338,0 0.00178,0.002 0.00208,0.008 0.00338,0.0123 0.00209,0.007 0.00466,0.0121 0.00675,0.0185 0.00129,0.004 0.00225,0.008 0.00338,0.0123 0.00588,0.0215 0.00919,0.0319 0.013506,0.0554 0.00147,0.008 0.00192,0.0166 0.00337,0.0247 0.00192,0.0107 0.00484,0.0203 0.00675,0.0307 3.567e-4,0.002 3.567e-4,0.005 0,0.007 -0.00688,0.0376 -0.033561,0.0663 -0.050649,0.0863 -0.00553,0.007 -0.011417,0.0119 -0.016883,0.0185 -0.00469,0.006 -0.009,0.0123 -0.013506,0.0185 -0.0045,0.007 -0.00882,0.0128 -0.013506,0.0185 -0.00838,0.0107 -0.010434,0.004 -0.02026,0.0123 -0.00143,9.3e-4 -0.00205,0.005 -0.00338,0.007 -0.00419,0.005 -0.00932,0.007 -0.013506,0.0123 -0.00133,0.002 -0.00225,0.004 -0.00337,0.007 -0.00225,0.004 -0.00499,0.007 -0.00675,0.0123 -6.25e-4,0.002 6.251e-4,0.005 0,0.007 -0.00177,0.005 -0.00484,0.007 -0.00675,0.0123 -0.00152,0.004 -0.00208,0.008 -0.00337,0.0123 -0.00209,0.007 -0.00466,0.0121 -0.00675,0.0185 -0.00129,0.004 -0.00187,0.008 -0.00338,0.0123 -0.015904,0.0387 0.00302,-0.0195 -0.013506,0.0307 -0.00129,0.004 -0.00259,0.008 -0.00338,0.0123 -3.566e-4,0.002 0,0.004 0,0.007 0,0.0165 0,0.0327 0,0.0492 0,0.0123 0,0.0247 0,0.0369 0,0.0513 -9.48e-4,0.0965 0.00338,0.1478 0.00402,0.0476 0.015065,0.10654 0.020259,0.15397 0.00435,0.0398 0.00337,0.0534 0.00337,0.0924 0,0.0123 0,0.0247 0,0.0369 0,0.002 2.725e-4,0.004 0,0.007 -0.00408,0.0298 -7.737e-4,0.0107 -0.00675,0.0247 -0.00244,0.006 -0.00466,0.0121 -0.00675,0.0185 -0.00129,0.004 -0.0016,0.01 -0.00338,0.0123 -0.00699,0.0127 -0.00902,0.007 -0.013506,0.0185 -0.00225,0.007 -0.0045,0.0123 -0.00675,0.0185 -0.00113,0 -0.00259,-0.002 -0.00337,0 -0.00287,0.006 -0.00388,0.0133 -0.00675,0.0185 -0.00178,0.002 -0.00474,0.004 -0.00675,0.007 -0.00255,0.004 -0.0045,0.008 -0.00675,0.0123 -0.00225,0.004 -0.00534,0.007 -0.00675,0.0123 -0.00101,0.004 0,0.008 0,0.0123 0,0.007 0,0.0123 0,0.0185 0,0.004 4.42e-4,0.008 0,0.0123 -6.969e-4,0.007 -0.00294,0.0121 -0.00337,0.0185 -0.00366,0.0534 0.00586,0.0107 0,0.0801 -9.96e-5,9.4e-4 -0.013244,0.0597 -0.013506,0.0616 -8.198e-4,0.006 8.198e-4,0.0125 0,0.0185 -0.00104,0.007 -0.00847,0.007 -0.010136,0.0123 -0.00126,0.004 4.42e-4,0.008 0,0.0123 -6.969e-4,0.007 -0.00178,0.0127 -0.00337,0.0185 -0.00294,0.0107 -0.00746,0.0199 -0.010136,0.0308 -0.00189,0.007 -0.00192,0.0166 -0.00337,0.0247 -0.00563,0.0308 -0.00864,0.0292 -0.010136,0.0616 -6.56e-4,0.0144 0,0.0288 0,0.0431 0,0.0144 0,0.0288 0,0.0431 0,0.0201 -0.00184,0.0634 0.00338,0.0801 0.00236,0.007 0.00735,0.0119 0.010136,0.0185 0.00292,0.007 0.00361,0.0174 0.00675,0.0247 0.00157,0.004 0.0047,0.004 0.00675,0.007 0.00587,0.007 0.011342,0.0163 0.016883,0.0247 0.00122,0.002 0.00195,0.005 0.00338,0.007 0.00101,9.1e-4 0.00259,-0.002 0.00338,0 7.942e-4,0.002 -7.942e-4,0.005 0,0.007 9.069e-4,0.002 0.011131,-0.002 0.013506,0 0.00239,0.002 0.00437,0.005 0.00675,0.007 0.00183,9.3e-4 0.01235,0 0.013506,0 0.011156,0 0.023125,0.002 0.033766,-0.007 0.00522,-0.004 0.00888,-0.0126 0.013506,-0.0185 0.010012,-0.0126 0.020259,-0.0247 0.030389,-0.0369 0.00675,-0.008 0.013134,-0.0176 0.020259,-0.0247 0.00532,-0.006 0.01184,-0.007 0.016883,-0.0123 0.0021,-0.002 0.00137,-0.009 0.00337,-0.0123 0.00285,-0.004 0.00695,-0.002 0.010136,-0.007 0.00143,-9.4e-4 0.00205,-0.005 0.00338,-0.007 0.024482,-0.0223 -0.00534,0.007 0.010124,-0.0123 0.0021,-0.002 0.00466,-0.004 0.00675,-0.007 0.00133,-0.002 0.00195,-0.005 0.00338,-0.007 0.00101,-9.1e-4 0.00228,3.9e-4 0.00338,0 0.00455,-0.002 0.0092,-0.002 0.013506,-0.007 0.00148,-9.2e-4 0.00195,-0.005 0.00338,-0.007 0.00101,-9.2e-4 0.00238,9.1e-4 0.00337,0 0.00143,-9.4e-4 0.00195,-0.005 0.00338,-0.007 0.00101,-9.3e-4 0.00225,0 0.00337,0 0.00113,0 0.00225,0 0.00338,0 0.00787,0 0.015757,0 0.023636,0 0.00338,0 0.00699,0.002 0.010136,0 0.00296,-0.002 0.00427,-0.008 0.00675,-0.0123 0.027013,-0.0328 -0.00563,0.0107 0.016883,-0.0307 0.00287,-0.006 0.00726,-0.007 0.010136,-0.0123 0.00178,-0.002 0.0016,-0.01 0.00337,-0.0123 0.00287,-0.006 0.00805,-0.006 0.010136,-0.0123 0.00174,-0.006 -0.00107,-0.0126 0,-0.0185 0.00128,-0.007 0.00466,-0.0121 0.00675,-0.0185 0.00129,-0.004 0.00198,-0.008 0.00338,-0.0123 8.813e-4,-0.002 0.00279,-0.004 0.00337,-0.007 0.00172,-0.007 0.00165,-0.0167 0.00338,-0.0247 1.531e-4,-7e-4 0.00983,-0.0183 0.010136,-0.0185 0.010136,-0.007 0.00338,0.002 0.010136,0 0.00346,-0.002 0.00675,-0.004 0.010136,-0.007 0.00337,-0.002 0.00704,-0.002 0.010136,-0.007 0.00489,-0.005 0.00847,-0.0139 0.013506,-0.0185 0.00201,-0.002 0.00466,0.002 0.00675,0 0.00377,-0.002 0.0065,-0.009 0.010136,-0.0123 0.00101,-9e-4 0.00238,9.2e-4 0.00338,0 0.00143,-9.3e-4 0.00195,-0.005 0.00337,-0.007 0.00101,-9.2e-4 0.00238,9.1e-4 0.00338,0 0.00143,-9.4e-4 0.00195,-0.005 0.00338,-0.007 0.00101,-9.2e-4 0.00225,0 0.00338,0 0.00113,0 0.00225,0 0.00337,0 0.00583,0 0.00791,6.5e-4 0.013506,-0.007 0.00265,-0.002 0.0041,-0.009 0.00675,-0.0123 0.0021,-0.002 0.00497,-0.002 0.00675,-0.007 0.00699,-0.0127 -0.010671,5e-4 0.00337,-0.0123 0.00101,-9.1e-4 0.00231,6.5e-4 0.00337,0 0.00239,-0.002 0.00437,-0.005 0.00675,-0.007 0.00107,-6.4e-4 0.00225,0 0.00337,0 0.00225,0 0.0045,0 0.00675,0"
       style="fill:url(#linearGradient988-0);fill-opacity:1;stroke:none;stroke-width:0.18309009px;stroke-linecap:butt;stroke-linejoin:miter;stroke-opacity:1" />
  </g>
</svg>
