<?xml version="1.0" encoding="UTF-8" standalone="no"?>
<svg
   xmlns:dc="http://purl.org/dc/elements/1.1/"
   xmlns:cc="http://creativecommons.org/ns#"
   xmlns:rdf="http://www.w3.org/1999/02/22-rdf-syntax-ns#"
   xmlns:svg="http://www.w3.org/2000/svg"
   xmlns="http://www.w3.org/2000/svg"
   height="20"
   width="20"
   id="tree"
   viewBox="0 0 20 20"
   version="1.1">
  <defs
     id="defs4">
    <linearGradient
       id="linearGradient6389"
       y2="411.63"
       gradientUnits="userSpaceOnUse"
       x2="110.14"
       gradientTransform="translate(122.44,-352)"
       y1="434.26001"
       x1="219.89">
      <stop
         id="stop4770"
         style="stop-color:#4b5d32"
         offset="0" />
      <stop
         id="stop4772"
         style="stop-color:rgb(255, 255, 255);stop-opacity:0"
         offset="1" />
    </linearGradient>
  </defs>
  <g
     id="layer1"
     transform="matrix(0.05821142,0,0,0.05821142,-8.6398545,6.5879634)">
    <path
       id="path4726"
       style="fill:url(#linearGradient6389)"
       d="m 352.25,130.43 c 10.6,0.557 21.328,-2.6196 31.625,0.99433 11.138,0.72912 25.091,-3.7049 29.187,-15.136 1.8535,-14.447 5.5794,-30.271 -1.4142,-43.841 -6.7957,-12.164 -21.78,-12.707 -33.071,-18.388 -11.878,-1.9884 -17.13,-13.359 -25,-20.637 -11.245,-8.8228 -24.876,-16.809 -38.961,-9.1188 -15.323,7.8611 -33.683,5.8335 -48.559,14.782 -10.085,2.6384 -19.831,6.118 -28.39,12.168 -6.5393,6.8379 -28.309,3.0872 -17.561,17.517 7.8175,6.8562 21.11,10.515 16,24.213 4.7142,13.766 -9.6457,34.13 7.7087,42.309 12.303,3.2162 24.935,10.375 37.989,7.2252 12.878,-5.4047 27.289,-6.3912 39.451,-14.331 10.758,-0.92183 19.868,6.7562 30.996,2.2446 z" />
    <path
       id="path4722"
       style="fill:#28311b"
       d="m 434.55,149.94 c -0.0292,-0.0491 -0.42253,-0.24915 -0.92341,-0.47861 l 0.49375,0.82947 c 0.28314,-0.18581 0.45042,-0.31597 0.42967,-0.35083 z m -20.817,-22.141 c -0.28817,-0.41794 -0.79637,-0.66073 -2.0016,-1.011 l -1.9355,-0.56981 -0.14121,-1.6399 c -0.14266,-1.8236 -0.082,-1.7776 -2.5828,-1.6573 -1.8008,0.0866 -2.1205,-1.0258 -0.72125,-2.4906 0.58939,-0.61697 1.0345,-1.3062 0.9859,-1.5205 -0.0486,-0.21429 -0.70673,-0.4791 -1.4589,-0.5944 -1.2393,-0.18997 -1.3458,-0.28935 -1.2306,-0.99472 0.2786,-1.7056 -0.94733,-4.1759 -2.4202,-4.8908 -0.46234,-0.22442 -1.4551,-0.22645 -2.1979,-0.0205 -1.4648,0.40619 -1.7656,0.18658 -1.6882,-1.1858 0.0759,-1.346 -0.75373,-1.2934 -2.8659,0.17737 l -1.7886,1.2446 -0.79001,-1.3271 -0.78999,-1.3272 -2.5892,1.7562 c -1.4214,0.97027 -2.6554,1.6449 -2.7428,1.4981 -0.0874,-0.14679 -0.25121,-0.86759 -0.36301,-1.6 -0.30182,-1.9773 -0.91548,-2.8141 -2.1129,-2.8481 -1.0279,-0.0292 -1.0237,-0.0179 -1.3346,2.0486 -0.25226,1.6766 -0.51045,2.2347 -1.3215,2.8544 -0.82246,0.62837 -1.0055,1.0468 -1.0304,2.3122 -0.0344,1.7528 -0.65026,2.3138 -3.0209,2.8462 -0.78648,0.17661 -1.3591,0.40507 -1.2881,0.51772 0.071,0.11264 0.86197,0.55032 1.7537,0.96581 2.6801,1.2488 2.6452,2.0245 -0.15939,3.8166 -1.0554,0.67434 -1.91,1.3831 -1.9102,1.5767 -1.8e-4,0.19365 0.95696,0.48472 2.141,0.6675 1.471,0.22709 2.2829,0.57586 2.5686,1.0558 0.53797,0.90375 0.33815,1.2666 -1.4736,2.7226 -1.2691,1.0199 -1.4471,1.3138 -1.1964,1.9094 0.18484,0.43924 0.91519,0.88134 1.9429,1.2011 1.8712,0.58227 2.6702,1.1344 2.4144,1.6632 -0.0975,0.20162 -0.72276,0.82281 -1.3818,1.3918 -0.65902,0.56892 -1.1492,1.2494 -1.09,1.5106 0.0593,0.26118 1.1294,0.69284 2.3809,0.94675 2.7622,0.56041 4.2753,1.6289 3.8396,2.7371 -0.15837,0.4028 -0.51611,0.88951 -0.79051,1.0648 -0.46496,0.29709 -0.41078,0.37683 0.86116,1.2817 0.005,0.004 0.005,0.0145 0.011,0.0184 l 10.817,-6.9116 c 5.4885,-3.5068 11.762,-4.5505 17.612,-3.4169 -0.14927,-0.56812 -0.37449,-1.0397 -0.6791,-1.3471 -0.45368,-0.45785 -0.49823,-0.67394 -0.16104,-0.88939 0.52177,-0.33339 0.60287,-1.7212 0.16831,-3.059 -0.0625,-0.19233 -0.14267,-0.34423 -0.23872,-0.48354 z" />
    <path
       id="path4701"
       style="fill:#4b2c17"
       d="m 297.09,94.368 c -3.1932,-0.59449 -6.769,-0.82525 -9.8398,0.24792 -3.1056,1.8384 -5.5246,4.6078 -7.9507,7.2143 -4.287,2.469 -8.542,5.5303 -13.619,5.9612 -3.4888,1.3994 -7.5755,2.353 -9.9971,5.4527 -2.4288,4.1848 -3.208,9.3876 -6.6929,12.943 -1.63,2.4051 -7.6288,4.7379 -6.8092,-0.1357 1.9243,-3.5366 4.3467,-6.6728 6.5787,-10 2.7117,-2.607 4.415,-6.0689 5.869,-9.5358 1.2842,-3.4145 8.7008,-4.0913 5.186,-8.6307 -2.3519,-1.8545 -3.9829,-4.4521 -6.7344,-5.7743 -3.6015,-0.82622 -5.5749,-5.1082 -7.5189,-6.7047 -0.73975,3.7962 2.2892,6.9637 4.3999,9.798 3.255,1.2253 2.9796,6.8201 6.8499,6.2609 4.0728,-0.0553 8.2562,0.0976 12.201,-0.92384 3.7296,-2.7046 8.1698,-4.5239 11.68,-7.6428 4.0051,-1.8139 6.9513,-6.2375 11.565,-6.3246 4.3658,-1.3333 10.992,3.791 6.022,7.4038 l -0.60678,0.27092 -0.58307,0.12035 z" />
    <path
       id="path4678"
       style="fill:#643b1f"
       d="m 289.56,58.813 c -0.27798,1.1094 0.44716,0.89433 0.5,1 0.46706,0.93413 -0.18953,1.379 -0.5,2 -0.37038,0.74076 0,2.6535 0,3.5 0,0.20588 0.13235,1.3676 0,1.5 -0.11785,0.11785 -0.38215,-0.11785 -0.5,0 -0.11785,0.11785 0.11785,0.38215 0,0.5 -0.66667,0.66667 -0.5,-0.83333 -0.5,0.5 0,0.20588 0.13235,1.3676 0,1.5 -0.0627,0.0627 -1.2175,-0.21747 -0.5,0.5 0.11785,0.11785 0.38215,-0.11785 0.5,0 0.33333,0.33334 -0.33334,1.6667 0,2 0.2357,0.2357 0.76429,-0.2357 1,0 0.2357,0.2357 -0.14907,0.70186 0,1 0.21082,0.42164 0.78918,0.57836 1,1 0.15094,0.30189 -0.23114,1.2689 0,1.5 0.11785,0.11785 0.38215,-0.11785 0.5,0 0.2357,0.2357 -0.14907,0.70186 0,1 0.10541,0.21082 0.39459,0.28918 0.5,0.5 0.20814,0.4163 -0.31716,1.6828 0,2 0.11785,0.11785 0.38215,-0.11785 0.5,0 0.25,0.25 -0.25,1.25 0,1.5 0.11785,0.11785 0.38215,-0.11785 0.5,0 0.2357,0.2357 -0.23571,0.7643 0,1 0.11785,0.11785 0.38215,-0.11785 0.5,0 0.2357,0.2357 -0.23571,0.7643 0,1 0.11785,0.11785 0.38215,-0.11785 0.5,0 0.11785,0.11785 -0.11785,0.38215 0,0.5 0.2357,0.2357 0.76429,-0.2357 1,0 0.11785,0.11785 -0.11785,0.38215 0,0.5 0.2357,0.2357 0.7643,-0.2357 1,0 0.11785,0.11785 -0.11785,0.38215 0,0.5 0.11785,0.11785 0.38215,-0.11785 0.5,0 0.11785,0.11785 -0.11785,0.38215 0,0.5 0.11785,0.11785 0.38215,-0.11785 0.5,0 0.11785,0.11785 -0.11785,0.38215 0,0.5 0.11785,0.11785 0.33333,0 0.5,0 0,0.16667 -0.11785,0.38215 0,0.5 0.11785,0.11785 0.38215,-0.11785 0.5,0 0.11785,0.11785 -0.11785,0.38215 0,0.5 0.16783,0.16783 0.83217,-0.16783 1,0 0.47991,0.47992 -0.44662,0.5 1,0.5 0.33333,0 0.7643,-0.2357 1,0 0.11785,0.11785 -0.11785,0.38215 0,0.5 0.16667,0.16667 1.3333,0.33334 1.5,0.5 0.11785,0.11785 -0.11785,0.38215 0,0.5 0.2357,0.2357 0.7643,-0.2357 1,0 0.11785,0.11785 0,0.33334 0,0.5 0.16667,0 0.38215,-0.11785 0.5,0 0.11785,0.11785 -0.11785,0.38215 0,0.5 0.11785,0.11785 0.38215,-0.11785 0.5,0 0.11785,0.11785 -0.11785,0.38215 0,0.5 0.2357,0.2357 0.7643,-0.2357 1,0 0.11785,0.11785 -0.11785,0.38215 0,0.5 0.11785,0.11785 0.38215,-0.11785 0.5,0 0.11785,0.11785 -0.11785,0.38215 0,0.5 0.11785,0.11785 0.38215,-0.11785 0.5,0 0.2357,0.2357 -0.2357,0.7643 0,1 0.11785,0.11785 0.38215,-0.11785 0.5,0 0.11785,0.11785 0,0.33334 0,0.5 0.16667,0 0.38215,-0.11785 0.5,0 0.11785,0.11785 -0.11785,0.38215 0,0.5 0.11785,0.11785 0.38215,-0.11785 0.5,0 0.11785,0.11785 -0.11785,0.38215 0,0.5 0.11785,0.11785 0.38215,-0.11785 0.5,0 0.25,0.25 -0.25,1.25 0,1.5 0.11785,0.11785 0.38215,-0.11785 0.5,0 0.11785,0.11785 -0.11785,0.38215 0,0.5 0.11785,0.11785 0.38215,-0.11785 0.5,0 0.2357,0.2357 -0.2357,0.7643 0,1 0.11785,0.11785 0.38215,-0.11785 0.5,0 0.2357,0.2357 -0.2357,0.7643 0,1 0.11785,0.11785 0.38215,-0.11785 0.5,0 0.2357,0.2357 -0.2357,0.7643 0,1 0.11785,0.11785 0.38215,-0.11785 0.5,0 0.2357,0.2357 -0.2357,0.7643 0,1 0.11785,0.11785 0.38215,-0.11785 0.5,0 0.2357,0.2357 -0.2357,0.7643 0,1 0.11785,0.11785 0.33333,0 0.5,0 0,0.16667 -0.11785,0.38215 0,0.5 0.11785,0.11785 0.38215,-0.11785 0.5,0 0.2357,0.2357 -0.2357,0.7643 0,1 0.11785,0.11785 0.38215,-0.11785 0.5,0 0.11785,0.11785 0,0.66667 0,0.5 0,-2.2761 -0.2357,-0.0286 0.5,-1.5 0.36195,-0.7239 -0.38085,-4.6192 0,-5 0.11785,-0.11785 0.38215,0.11785 0.5,0 0.19482,-0.19482 0,-1.6949 0,-2 0,-0.20588 -0.13235,-1.3676 0,-1.5 0.11785,-0.11785 0.38215,0.11785 0.5,0 0.30195,-0.30194 0,-2.5258 0,-3 0,-0.63594 -0.40478,-3.5952 0,-4 0.11785,-0.11785 0.38215,0.11785 0.5,0 0.41667,-0.41666 -0.41667,-2.0833 0,-2.5 0.11785,-0.11785 0.38215,0.11785 0.5,0 0.25,-0.25 -0.25,-1.25 0,-1.5 0.11785,-0.11785 0.38215,0.11785 0.5,0 0.25,-0.25 -0.25,-1.25 0,-1.5 0.11785,-0.11785 0.38215,0.11785 0.5,0 0.11785,-0.11785 -0.11785,-0.38215 0,-0.5 0.11785,-0.11785 0.38215,0.11785 0.5,0 0.16667,-0.16666 0.33333,-1.3333 0.5,-1.5 0.11785,-0.11785 0.38215,0.11785 0.5,0 0.2357,-0.2357 -0.2357,-0.7643 0,-1 0.11785,-0.11785 0.38215,0.11785 0.5,0 0.11785,-0.11785 -0.11785,-0.38215 0,-0.5 0.11785,-0.11785 0.38215,0.11785 0.5,0 0.2357,-0.2357 -0.2357,-0.7643 0,-1 0.2357,-0.2357 0.66667,0 1,0 0.20588,0 1.3676,-0.13235 1.5,0 0.11785,0.11785 -0.11785,0.38215 0,0.5 0.11785,0.11785 0.38215,-0.11785 0.5,0 0.11785,0.11785 -0.11785,0.38215 0,0.5 0.11785,0.11785 0.38215,-0.11785 0.5,0 0.25,0.25 -0.25,1.25 0,1.5 0.11785,0.11785 0.38215,-0.11785 0.5,0 0.13235,0.13235 0,1.2941 0,1.5 0,0.39151 -0.24949,2.2505 0,2.5 0.11785,0.11785 0.38215,-0.11785 0.5,0 0.10135,0.10135 0.10135,2.3986 0,2.5 -0.11785,0.11785 -0.38215,-0.11785 -0.5,0 -0.35355,0.35356 0,2.9446 0,3.5 0,0.5314 0.0536,5.4464 0,5.5 -0.11785,0.11785 -0.38215,-0.11785 -0.5,0 -0.33333,0.33334 0.33333,1.6667 0,2 -0.11785,0.11785 -0.38215,-0.11785 -0.5,0 -0.2357,0.2357 0.2357,0.7643 0,1 -0.11785,0.11785 -0.38215,-0.11785 -0.5,0 -0.30195,0.30195 0,2.5258 0,3 0,0.39151 -0.24949,2.2505 0,2.5 0.11785,0.11785 0.38215,-0.11785 0.5,0 0.047,0.047 0,4.5182 0,5 0,0.39151 0.24949,2.2505 0,2.5 -0.66667,0.66667 -0.5,-0.83333 -0.5,0.5 0,0.47416 -0.30195,2.6981 0,3 0.66667,0.66667 0.5,-0.83333 0.5,0.5 0,0.39151 -0.24949,2.2505 0,2.5 0.11785,0.11785 0.38215,-0.11785 0.5,0 0.25,0.25 -0.25,1.25 0,1.5 0.11785,0.11785 0.33333,0 0.5,0 0,0.16667 -0.11785,0.38215 0,0.5 0.11785,0.11785 0.38215,-0.11785 0.5,0 0.12335,0.12336 0.12335,2.8766 0,3 -0.2357,0.2357 -0.70186,-0.14907 -1,0 -0.21082,0.10541 -0.28918,0.39459 -0.5,0.5 -0.14907,0.0745 -0.38215,-0.11785 -0.5,0 -0.11785,0.11785 0.11785,0.38215 0,0.5 -0.24949,0.24949 -2.1085,0 -2.5,0 -0.33333,0 -0.7643,-0.2357 -1,0 -0.11785,0.11785 0.11785,0.38215 0,0.5 -0.05,0.05 -1.45,0.05 -1.5,0 -0.11785,-0.11785 0.11785,-0.38215 0,-0.5 -0.11785,-0.11785 -0.33333,0 -0.5,0 0,-0.16666 0.11785,-0.38215 0,-0.5 -0.16783,-0.16783 -0.83217,0.16783 -1,0 -0.11785,-0.11785 0.11785,-0.38215 0,-0.5 -0.11785,-0.11785 -0.35093,0.0745 -0.5,0 -0.6,-0.3 -0.9,-1.2 -1.5,-1.5 -0.14907,-0.0745 -0.38215,0.11785 -0.5,0 -0.26352,-0.26352 -0.23648,-0.73648 -0.5,-1 -0.11785,-0.11785 -0.38215,0.11785 -0.5,0 -0.2357,-0.2357 0.2357,-0.7643 0,-1 -0.11785,-0.11785 -0.38215,0.11785 -0.5,0 -0.11785,-0.11785 0.11785,-0.38215 0,-0.5 -0.11785,-0.11785 -0.38215,0.11785 -0.5,0 -0.2357,-0.2357 0.14907,-0.70186 0,-1 -0.4438,-0.8876 -1.0562,-1.6124 -1.5,-2.5 -0.14907,-0.29814 0.2357,-0.7643 0,-1 -0.11785,-0.11785 -0.38215,0.11785 -0.5,0 -0.2357,-0.2357 0,-0.66666 0,-1 0,-1.3333 0.16667,0.16667 -0.5,-0.5 -0.2357,-0.2357 0.2357,-0.7643 0,-1 -0.11785,-0.11785 -0.38215,0.11785 -0.5,0 -0.2357,-0.2357 0.2357,-0.7643 0,-1 -1.0345,-1.0345 0.0404,1.5809 -1,-0.5 -0.15094,-0.30189 0.23113,-1.2689 0,-1.5 -0.11785,-0.11785 -0.38215,0.11785 -0.5,0 -0.16667,-0.16666 -0.33333,-1.3333 -0.5,-1.5 -0.11785,-0.11785 -0.38215,0.11785 -0.5,0 -0.2357,-0.2357 0.2357,-0.7643 0,-1 -0.66667,-0.66666 -0.5,0.83334 -0.5,-0.5 0,-1.2108 -0.46569,0.0343 -1,-0.5 -0.2357,-0.2357 0.2357,-0.7643 0,-1 -0.2357,-0.2357 -0.7643,0.2357 -1,0 -0.25,-0.25 0.25,-1.25 0,-1.5 -0.11785,-0.11785 -0.38215,0.11785 -0.5,0 -0.11785,-0.11785 0.11785,-0.38215 0,-0.5 -0.11785,-0.11785 -0.38215,0.11785 -0.5,0 -0.2357,-0.2357 0.2357,-0.7643 0,-1 -0.11785,-0.11785 -0.38215,0.11785 -0.5,0 -0.11785,-0.11785 0.11785,-0.38215 0,-0.5 -0.11785,-0.11785 -0.38215,0.11785 -0.5,0 -0.2357,-0.2357 0.2357,-0.7643 0,-1 -0.11785,-0.11785 -0.38215,0.11785 -0.5,0 -0.2357,-0.2357 0.2357,-0.7643 0,-1 -0.11785,-0.11785 -0.38215,0.11785 -0.5,0 -0.32779,-0.32779 -0.2495,-1.7495 -0.5,-2 -0.11785,-0.11785 -0.38215,0.11785 -0.5,0 -0.11785,-0.11785 0.11785,-0.38215 0,-0.5 -0.2357,-0.2357 -0.7643,0.2357 -1,0 -0.2357,-0.2357 0.2357,-0.7643 0,-1 -0.25,-0.25 -1.25,0.25 -1.5,0 -0.2357,-0.2357 0.2357,-0.7643 0,-1 -0.2357,-0.2357 -0.7643,0.2357 -1,0 -0.11785,-0.11785 0.11785,-0.38215 0,-0.5 -0.11785,-0.11785 -0.38215,0.11785 -0.5,0 -0.11785,-0.11785 0.11785,-0.38215 0,-0.5 -0.11785,-0.11785 -0.38215,0.11785 -0.5,0 -0.11785,-0.11785 0.11785,-0.38215 0,-0.5 -0.16784,-0.16783 -0.83217,0.16783 -1,0 -0.11785,-0.11785 0.11785,-0.38215 0,-0.5 -0.11785,-0.11785 -0.38215,0.11785 -0.5,0 -0.23571,-0.2357 0.2357,-0.7643 0,-1 -0.11785,-0.11785 -0.38215,0.11785 -0.5,0 -0.11785,-0.11785 0.11785,-0.38215 0,-0.5 -1.3333,0 0.16666,0.16667 -0.5,-0.5 -0.11785,-0.11785 -0.38215,0.11785 -0.5,0 -0.11785,-0.11785 0.11785,-0.38215 0,-0.5 -0.11785,-0.11785 -0.38215,0.11785 -0.5,0 -0.23571,-0.2357 0.2357,-0.7643 0,-1 -0.11785,-0.11785 -0.38215,0.11785 -0.5,0 -0.11785,-0.11785 0.11785,-0.38215 0,-0.5 -0.11785,-0.11785 -0.38215,0.11785 -0.5,0 -0.11785,-0.11785 0.11785,-0.38215 0,-0.5 -0.11785,-0.11785 -0.38215,0.11785 -0.5,0 -0.11785,-0.11785 0.11785,-0.38215 0,-0.5 -0.11785,-0.11785 -0.38215,0.11785 -0.5,0 -0.11785,-0.11785 0.11785,-0.38215 0,-0.5 -0.11785,-0.11785 -0.38215,0.11785 -0.5,0 -0.11785,-0.11785 0.11785,-0.38215 0,-0.5 -0.11785,-0.11785 -0.38215,0.11785 -0.5,0 -0.11785,-0.11785 0.11785,-0.38215 0,-0.5 -0.11785,-0.11785 -0.38215,0.11785 -0.5,0 -0.11785,-0.11785 0.11785,-0.38215 0,-0.5 -0.11785,-0.11785 -0.38215,0.11785 -0.5,0 -0.23571,-0.2357 0,-0.66666 0,-1 0,-1.3333 0.16666,0.16667 -0.5,-0.5 -0.23571,-0.2357 0.2357,-0.7643 0,-1 -0.11785,-0.11785 -0.38215,0.11785 -0.5,0 -0.11785,-0.11785 0.11785,-0.38215 0,-0.5 -0.11785,-0.11785 -0.38215,0.11785 -0.5,0 -0.23571,-0.2357 0.2357,-0.7643 0,-1 -0.11785,-0.11785 -0.38215,0.11785 -0.5,0 -0.23571,-0.2357 0.2357,-0.7643 0,-1 -0.11785,-0.11785 -0.38215,0.11785 -0.5,0 -0.11785,-0.11785 0.11785,-0.38215 0,-0.5 -0.11785,-0.11785 -0.38215,0.11785 -0.5,0 -0.11785,-0.11785 0.11785,-0.38215 0,-0.5 -0.11785,-0.11785 -0.38215,0.11785 -0.5,0 -0.11785,-0.11785 0.11785,-0.38215 0,-0.5 -0.23571,-0.2357 -0.7643,0.2357 -1,0 -0.11785,-0.11785 0.11785,-0.38215 0,-0.5 -0.25,-0.25 -1.25,0.25 -1.5,0 -0.11785,-0.11785 0.11785,-0.38215 0,-0.5 -0.047,-0.047 -4.5182,0 -5,0 -0.5,0 -1.5,0.5 -1.5,0 0,-0.16666 0.66666,0 0.5,0 -0.22242,0 -1.6897,-0.15514 -2,0 -0.42562,0.21281 -1.83,1.67 -2.5,1 -0.11785,-0.11785 -0.16667,-0.5 0,-0.5 0.2357,0 0.5,0.7357 0.5,0.5 0,-0.37268 -0.38215,-0.64644 -0.5,-1 -0.12736,-0.38207 0,-1.0943 0,-1.5 0,-1.6867 -0.13793,-2.7241 0,-3 0.0745,-0.14907 0.38215,0.11785 0.5,0 0.11785,-0.11785 -0.11785,-0.38215 0,-0.5 0.2357,-0.2357 0.76429,0.2357 1,0 0.11785,-0.11785 -0.11785,-0.38215 0,-0.5 1.3333,0 -0.16667,0.16667 0.5,-0.5 0.33333,-0.33333 1.6667,0.33334 2,0 0.11785,-0.11785 -0.11785,-0.38215 0,-0.5 0.39908,-0.39908 1.9754,0.26229 2.5,0 0.21082,-0.10541 0.28918,-0.39459 0.5,-0.5 0.88889,-0.44444 0.27777,0.27778 0.5,0.5 0.83333,0.83334 0.16666,-1.3333 1,-0.5 0.11785,0.11785 -0.11785,0.38215 0,0.5 0.11785,0.11785 0.38215,-0.11785 0.5,0 0.2357,0.2357 -0.23571,0.7643 0,1 0.79153,0.79154 0.42633,-0.53683 1.5,0 0.14907,0.0745 0.16666,0.5 0,0.5 -0.66667,0 0.5,-1.1667 0.5,-0.5 0,0.2357 -0.5,0.2643 -0.5,0.5 0,0.16667 0.33333,0 0.5,0 h 2 c 1.1726,0 0,-0.11785 0,0.5 0,0.33334 0.76429,0.2357 1,0 0.11785,-0.11785 -0.16667,-0.5 0,-0.5 0.16666,0 -0.16667,0.5 0,0.5 0.99903,0 0.20209,-1.2021 0.5,-1.5 0.11785,-0.11785 0.38215,0.11785 0.5,0 0.16596,-0.16596 0.16596,-3.834 0,-4 -0.11785,-0.11785 -0.5,0.16667 -0.5,0 0,-0.2357 0.5,-0.2643 0.5,-0.5 0,-0.2357 -0.39459,-0.28918 -0.5,-0.5 -0.58999,-1.18 0.35891,-1.1411 0,-1.5 -0.11785,-0.11785 -0.59245,-0.13867 -0.5,0 0.39223,0.58835 2,2 1.5,1.5 -0.83334,-0.83333 -1.6667,-1.6667 -2.5,-2.5 -0.16667,0 -0.38215,0.11785 -0.5,0 -0.25,-0.25 0.25,-1.25 0,-1.5 -0.66071,-0.6607 -1.4468,0.94675 -0.5,0 0.71747,-0.71747 -0.43732,-0.43731 -0.5,-0.5 -0.33334,-0.33333 0.33333,-1.6667 0,-2 -0.11785,-0.11785 -0.38215,0.11785 -0.5,0 -0.12336,-0.12335 -0.12336,-2.8766 0,-3 0.11785,-0.11785 0.38215,0.11785 0.5,0 0.11785,-0.11785 -0.11785,-0.38215 0,-0.5 0.11785,-0.11785 0.38215,0.11785 0.5,0 0.11785,-0.11785 -0.11785,-0.38215 0,-0.5 0.2357,-0.2357 0.70185,0.14907 1,0 2.0809,-1.0404 -0.53452,0.0345 0.5,-1 0.25,-0.25 1.25,0.25 1.5,0 0.11785,-0.11785 -0.11785,-0.38215 0,-0.5 0.16596,-0.16596 3.834,-0.16596 4,0 0.11785,0.11785 -0.11785,0.38215 0,0.5 0.11785,0.11785 0.38215,-0.11785 0.5,0 0.2357,0.2357 -0.23571,0.7643 0,1 0.11785,0.11785 0.38215,-0.11785 0.5,0 0.11785,0.11785 -0.11785,0.38215 0,0.5 0.11785,0.11785 0.5,-0.16666 0.5,0 0,0.84984 -0.33334,1.6667 -0.5,4.5 z" />
    <path
       id="path4667"
       style="fill:#643b1f"
       d="m 344.12,81.64 c 0.25649,4.7704 -0.10803,9.6616 -2.4071,13.954 -2.4823,5.8269 -7.2936,10.635 -8.0428,17.164 -0.15641,3.1758 -0.72664,7.3785 2.6839,9.1314 4.6497,2.6759 5.9472,-3.379 6.0068,-6.7376 1.2597,-4.0053 1.034,-8.1904 1.8611,-12.244 1.7282,-6.2854 5.965,-11.78 6.3862,-18.416 1.3535,-3.7312 -1.2782,-6.55 -5.0736,-4.6196" />
    <path
       id="path3893"
       style="fill:#4b2c17"
       d="m 335.41,105.08 c -4.6738,4.3359 -2.6922,11.704 -9.021,12.417 -3.0875,-3.4871 -4.5634,-10.674 -9.1574,-9.5021 0.67846,5.1595 2.5984,11.136 -1.4306,15.547 -3.4405,6.4774 9.8931,6.5929 4.1984,12.023 -4.0512,2.4964 -11.931,2.8354 -9.0508,8.7858 -0.33427,6.4841 0.97825,13.89 1.6064,20.455 0.2389,7.9248 -1.254,15.891 1.1326,23.629 0.74727,5.7401 1.5883,15.992 2.12,21.735 -1.8951,6.6555 -3.5318,8.8335 -8.347,14.014 0.35999,3.5062 9.838,5.4102 12.34,0.28286 4.9964,-0.37905 9.7926,-0.7091 14.521,-1.7684 3.1923,2.2389 12.568,1.2552 5.4492,-2.5171 -3.2992,-4.6818 -4.0114,-11.215 -5.1868,-17.132 -0.91276,-6.9382 -0.98665,-13.981 -1.4434,-21 0.35641,-7.194 0.68135,-14.408 0.13892,-21.552 2.5353,-6.4797 6.2215,-12.433 9.8118,-18.383 4.1737,-6.1202 0.87571,-14.129 3.9589,-20.691 2.1607,-5.5994 -3.5228,-4.8315 -4.8369,-0.85168 -8.9717,3.2808 -8.775,-7.3443 -6.8169,-12.951 0.0797,-0.84376 0.10185,-1.696 0.0131,-2.5402 z m 9.6562,30.25 0.21875,-0.0312 z m 0.21875,-0.0312 0.24007,0.0232 z m -5.7188,85.031 v -0.25 z m 0,-0.25 c 0.98507,0.7722 -0.18827,-0.98948 0,0 z m 3,1.75 0.21875,-0.0312 z m 0.21875,-0.0312 c 0.39454,0.47143 0.28635,-0.29258 0,0 z m -33.719,4.0312 -0.48345,0.0281 z m -2.8438,-0.5 c -2.6267,-1.1384 -1.8157,2.6379 0,0 z m -1.6562,0 c -0.43866,-0.51561 -0.69773,0.52587 0,0 z" />
    <path
       id="path3863"
       style="fill:#29331b"
       d="m 393.35,33.993 c -0.11501,0 -1.1246,0.665 -2.248,1.4897 l -2.0585,1.4897 -2.6002,-0.78547 -2.6002,-0.78546 -0.94798,1.4084 c -0.52399,0.76471 -1.2958,2.7877 -1.7064,4.4961 -0.73383,3.0535 -0.78068,3.0908 -2.4647,3.5481 -0.94221,0.25591 -2.8252,1.359 -4.1982,2.4376 -1.8251,1.4339 -2.9963,2.013 -4.3607,2.1668 -1.7318,0.1952 -1.9781,0.0747 -3.5752,-1.5709 -1.9668,-2.0265 -4.5382,-3.2073 -6.0941,-2.8168 -0.79598,0.19978 -1.0563,0.10705 -1.0563,-0.40627 0,-0.79434 -1.4222,-1.7949 -3.1419,-2.1939 -0.98893,-0.22945 -1.5246,0.0239 -3.1148,1.4897 l -1.923,1.7605 -1.8418,-0.92089 c -2.0383,-1.0399 -1.948,-1.0765 -3.521,1.7605 -1.1327,2.043 -2.5343,1.6652 -3.1418,-0.83963 -0.2559,-1.0551 -0.68679,-1.9985 -0.94797,-2.0855 -0.2612,-0.0871 -0.99072,0.46491 -1.6251,1.2188 -1.0452,1.2421 -1.2234,1.2944 -1.8959,0.70421 -1.6262,-1.427 -5.0897,-1.6967 -6.8525,-0.5417 -0.55337,0.36258 -1.2308,1.4562 -1.5168,2.4106 -0.5639,1.8822 -1.0023,2.0698 -2.4106,1.0834 -1.3812,-0.96743 -1.8895,-0.0179 -1.7605,3.2773 l 0.10834,2.7898 h -1.9501 -1.9501 l 0.10834,4.0086 c 0.066,2.2047 -0.0551,4.0086 -0.27085,4.0086 -0.2157,0 -1.0944,-0.29252 -1.9501,-0.65004 -2.3102,-0.96527 -3.6184,-0.83781 -4.469,0.46044 -0.73026,1.1145 -0.71534,1.1172 1.273,2.8168 1.6132,1.3789 2.0317,2.0301 2.1397,3.3314 0.1095,1.3196 0.43046,1.7962 1.7605,2.6543 1.8425,1.1887 2.0208,2.2362 0.97506,5.2003 -0.34695,0.98335 -0.49321,1.7649 -0.32502,1.7605 0.16818,-0.004 1.1721,-0.58938 2.221,-1.3001 3.1523,-2.136 3.9544,-1.5883 3.9544,2.6814 0,1.6067 0.17317,3.0145 0.37919,3.1418 0.20602,0.12733 1.1669,-0.7372 2.1668,-1.923 1.2423,-1.4733 2.1658,-2.1397 2.871,-2.1397 1.328,0 1.5783,0.45857 1.8959,3.4127 0.22249,2.0692 0.41431,2.4585 1.2188,2.5731 0.59331,0.0845 1.5607,-0.43073 2.6002,-1.3542 1.8926,-1.6815 3.0238,-2.2002 3.4127,-1.5709 0.14828,0.23993 0.38429,1.3373 0.5417,2.4376 0.15739,1.1003 0.54838,2.0878 0.86671,2.1939 0.31834,0.10612 1.5058,-0.7908 2.6272,-2.0043 2.4753,-2.6784 4.6419,-3.6458 5.5253,-2.4376 0.32107,0.43909 0.59587,1.1532 0.59587,1.5709 0,0.70784 0.12173,0.70044 1.9501,-0.10834 1.8765,-0.83006 3.6836,-0.7892 3.6836,0.0812 0,0.0769 0.1087,0.13456 0.29793,0.1896 0.008,-0.0908 0.02,-0.14915 0.0271,-0.24377 0.10353,-1.3866 0.43607,-2.4375 0.92088,-2.7897 0.65737,-0.47775 1.0543,-0.32868 2.6543,1.0021 2.2843,1.9 2.7842,2.0619 3.7377,1.1376 0.50634,-0.49088 0.70229,-1.6256 0.56878,-3.5481 -0.10746,-1.5474 -0.0198,-2.819 0.21668,-2.871 0.23654,-0.052 1.3464,0.8236 2.4647,1.9772 2.9719,3.0656 3.9362,2.9152 4.7128,-0.81255 0.25838,-1.2403 0.55938,-2.3716 0.67712,-2.4918 0.11774,-0.12018 0.56679,0.54214 1.0021,1.4897 1.3122,2.8561 2.1832,3.4896 4.3336,3.0606 1.5523,-0.30965 2.0906,-0.19413 3.0877,0.67713 0.98333,0.85923 1.7551,1.0266 3.8732,0.8938 2.6106,-0.16366 2.6196,-0.17095 2.871,1.1376 0.29288,1.5242 -0.56748,2.5248 -2.8981,3.4398 -0.86322,0.33889 -1.6869,0.74367 -1.8418,0.89381 -0.1549,0.15015 1.0182,1.5507 2.6002,3.0877 l 2.871,2.7898 -1.1105,1.0834 c 0.1926,0.18935 0.11788,0.51878 -0.27085,0.92089 -0.0321,0.0332 -0.0323,0.33171 -0.027,0.75838 1.0726,2.0277 1.9645,2.4609 3.8461,2.0855 1.5523,-0.30965 2.0906,-0.19414 3.0877,0.67712 0.98333,0.85923 1.7551,1.0266 3.8731,0.8938 2.6106,-0.16366 2.6196,-0.17095 2.871,1.1376 0.29288,1.5242 -0.56748,2.5248 -2.8981,3.4398 -0.86322,0.33888 -1.6869,0.74367 -1.8418,0.8938 -0.15489,0.15016 1.0182,1.5507 2.6002,3.0877 l 2.871,2.7898 -1.4084,1.3542 -1.4084,1.3542 2.0314,1.923 c 2.3862,2.2761 2.6672,3.3356 1.0021,3.6023 -1.6977,0.27199 -1.8802,0.69375 -0.97506,2.4376 0.45897,0.88425 0.74082,2.1442 0.59587,2.7898 -0.46173,2.0563 -3.1478,4.2805 -5.3086,4.3878 -0.89366,0.0444 -0.98084,0.19539 -0.86671,1.8147 0.0692,0.98286 -0.0498,1.885 -0.29794,2.0043 -0.24813,0.11929 -1.2216,-0.26021 -2.1397,-0.83963 -2.1797,-1.3756 -3.4526,-0.65727 -2.8439,1.598 0.84529,3.1318 0.8872,3.0385 -1.3001,3.7106 l -1.9772,0.62296 -0.13542,2.6002 c -0.0911,1.6194 -0.24718,2.3396 -0.67713,2.8168 -0.14331,0.1591 -0.32425,0.30247 -0.5417,0.43336 -1.5124,0.91049 -3.2119,1.1662 -3.7648,0.59587 -0.35729,-0.36856 -0.62386,-0.26412 -1.0563,0.43336 -0.29036,0.4683 -0.81045,0.90387 -1.4626,1.2459 -0.22622,-6.9857 -2.7329,-13.931 -7.5296,-19.637 -1.2634,0.55252 -2.4977,0.65847 -2.9523,0.1896 -0.35728,-0.36857 -0.62385,-0.26412 -1.0563,0.43336 -0.29036,0.4683 -0.81044,0.90387 -1.4626,1.2459 -0.0624,-1.9271 -0.29447,-3.8736 -0.7042,-5.7691 -0.77721,0.0856 -1.2354,-0.35045 -1.7605,-1.3813 -0.77405,-1.5194 -1.7583,-1.1928 -6.1754,2.0043 -0.8269,0.59851 -1.4268,-0.44201 -1.4355,-2.4918 -0.008,-1.8539 -0.39292,-2.0315 -1.5709,-0.70421 -1.1718,1.3203 -4.0835,3.4127 -4.767,3.4127 -0.31722,0 -0.70773,-0.53117 -0.86672,-1.1647 -0.27736,-1.1051 -0.32477,-1.1183 -0.92089,-0.32502 -0.34172,0.45473 -1.2823,2.1305 -2.0855,3.7106 -1.0848,2.1339 -1.742,2.9333 -2.5731,3.1418 -1.1841,0.29719 -1.6309,1.0812 -2.3835,4.0627 -0.25567,1.013 -0.64118,1.8418 -0.83963,1.8418 -0.19846,0 -0.48814,1.0005 -0.65004,2.221 -0.2569,1.9366 -0.17963,2.2737 0.59587,2.8168 0.65496,0.45876 0.89207,1.0982 0.8938,2.4376 0.002,1.3106 -1.8052,2.204 -0.8495,3.6105 0.72882,1.0726 2.577,3.84 2.7947,4.3763 0.53793,1.3254 1.7417,2.3138 2.622,0.76678 0.81655,-1.435 1.9448,-2.8183 3.2146,-1.8579 0.46266,1.1371 1.2346,-0.53853 1.4,-0.53073 0.1654,0.008 0.93286,-1.0361 1.7064,-2.3293 2.0132,-3.3659 3.8502,-4.1012 5.6337,-2.221 1.2365,1.3036 2.3904,1.4167 2.7627,0.24376 0.15138,-0.47695 0.65745,-1.0973 1.1376,-1.3542 0.70578,-0.37772 1.1763,-0.24285 2.4647,0.65004 1.086,0.75258 1.9176,1.0181 2.6002,0.83963 0.95396,-0.24946 0.40326,-0.19334 0.70421,1.4084 1.3208,7.0299 0.20392,11.19 -6.0941,10.374 -2.457,-0.31849 -2.4296,0.53057 -1.8689,1.598 0.28357,0.53982 1.0804,1.6276 1.7605,2.4106 0.68009,0.78291 1.2459,1.8067 1.2459,2.2751 0,0.7019 0.27801,0.86672 1.6793,0.86672 1.1648,0 2.101,0.31296 2.9523,1.0292 1.2299,1.0349 1.2471,1.0546 2.3022,0.24376 1.6629,-1.278 2.7113,-1.0292 4.6586,1.1105 0.97612,1.0726 2.0696,1.9501 2.4106,1.9501 0.38678,0 0.72324,0.63974 0.89381,1.7064 0.26894,1.6819 0.30567,1.7092 2.3293,1.8689 1.1314,0.0892 2.1126,0.20077 2.1939,0.24376 0.0813,0.043 0.94843,-0.60128 1.923,-1.4355 1.9794,-1.6943 2.9607,-1.8387 5.5253,-0.81255 0.9681,0.38736 1.8353,0.63112 1.923,0.5417 0.0878,-0.0894 0.41185,-1.2351 0.7313,-2.546 0.56907,-2.3354 0.62651,-2.3892 2.1126,-2.3564 0.83422,0.0184 2.4479,0.31508 3.6023,0.65004 1.9472,0.56498 2.1595,0.53407 2.7085,-0.21668 0.32546,-0.4451 0.71071,-1.6681 0.86672,-2.7085 0.27067,-1.805 0.36015,-1.8689 1.7605,-1.8689 1.3779,0 1.4626,-0.0893 1.4626,-1.4626 0,-2.3096 0.4734,-4.1711 1.0834,-4.1711 0.30797,0 1.4984,0.38283 2.6272,0.86672 l 2.0584,0.8938 0.97506,-0.92089 c 0.92898,-0.87273 1.0163,-0.89564 2.3293,-0.21668 0.75613,0.39102 1.7646,1.4016 2.248,2.221 0.48348,0.81943 1.1343,1.4897 1.4355,1.4897 0.30121,0 1.2941,-0.58503 2.1939,-1.3001 1.9266,-1.531 3.2578,-1.6403 5.2545,-0.40627 l 1.4626,0.8938 v -1.2188 c 0.0131,-1.689 1.2617,-4.2038 3.6023,-7.2858 1.086,-1.4301 1.7773,-2.6802 1.5438,-2.7627 -0.23347,-0.0825 -1.6541,0.27775 -3.1689,0.81255 -3.4427,1.2154 -4.144,1.002 -4.144,-1.3001 0,-1.9575 -0.60928,-2.2188 -2.3835,-1.0563 -0.57371,0.37591 -1.4813,0.6197 -2.0314,0.5417 -0.89025,-0.12613 -0.99927,-0.34716 -0.8938,-2.0043 0.11006,-1.7295 0.0565,-1.83 -0.7313,-1.4084 -1.3897,0.74376 -2.0618,0.52557 -2.6272,-0.83963 -0.99754,-2.4083 0.44977,-4.8825 4.2794,-7.34 2.0463,-1.3131 2.1617,-1.3472 4.3607,-0.83963 1.8205,0.42019 2.4379,0.42946 3.1689,-0.027 0.78157,-0.4881 0.99623,-0.45816 1.4897,0.21668 0.31544,0.43137 0.56879,0.94477 0.56879,1.1376 0,0.92195 0.94028,0.17337 1.7334,-1.3813 1.1081,-2.1721 2.4766,-2.3016 4.6044,-0.43336 0.81439,0.71504 1.6743,1.3001 1.896,1.3001 0.54194,0 1.2217,-1.3832 1.9772,-3.9273 0.44595,-1.5017 0.84649,-2.0867 1.3813,-2.0584 0.41238,0.0217 1.7838,-0.28792 3.0606,-0.67712 1.6186,-0.49338 2.5632,-0.56604 3.1148,-0.27085 1.0118,0.54148 1.8304,-0.5777 4.0898,-5.742 1.3455,-3.0754 1.818,-3.7919 2.5731,-3.7919 1.1187,0 2.6935,-1.0525 3.3044,-2.1939 0.37371,-0.69828 0.21665,-0.92851 -0.92088,-1.5168 -1.302,-0.67327 -1.3196,-0.78525 -1.0292,-2.7356 0.16574,-1.1135 0.46315,-2.2315 0.67712,-2.4918 0.48588,-0.59103 0.13602,-0.95763 -1.6522,-1.7064 l -1.4084,-0.59587 v -3.3044 c 0,-3.2763 -0.0358,-3.3319 -2.248,-6.5004 -2.1164,-3.0312 -2.263,-3.1697 -3.1148,-2.5731 -1.195,0.83699 -3.1633,0.80754 -3.494,-0.0542 -0.43937,-1.145 -0.27283,-2.7477 0.37919,-4.0086 0.79785,-1.5429 0.16536,-2.8279 -0.70421,-1.4355 -0.69096,1.1064 -1.4634,1.2103 -2.0043,0.24376 -0.34485,-0.61621 -0.60274,-0.64223 -2.0043,-0.13543 -1.3743,0.49697 -1.9863,0.48069 -4.4961,-0.1625 -1.6009,-0.41027 -3.3258,-0.76012 -3.8461,-0.75838 -0.56732,0.003 -1.0538,-0.31979 -1.2188,-0.83964 -0.1513,-0.47669 -0.56064,-0.86671 -0.89381,-0.86671 -1.0427,0 -3.6569,2.6269 -5.8503,5.8774 -3.1475,4.6644 -5.3186,6.0727 -5.8774,3.8461 l -0.27085,-1.0834 -1.4084,0.86672 c -2.5876,1.5992 -4.5503,1.0548 -4.5503,-1.273 0,-1.0923 -0.8297,-1.3001 -4.9836,-1.3001 -3.2891,0 -3.7538,-0.10702 -5.0107,-1.1646 -1.2555,-1.0564 -1.3638,-1.3289 -1.1376,-2.9794 0.5533,-4.0367 1.9837,-5.06 4.3878,-3.1689 1.3118,1.0318 1.6272,0.86611 2.7627,-1.4084 1.0581,-2.1195 2.5875,-2.2053 4.3336,-0.21668 l 1.3272,1.5438 1.3813,-1.923 1.3813,-1.923 1.7064,0.86672 c 0.94439,0.48179 -0.36764,-6.4587 -0.0558,-6.5784 0.31184,-0.11965 2.4686,0.40321 3.2469,-1.0571 1.0912,-2.0472 2.7699,2.7273 3.6885,2.5436 1.0692,-0.21383 1.2865,-0.5763 2.0855,-3.5481 1.4204,-5.2827 1.4046,-5.3558 -0.75838,-6.3379 -1.7982,-0.8165 -1.8578,-0.90432 -1.7064,-2.4918 0.13683,-1.4348 0.0252,-1.706 -0.83964,-1.923 -0.67849,-0.17029 -1.6017,0.14947 -2.8439,0.97506 -1.8963,1.2603 -4.2582,1.5921 -5.119,0.73129 -0.26434,-0.26434 -0.84953,-1.8093 -1.3001,-3.4398 -0.45055,-1.6305 -1.1375,-3.1864 -1.5168,-3.4669 -0.88742,-0.65613 -0.53586,-1.7846 1.3272,-4.2252 2.7592,-3.6147 3.0026,-4.6408 1.3272,-5.9587 -0.59587,-0.46871 -1.0834,-1.1163 -1.0834,-1.4355 0,-0.41336 -0.59245,-0.56462 -2.0585,-0.51461 l -2.0584,0.0812 0.0542,-1.9501 c 0.034,-1.0726 0.20416,-2.881 0.37919,-4.0086 l 0.32502,-2.0585 -1.9501,-0.83963 c -1.0766,-0.46148 -2.0476,-1.051 -2.1397,-1.3272 -0.33677,-1.0103 -2.577,0.13018 -5.6337,2.871 -3.6202,3.2462 -4.6796,3.6182 -6.7712,2.4918 l -1.4897,-0.78546 0.21668,-2.9523 c 0.11537,-1.6157 0.115,-2.9252 0,-2.9252 z" />
    <path
       id="path3713"
       style="fill:#29331b"
       d="m 304.88,-51.581 c -0.85301,0.81857 -3.4142,-2.3274 -5.0734,-1.849 -1.533,0.44204 -2.1633,4.509 -3.0766,5.2084 -1.737,1.3302 -0.76617,3.8122 -2.3541,4.7812 -2.9126,1.7774 -5.1107,2.6096 -7.94,3.5428 -3.5035,5.056 9.5396,7.3962 2.4558,12.671 -4.4319,3.7159 1.3896,9.4395 8.913,9.6392 1.7956,3.8648 2.2738,-6.8953 2.2283,-0.46305 -1.8554,4.0336 -12.616,-3.1715 -14.193,-8.2029 -6.2276,0.57405 -10.091,3.5362 -13.98,8.6364 -6.2215,-0.56686 4.3487,-6.4648 -2.4175,-7.6511 -0.87194,-0.87176 -3.0576,0.0845 -2.7798,-1.9375 0.15949,-1.1607 -3.3642,-0.0893 -3.5581,-1.338 -1.3452,-0.0981 -2.127,-2.8962 -4.0106,-3.3242 -2.7671,-0.62871 -6.6516,0.91667 -7.855,-0.47046 -6.7411,2.7608 -11.803,9.6331 -19.373,10.608 -4.5666,2.8573 -3.3521,6.8963 -1.6099,10.167 2.908,4.4272 -2.9554,13.542 2.1132,15.154 1.4233,4.0492 4.1095,15.065 9.9796,10.729 5.7406,3.0398 -0.54559,2.1232 7.8878,0.82917 0.60388,4.6995 2.4713,1.1935 5.7177,1.9617 0.50548,5.0186 5.885,-0.005 5.7689,4.8707 0.3034,0.70674 -4.007,2.9977 -0.58656,4.2687 2.8538,1.0604 9.2551,-1.5966 5.4616,3.1376 6.5366,-0.8305 6.047,12.254 14.486,6.7074 2.1957,2.4915 -5.6768,0.92208 -0.93296,5.1069 -4.6463,3.0132 -3.0794,8.5443 0.0367,11.304 -4.7888,4.3297 7.395,1.9197 4.0392,6.3552 -1.8374,3.8656 10.235,1.2389 6.1525,5.6516 -4.0754,5.3455 2.0499,5.7734 5.2554,2.7787 4.0118,0.2451 7.3138,-3.6099 10.963,0.47128 -2.811,-4.8974 0.0239,-8.0584 5.1758,-5.1589 2.1198,-0.46469 -5.076,-9.3726 2.3867,-6.9036 7.2913,1.676 -3.6678,-10.72 5.7686,-6.9611 1.0323,-2.4018 -2.4025,-6.5737 1.5674,-9.6243 1.8507,-4.475 3.701,-8.5938 8.2301,-9.3663 2.1355,-7.4015 9.2034,-0.48518 12.267,-2.5442 4.0955,-3.2087 6.106,3.5316 10.217,-1.2062 5.9594,1.6202 10.799,-8.6911 17.283,-3.8921 2.5368,1.0371 10.205,-3.5856 5.0106,-6.2496 -9.5932,-4.5132 2.2273,-9.1063 7.1862,-7.9847 0.0992,-3.0772 2.6584,-6.5142 4.7132,-7.0362 1.4244,-0.36187 2.6064,2.5853 2.559,0.13825 3.673,0.23198 5.2342,-5.3204 3.106,-9.0235 -11.775,0.93542 4.5677,-13.927 -0.14742,-10.42 -2.7202,0.99981 0.41147,-1.7431 -0.019,-3.0293 -0.30131,-0.90022 -5.5732,0.80603 -6.3464,1.9313 -0.57631,0.83876 -0.79888,-5.9834 -0.95994,-6.3901 -5.4077,1.3122 -5.4176,-8.3077 -9.8325,-2.8197 -0.85804,0.36499 -3.163,2.0135 -4.0103,1.5748 -3.4956,-1.8098 -5.4289,-10.085 -8.539,-3.1494 -2.9307,3.6362 -7.9737,6.7926 -11.41,8.9025 -1.1104,-4.3339 2.4807,-6.2768 -2.7126,-5.5139 -4.6324,-0.85467 -0.63531,-3.8414 -3.0115,-8.087 0.16603,-3.4097 -0.96701,-3.715 -4.7898,-5.4257 0.52536,-1.019 -2.758,-0.97345 -2.469,-2.3479 1.0745,-5.1093 -0.51489,-8.7462 -4.3179,-5.492 -3.9926,0.60242 -7.6312,8.4494 -10.937,3.8649 -2.8202,-3.0981 -4.3084,1.8795 -5.6249,-2.2235 -1.3473,0.32402 -0.84536,-1.071 -2.0502,-1.804 -1.0278,-0.62534 -2.7728,0.329 -3.9152,-0.14318 -1.9293,-0.79737 -3.1481,-2.6399 -3.6313,-1.0164 -0.87917,-0.56568 -1.3856,-1.6904 -2.4658,-1.9426 z M 218.974,-7.8 c -2.1193,1.0333 2.8164,2.1315 0,0 z" />
    <path
       id="path3749"
       style="fill:#384525"
       d="m 401.34,18.718 c -2.8076,2.0883 -2.1073,2.8073 -5.5622,0.56188 -5.8516,-2.1976 -2.0478,-2.3246 -6.7632,-1.345 -5.3198,3.4749 -13.235,20.175 -18.018,12.934 -5.2878,-0.41715 -9.9134,-7.5047 -14.402,-0.81645 -3.4975,-1.0418 -6.316,-0.8373 -8.7636,2.9432 -2.1884,-2.9797 -2.6172,-6.904 -6.242,-2.2777 -4.6376,-4.4906 -9.908,-0.11711 -11.909,3.6346 -5.9724,-4.1556 -0.23562,7.6867 -4.7595,6.4098 -4.8942,-1.2996 -1.5096,5.2963 -2.5846,7.8914 -0.15831,2.5606 -9.9689,-2.7376 -7.5315,3.2356 3.5096,3.3569 5.7067,7.9039 7.573,11.873 -3.0542,7.0123 1.6532,1.5936 5.2004,1.494 1.4518,3.6815 0.28319,11.432 4.8627,4.6218 6.0719,-5.8272 3.0609,11.604 9.6761,3.3132 5.0579,-5.68 2.9099,9.2798 7.816,1.8834 2.5436,-4.3129 6.5995,-3.3308 8.071,-0.59695 4.3874,-2.1045 6.161,1.2676 7.4679,-3.9834 3.4733,3.5576 9.3668,4.4735 7.4407,-2.6195 0.24194,-5.6618 8.1523,8.5663 8.5829,-0.70641 0.9651,-7.1155 3.6678,6.5014 8.9589,2.2547 2.6498,3.3176 13.41,0.0555 7.683,6.3959 -8.0364,1.4383 1.3554,6.0173 2.1566,8.9492 -4.4371,6.0848 6.3145,4.7944 9.6006,7.1306 7.5712,-2.3564 4.6426,6.0439 -0.58657,6.2696 0.11783,3.2012 8.8731,5.6002 4.6875,8.3438 -4.8708,2.302 6.4229,5.6043 1.875,7.9375 -2.714,2.1287 1.488,11.157 -6.5625,11.094 -1.8814,1.3877 -0.25869,7.0444 -4.7043,2.9543 -4.408,-0.22335 -0.32401,7.6991 -6.1944,7.7825 1.5092,6.9889 -5.2252,6.3507 -8.7888,8.9194 -0.79241,-7.6758 -3.0633,-21.539 -11.545,-22.154 -2.3984,-0.83369 -4.1848,3.9689 -3.7107,-1.688 -0.026,-7.7111 -7.0876,-5.0624 -10.895,-2.8874 0.88858,-10.928 -7.1716,5.5047 -9.1799,-1.8109 -3.3533,6.454 -9.3481,10.457 -10.513,17.915 0.81089,4.6032 4.4916,13.548 8.6953,15.371 2.0215,-5.1012 4.2774,-6.8767 6.4477,-5.9664 1.9535,-2.358 2.5956,5.5388 6.7733,-1.9789 9.3122,0.44884 8.9981,10.384 4.1707,14.328 -7.2949,-0.20044 -7.6684,10.038 -3.7102,9.1494 1.4254,1.4458 3.8677,3.0313 6.9144,2.8236 4.6596,-0.31773 7.3451,0.25812 9.0658,3.9524 1.05,2.5724 7.7084,5.2415 9.3236,1.8541 1.5673,-3.287 4.2688,-0.37609 6.702,-0.66922 3.7988,0.0523 2.3191,-2.9176 3.5669,-4.7255 0.503,-0.72877 4.306,1.9177 4.6644,0.10577 5.4666,1.5495 8.6762,-0.54663 9.4624,-6.7624 1.7761,-0.33043 -1.1124,-3.8257 0.12431,-4.799 1.4528,-1.1434 4.8924,3.9323 5.7361,2.1748 1.2456,-2.5946 3.3125,-3.7344 5.1653,3.4293 3.1822,0.45351 4.3957,-3.7055 5.5864,-2.854 2.8269,-2.0626 6.947,0.89359 8.4911,1.013 -0.85987,-4.9995 11.323,-18.301 3.4748,-13.061 -5.257,3.0458 -3.1743,-5.3415 -7.3675,-2.657 -4.2987,1.5882 -1.655,-2.4012 -4.9089,-3.3933 -5.1703,-7.8025 5.4715,-9.5329 11.455,-8.3415 1.4386,3.624 1.3067,-0.1427 4.0323,-2.3009 0.93769,-0.7425 4.7182,2.2215 6.0223,1.9927 1.989,-0.34895 1.3449,-3.5544 0.64415,-2.7471 3.6625,0.82149 5.6463,-2.8766 10.119,-4.7444 6.4637,-1.6334 4.2149,-13.003 12.392,-14.561 -2.3322,-1.9734 -2.76,-6.6846 -1.3604,-9.9477 -6.1786,-0.76859 -1.4966,-6.357 -4.2801,-9.9517 -0.83179,-9.1004 -1.521,-13.397 -7.4016,-5.6074 -0.95242,-3.3362 2.8667,-8.8795 -2.175,-5.394 -4.4994,-0.70801 -12.017,-1.3897 -16.094,-3.2613 -0.87084,-5.5402 -10.499,2.2973 -12.637,9.4366 -5.6992,5.571 -6.7545,-3.635 -12.625,-1.9688 -9.6817,3.4689 -7.8128,-16.466 0.29476,-9.7874 1.3833,0.2563 2.5428,2.9366 3.8465,2.9152 1.9078,-0.0313 3.8248,-3.0026 4.7345,-4.368 0.61632,-2.5014 1.7481,2.517 2.9559,2.2533 1.8293,-0.39938 2.1788,-3.4724 3.6324,-5.9367 3.1061,-3.9994 13.469,-11.229 5.641,-14.916 -3.3991,-0.17916 -3.5226,-4.8344 -6.7175,-2.4947 -5.5247,2.3135 -11.689,-7.8049 -9.53,-11.373 5.8873,-3.5422 5.5387,-12.499 -0.85751,-10.543 -0.45727,-1.5135 -2.9932,-0.51855 -2.6086,-2.3679 0.42712,-2.0538 1.6224,-7.8299 -0.29153,-8.522 -6.3716,-6.8147 -8.5124,8.3178 -15.256,5.3275 -3.5732,-0.78852 -3.5995,-3.6161 -4.7486,-5.9819 z" />
    <path
       id="path3832"
       style="fill:#29331b"
       d="m 198.85,22.263 c -2.3526,0.8124 -4.3634,2.3175 -6.4865,3.5738 -4.6751,2.9002 -9.3791,5.7582 -13.984,8.7675 -1.4191,0.89478 -3.0075,1.4497 -4.5916,1.9712 -1.0293,0.40369 -2.2538,0.72886 -2.8125,1.7812 -0.56283,0.87343 -0.51046,1.9568 -0.78966,2.9284 -0.14117,1.0638 -1.0051,1.8975 -2.0062,2.1991 -0.85855,0.37337 -3.4711,-0.84945 -4.3785,-0.63323 -0.71355,0.243 0.19637,2.2109 0.17429,3.0369 -0.0777,0.86829 0.54446,1.5755 1.045,2.2103 0.73439,0.92063 0.32268,3.3277 0.52818,4.4884 0.2585,1.0251 1.3074,0.84168 2.0614,1.6493 0.80044,0.93491 2.0578,1.4312 2.6497,2.557 0.48697,0.95103 0.18573,2.0368 -0.0654,3.0109 -1.378,3.4507 -2.6836,2.0498 -3.1694,4.0894 -0.55106,2.3138 -0.23531,7.851 -1.189,8.0625 -0.37476,1.223 0.13298,1.2453 0.59235,2.3487 1.5101,3.4406 4.4192,7.1653 6.0471,10.552 0.47183,0.84267 1.1242,1.5791 1.8125,2.25 0.70983,0.71595 1.592,1.3735 2.6111,1.5258 0.99828,0.14555 2.793,1.1712 3.7043,0.77866 1.0502,-0.45714 1.1795,-2.4822 2.1945,-3.011 1.1555,-0.69408 2.3983,-1.2189 3.6776,-1.6372 0.9979,-0.36266 2.0939,-0.74613 3.1562,-0.4375 1.2738,0.36256 2.1001,1.4812 3.0312,2.3438 0.75652,0.79289 1.4421,1.6628 2.0505,2.5698 0.42764,0.98396 0.41476,2.1031 0.8125,3.0938 0.39327,0.85507 1.4964,1.5057 2.3972,1.0108 0.9561,-0.34203 1.7162,-1.0364 2.6326,-1.4586 1.3938,-0.82525 1.1841,2.6409 2.7009,2.1402 1.0674,-0.31697 2.1148,-2.9286 3.1321,-3.3815 1.0126,-0.7373 2.4385,1.6689 3.2023,0.68997 0.70108,-0.91951 2.536,-6.7483 3.3844,-7.5394 0.95337,-0.6131 2.183,-0.28314 2.875,0.5625 1.6682,1.5808 1.054,6.1753 2.7608,7.7147 0.7744,0.6335 1.8049,0.0454 2.8638,0.0237 1.2118,0.041 2.0387,0.79758 3.2275,0.60101 3.3248,-0.69461 8.95,-4.3555 12.262,-5.1057 2.7811,-0.76552 5.5734,-1.4927 8.3435,-2.2966 1.8965,-0.5624 3.7845,-1.1674 5.617,-1.9149 2.979,-1.2722 5.9176,-2.6399 8.8318,-4.0535 0.8453,-0.38468 1.6364,-0.91291 2.164,-1.6932 0.96185,-1.2002 1.4306,-2.6936 1.9921,-4.1034 0.85755,-2.0434 1.7036,-4.0935 2.6251,-6.1096 0.90673,-1.5745 2.2093,-2.8739 3.6511,-3.9624 1.4055,-1.1093 2.891,-2.135 4.1117,-3.4566 1.4917,-1.5032 2.4289,-3.4327 3.4518,-5.2607 2.1466,-3.9816 4.2298,-7.9969 6.3512,-11.992 0.59096,-1.0241 0.51925,-2.3495 -0.11629,-3.3356 -0.43926,-0.88224 -1.0634,-1.6586 -1.6985,-2.4073 -1.0388,-1.285 -1.9933,-2.6533 -3.251,-3.7417 -0.78351,-0.72193 -1.6618,-1.3342 -2.4688,-2.0312 -2.279,-1.8604 -4.6852,-3.5554 -7.05,-5.3028 -0.84122,-0.4935 -1.5882,-1.2904 -2.5919,-1.4136 -1.2977,-0.16951 -2.3941,0.70752 -3.4575,1.3087 -3.4481,2.0422 -6.8794,4.1124 -10.307,6.1889 l -10.375,4.9062 c -1.4562,0.27021 -2.9323,-0.15487 -4.2602,-0.73245 -6.4748,-2.5562 -12.857,-5.34 -19.334,-7.8926 -3.69,-1.2978 -7.3986,-2.5448 -11.129,-3.7209 -2.6158,-0.83224 -5.2585,-1.5773 -7.9147,-2.2676 -0.42874,-0.0779 -0.86959,-0.15301 -1.3,-0.0428 z m 72.5,36.625 c 0.62381,0.41565 1.121,1.1616 0.96875,1.9375 -0.25043,-0.75195 -1.0541,-1.2062 -1.125,-2.0312 z" />
    <path
       id="path3851"
       style="fill:#29331b"
       d="m 241.06,92.919 c -5.7768,1.5226 -3.1619,9.3396 -9.7469,10.806 -3.9969,2.5006 -2.76,8.0292 -7.5641,5.1915 -1.4218,4.5559 -1.4459,-2.1802 -3.8565,-1.7786 -1.6326,-2.1043 -5.313,-9.2747 -6.8829,-4.5622 -2.9658,0.0571 -5.2054,3.7482 -4.9872,7.0406 -1.4275,5.8344 -3.0304,7.9391 -9.4502,5.532 -2.8228,1.7249 -15.955,0.58443 -11.958,7.1514 -1.7947,3.177 -2.0946,12.543 0.82408,16.256 0.93062,3.639 5.5248,5.5572 9.2685,1.5699 3.7703,-0.13516 0.81723,5.9664 4.9773,2.3356 3.0257,-2.3596 5.8559,-1.5095 5.567,2.2612 0.68865,0.94558 -2.4765,4.3777 -2.7369,6.0731 -0.42572,2.7716 2.0575,3.6321 5.8141,1.6597 4.4413,-4.492 3.4081,3.4327 -0.0173,6.5971 -0.31907,4.6627 6.8147,-4.8456 6.9668,1.2165 -0.49847,5.3097 6.2264,2.0852 7.94,-1.1996 3.4082,-1.5492 5.1758,4.1551 7.0648,-1.224 0.7575,-1.953 3.6837,-3.2808 3.7377,-0.1898 1.6184,-4.3988 6.2726,1.8947 6.2043,-3.3956 -0.38902,-3.0977 3.9466,-10.351 4.8555,-3.9904 -0.47313,4.3974 0.28795,3.4714 2.7089,3.4178 3.9033,5.5381 -0.74917,5.1253 -4.4499,7.5579 -0.98078,1.7874 -3.5665,6.1032 -2.3929,8.2822 1.6249,3.017 7.4625,3.7674 7.8891,4.451 0.48925,-2.8926 1.9846,-4.8165 2.1624,-0.60796 0.86362,3.1211 3.5579,2.6921 3.8622,-0.18475 3.1411,0.99914 5.8868,3.8336 8.6691,-0.14192 2.4956,1.6831 6.5559,5.7415 7.2012,-0.0333 1.1107,-4.9024 2.961,-0.31182 5.7007,1.4966 1.9338,1.2765 4.6749,-0.19833 6.3143,-1.3862 2.261,-1.7946 0.01,-8.6976 4.8844,-5.921 2.515,-2.2267 7.4037,0.0515 5.1965,-4.7765 -0.4925,-2.4738 -1.7055,-6.0469 -3.6967,-6.988 -3.0585,-1.4455 -7.2133,0.11326 -7.6411,-3.6088 4.3247,-3.0951 12.133,-0.51161 14.04,-6.564 0.0841,6.2071 3.8829,0.97531 4.6764,-1.7311 3.9181,-5.3763 3.1616,6.3023 6.974,0.9298 1.52,-6.1444 10.171,-2.1765 11.927,-8.298 2.9856,-4.4196 5.8871,-13.085 -2.1087,-13.526 0.68244,-4.0027 2.6482,-11.09 -2.4912,-9.5869 1.7927,-6.5274 -8.54,-3.2695 -8.5097,0.85828 -4.4776,-6.3172 -6.8358,3.8201 -8.809,5.4936 0.60324,-3.7199 -3.7911,-5.0286 -4.971,-5.484 2.4588,-4.3226 -3.8829,-4.2422 -1.2287,-8.3544 0.75821,-5.8781 -6.1866,0.66191 -4.7593,-5.6033 -3.1798,-1.4789 -12.061,-1.6323 -12.042,2.3023 -4.0294,3.9155 -11.588,4.609 -16.604,6.3712 -2.8635,4.5401 -3.2934,3.1523 -7.1201,7.016 -1.8787,3.7588 -7.5795,13.931 -8.3742,6.48 2.8795,-6.2092 -2.6391,-5.7722 -3.553,-11.21 -1.0702,-4.2311 6.679,-4.136 2.7286,-8.5431 -4.8408,-3.4964 6.6593,-6.7599 0.26272,-9.0279 -0.82218,-0.0763 -1.7368,0.0442 -2.4666,-0.4308 z m 47.281,12.375 c 0.82584,0.20336 -0.76879,0.59945 0,0 z m 3.5,4.5938 c 0.75261,-0.0384 -0.1887,0.19536 0,0 z m 23.625,6.4062 -0.002,0.62046 z m -42.594,39.656 c 5.2685,1.2038 -1.2716,5.2044 0,0 z" />
    <path
       id="path3715"
       style="fill:#384525"
       d="m 220.06,108.19 c -0.20269,3.6502 -3.6965,3.5498 -4.3068,3.2163 0.22716,5.0651 -3.3526,12.729 -9.2655,11.534 -4.0609,-0.1044 -8.9522,0.0632 -12.303,2.2461 2.8738,5.2352 -5.0294,8.7433 -0.67199,14.074 1.2862,4.318 4.0393,7.8478 8.0534,4.3408 2.9108,0.27204 0.28209,5.4354 4.3867,2.4669 7.7711,-5.2068 6.4559,6.0006 6.403,10.459 2.0074,1.1236 10.292,-5.1849 7.3901,1.7674 -1.9674,2.7552 -1.3713,7.2301 1.6842,2.4751 4.0066,-3.0239 1.3824,9.422 6.2651,3.6765 1.5446,-2.3427 5.5444,-3.7138 5.9401,0.16468 2.3841,-2.8177 5.6582,-6.7251 7.1724,-4.2632 2.406,-2.7677 6.0753,2.5578 5.9214,-3.2741 -0.47076,-4.7817 5.4702,-9.1902 4.8287,-1.7917 0.11865,5.6355 7.3392,-0.71146 6.5461,6.0402 -0.0139,5.4229 -13.928,8.1637 -6.0837,13.661 2.7048,2.4992 3.6735,3.8738 3.9403,-1.0235 4.4476,-2.7732 10.434,-1.7569 16.256,-2.1439 3.6755,-2.421 5.2186,-11.405 5.707,-11.259 3.0961,0.4193 3.7149,-5.6937 5.7443,0.0233 2.734,1.2936 7.2594,10.83 7.8974,3.7767 3.5979,6.0564 8.8206,-3.9991 1.6508,-3.8342 -5.4767,0.35455 -8.0453,-7.7866 -0.72484,-6.6327 4.6841,0.95657 9.6527,-9.6007 10.291,-1.5559 5.9477,-3.7634 4.0899,-11.522 -2.2967,-13.304 -2.7991,3.609 -6.3069,0.90683 -7.9204,6.1102 -3.8124,1.4167 -8.3562,-1.5211 -4.7407,-5.693 0.70159,-3.2991 -4.6741,-0.80625 -2.3696,-5.3934 -2.419,-1.4112 -10.111,-0.68167 -7.9756,5.3421 0.18083,3.8163 -1.5609,6.2632 -4.1713,3.2794 -1.9318,3.3043 -2.6819,5.0237 -5.2473,1.2328 -6.2348,8.5923 -4.3023,-6.3809 -6.221,-7.4802 -4.4457,2.0329 -6.3192,-6.8199 -8.5236,0.55139 -2.3594,2.2609 -9.9493,9.4082 -9.55,2.0008 -7.4286,2.7521 -0.99281,-10.885 -8.0404,-11.798 -2.9863,-1.3606 3.9108,-4.5818 0.23632,-8.0041 1.6457,-2.1742 6.1929,-2.294 4.6695,-7.187 -1.888,-6.696 -5.7286,2.2591 -6.45,5.0802 -1.5305,2.2114 -5.3548,-4.3519 -4.2151,0.61198 -3.7474,1.576 -4.2672,-5.4172 -7.7997,-5.8907 -0.78473,-1.1517 -1.3832,-2.4128 -2.1069,-3.6009 z" />
    <path
       id="path3875"
       style="fill:#384525"
       d="m 331.53,58.148 c 3.5716,1.1219 4.4013,-3.3573 7.2506,-4.6294 1.2843,-1.7492 3.8609,0.19392 5.1576,-1.8221 1.6558,1.3512 3.0984,1.584 3.7766,-0.89868 1.0815,-1.9963 3.7583,1.9434 3.507,-1.4291 2.1655,-1.6583 0.95445,-4.3628 2.2709,-6.2976 1.8948,1.0301 2.6571,0.11295 1.5708,-1.7608 1.0144,-0.11812 2.6134,-3.2856 1.1593,-2.5609 -2.139,3.1861 -4.0908,-1.2155 -2.8301,-3.339 0.0232,-2.578 1.5676,-3.8636 3.8866,-3.6632 -0.36094,-2.0727 -0.64878,-4.2146 1.9145,-4.6713 -0.87569,-1.5053 -2.9758,-1.1097 -2.238,-3.3365 -2.3803,-1.6998 1.329,-4.698 -0.91242,-6.274 -3.3116,2.2943 0.17732,-4.145 -3.4001,-2.1159 -2.5435,1.4982 -5.0257,2.3136 -6.6217,4.6297 -1.2534,-1.1733 -1.1718,-3.7346 -3.8754,-2.651 -0.79252,-0.50019 0.43755,-2.7551 0.29492,-3.8848 0.20849,-1.1173 0.16041,-4.943 -1.4327,-2.7599 -1.8547,2.43 -2.2959,-0.34236 -3.4112,-1.0929 -0.65788,2.3081 -2.6339,3.0324 -3.4277,0.6593 -2.16,1.8236 -0.90116,8.7306 -5.0334,6.2333 -3.4102,1.2577 -1.2935,-1.8438 -1.8582,-2.7344 -4.4526,0.2974 3.3089,-4.9531 -1.6754,-5.1459 -2.6036,-2.9302 -3.6342,4.1219 -5.917,1.0728 -0.80254,1.0354 -2.0919,1.6481 -2.6452,1.5382 -0.65585,0.55437 -1.5727,-1.5485 -3.1776,-1.2317 -1.4369,-0.90114 -3.5553,-0.82929 -4.0656,-2.1442 -0.59452,1.0519 -0.75486,1.2794 -2.3159,0.97625 -1.3859,-0.3744 -2.1125,0.81809 -3.2744,1.4118 -1.4222,0.69007 -2.2202,1.1046 -3.309,1.7386 -1.4042,0.80491 -3.418,-0.323 -4.265,0.56818 -1.4024,0.8653 -0.55685,3.2575 -0.64793,4.5467 0.54981,0.30041 1.2059,1.9788 0.24042,2.3744 -0.20117,1.5341 -3.4068,-0.60669 -3.5692,1.1924 -0.10505,1.1618 1.1872,1.6203 0.51749,2.9445 -0.797,-0.49241 -1.4071,-1.0889 -2.8374,-1.1952 -1.7041,-0.0577 -2.2273,-0.85579 -3.7825,-1.0106 -0.42364,0.55288 -0.28694,2.5939 -0.69374,3.8724 0.1325,0.85061 1.0916,3.5716 -0.37095,3.9299 -0.52217,1.3315 -4.3166,-1.8581 -3.1812,0.0962 0.9473,1.2653 -0.41183,2.0776 -1.1079,2.4661 -0.53622,0.75543 -1.0062,1.6742 -2.3866,1.2378 -1.4144,0.17928 -0.83657,2.0667 -1.1982,2.8396 2.0031,1.362 2.7011,2.4814 2.0818,4.3129 0.68515,1.1312 1.3526,1.7341 2.2415,2.4293 0.93341,-0.18354 1.6995,-1.1708 1.8916,-1.5641 2.8309,1.2159 3.3709,3.3086 3.0095,5.7428 -0.23434,1.3311 1.1833,2.0262 2.3962,2.4275 1.4074,0.18828 1.9418,-0.49534 2.6952,-1.682 0.51917,0.35124 1.214,-1.6266 1.2096,-2.38 0.74056,-2.0626 4.1764,-2.8044 5.1071,-0.3449 3.5663,0.78647 3.8371,-3.0263 6.5058,-3.7831 1.9925,-1.0477 4.7814,1.9968 7.1607,2.4137 1.3202,1.1802 -1.6844,3.3618 1.3977,3.1495 1.0704,0.90548 -2.1155,3.4696 0.75853,1.795 1.9626,0.0748 -0.30767,3.6045 2.0114,1.3324 1.6863,-2.0361 2.5218,2.0532 4.5251,0.21685 0.71028,1.7776 1.0517,3.0485 3.2821,1.8687 1.2199,0.66945 -0.49293,3.4442 2.168,2.7721 0.54777,1.5852 1.4487,3.0164 3.6387,1.9949 2.0747,-0.29534 1.837,-0.4117 1.8348,1.6195 z M 292.322,46.94 c -0.15038,-0.10515 0.21639,-0.31971 0,0 z m -2.6035,-22.303 c -0.73851,-1.3545 -0.3985,-2.336 -0.0191,-0.35726 0.44203,-0.10939 0.48686,0.53901 0.0191,0.35726 z m 3.8159,-1.3148 c -0.0879,-0.2741 0.4598,-0.0732 0,0 z" />
    <path
       id="path3813"
       style="fill:#637b42"
       d="m 419.43,-25.615 c -0.0798,0.0237 -0.5117,0.51618 -1.0265,1.1529 l 1.3479,-0.4008 c -0.14855,-0.47855 -0.26473,-0.76894 -0.32138,-0.75209 z m -38.956,21.723 c -0.69452,0.25878 -1.2307,0.90103 -2.1882,2.509 l -1.5478,2.5794 -2.3397,-0.41278 c -2.5962,-0.47974 -2.5084,-0.54994 -3.3151,3.1049 -0.58089,2.6319 -2.2552,2.675 -3.7508,0.1046 -0.62996,-1.0827 -1.4167,-1.9843 -1.7342,-1.9947 -0.31749,-0.0104 -0.94278,0.83994 -1.3964,1.8823 -0.74742,1.7174 -0.92738,1.8338 -1.8652,1.4023 -2.2677,-1.0434 -6.1868,-0.20275 -7.7565,1.6543 -0.49276,0.58296 -0.88233,2.0152 -0.88473,3.1647 -0.005,2.267 -0.42785,2.6186 -2.3096,1.9908 -1.8456,-0.61571 -2.0956,0.60161 -0.8693,4.2034 l 1.0372,3.0496 -2.1567,0.64128 -2.1567,0.64128 1.438,4.3976 c 0.79804,2.4165 1.2572,4.4513 1.0186,4.5222 -0.23853,0.0709 -1.3066,0.0364 -2.3704,-0.0776 -2.8724,-0.30783 -4.2772,0.26331 -4.791,1.9788 -0.44111,1.4727 -0.42371,1.4708 2.3341,2.6966 2.2376,0.9945 2.9145,1.577 3.4619,2.9807 0.55504,1.4234 1.0667,1.8449 2.8198,2.3566 2.4286,0.70876 2.9703,1.8086 2.7884,5.4305 -0.0603,1.2016 0.0349,2.114 0.21949,2.0539 0.18457,-0.0601 1.1025,-1.0372 2.0287,-2.1681 2.7838,-3.3989 3.851,-3.0569 5.255,1.6651 0.52834,1.7769 1.1828,3.2769 1.4525,3.35 0.26971,0.0731 1.0481,-1.199 1.7639,-2.8392 0.88943,-2.0379 1.6916,-3.0786 2.4715,-3.3105 1.4686,-0.43669 1.8963,-0.0119 3.219,3.1507 0.92649,2.2152 1.2667,2.5827 2.1941,2.4448 0.68393,-0.10165 1.5844,-0.98958 2.4302,-2.3527 1.5401,-2.482 2.6206,-3.4276 3.2576,-2.8596 0.24289,0.21657 0.86476,1.3526 1.4007,2.5177 0.53591,1.1651 1.293,2.1286 1.68,2.1413 0.38695,0.0127 1.4052,-1.3697 2.2464,-3.0805 1.8567,-3.7761 3.9348,-5.5584 5.309,-4.5128 0.49948,0.38002 1.0382,1.0794 1.1756,1.5414 0.23277,0.78281 0.36497,0.73459 2.1211,-0.7611 0.007,-0.006 0.0224,-0.002 0.0299,-0.009 l -5.4152,-18.212 c -2.7476,-9.2406 -1.7578,-18.688 2.1005,-26.706 -0.84964,0.002 -1.5944,0.14961 -2.1413,0.47369 -0.8146,0.48269 -1.133,0.46575 -1.3018,-0.10195 -0.26121,-0.87848 -2.163,-1.5173 -4.1961,-1.3931 -0.29228,0.0178 -0.53515,0.0765 -0.76666,0.16275 z" />
    <path
       id="path3870"
       style="fill:#4b5d32"
       d="m 403.19,14.897 c -2.7199,1.7638 -5.0914,4.5968 -8.3956,2.4023 -5.046,-2.6961 -4.9395,6.115 -6.5731,9.0352 3.4068,1.275 8.1002,-6.6396 6.4347,1.2958 -1.0979,6.4812 8.6597,3.3824 10.622,-0.55008 2.2321,-4.2588 10.056,-1.7072 9.6646,2.0476 -0.23608,3.2484 -2.48,9.1751 2.8629,7.3957 9.7473,3.807 -5.1634,11.07 0.79663,16.625 0.0636,9.1438 7.5841,3.598 12.036,3.9556 -0.93675,5.1676 7.4841,5.7175 2.8947,11.824 -0.01,6.2348 4.0125,-4.9088 7.3825,-5.2286 1.9629,-4.5536 3.07,-9.4665 -2.6025,-11.551 0.97135,-8.6151 -11.211,4.6831 -10.811,-6.0954 -7.1805,-6.3802 7.9108,-12.578 -0.49071,-17.904 -5.7058,1.7303 -4.2192,-3.457 -3.6272,-7.3182 0.84057,-3.287 -9.7947,-5.3181 -12.003,-2.1805 -2.1313,3.6095 -8.7388,7.7898 -8.278,0.80343 0.0864,-1.5154 0.31592,-3.0454 0.0868,-4.5575 z m -43.531,9.6875 c -3.3323,2.3741 -5.4561,4.952 -9.3888,2.1195 -1.9388,5.0947 -5.6978,4.8101 -6.5487,-0.68197 -3.3992,5.523 -12.809,-3.9093 -14.199,5.6465 -2.4328,0.21048 -5.4776,-1.112 -4.3319,3.7285 4.1208,-0.88956 7.1815,3.9521 10.062,-0.90625 0.85091,5.492 4.6098,5.7767 6.5487,0.68197 4.2888,3.6798 6.2414,-1.0833 10.17,-2.0257 4.6212,3.294 10.227,3.8222 14.772,8.1413 5.3616,-1.8723 13.395,-4.2956 14.291,-10.704 -6.0668,6.1351 -11.956,-3.6901 -17.256,-4.0924 -1.0274,-1.1488 -2.6016,-1.7938 -4.1189,-1.9076 z m -38.844,14.062 c -0.71454,3.1389 1.9988,-0.21214 0,0 z m -5.625,7.7812 c -5.1549,1.3726 5.9472,0.51049 0,0 z m 130.09,27.969 c -5.2927,2.4496 -12.22,12.035 -1.5938,11.312 4.1779,1.0836 9.291,-0.20584 11.027,0.48306 -2.9014,4.2238 -0.0198,8.4098 4.441,5.8379 4.684,3.6038 4.7439,9.7904 5.3485,14.54 6.2717,0.85016 -0.33835,8.139 4.5893,10.264 -2.5181,2.1516 -9.4824,5.5941 -2.1681,5.1288 3.5654,-5.1312 5.2732,-11.172 10.837,-14.115 -4.7199,-2.88 0.35932,-8.9876 -5.2004,-10.812 0.68517,-4.8822 -1.7709,-14.415 -7.3454,-12.852 -7.0812,1.6581 1.5209,-11.127 -5.0484,-5.9939 -3.7157,-1.9227 -11.541,0.85417 -14.887,-3.7935 z m -33.281,5.5938 c -1.1912,6.5574 -9.3209,-2.8483 -8.75,6.0938 1.9922,5.9925 12.751,1.4176 14.349,8.7147 3.7976,-0.35853 5.2646,-3.1695 7.1535,0.42918 2.9614,-1.0216 10.57,-11.439 5.1656,-9.9278 -5.617,4.2725 -3.5748,-4.015 -9.6547,-1.2712 -2.5227,0.12083 -6.7294,-1.6812 -8.2636,-4.0387 z m -51.07,31.97 c -2.5734,2.9861 -7.1231,6.128 -8.75,3.2188 -0.92115,4.0365 -6.2224,7.6784 -6.4062,10.188 3.7188,-1.0761 8.1249,-8.8071 7.7866,-0.54166 3.3969,-0.0252 7.4449,-5.7487 10.338,-0.42709 0.81026,3.8079 -0.0498,8.2509 3.7188,4.7188 8.5426,0.27757 10.853,13.433 12.014,20.927 0.0401,2.6129 3.3995,-1.8456 6.0046,-0.47151 5.5653,-4.0064 1.492,-11.231 0.6896,-16.923 -1.7169,-5.9024 -7.0021,-16.488 -13.146,-10.064 1.4389,-7.3621 -5.3415,-12.1 -10.629,-5.7628 -1.8445,-0.85996 -0.0817,-4.1783 -1.6214,-4.8622 z m 40.812,14.094 c -3.6041,3.4401 1.9157,7.6055 3.5625,1.4688 -1.1906,-0.46241 -2.2006,-1.5172 -3.5625,-1.4688 z m -3.375,7.2188 c -3.9477,0.80823 1.0982,5.8824 5e-5,0 z m 30.594,3.8125 c -5.6219,-0.18799 -12.566,12.241 -4.0334,10.632 -1.851,6.2238 3.7606,2.4931 6.0166,3.3176 -2.2881,8.4605 11.884,-2.0851 7.2356,4.4881 6.4581,5.6805 3.5876,-6.752 8.8761,-9.0558 2.5009,-5.0483 -10.03,4.2092 -8.1084,-4.5285 -4.2637,3.2372 -6.3527,1.6181 -6.755,-0.86643 -2.2576,1.6682 -2.5954,-2.7081 -3.2314,-3.9868 z m -38.281,3.8125 c -3.245,1.469 2.299,0.52205 0,0 z m 19.156,20.969 c -5.471,8.5796 9.9741,1.2973 0,0 z" />
    <path
       id="path3877"
       style="fill:#546737"
       d="m 200.53,17.544 c -1.3923,0.15073 -2.7822,0.39761 -4.1875,0.34375 -1.0194,-0.001 -2.0542,0.73057 -2.1875,1.7812 -0.0816,0.89885 -0.2131,1.842 -0.77217,2.5808 -1.0361,1.2603 -2.2865,2.3358 -3.6028,3.2942 -0.89422,0.60569 -1.7708,1.2564 -2.7926,1.6354 -2.1368,0.94619 -4.447,1.3844 -6.6761,2.0521 -1.5752,0.39513 -2.6774,1.652 -3.875,2.6562 -0.76246,0.54144 -1.5338,1.1272 -2.4375,1.4062 -0.87927,0.36273 -1.6829,-0.14376 -2.5312,-0.3125 -0.97137,-0.2315 -1.9757,0.6359 -1.4688,1.625 0.3862,0.93827 1.4192,1.2466 2.2812,1.5938 0.92835,0.24618 1.7019,1.0896 1.5312,2.0938 -0.22674,1.0964 -0.78113,2.0935 -1.1296,3.1542 -0.51756,1.4203 -1.0617,2.8307 -1.5085,4.2731 -0.2185,0.71654 -0.21145,1.6081 0.39235,2.1394 0.73374,0.7258 1.825,0.40413 2.6832,0.12074 2.6145,-1.0329 5.2,-2.1411 7.7471,-3.332 2.9751,-1.4007 5.8863,-2.9352 8.735,-4.5778 2.4724,-1.3698 4.9306,-2.7649 7.3929,-4.1528 1.2357,-0.552 2.639,-0.76188 3.9688,-0.46875 1.8787,0.16513 3.7326,0.56914 5.546,1.0786 4.736,1.3598 9.4516,2.7971 14.235,3.9839 3.6646,0.97727 7.3352,1.9375 10.985,2.9668 1.1631,0.40032 2.3309,0.80436 3.3953,1.4312 0.93231,0.54562 1.8664,1.091 2.8193,1.6034 1.6397,0.91841 3.2969,1.809 4.9773,2.649 1.0849,0.51696 2.2849,0.72395 3.4437,1.0176 1.6863,0.38943 3.4047,0.6321 5.1294,0.76941 1.0275,0.0168 2.0661,-0.54867 2.488,-1.5073 0.52539,-1.0832 0.21902,-2.313 0.16825,-3.4615 -0.2297,-2.4641 -0.60527,-4.9131 -0.92101,-7.3676 -0.22315,-1.5927 -0.2835,-3.2052 -0.57899,-4.7887 -0.074,-1.0638 1.244,-2.8983 1.6943,-3.8132 0.38523,-0.93609 -1.1543,-1.2468 -2.1896,-1.1556 -1.0123,-0.0562 -1.8824,0.56045 -2.8484,0.75 -1.0452,0.40268 -2.0237,0.93911 -2.9832,1.5093 -1.4986,0.81028 -2.9361,1.7302 -4.4568,2.502 -0.72827,0.47206 -1.5492,1 -2.4594,0.86716 -1.3614,-0.24486 -2.4143,-1.2223 -3.5693,-1.9097 -1.7202,-1.3132 -3.46,-2.6135 -4.9827,-4.1592 -1.0157,-0.94366 0.78353,-3.4738 -0.53597,-4.0287 -1.6648,-1.4278 -6.3007,-1.291 -6.0032,0.84414 -1.7935,-0.0375 -3.6144,0.14291 -5.3755,-0.28883 -1.3995,-0.21901 -2.6347,-0.93316 -3.9151,-1.4924 -1.7563,-0.87923 -3.4905,-1.8018 -5.2834,-2.6062 -1.3377,-0.6208 -2.1601,-2.2897 -3.5362,-2.8284 -1.21,-0.47371 -2.9671,0.16446 -4.235,-0.13079 -0.8476,-0.14436 -1.7094,-0.39349 -2.5704,-0.34079 z m -31.219,31.875 c -0.66614,0.51714 -1.0834,1.6736 -0.40625,2.3438 0.65946,-0.63637 0.65198,-1.6259 0.53125,-2.4688 z m -0.28125,18.969 c -0.93876,0.32286 -0.54383,2.0698 0.46875,1.875 0.96907,-0.24453 0.52196,-2.1263 -0.46875,-1.875 z" />
    <g
       id="g3681"
       transform="translate(158.31,-56.404)">
      <path
         id="path3628"
         style="fill-rule:evenodd"
         d="m 137.41,96.821 c -2.324,5.603 -6.909,8.948 -10.57,13.212 -3.565,-0.345 -4.922,-5.86 -3.964,-8.588 2.729,0.352 1.259,4.907 3.304,5.945 4.299,-2.965 6.296,-8.233 11.23,-10.569 z" />
      <path
         id="path3630"
         style="fill-rule:evenodd"
         d="m 139.39,102.77 c -1.887,4.277 -4.072,8.258 -9.249,9.248 0.81,-3.49 4.397,-5.061 6.607,-7.267 0.856,-0.855 0.475,-3.043 2.642,-1.981 z" />
      <path
         id="path3632"
         style="fill-rule:evenodd"
         d="m 118.91,105.41 h 1.983 c -1.075,3.288 2.476,3.934 0.661,5.945 -3.842,0.239 -3.307,-3.279 -2.644,-5.945 z" />
      <path
         id="path3634"
         style="fill-rule:evenodd"
         d="m 147.32,119.94 c -2.657,-0.728 -0.7,-4.603 -0.66,-6.605 -0.455,-2.629 -3.858,-2.309 -3.964,-5.285 5.903,-1.693 6.797,6.409 4.624,11.89 z" />
      <path
         id="path3636"
         style="fill-rule:evenodd"
         d="m 100.42,110.03 c 0.389,2.813 -0.477,4.37 -0.663,6.606 2.813,-0.271 2.799,-3.367 5.947,-3.303 0.76,0.78 0.746,2.335 0.661,3.963 0.5,1.298 2.108,-1.792 4.625,-0.66 1.841,2.872 -1.977,6.836 0.66,8.587 1.728,0.187 2.841,-0.241 2.642,-1.981 3.012,1.391 5.185,3.623 9.249,3.963 0.535,-0.126 0.658,-0.663 1.321,-0.661 0.463,-4.167 -3.194,-7.124 -1.321,-10.57 2.139,3.366 3.436,7.575 3.304,13.212 -3.904,1.599 -8.094,-0.767 -11.232,-1.982 -0.405,6.596 4.71,5.547 9.909,5.285 2.618,3.989 4.036,9.177 8.589,11.231 -4.198,3.234 -7.562,-4.993 -9.249,-8.588 -3.412,-0.112 -7.456,0.409 -9.91,-0.661 -2.917,1.929 -3.988,5.7 -5.945,8.589 -3.714,-0.01 -6.649,-0.54 -8.586,-0.661 0.125,-5.14 3.166,-1.985 6.605,-1.982 3.755,-1.841 6.56,-7.848 5.945,-11.89 -1.087,-1.116 -3.585,-0.82 -4.625,-1.982 -0.463,-2.886 1.123,-3.721 0.66,-6.606 -1.891,-1.632 -2.817,3.32 -5.945,2.643 -0.332,-2.753 1.931,-2.914 1.32,-5.945 -3.401,0.121 -2.727,4.317 -7.266,3.303 -0.523,-3.251 2.631,-5.311 0.66,-7.927 -3.888,1.396 -6.113,4.458 -10.57,5.285 -0.672,-2.875 1.367,-3.037 1.981,-4.624 4.237,0.888 5.623,-3.144 11.234,-2.644 z" />
      <path
         id="path3638"
         style="fill-rule:evenodd"
         d="m 136.09,110.03 c 8.194,-1.287 9.909,13.553 4.625,15.854 1.738,-3.89 0.643,-6.101 0,-10.57 -0.334,-2.967 -5.112,-1.494 -4.625,-5.284 z" />
      <path
         id="path3640"
         style="fill-rule:evenodd"
         d="m 129.48,112.68 c 3.569,1.279 4.062,9.638 1.983,12.551 2.502,4.986 4.924,10.049 6.605,15.855 5.471,2.458 11.621,4.233 11.891,11.89 -3.116,-0.846 -3.174,-4.752 -5.285,-6.605 -4.658,-0.405 -6.695,-3.435 -9.909,-5.285 -0.684,-5.92 -2.693,-10.519 -5.285,-14.533 2.167,-4.809 0.308,-8.32 0,-13.873 z" />
      <path
         id="path3642"
         style="fill-rule:evenodd"
         d="m 150.62,119.28 h 1.983 c 1.744,6.076 -4.539,9.459 -6.608,14.534 -0.636,1.563 0.433,4.547 -1.981,5.285 -1.646,-10.366 7.631,-12.137 6.606,-19.819 z" />
      <path
         id="path3644"
         style="fill-rule:evenodd"
         d="m 215.36,129.85 c 0.111,2.313 -2.324,2.08 -3.304,3.303 -1.203,4.081 -1.536,9.034 -1.981,13.872 -7.072,1.997 -12.754,8.774 -19.818,8.589 -2.869,0.435 -1.263,5.343 -4.625,5.285 1.176,-6.141 7.384,-12.838 6.606,-23.122 5.133,2.532 -2.49,10.353 0.66,15.193 5.733,-1.751 9.56,-5.414 15.194,-7.266 1.476,-6.23 -0.244,-15.658 7.268,-15.854 z" />
      <path
         id="path3646"
         style="fill-rule:evenodd"
         d="m 217.34,132.5 h 1.982 c -0.806,3.159 -2.769,5.158 -2.644,9.249 3.232,0.15 4.152,-2.014 7.267,-1.982 -1.413,3.21 -4.851,4.397 -8.587,5.285 -2.836,-3.671 1.543,-8.143 1.982,-12.552 z" />
      <path
         id="path3648"
         style="fill-rule:evenodd"
         d="m 157.89,133.16 c 0.768,-0.107 1.175,0.146 1.321,0.661 0.509,1.704 -0.985,2.838 -1.981,4.624 -1.3774,3.6843 -0.52608,9.7201 -3.304,15.856 -3.965,-7.219 0.69,-16.801 3.964,-21.141 z" />
      <path
         id="path3650"
         style="fill:#ffffff;fill-rule:evenodd"
         d="m 253.68,134.48 c 2.544,0.539 3.439,2.728 5.285,3.963 -2.01,1.765 -7.764,-1.157 -5.285,-3.963 z" />
      <path
         id="path3652"
         style="fill-rule:evenodd"
         d="m 237.16,142.4 c -2.527,4.298 -10.347,3.307 -13.213,7.267 7.021,2.229 8.419,10.079 12.553,15.194 3.22,0.304 7.736,-0.692 9.909,0.66 -1.951,2.787 -9.572,2.295 -13.213,1.321 -0.734,-8.954 -7.631,-11.747 -11.23,-17.836 2.781,-4.109 10.252,-6.837 15.194,-6.606 z" />
      <path
         id="path3654"
         style="fill-rule:evenodd"
         d="m 140.05,150.99 c 2.719,1.697 7.968,5.615 4.624,9.249 -1.462,-2.863 -5.4,-6.297 -4.624,-9.249 z" />
      <path
         id="path3656"
         style="fill-rule:evenodd"
         d="m 99.752,151.65 c 2.899,0.018 4.072,4.357 3.304,5.945 -2.596,-0.487 -3.146,-3.018 -3.304,-5.945 z" />
      <path
         id="path3658"
         style="fill-rule:evenodd"
         d="m 101.74,157.6 c -0.084,1.185 0.808,1.395 0.66,2.644 -0.766,0.555 -1.771,0.871 -3.304,0.66 -3.386,2.338 -4.4928,7.9408 -7.205,10.451 -2.7123,2.5098 -1.894,4.2314 -4.685,4.7434 1.159,-5.503 6.877,-12.021 10.57,-17.178 -1.117,-1.819 -7.041,-4.122 -3.304,-6.604 2.276,1.025 3.083,3.523 3.964,5.945 0.769,-0.554 1.772,-0.871 3.304,-0.661 z" />
      <path
         id="path3660"
         style="fill-rule:evenodd"
         d="m 228.57,167.51 c -5.035,-0.036 -6.045,-9.806 -11.891,-11.232 -3.752,-0.125 -5.446,3.472 -8.588,1.983 -3.659,2.95 -9.995,6.731 -15.194,5.945 -0.195,-2.448 3.306,-2.768 4.624,-3.304 5.477,-2.229 10.688,-4.579 15.194,-7.929 10.249,-0.117 11.365,8.899 15.855,14.537 z" />
      <path
         id="path3662"
         style="fill-rule:evenodd"
         d="m 112.96,163.54 c -0.459,4.385 -6.781,2.908 -9.909,4.624 -6.345,2.242 -3.841,13.335 -11.891,13.874 5.489,-7.944 7.498,-19.368 21.8,-18.498 z" />
      <path
         id="path3664"
         style="fill-rule:evenodd"
         d="m 194.88,168.17 v 3.304 c 3.177,-0.566 3.428,-4.06 7.927,-3.304 v 3.304 c 3.619,0.535 3.22,-2.946 6.607,-2.642 1.74,-0.199 2.167,0.914 1.981,2.642 3.872,-0.865 13.504,-4.313 12.551,1.321 -4.84,-2.189 -8.834,-0.319 -12.551,1.982 -1.823,-0.159 -1.509,-2.458 -2.644,-3.304 -3.34,0.184 -4.465,2.582 -6.605,3.964 -2.055,-0.147 -1.115,-3.287 -1.321,-5.284 -3.445,0.959 -3.985,4.821 -7.928,5.284 -0.555,-0.768 -0.87,-1.771 -0.66,-3.304 -2.209,2.636 -3.54,6.149 -5.285,9.249 -4.024,-0.06 -3.585,4.344 -4.625,7.269 -3.072,-2.387 1.098,-8.451 1.323,-11.893 1.347,-1.327 1.295,0.293 2.642,0.66 3.681,-2.266 2.606,-9.284 8.588,-9.248 z" />
      <path
         id="path3666"
         style="fill-rule:evenodd"
         d="m 175.06,176.76 h 1.981 c -1.094,5.953 -1.802,12.291 -5.285,15.854 -0.321,-4.074 3.316,-9.889 3.304,-15.854 z" />
      <path
         id="path3668"
         style="fill-rule:evenodd"
         d="m 275.48,214.41 c 3.28,-0.639 3.525,1.76 5.947,1.981 -0.652,-6.063 3.904,-8.772 6.606,-13.214 -2.406,-1.486 -6.49,2.981 -9.249,1.321 v -3.962 c -3.158,-0.738 -2.787,2.057 -5.945,1.32 -1.44,-1.381 0.329,-1.886 0,-3.964 -0.457,-1.65 -1.762,1.227 -3.304,0.66 -3.801,-5.738 3.086,-8.802 6.605,-11.23 4.105,0.832 3.996,2.488 7.268,0 0.662,0.878 0.625,2.458 1.981,2.644 1.482,-0.722 1.161,-3.244 2.644,-3.964 4.004,-0.92 3.026,3.138 6.605,2.644 1.839,-1.245 1.506,-4.661 2.644,-6.607 2.948,0.945 5.923,-3.24 8.586,-0.661 3.212,-2.514 3.735,-7.717 5.945,-11.229 2.536,-0.327 4.591,-1.138 5.285,-3.304 0.488,-2.251 -2.434,-1.09 -2.642,-2.642 -0.109,-2.312 0.176,-4.229 1.32,-5.287 -0.467,-1.733 -3.1,-1.303 -3.964,-2.642 0.748,-7.645 -0.213,-9.731 -0.66,-17.175 -4.379,0.023 -4.31,4.497 -9.249,3.964 -1.504,-3.479 0.285,-8.812 5.287,-7.928 0.115,2.98 -4.096,1.631 -3.304,5.285 3.715,-1.029 5.482,-7.124 11.229,-3.963 -2.573,5.034 2.632,6.782 -0.66,11.231 0.447,1.531 1.688,2.273 2.642,3.302 0.313,2.072 -1.777,1.745 -1.981,3.304 1.172,0.812 3.481,0.48 3.965,1.98 0.249,2.893 -1.89,3.397 -1.983,5.945 5.423,0.974 1.466,5.004 1.322,9.249 -1.552,0.212 -2.479,1.044 -4.624,0.66 -1.76,4.407 -3.969,8.363 -5.285,13.214 -2.494,0.291 -3.103,-1.303 -4.624,-1.983 -2.406,0.457 -3.047,2.68 -5.945,2.644 0.217,2.42 -0.734,3.669 -1.323,5.285 -3.327,0.467 -4.538,-1.186 -6.605,-1.983 -3.16,2.858 -5.418,3.282 -9.909,3.966 -0.004,-1.979 -1.188,-2.777 -2.642,-3.304 -2.877,2.494 -1.592,5.738 -2.644,9.249 3.212,0.568 3.394,-1.891 6.607,-1.322 v 4.624 c 3.041,-0.568 7.213,-3.727 9.908,-0.66 -3.099,5.49 -7.007,10.169 -7.927,17.836 -4.216,0.251 -4.507,-3.42 -7.929,-3.962 -3.403,0.559 -2.56,5.366 -5.944,5.944 -1.231,-2.07 -1.681,-4.928 -3.303,-6.607 -1.785,0.2 -1.185,2.781 -2.643,3.304 -2.861,0.22 -1.626,-3.658 -4.625,-3.304 -1.169,1.915 -1.107,5.06 -1.98,7.269 -3.296,0.448 -3.131,4.356 -5.945,5.284 -2.614,-0.031 -3.831,-1.454 -5.945,-1.982 -1.886,1.198 -2.131,4.038 -2.644,6.607 -3.185,0.102 -3.324,-2.843 -7.267,-1.983 -0.894,0.65 -1.32,1.764 -1.982,2.644 -0.335,3.198 3.028,2.699 1.982,6.605 -2.635,-1.328 -5.28,-2.647 -5.284,-6.605 -3.596,-0.732 -3.483,2.244 -6.607,1.981 1.055,-6.121 -4.723,-5.407 -5.285,-9.908 -2.58,0.282 -1.813,3.911 -5.285,3.303 0.252,-2.232 -1.145,-2.819 -1.98,-3.965 -2.693,-0.49 -2.274,2.131 -5.285,1.321 0.379,-3.681 -0.302,-6.305 -1.983,-7.927 -2.019,-0.479 -1.943,1.14 -3.962,0.66 -0.637,-2.809 3.394,-6.154 3.962,-9.909 2.398,-0.637 0.557,2.969 2.644,2.644 4.072,-0.333 2.215,-6.596 2.642,-10.569 -3.384,-0.082 -2.801,3.804 -5.285,4.624 -2.809,-0.054 -1.368,-4.357 -3.962,-4.624 -3.216,1.849 -2.382,7.748 -6.607,8.586 -0.916,-0.404 -0.098,-2.541 -1.321,-2.642 -3.423,-0.562 -2.535,3.19 -4.624,3.963 -2.19,-0.89 -1.153,-5.012 -3.302,-5.945 -2.861,-0.583 -4.206,4.233 -5.947,6.607 -1.131,1.544 -2.44,2.406 -2.642,5.285 -0.142,2.024 1.274,3.895 1.32,5.945 0.242,10.885 -0.183,24.519 0,36.333 0.068,4.354 0.786,9.088 1.983,11.891 1.85,4.342 7.98,5.438 6.605,10.57 -15.974,-6.395 -10.208,-37.501 -11.229,-56.813 -0.136,-2.543 -1.593,-5.609 -1.323,-7.926 0.698,-5.983 7.137,-9.551 7.929,-14.534 0.846,-3.009 -2.316,-6.152 0.66,-7.266 2.634,-0.432 1.894,2.51 1.983,4.624 0.884,2.857 3.348,4.138 3.962,7.266 2.314,0.112 2.081,-2.324 3.304,-3.304 1.688,0.074 2.312,1.212 3.304,1.983 2.54,-1.644 2.328,-6.039 5.945,-6.607 2.911,-0.487 2.705,2.139 4.624,2.644 1.74,-0.461 1.396,-3.007 3.303,-3.304 3.243,0.63 1.785,3.401 5.944,1.98 -1.412,6.517 -2.026,13.83 -9.909,13.874 0.088,3.878 4.12,3.809 3.965,7.928 3.513,-0.429 5.338,0.826 6.605,2.642 1.718,-0.263 1.992,-1.971 3.964,-1.98 3.273,0.469 2.691,4.794 6.607,4.624 -0.088,1.628 -0.102,3.183 0.66,3.964 1.903,0.078 4.323,-0.362 5.285,0.659 1.151,-1.71 2.653,-3.068 4.624,-3.963 2.075,0.348 3.686,1.159 5.285,1.983 1.771,-0.872 1.098,-4.189 1.981,-5.947 2.458,-1.073 4.896,1.054 7.926,1.322 2.185,-0.682 2.229,-3.499 2.644,-5.946 1.102,0 2.203,0.002 3.304,0 -0.13,-2.552 -0.023,-4.868 0.661,-6.606 3.719,0.026 5.613,3.975 7.926,0 2.787,0.738 4.252,2.798 5.285,5.285 2.472,-0.395 3.415,-2.311 5.284,-3.304 z" />
      <path
         id="path3670"
         style="fill-rule:evenodd"
         d="m 145.34,0.372 c 0.513,0.588 0.71,1.492 0.66,2.643 3.017,0.593 3.745,-1.101 5.945,-1.321 0.734,1.249 0.844,3.12 1.323,4.624 2.089,0.108 2.208,-1.756 4.625,-1.321 1.099,0.882 0.219,3.743 1.321,4.625 4.098,-0.796 5.438,1.167 7.266,2.643 2.563,-1.18 2.749,-4.738 4.625,-6.607 0.867,0.233 1.039,1.163 1.982,1.322 1.207,-0.996 1.555,-2.85 2.642,-3.964 3.126,0.839 4.92,3.007 6.605,5.285 -0.398,2.022 -1.402,3.442 -1.98,5.285 2.039,0.108 3.734,-1.561 5.284,0 -0.217,1.544 -0.794,2.729 -1.32,3.964 0.413,1.568 4.066,-0.103 4.625,1.321 -0.354,2.952 -1.987,4.62 -1.323,8.587 2.292,0.531 2.54,-0.983 4.625,-0.66 0.731,1.25 0.844,3.121 1.322,4.625 3.47,-0.712 4.838,-3.528 5.945,-6.605 1.381,-0.28 1.75,0.452 2.642,0.66 0.515,-1.468 1.389,-2.577 1.32,-4.625 4.138,0.972 3.587,0.793 7.929,0 -0.315,2.297 -0.124,4.087 2.642,3.303 0.48,2.021 -1.14,1.943 -0.661,3.964 3.397,-0.567 3.929,-3.999 4.625,-7.267 2.296,0.128 2.508,2.336 4.624,2.643 0.479,2.021 -1.139,1.943 -0.66,3.963 0.916,1.728 5.606,-0.321 6.605,1.322 0.571,2.634 -0.985,4.881 0,5.945 3.839,0.314 2.848,-4.201 6.607,-3.963 1.903,1.995 -1.655,5.905 1.321,7.267 -1.029,2.494 -2.935,4.112 -3.964,6.605 -0.14,2.123 2.355,1.608 3.304,2.643 -0.138,4.928 -0.874,9.256 -2.644,12.552 -2.077,0.316 -2.582,-0.94 -3.965,-1.322 -1.644,0.999 -0.825,4.459 -1.98,5.946 -3.607,-1.547 -5.454,0.071 -6.605,2.643 -1.899,0.137 -3.355,-0.167 -3.965,-1.322 -1.346,0.194 -1.294,1.788 -2.643,1.982 2.308,2.097 4.391,4.419 4.624,8.588 -3.902,2.628 -7.086,2.099 -8.587,6.606 -2.661,-0.877 -5.143,-5.405 -9.249,-2.642 1.612,1.029 4.657,0.629 4.625,3.303 5.894,-0.83 6.739,3.39 9.909,5.285 5.433,-0.107 5.367,-8.373 10.57,-6.605 -0.822,-6.328 1.502,-9.507 2.641,-13.874 2.783,0.3 3.168,2.999 4.625,4.625 1.697,-0.064 0.945,-2.579 2.644,-2.643 2.394,-0.632 0.67,2.852 1.98,3.303 3.462,-0.282 2.833,-4.654 7.269,-3.963 0.375,4.127 -2.115,8.155 1.32,9.909 5.293,-0.652 4.074,-7.816 8.587,-9.249 v 3.303 c 2.154,-1.149 3.308,-3.3 5.947,-3.963 1.438,1.381 -0.331,1.885 0,3.963 2.777,0.136 2.772,-2.51 5.284,-2.642 -1.146,5.506 -0.045,7.303 -1.982,13.212 2.164,-0.037 2.525,-1.878 5.285,-1.321 -0.729,3.37 1.942,3.342 3.304,4.625 -1.222,4.064 -2.666,7.905 -5.285,10.57 0.435,1.978 1.412,-0.632 2.642,0 -0.367,4.077 -1.708,5.145 0,8.588 4.991,0.368 5.646,-3.604 8.589,-5.285 2.266,2.156 1.889,1.56 5.284,0.661 0.461,3.544 -3.27,2.896 -3.304,5.946 0.57,2.887 3.439,-0.355 4.625,1.32 0.682,7.509 -2.095,11.558 -3.963,16.515 -5.845,-0.779 -5.234,4.896 -7.268,7.928 -1.934,-0.49 -3.246,-1.598 -4.624,-2.643 -2.189,0.012 -0.671,3.733 -1.981,4.624 -3.818,0.296 -3.294,-3.752 -6.605,-3.963 -1.687,0.736 0.263,5.109 -1.323,5.945 2.232,1.292 5.231,1.817 6.607,3.964 4.549,-3.587 13.064,-3.71 14.532,-11.891 3.619,2.54 4.61,-0.828 7.269,-2.643 2.474,0.516 0.425,3.195 0,4.625 2.604,0.182 2.019,-2.824 4.624,-2.643 1.528,1.468 -0.226,2.576 0,4.625 4.941,0.757 5.951,-2.416 10.569,-1.982 -0.393,2.471 -2.31,3.416 -3.304,5.285 -1.521,0.203 -0.733,-1.908 -1.98,-1.982 -4.252,3.475 -8.346,-1.156 -11.893,0 -0.513,-0.587 -0.71,-1.491 -0.66,-2.643 -7.404,1.624 -7.351,10.707 -13.872,13.212 -0.555,-0.767 -0.872,-1.771 -0.66,-3.303 -1.886,1.198 -2.931,3.234 -6.607,2.643 -0.072,-1.645 -1.237,-2.045 0,-3.303 -4.449,-2.229 -10.018,1.725 -13.211,-3.304 -0.296,-2.938 0.469,-4.815 1.32,-6.605 3.288,-0.866 2.811,2.034 5.285,1.982 1.701,-0.94 0.989,-4.296 3.304,-4.625 2.743,0.119 3.214,2.51 4.622,3.963 1.219,-1.425 2.033,-3.253 3.304,-4.624 1.654,0.548 2.594,1.809 4.625,1.981 2.642,-1.982 1.975,-7.273 6.605,-7.266 1.235,-2.95 1.813,-6.556 2.644,-9.909 -0.57,-1.854 -3.439,-1.406 -4.625,-2.643 -0.211,-1.532 0.106,-2.537 0.661,-3.304 -0.164,-0.717 -1.313,-0.448 -1.321,-1.321 -3.114,0.409 -4.05,2.997 -7.268,3.303 -4.864,-0.2 -2.06,-8.071 -5.945,-9.248 0.939,-3.905 4.479,-5.211 5.285,-9.249 -0.017,-2.406 -3.439,-1.404 -2.642,-4.625 -1.513,0.421 -3.986,1.311 -5.285,0 -0.551,-3.632 1.654,-4.512 1.32,-7.927 -0.014,-2.848 -4.959,-0.766 -4.624,-3.963 -7.061,-0.077 -9.331,11.647 -15.854,5.945 -0.066,-2.708 -0.13,-5.415 0.66,-7.267 -2.5,0.803 -3.986,2.621 -5.945,3.964 -1.517,-1.127 -4.262,-1.023 -5.945,-1.982 -2.282,2.562 -3.553,6.137 -3.964,10.57 -6.617,-0.012 -6.691,6.52 -13.874,5.945 -2.896,-2.167 -3.864,-6.264 -9.909,-5.285 -0.295,-2.566 -2.931,-2.793 -5.285,-3.303 -1.907,0.954 -3.1,2.625 -4.622,3.964 -1.351,-0.632 -2.615,-1.35 -3.964,-1.982 -2.351,0.513 -1.241,4.484 -3.965,4.624 -2.464,-0.179 -0.867,-4.417 -2.641,-5.285 -1.7,0.504 -2.802,1.605 -3.304,3.304 -3.322,-3.917 -11.437,-3.373 -11.23,3.303 -1.644,0.102 -2.045,-1.037 -3.304,-1.321 -2.47,1.402 -0.608,4.576 -0.66,7.267 -1.381,1.44 -1.886,-0.33 -3.964,0 -3.456,2.158 0.618,8.019 -0.661,9.91 -3.723,-1.643 -7.116,-4.173 -8.588,1.322 1.973,1.991 5.536,2.392 4.625,7.266 0.995,1.208 2.851,1.554 3.964,2.644 0.439,3.08 -1.041,4.243 -1.321,6.605 1.535,1.277 3.509,-2.626 5.946,-2.643 3.331,1.619 0.235,5.565 1.98,8.588 2.508,-1.016 2.779,-4.269 5.285,-5.285 5.004,0.186 0.273,6.454 3.964,7.267 3.481,-0.043 3.506,-3.54 6.605,-3.963 1.924,1.932 -0.249,4.088 1.983,5.945 4.208,-0.856 3.866,-6.261 9.249,-5.945 0.555,0.766 0.87,1.771 0.66,3.303 2.52,-0.028 4.202,-3.243 6.605,-1.322 0.476,1.708 -1.165,0.865 -1.98,1.322 -2.396,1.338 -4.118,4.073 -7.269,4.625 -0.652,-2.586 1.461,-3.835 0,-5.285 -2.348,0.954 -3.93,2.676 -5.284,4.624 1.604,11.035 -3.441,20.647 -9.249,26.424 1.833,-7.35 13.437,-19.501 3.964,-25.763 v -3.964 c -3.554,-0.251 -3.192,3.414 -6.605,3.303 -1.921,-1.162 -3.12,-3.045 -2.644,-6.605 -3.308,-0.667 -2.324,2.959 -4.625,3.303 0.595,4.352 -1.8069,8.5424 -2.5109,15.377 -0.597,5.762 -0.7341,10.277 -1.4511,15.672 -5.133,-6.085 -1.245,-22.917 2.642,-29.066 -3.053,-2.001 -2.366,-4.82 -1.981,-9.249 -3.02,0.089 -4.817,4.093 -7.268,2.643 -1.428,-2.074 1.396,-4.464 1.323,-7.267 -0.014,-1.968 -3.116,-0.847 -3.964,-1.981 -0.08,-1.903 0.361,-4.325 -0.66,-5.285 -0.604,-1.796 -1.229,1.76 -3.304,0.66 -2.005,-4.386 0.68,-9.318 2.644,-11.891 h 3.302 c 2.051,-5.438 5.771,-9.203 7.268,-15.193 1.54,-0.202 2.845,-1.411 3.302,0.66 1.327,-2.197 2.594,-4.455 4.625,-5.945 3.361,-0.059 5.729,0.876 7.268,2.642 2.322,-0.099 1.586,-3.257 4.625,-2.642 1.863,-0.103 1.653,1.868 2.641,2.642 2.57,-0.547 4.078,-4.493 6.606,-1.321 4.608,-2.985 10.529,-9.743 16.515,-3.964 2.162,-0.921 2.093,-4.074 5.947,-3.303 1.065,-6.35 -7.143,-3.428 -5.947,-9.909 4.683,0.835 6.043,-4.462 10.571,-1.321 1.482,-0.278 0.019,-3.505 1.321,-3.964 1.628,-0.087 3.182,-0.1 3.964,0.661 1.726,-0.917 1.871,-3.414 2.642,-5.285 1.532,-0.211 2.535,0.105 3.304,0.66 1.923,-0.938 1.812,-3.912 2.642,-5.945 -0.664,-2.573 -2.274,-0.103 -4.625,-0.661 -1.267,-6.648 5.509,-8.451 3.304,-13.873 -1.546,1.405 -5.253,1.984 -6.605,0 -0.323,-2.085 1.189,-2.333 0.661,-4.625 -1.828,-0.512 -8.074,0.995 -7.269,-3.964 -3.08,0.444 -3.228,3.819 -7.266,3.304 -0.854,-2.45 -2.115,-4.491 -3.964,-5.945 -4.139,0.045 -3.869,4.5 -5.945,6.605 -5.943,-0.878 -6.119,4.011 -9.91,5.285 -1.141,-1.5 -1.594,-3.691 -1.32,-6.605 -1.557,-0.015 -1.945,1.137 -3.964,0.661 -1.974,-2.046 -1.515,-7.056 0,-9.249 -1.253,-2.203 -4.229,1.145 -5.285,-0.661 -0.102,-1.644 1.037,-2.045 1.32,-3.303 -0.88,-1.101 -2.937,-1.026 -3.962,-1.982 -0.22,-2.42 0.732,-3.671 1.321,-5.285 0.279,-2.26 -1.979,-1.985 -2.644,-3.303 -2.802,3.584 -8.317,4.454 -10.57,8.588 -3.152,-1.642 -3.966,-5.474 -9.247,-3.303 -0.381,-1.382 -1.638,-1.887 -1.323,-3.964 -2.081,-0.319 -1.495,2.028 -3.964,1.322 -0.379,-1.382 -1.636,-1.885 -1.321,-3.964 -2.958,2.388 -6.462,0.115 -7.926,-2.642 -1.823,1.92 -1.307,6.182 -5.285,5.945 1.125,6.411 -4.008,6.563 -7.268,8.589 1.287,3.813 4.375,4.534 7.928,4.624 -1.854,3.874 -5.724,5.728 -6.605,10.571 0.555,3.847 7.509,1.298 7.926,5.285 1.361,-0.182 0.623,-2.461 1.981,-2.643 3.43,0.531 1.175,3.969 0,5.285 -5.556,-1.49 -12.702,-1.39 -12.551,-8.589 -0.998,-0.522 -6.041,0.541 -7.266,1.982 -6.518,-2.788 -5.105,6.33 -11.232,5.945 -2.338,-2.393 0.317,-4.107 0.663,-7.266 -0.882,-1.321 -4.319,-0.087 -3.304,-3.304 -2.468,-0.707 -1.883,1.641 -3.964,1.322 -1.792,-0.852 -1.65,-3.636 -3.302,-4.625 -2.576,-0.152 -3.426,1.42 -5.285,1.982 -2.071,0.309 -1.863,-1.661 -2.643,-2.643 -1.488,2.093 -3.585,1.494 -5.285,2.643 -3.571,2.411 -4.559,8.178 -11.23,7.267 -2.757,0.767 -3.637,3.409 -5.285,5.285 3,2.62 7.312,9.164 1.981,12.551 0.206,0.897 1.654,0.549 2.644,0.661 -0.705,5.174 3.473,6.483 2.641,9.91 2.759,0.558 3.121,-1.285 5.285,-1.322 0.666,1.316 1.143,2.822 2.643,3.303 -0.708,1.495 -1.5,2.906 -2.643,3.964 0.892,3.198 5.245,-0.708 5.945,1.982 1.863,-0.12 0.824,-3.14 3.304,-2.643 0.79,1.412 3.583,0.82 2.643,3.963 4.034,-1.943 6.167,-1.729 11.23,-2.643 -0.527,4.65 -4.95,7.038 -2.644,12.552 -1.217,1.866 -3.192,2.973 -4.625,4.625 -2.318,0.118 -2.172,-2.231 -3.962,-2.643 -2.753,1.211 -6.829,1.1 -5.947,5.945 -2.542,-0.12 -2.989,1.854 -3.962,3.303 -2.394,-2.451 -7.725,-1.964 -11.232,-3.303 -0.098,-1.641 0.343,-2.741 1.323,-3.303 -0.279,-1.484 -3.505,-0.018 -3.964,-1.322 0.283,-1.258 1.422,-1.659 1.321,-3.303 -0.85,-1.847 -1.367,2.081 -3.302,1.321 -1.239,-1.258 -0.074,-1.659 0,-3.303 -2.717,0.135 -2.234,2.836 -3.964,3.303 -0.86,0.233 -1.219,-1.871 -2.643,-1.981 -1.754,-0.136 -1.191,2.532 -3.302,1.321 0.27,-1.591 -1.207,-1.436 -0.66,-3.303 -2.635,-0.654 -1.991,1.974 -4.625,1.321 -1.239,-1.259 -0.074,-1.66 0,-3.304 -1.383,-1.439 -1.887,0.33 -3.964,0 -0.754,-6.104 -4.114,-2.284 -7.929,-1.321 -1.227,-1.168 0.288,-1.929 0.661,-3.304 -3.15,0.14 -2.931,1.684 -5.945,0.662 0.694,4.421 -4.79,6.643 -6.605,10.569 -3.661,-0.92 -4.295,-0.241 -5.285,2.643 -1.688,-0.294 -3.036,-0.927 -3.964,-1.982 -2.007,0.635 -1.438,3.846 -2.642,5.285 -2.371,0.389 -3.196,-0.768 -4.625,-1.321 1.004,3.745 0.324,4.921 -1.982,6.606 0.369,2.006 2.456,4.479 0.66,6.606 -3.113,0.25 -4.143,-1.583 -5.945,-2.643 -0.588,0.292 -1.182,0.58 -1.322,1.321 0.088,3.151 1.499,0.879 3.964,1.322 -0.099,1.64 0.341,2.741 1.321,3.303 -0.064,1.698 -2.579,0.945 -2.643,2.643 0.35,0.531 0.689,1.072 0.662,1.982 2.722,0.52 1.241,-3.163 3.963,-2.642 3.672,2.791 2.125,7.176 1.322,11.89 -1.865,1.044 -2.806,-0.76 -4.625,0.661 0.091,2.331 1.89,2.955 1.982,5.285 -0.634,1.128 -2.076,1.448 -3.304,1.982 0.9,2.303 1.158,2.736 3.964,1.982 -0.508,3.15 0.933,4.352 2.642,5.285 -1.022,1.353 -1.022,5.914 0,7.267 2.033,0.491 1.27,-1.813 3.304,-1.322 1.292,1.235 0.203,2.419 0,3.964 6.069,1.534 6.013,-6.14 9.907,-4.625 1.062,-1.141 0.321,-4.083 1.983,-4.625 2.767,-0.565 1.446,2.958 2.642,3.964 2.496,0.562 3.102,-2.193 4.625,-0.66 -0.564,4.66 -0.834,7.519 1.323,10.569 2.859,0.218 1.626,-3.659 4.623,-3.304 0.774,0.987 0.822,2.703 1.983,3.304 2.474,0.052 0.167,-4.678 2.642,-4.624 2.25,-0.489 1.089,2.434 2.644,2.644 2.659,-2.188 1.185,-8.505 2.641,-11.893 3.388,1.108 3.22,1.108 6.607,0 0.477,2.019 -0.676,2.408 -0.66,3.964 0.561,1.938 1.662,-0.86 3.302,0 0.268,3.352 -1.566,4.599 -2.642,6.605 1.203,0.18 4.9,1.048 7.266,1.981 1.285,-1.357 1.839,-3.443 2.644,-5.283 2.033,-0.493 1.269,1.812 3.302,1.32 0.954,-0.808 1.001,-2.521 1.983,-3.303 2.21,2.583 5.746,3.695 9.247,3.303 0.453,3.314 -1.588,4.136 -3.962,4.625 0.098,5.383 -3.487,7.082 -3.964,11.891 -1.38,0.279 -1.75,-0.453 -2.644,-0.66 -2.92,1.263 -0.983,7.383 -3.962,8.588 -2.48,0.497 -1.44,-2.525 -3.304,-2.643 -1.84,-0.298 0.519,3.601 -1.321,3.301 -2.701,-0.159 -2.287,-3.439 -3.304,-5.282 -3.288,1.775 -3.653,-2.797 -5.285,-4.625 -1.694,0.068 -1.061,2.462 -1.981,3.304 -2.035,0.491 -1.271,-1.815 -3.304,-1.322 2.26,6.336 -2.691,8.513 -4.625,12.551 -3.878,-1.556 -5.538,2.087 -7.926,-1.32 -0.894,0.65 -1.321,1.764 -1.983,2.643 -1.933,0.172 -2.029,-1.494 -3.964,-1.322 -0.716,1.45 -2.909,1.137 -3.302,2.644 -0.293,1.119 5.003,6.021 -1.323,5.945 -1.291,5.695 2.398,6.41 1.983,11.229 1.305,0.898 3.074,1.331 3.304,3.305 2.334,-0.308 2.322,-2.961 5.285,-2.642 1.488,1.428 -0.549,2.252 0,4.624 3.004,-0.957 4.541,-3.388 8.586,-3.304 -0.465,3.858 -0.465,3.831 1.983,5.285 -0.347,2.077 -1.159,3.685 -1.983,5.284 0.196,1.348 1.788,1.295 1.983,2.642 3.066,-0.454 3.036,-4.008 7.266,-3.304 0.03,3.996 -2.444,5.484 -2.643,9.249 1.36,0.886 3.419,-3.162 5.287,-3.962 1.506,0.916 0.246,4.597 0.66,6.605 4.431,0.469 4.723,-3.204 7.266,-4.624 2.005,-0.242 1.371,2.152 1.981,3.304 3.422,-0.321 3.29,-4.2 5.285,-5.947 2.132,-0.591 0.93,2.154 1.983,2.644 1.356,-0.186 1.319,-1.766 1.981,-2.644 1.654,-0.112 2.069,1.018 2.644,1.982 4.096,-1.408 0.391,-10.617 5.945,-10.569 0.048,2.813 1.105,4.62 0.66,7.929 2.759,0.557 3.121,-1.285 5.285,-1.323 1.042,1.381 0.457,4.388 1.321,5.947 -0.992,1.429 -4.218,0.627 -3.302,3.962 -4.896,-0.71 -5.75,2.618 -5.285,7.267 2.091,1.301 4.914,-1.077 3.962,3.966 3.339,0.475 2.38,-3.348 5.285,-3.304 1.235,1.173 -0.537,1.678 0,3.962 2.995,0.132 2.785,-2.938 4.625,-3.962 2.009,0.191 0.912,3.493 2.644,3.962 2.861,0.22 1.626,-3.659 4.625,-3.302 0.299,3.091 3.719,0.118 4.625,3.302 2.13,-1.611 3.3,-4.186 3.962,-7.266 2.686,1.28 5.012,2.917 5.285,6.607 5.648,0.58 2.946,-7.187 4.625,-10.571 2.071,-0.31 1.863,1.661 2.643,2.643 2.446,-2.306 3.715,-0.446 5.285,1.321 2.653,0.231 -0.345,-5.188 3.302,-3.964 -0.268,-6.777 -7.068,-7.025 -11.891,-9.247 0.547,-1.868 -0.932,-1.712 -0.66,-3.305 2.951,-1.013 6.063,-1.863 9.909,-1.982 1.909,-0.954 1.034,-4.692 3.964,-4.625 0.76,0.782 0.746,2.337 0.66,3.967 3.248,-0.717 3.691,-4.238 5.285,-6.607 2.123,-0.141 1.608,2.355 2.641,3.304 1.387,-1.918 2.54,-4.068 5.945,-3.965 2.344,-0.299 1.736,-3.549 3.964,-3.964 2.534,-0.12 0.239,0.541 0.66,1.983 7.254,-1.534 3.774,-9.808 7.929,-14.534 -0.013,-2.19 -3.733,-0.672 -4.625,-1.981 0.028,-3.08 2.548,-6.364 0.661,-9.249 -2.564,0.076 -2.045,3.24 -4.625,3.302 -1.451,-1.933 1.622,-3.758 1.323,-6.605 -0.164,-0.718 -1.315,-0.446 -1.323,-1.32 -4.22,0.622 -5.602,4.086 -7.926,6.605 -2.464,0.702 -1.045,-2.478 -3.304,-1.981 -4.08,1.205 -3.485,7.083 -7.926,7.927 -0.285,-4.614 -4.313,-6.988 -0.662,-10.569 -0.096,-1.445 -1.664,-1.419 -3.302,-1.321 -0.146,-2.129 1.169,-2.795 0.66,-5.285 -1.323,-1.492 -1.977,3.271 -5.285,1.981 -0.016,-1.557 1.137,-1.945 0.66,-3.964 -6.047,-0.763 -5.49,5.079 -10.57,5.286 2.302,-4.083 5.237,-7.537 10.57,-8.588 0.599,1.163 2.432,1.091 2.644,2.641 2.081,0.319 1.494,-2.026 3.962,-1.32 1.209,1.873 -0.048,6.215 2.644,6.605 0.401,4.557 -2.753,6.695 0.661,9.249 2.534,-0.989 3.27,-3.774 5.285,-5.284 2.085,-0.323 2.332,1.19 4.625,0.66 1.953,-2.45 3.717,-5.092 8.589,-4.625 1.648,2.314 3.154,4.772 5.945,5.945 0.114,3.504 0.427,3.372 0,6.607 3.743,0.88 2.554,6.693 4.625,9.249 -3.681,6.01 -5.96,13.419 -14.534,14.532 8.299,12.05 -4.375,32.118 3.302,45.583 -1.698,5.841 1.953,14.141 1.983,20.479 0.038,8.357 -4.407,12.69 -7.928,19.159 -2.077,-0.332 -2.582,1.439 -3.962,0 2.424,-6.425 7.637,-8.204 8.586,-13.874 2.037,-12.14 -5.227,-28.202 -3.964,-40.958 0.698,-7.049 5.119,-18.919 0.66,-26.425 -3.377,-0.936 -7.16,2.433 -8.586,-0.66 -2.785,5.714 -8.667,4.266 -15.194,5.945 4.643,2.845 10.003,4.972 10.57,11.891 -1.855,2.33 -2.997,5.37 -6.606,5.945 -2.071,0.311 -1.863,-1.66 -2.643,-2.642 -2.033,-0.491 -1.269,1.813 -3.302,1.32 0.94,6.227 -3.02,7.55 -7.268,8.589 -0.553,-1.429 -1.71,-2.252 -1.321,-4.624 -4.69,-0.729 -4.253,3.673 -7.268,4.624 -3.918,-0.772 -5.857,-2.753 -8.586,0 -2.075,0.313 -2.699,-0.824 -3.304,-1.981 -1.389,0.814 -2.576,1.828 -3.964,2.642 -2.508,-1.364 -2.831,-2.354 -6.605,-1.32 -0.577,-2.949 -3.396,-3.651 -5.285,-5.285 -0.762,-8.692 5.79,-10.064 8.589,-15.194 -3.807,1.067 -4.621,0.022 -7.268,-1.322 -1.075,1.349 -1.386,3.459 -2.641,4.624 -4.118,-1.516 -5.499,4.633 -7.929,0.663 -1.793,0.846 -1.901,3.383 -3.962,3.962 -2.075,0.313 -1.746,-1.778 -3.304,-1.981 -2.316,0.769 -3.691,2.476 -5.945,3.302 -1.931,-0.71 -3.459,-1.823 -3.304,-4.622 -1.953,0.688 -1.941,3.344 -5.285,2.642 -1.552,-3.125 1.379,-6.808 1.981,-9.91 -2.849,0.013 -2.434,3.292 -5.285,3.304 -2.569,-0.293 -2.703,-3.021 -3.962,-4.624 -0.03,-2.011 1.395,-2.569 1.981,-3.962 -1.203,0.025 -3.757,-1.161 -4.625,-3.304 -2.406,0.454 -3.046,2.677 -5.945,2.641 v -4.624 c -2.975,0.107 -2.308,3.858 -5.285,3.964 -0.868,-1.869 1.422,-6.019 -3.964,-4.624 0.273,-4.206 0.964,-5.668 -1.981,-7.267 1.343,-3.403 -0.034,-5.492 -0.661,-8.588 -0.592,-2.133 2.155,-0.928 2.642,-1.981 -2.993,-5.225 0.687,-7.045 3.964,-9.249 2.284,-0.522 2.789,0.734 3.964,1.32 2.743,-3.042 8.295,-3.654 13.211,-3.302 2.809,-2.29 -0.597,-6.73 1.323,-9.911 3.776,0.918 4.209,-1.512 6.605,-1.981 4.04,3.007 8.244,5.852 13.211,7.929 1.887,-1.857 1.407,-6.083 3.304,-7.929 1.38,-0.279 1.75,0.453 2.643,0.661 0.862,-3.101 1.644,-6.282 3.302,-8.587 -0.078,-1.903 -2.817,-1.147 -2.641,-3.304 -3.585,1.48 -7.083,3.046 -8.589,6.607 -3.478,-1.852 -6.6,-0.312 -9.909,-2.644 -0.191,-2.835 0.919,-4.365 1.983,-5.945 -2.109,-0.317 -2.631,-2.214 -3.964,-3.304 -2.414,2.211 -0.836,8.413 -3.304,10.57 -5.175,-1.433 -4.828,2.659 -7.926,3.304 -0.283,-1.261 -1.887,-1.195 -1.323,-3.304 -1.698,0.063 -0.943,2.579 -2.641,2.643 -5.177,-0.109 -4.747,-5.825 -8.589,-7.268 0.419,-2.468 1.042,-3.783 -1.321,-4.624 -2.839,1.565 -5.526,3.281 -6.605,6.605 -2.883,-0.601 -4.257,-2.143 -5.947,0.662 -3.302,0.22 -2.798,-3.367 -5.944,-3.304 -0.602,-4.936 0.678,-7.693 -1.322,-11.23 -2.174,0.028 -3.289,1.115 -5.945,0.661 -1.339,-4.199 0.248,-7.263 -1.322,-11.23 2.739,-0.757 2.575,1.39 4.625,1.32 1.594,-1.213 -0.906,-3.894 0,-6.605 0.782,-0.98 2.496,-1.028 3.303,-1.982 -0.869,-4.196 -6.604,-3.524 -5.285,-9.909 -2.039,-0.107 -3.733,1.561 -5.285,0 0.309,-4.314 3.599,-5.65 4.625,-9.248 2.416,-0.435 2.535,1.429 4.625,1.321 1.047,-1.618 -3.336,-5.121 -1.322,-7.928 4.863,1.08 1.628,-1.855 3.304,-3.963 2.925,-0.723 3.285,1.118 5.285,1.321 1.858,-1.003 1.443,-4.282 3.303,-5.285 1.532,-0.21 2.536,0.106 3.304,0.661 1.099,-0.881 1.025,-2.938 1.981,-3.963 1.534,0.447 1.768,2.196 3.304,2.643 1.115,-2.408 1.776,-5.271 5.285,-5.285 -0.353,-2.07 -2.721,-2.124 -1.983,-5.285 0.589,-0.293 1.183,-0.581 1.323,-1.322 3.896,0.535 6.931,1.851 9.908,0 4.926,1.058 10.789,0.997 12.553,6.606 3.641,0.922 5.576,1.144 8.588,1.321 1.105,0.066 1.259,0.279 1.321,1.322 2.967,-1.839 6.632,-1.154 9.91,0 -0.87,4.614 4.716,2.77 3.302,7.927 1.371,1.493 3.663,2.063 5.947,2.643 1.546,-2.638 4.742,-3.624 5.283,-7.267 3.587,-1.128 6.081,-1.445 9.249,0 1.5,-0.702 0.251,-4.153 0.66,-5.945 -1.5,-0.73 -6.396,-0.173 -7.266,-3.304 -3.511,3.044 -5.331,-0.033 -9.91,1.322 -1.662,-2.015 -3.399,-3.131 -1.32,-5.945 -2.528,-2.318 -6.32,-3.37 -9.249,-5.285 0.77,-4.733 -0.613,-7.316 -3.304,-8.589 -0.899,-4.204 2.606,-4.002 2.644,-7.267 -1.018,-1.846 -1.852,-3.873 -3.964,-4.624 -1.169,-5.795 4.04,-5.209 3.304,-10.57 h 8.586 c 1.732,-0.88 1.263,-2.933 0.663,-4.625 1.913,-2.49 6.404,-2.404 7.266,-5.946 1.742,-0.201 1.704,1.379 1.981,2.644 1.907,-0.296 1.562,-2.843 3.304,-3.304 2.587,-0.385 1.686,2.717 3.304,3.304 2.849,-0.013 2.434,-3.292 5.285,-3.304 2.825,0.257 3.146,3.02 3.302,5.945 2.991,-0.093 3.226,-2.938 6.608,-2.641 -1.265,4.003 -0.17,4.765 3.302,5.285 -0.1,2.101 -1.497,2.906 -1.321,5.285 2.288,0.82 3.882,-7.818 8.589,-4.624 1.702,-0.721 3.174,-1.67 3.962,-3.304 2.366,1.748 5.06,1.02 6.607,-1.321 0.11,-5.176 -4.892,-5.238 -7.268,-7.927 1.442,-2.742 5.604,-2.764 6.607,-5.945 1.59,-0.271 1.435,1.206 3.302,0.66 1.127,-4.43 -2.971,-3.636 -2.642,-7.267 1.993,-1.799 3.937,0.458 5.945,0.661 2.516,-0.125 0.405,-4.88 1.981,-5.945 1.06,-1.088 2.753,0.579 5.275,-0.01 z m 113.62,138.07 c -1.846,-1.236 -2.741,-3.424 -5.285,-3.963 -2.479,2.806 3.275,5.728 5.285,3.963 z" />
    </g>
    <path
       id="path4673"
       style="fill:#4d2d18"
       d="m 347.59,98.61 c -2.6106,0.90815 0.81671,-1.3327 1.8404,-0.62663 3.2696,-1.1864 6.7563,-1.4741 10.048,-2.391 2.9085,-1.0787 5.8576,-2.2714 8.3854,-4.0832 1.7831,-2.2292 2.626,-5.1409 3.5238,-7.8387 -0.17084,-1.8511 2.3653,-6.6033 3.9894,-3.879 1.575,2.451 -2.1258,6.1626 0.31626,7.7936 3.6466,0.51236 5.3162,-4.2181 9.0539,-3.9381 2.3648,-2.0072 6.9301,0.16763 4.1462,3.0419 -1.5883,2.0071 -6.2967,2.1346 -5.6888,5.3488 1.2399,2.6782 2.4157,5.4686 4.6361,7.5096 1.6256,2.2577 1.8945,5.1836 3.1682,7.6487 1.4723,2.0016 3.9248,3.7841 6.5105,3.7906 3.0211,-1.0002 4.1566,4.2003 2.7216,5.8916 -2.4733,1.5865 -6.4309,1.1328 -8.1026,-1.447 -0.62991,-1.2568 -3.4708,-2.6178 -2.9256,-1.3964 -1.3133,3.2243 -4.4568,3.8682 -7.4959,3.4309 -2.5268,-0.38735 -4.224,1.2947 -5.0655,3.356 -3.1665,-0.22752 -2.3993,-4.6187 0.5866,-4.7244 2.6359,-1.4251 6.0546,-1.1898 8.2658,-3.3016 2.3006,-2.6187 -2.1274,-6.863 -3.1922,-9.335 -0.97921,-3.1492 -3.1973,-4.5577 -6.6148,-5.6028 -3.8878,-1.8086 -6.0071,-0.0787 -9.0326,2.3356 -2.4831,1.4341 -4.6921,3.2098 -7.3416,4.2979 -2.5052,1.9317 -5.832,2.8232 -7.6773,5.514 -2.1349,3.2209 -4.0324,6.6338 -5.2184,10.325 -1.1072,3.0243 -6.2429,3.2464 -6.8465,-0.22399 -0.26122,-3.1767 -0.9031,-6.1554 0.67093,-9.1096 1.3572,-4.0405 3.603,-7.7263 5.8971,-11.294 0.42061,-0.43449 0.89844,-0.82134 1.4417,-1.0923 z" />
    <path
       id="path5410"
       style="fill:#4c622d"
       d="m 301.81,32.755 c -0.14261,-0.0878 -0.34569,-0.11357 -0.62437,-0.11357 -0.56837,0 -1.1721,0.25346 -1.3438,0.53125 -1.2843,2.078 -2.7231,-1.8672 -1.8125,-4.9688 0.39015,-1.3289 0.34645,-1.7086 -0.25,-1.9375 -1.0323,-0.39613 -2.2751,-2.9762 -1.9062,-3.9375 0.23308,-0.6074 -0.0591,-0.78125 -1.2188,-0.78125 -0.49214,0 -1.0001,-0.1411 -1.436,-0.34825" />
    <path
       id="path5426"
       style="color:#000000;text-indent:0;text-transform:none;fill:#384525"
       d="m 218.85,139.45 c -1.3036,0.1507 -2.6497,0.79643 -3.875,1.8438 -0.69426,0.59342 -1.1717,0.92812 -1.375,1.0312 -0.2033,0.10313 0.0904,0.0651 0.15625,0.0937 l -1.1875,2.75 c 0.74423,0.32398 1.7075,0.18235 2.375,-0.15625 0.66748,-0.3386 1.2546,-0.80038 2,-1.4375 0.70418,-0.6019 1.3979,-0.87174 1.9062,-1 -0.0511,0.24961 -0.0269,0.23016 -0.125,0.5625 -0.21946,0.74339 -0.53523,1.6598 -0.875,2.5625 -0.36701,0.97505 -0.67571,1.8904 -0.875,2.625 -0.0996,0.36728 -0.17237,0.69428 -0.21875,1 -0.0232,0.15286 -0.0352,0.29253 -0.0312,0.5 0.004,0.20747 -0.14928,0.53823 0.46875,1.1562 0.56724,0.56724 1.1965,0.49637 1.4688,0.4375 0.27224,-0.0589 0.42298,-0.14606 0.5625,-0.21875 0.27903,-0.14538 0.49065,-0.30336 0.75,-0.5 0.5187,-0.39327 1.1197,-0.91268 1.75,-1.5312 0.33903,-0.33273 0.50677,-0.42573 0.75,-0.625 0.0372,0.38476 0.0937,0.69576 0.0937,1.3125 0,1.2463 -0.11577,1.9483 0.28125,2.875 0.19851,0.46337 0.70189,0.97123 1.1875,1.1562 0.4856,0.18502 0.86717,0.15625 1.1875,0.15625 0.98917,0 1.5732,-0.4011 2.2812,-0.875 0.7081,-0.4739 1.4488,-1.0911 2.1875,-1.8438 0.50631,-0.5159 1.0102,-0.95622 1.4375,-1.3125 0.0348,0.0865 0.0637,0.12759 0.0937,0.21875 0.22176,0.67194 0.44674,1.273 1,1.8125 0.55326,0.53951 1.7254,0.72925 2.4375,0.40625 1.4241,-0.646 1.9924,-1.8157 3.0625,-3.6562 0.59765,-1.0279 1.2495,-1.6778 1.5,-1.8438 0.12526,-0.083 0.10711,0.0163 -0.25,-0.0312 -0.35712,-0.0475 -0.75305,-0.50666 -0.78125,-0.59375 l 2.875,-0.90625 c -0.20404,-0.62991 -0.90745,-1.3649 -1.6875,-1.4688 -0.78006,-0.10382 -1.3493,0.19314 -1.8125,0.5 -0.92648,0.61373 -1.6852,1.5498 -2.4375,2.8438 -0.69657,1.198 -0.92729,1.4052 -1.1875,1.7188 -0.17903,-0.4784 -0.36715,-0.92335 -0.625,-1.3125 -0.15622,-0.23576 -0.31662,-0.468 -0.5625,-0.6875 -0.24589,-0.2195 -0.59622,-0.53125 -1.2812,-0.53125 -0.84861,0 -0.95103,0.23949 -1.2188,0.40625 -0.26773,0.16676 -0.52403,0.36201 -0.8125,0.59375 -0.57695,0.46349 -1.2546,1.0861 -1.9062,1.75 -0.61936,0.63108 -1.2082,1.148 -1.6875,1.4688 -0.19781,0.13238 -0.11595,0.10108 -0.25,0.15625 -0.0234,-0.26731 -0.0312,-0.28427 -0.0312,-1 0,-1.0357 -0.0389,-1.8576 -0.1875,-2.5938 -0.14856,-0.73619 -0.42388,-1.5762 -1.3438,-2.0625 -0.91988,-0.48635 -1.8654,-0.16023 -2.5,0.21875 -0.19825,0.11839 -0.40029,0.35358 -0.59375,0.5 0.23645,-0.67098 0.48561,-1.3595 0.65625,-1.9375 0.24482,-0.82933 0.4375,-1.2814 0.4375,-2.0938 0,-0.79301 -0.50867,-1.6924 -1.1875,-2.0938 -0.67884,-0.4013 -1.3482,-0.4191 -2,-0.34375 z" />
    <path
       id="path5428"
       style="color:#000000;text-indent:0;text-transform:none;fill:#2e2413"
       d="m 333.41,145.76 c -3.1719,6.4608 -8.3576,12.529 -7.5625,20.562 0.003,0.0322 -0.003,0.0615 0,0.0937 -0.92511,9.2193 -0.15353,18.516 1.9062,27.5 0.002,0.01 -0.002,0.0213 0,0.0312 -1.2946,7.102 3.0393,12.919 4.9688,19.031 0.13014,0.73128 -0.0321,2.158 0.0937,3.4688 0.0641,0.66715 0.21547,1.3309 0.59375,1.875 0.37828,0.54414 1.014,0.93746 1.8438,1 l 0.0625,-1 c -0.59285,-0.0447 -0.87089,-0.24193 -1.0938,-0.5625 -0.22286,-0.32057 -0.35054,-0.82609 -0.40625,-1.4062 -0.11143,-1.1603 0.0864,-2.5673 -0.125,-3.625 v -0.0312 -0.0312 c -2.0233,-6.4099 -6.2702,-12.041 -4.9375,-18.75 v -0.0937 -0.0937 c -2.0507,-8.9312 -2.8659,-18.176 -1.9375,-27.312 l 0.0312,-0.0625 -0.0312,-0.0312 c -0.7963,-7.6004 4.2361,-13.477 7.5,-20.125 l -0.90625,-0.4375 z" />
    <path
       id="path5436"
       style="color:#000000;text-indent:0;text-transform:none;fill:#2e2413"
       d="m 316.56,158.01 c -0.46013,6.5806 -2.4342,13.411 -1.1562,20.219 v 0.0312 l 0.0312,0.0312 c 5.1046,15.107 5.3353,31.575 2.125,47.156 l 1,0.21875 c 3.2359,-15.705 2.9945,-32.336 -2.1562,-47.625 -1.2206,-6.5019 0.6859,-13.211 1.1562,-19.938 l -1,-0.0937 z" />
    <path
       id="path5438"
       style="color:#000000;text-indent:0;text-transform:none;fill:#2e2413"
       d="m 328.56,122.79 c -0.20746,4.5154 -2.1558,8.7692 -3.9062,13.156 -1.7504,4.387 -3.3048,8.9244 -2.5938,13.938 l 1,-0.15625 c -0.67056,-4.7279 0.79294,-9.0496 2.5312,-13.406 1.7383,-4.3566 3.7496,-8.7309 3.9688,-13.5 l -1,-0.0312 z" />
    <path
       id="path5440"
       style="color:#000000;text-indent:0;text-transform:none;fill:#2e2413"
       d="m 334.56,113.33 c -0.0431,10.171 2.1538,20.933 -3.7188,29.719 l -0.0312,0.0312 v 0.0312 c -1.2685,2.4623 -2.6318,4.8999 -3.7188,7.5 l 0.9375,0.40625 c 1.054,-2.5213 2.3539,-4.9405 3.625,-7.4062 0.008,-0.0121 0.0232,-0.0191 0.0312,-0.0312 6.1144,-9.1854 3.8326,-20.243 3.875,-30.25 h -1 z" />
    <path
       id="path5434"
       style="color:#000000;text-indent:0;text-transform:none;fill:#2e2413"
       d="m 325.6,145.67 c -1.3978,5.2144 -3.039,10.355 -4.8125,15.375 v 0.0312 0.0312 c -1.1434,5.312 -1.6408,10.652 -1.2188,16.156 -0.005,0.0433 0.005,0.0818 0,0.125 -0.52533,4.6287 0.76307,8.8246 0.4375,13.094 v 0.0312 0.0312 c 0.29217,4.6438 0.66761,9.1906 2.0938,13.719 0.003,0.01 -0.003,0.0213 0,0.0312 -0.23511,4.9858 0.82346,9.5922 1.5625,14.531 0.2627,2.0558 0.44386,2.8736 0.34375,3.4062 -0.10011,0.53262 -0.50506,1.053 -1.5938,2.5312 l 0.8125,0.59375 c 1.0785,-1.4644 1.6192,-2.0756 1.7812,-2.9375 0.162,-0.86191 -0.085,-1.6941 -0.34375,-3.7188 -0.74758,-4.9961 -1.7954,-9.5798 -1.5625,-14.406 l 0.0312,-0.0937 -0.0312,-0.0625 c -1.4159,-4.4183 -1.7996,-8.9293 -2.0938,-13.594 0.002,-0.0215 -0.002,-0.0411 0,-0.0625 0.33016,-4.5323 -0.96827,-8.6997 -0.4375,-13.094 v -0.0312 -0.0625 c -0.43089,-5.4382 0.0516,-10.692 1.1875,-15.969 1.772,-5.0208 3.3818,-10.155 4.7812,-15.375 l -0.9375,-0.28125 z" />
    <path
       id="path5456"
       style="color:#000000;text-indent:0;text-transform:none;fill:#6d3d20"
       d="m 288.41,89.294 c -2.4866,3.6471 -6.961,7.0713 -11.719,9.5938 -4.7577,2.5224 -9.8125,4.1432 -13.375,4.1875 v 1 c 3.8431,-0.0478 8.9829,-1.7042 13.844,-4.2813 4.8608,-2.5771 9.4289,-6.0748 12.062,-9.9375 l -0.8125,-0.5625 z" />
    <path
       id="path5458"
       style="color:#000000;text-indent:0;text-transform:none;fill:#331f11"
       d="m 377.81,90.388 -0.40625,0.21875 -0.0312,0.0312 c -3.9284,2.8999 -8.2589,5.1914 -12.594,7.5312 l -0.0312,0.0312 -0.0312,0.0312 c -2.5371,2.0011 -5.3524,3.6038 -8.2812,5.0313 l -0.0312,0.0312 c -2.9897,1.7059 -4.7632,4.3926 -6.3125,7.1875 -1.5493,2.795 -2.8902,5.6954 -4.9375,7.9375 l 0.75,0.6875 c 2.1888,-2.397 3.5384,-5.3754 5.0625,-8.125 1.5167,-2.7362 3.1867,-5.2458 5.9062,-6.8125 0.0133,-0.008 0.0179,-0.0237 0.0312,-0.0312 2.93,-1.4302 5.7606,-3.0357 8.3438,-5.0625 4.3098,-2.3263 8.6638,-4.655 12.656,-7.5938 l 0.0625,-0.0312 0.34375,-0.1875 -0.5,-0.875 z" />
  </g>
  <metadata
     id="metadata57">
    <rdf:RDF>
      <cc:Work>
        <dc:format>image/svg+xml</dc:format>
        <dc:type
           rdf:resource="http://purl.org/dc/dcmitype/StillImage" />
        <cc:license
           rdf:resource="http://creativecommons.org/publicdomain/zero/1.0/" />
        <dc:publisher>
          <cc:Agent
             rdf:about="http://openclipart.org/">
            <dc:title>Openclipart</dc:title>
          </cc:Agent>
        </dc:publisher>
        <dc:title></dc:title>
        <dc:date>2011-08-11T13:56:47</dc:date>
        <dc:description>An oak tree</dc:description>
        <dc:source>https://openclipart.org/detail/154699/oak-tree-by-rdevries</dc:source>
        <dc:creator>
          <cc:Agent>
            <dc:title>rdevries</dc:title>
          </cc:Agent>
        </dc:creator>
        <dc:subject>
          <rdf:Bag>
            <rdf:li>forest</rdf:li>
            <rdf:li>nature</rdf:li>
            <rdf:li>oak</rdf:li>
            <rdf:li>oak tree</rdf:li>
            <rdf:li>tree</rdf:li>
            <rdf:li>wood</rdf:li>
          </rdf:Bag>
        </dc:subject>
      </cc:Work>
      <cc:License
         rdf:about="http://creativecommons.org/publicdomain/zero/1.0/">
        <cc:permits
           rdf:resource="http://creativecommons.org/ns#Reproduction" />
        <cc:permits
           rdf:resource="http://creativecommons.org/ns#Distribution" />
        <cc:permits
           rdf:resource="http://creativecommons.org/ns#DerivativeWorks" />
      </cc:License>
    </rdf:RDF>
  </metadata>
</svg>
