<?xml version="1.0" encoding="UTF-8" standalone="no"?>
<!-- Created with Inkscape (http://www.inkscape.org/) -->

<svg
   xmlns:dc="http://purl.org/dc/elements/1.1/"
   xmlns:cc="http://creativecommons.org/ns#"
   xmlns:rdf="http://www.w3.org/1999/02/22-rdf-syntax-ns#"
   xmlns:svg="http://www.w3.org/2000/svg"
   xmlns="http://www.w3.org/2000/svg"
   xmlns:xlink="http://www.w3.org/1999/xlink"
   xmlns:sodipodi="http://sodipodi.sourceforge.net/DTD/sodipodi-0.dtd"
   xmlns:inkscape="http://www.inkscape.org/namespaces/inkscape"
   id="svg2"
   sodipodi:docname="university.svg"
   viewBox="0 0 128 128"
   sodipodi:version="0.32"
   version="1.0"
   inkscape:output_extension="org.inkscape.output.svg.inkscape"
   inkscape:version="0.92.2 (5c3e80d, 2017-08-06)">
  <defs
     id="defs4">
    <linearGradient
       id="linearGradient2338">
      <stop
         id="stop2340"
         style="stop-color:#b1b1b1"
         offset="0" />
      <stop
         id="stop2342"
         style="stop-color:#e4e4e4"
         offset="1" />
    </linearGradient>
    <linearGradient
       id="linearGradient2369"
       y2="62.667"
       xlink:href="#linearGradient2338"
       gradientUnits="userSpaceOnUse"
       x2="92.886"
       gradientTransform="translate(1.3838 .17297)"
       y1="104.53"
       x1="19.475"
       inkscape:collect="always" />
    <linearGradient
       id="linearGradient2373"
       y2="101.56"
       xlink:href="#linearGradient2338"
       gradientUnits="userSpaceOnUse"
       x2="21.25"
       gradientTransform="translate(1.3838 .17297)"
       y1="104.88"
       x1="18.812"
       inkscape:collect="always" />
    <linearGradient
       id="linearGradient2956"
       y2="98.438"
       xlink:href="#linearGradient2338"
       gradientUnits="userSpaceOnUse"
       x2="23"
       gradientTransform="translate(1.3838 .17297)"
       y1="100.25"
       x1="21.312"
       inkscape:collect="always" />
    <linearGradient
       id="linearGradient2962"
       y2="112.5"
       xlink:href="#linearGradient2338"
       gradientUnits="userSpaceOnUse"
       x2="48.438"
       gradientTransform="translate(1.3838 .17297)"
       y1="114.06"
       x1="49.062"
       inkscape:collect="always" />
    <linearGradient
       id="linearGradient2966"
       y2="107.31"
       xlink:href="#linearGradient2338"
       gradientUnits="userSpaceOnUse"
       x2="48.375"
       gradientTransform="translate(1.3838 .17297)"
       y1="109.12"
       x1="48.812"
       inkscape:collect="always" />
    <linearGradient
       id="linearGradient2970"
       y2="102.06"
       xlink:href="#linearGradient2338"
       gradientUnits="userSpaceOnUse"
       x2="70.562"
       gradientTransform="translate(1.3838 .17297)"
       y1="104.62"
       x1="69.188"
       inkscape:collect="always" />
    <linearGradient
       id="linearGradient2976"
       y2="109.47"
       xlink:href="#linearGradient2338"
       gradientUnits="userSpaceOnUse"
       x2="71.812"
       gradientTransform="translate(1.3838 .17297)"
       y1="111.47"
       x1="70.562"
       inkscape:collect="always" />
    <linearGradient
       id="linearGradient2982"
       y2="108.44"
       xlink:href="#linearGradient2338"
       gradientUnits="userSpaceOnUse"
       x2="89.5"
       gradientTransform="translate(1.3838 .17297)"
       y1="109.69"
       x1="90.062"
       inkscape:collect="always" />
    <linearGradient
       id="linearGradient2986"
       y2="101.84"
       xlink:href="#linearGradient2338"
       gradientUnits="userSpaceOnUse"
       x2="89"
       gradientTransform="translate(1.3838 .17297)"
       y1="103.47"
       x1="89.75"
       inkscape:collect="always" />
    <linearGradient
       id="linearGradient2990"
       y2="80.375"
       xlink:href="#linearGradient2338"
       gradientUnits="userSpaceOnUse"
       x2="106.66"
       gradientTransform="translate(1.3838 .17297)"
       y1="81.5"
       x1="107.19"
       inkscape:collect="always" />
    <linearGradient
       id="linearGradient2994"
       y2="82.312"
       xlink:href="#linearGradient2338"
       gradientUnits="userSpaceOnUse"
       x2="111"
       gradientTransform="translate(1.3838 .17297)"
       y1="84.375"
       x1="111.91"
       inkscape:collect="always" />
    <linearGradient
       id="linearGradient3000"
       y2="62.151"
       xlink:href="#linearGradient2338"
       gradientUnits="userSpaceOnUse"
       x2="97.678"
       gradientTransform="translate(1.3838 .17297)"
       y1="121.21"
       x1="21.69"
       inkscape:collect="always" />
    <linearGradient
       id="linearGradient3036"
       y2="96.625"
       xlink:href="#linearGradient2338"
       gradientUnits="userSpaceOnUse"
       x2="40.875"
       y1="96.625"
       x1="39.188"
       inkscape:collect="always" />
    <linearGradient
       id="linearGradient3038"
       y2="103.91"
       xlink:href="#linearGradient2338"
       gradientUnits="userSpaceOnUse"
       x2="41.16"
       y1="107"
       x1="40.893"
       inkscape:collect="always" />
    <linearGradient
       id="linearGradient3040"
       y2="106.5"
       xlink:href="#linearGradient2338"
       gradientUnits="userSpaceOnUse"
       x2="44.15"
       y1="107.8"
       x1="40.968"
       inkscape:collect="always" />
    <linearGradient
       id="linearGradient3042"
       y2="80.049"
       xlink:href="#linearGradient2338"
       gradientUnits="userSpaceOnUse"
       x2="42.471"
       y1="81.11"
       x1="42.471"
       inkscape:collect="always" />
    <linearGradient
       id="linearGradient3308"
       y2="70.594"
       xlink:href="#linearGradient2338"
       gradientUnits="userSpaceOnUse"
       x2="76.188"
       gradientTransform="translate(1.3838 .17297)"
       y1="70.594"
       x1="65.188"
       inkscape:collect="always" />
    <linearGradient
       id="linearGradient3311"
       y2="64.656"
       xlink:href="#linearGradient2338"
       gradientUnits="userSpaceOnUse"
       x2="64.125"
       gradientTransform="translate(1.3838 .17297)"
       y1="80.719"
       x1="40.812"
       inkscape:collect="always" />
    <linearGradient
       id="linearGradient3314"
       y2="39.875"
       xlink:href="#linearGradient2338"
       gradientUnits="userSpaceOnUse"
       x2="37.062"
       gradientTransform="translate(1.3838 .17297)"
       y1="76.5"
       x1="38.625"
       inkscape:collect="always" />
    <linearGradient
       id="linearGradient3318"
       y2="72.75"
       xlink:href="#linearGradient2338"
       gradientUnits="userSpaceOnUse"
       x2="35.25"
       gradientTransform="translate(1.3838 .17297)"
       y1="61.625"
       x1="13"
       inkscape:collect="always" />
    <linearGradient
       id="linearGradient3334"
       y2="60.294"
       xlink:href="#linearGradient2338"
       gradientUnits="userSpaceOnUse"
       x2="102.2"
       gradientTransform="translate(1.3838 .17297)"
       y1="76.807"
       x1="78.009"
       inkscape:collect="always" />
    <linearGradient
       id="linearGradient3340"
       y2="56.445"
       xlink:href="#linearGradient2338"
       gradientUnits="userSpaceOnUse"
       x2="91.494"
       gradientTransform="translate(1.3838 .17297)"
       y1="67.903"
       x1="81.44"
       inkscape:collect="always" />
    <linearGradient
       id="linearGradient3346"
       y2="40.663"
       xlink:href="#linearGradient2338"
       gradientUnits="userSpaceOnUse"
       x2="115.93"
       gradientTransform="translate(1.3838 .17297)"
       y1="54.03"
       x1="98.402"
       inkscape:collect="always" />
    <linearGradient
       id="linearGradient3354"
       y2="51.866"
       xlink:href="#linearGradient2338"
       gradientUnits="userSpaceOnUse"
       x2="81.178"
       gradientTransform="translate(1.3838 .17297)"
       y1="37.092"
       x1="37.65"
       inkscape:collect="always" />
    <linearGradient
       id="linearGradient3360"
       y2="24.781"
       xlink:href="#linearGradient2338"
       gradientUnits="userSpaceOnUse"
       x2="61.797"
       gradientTransform="translate(1.3838 .17297)"
       y1="50.834"
       x1="88.009"
       inkscape:collect="always" />
    <linearGradient
       id="linearGradient3364"
       y2="16.043"
       xlink:href="#linearGradient2338"
       gradientUnits="userSpaceOnUse"
       x2="84.116"
       gradientTransform="translate(1.3838 .17297)"
       y1="53.455"
       x1="91.424"
       inkscape:collect="always" />
    <linearGradient
       id="linearGradient3366"
       y2="96.625"
       xlink:href="#linearGradient2338"
       gradientUnits="userSpaceOnUse"
       x2="40.875"
       gradientTransform="translate(61.598 -38.484)"
       y1="96.625"
       x1="39.188"
       inkscape:collect="always" />
    <linearGradient
       id="linearGradient3368"
       y2="103.91"
       xlink:href="#linearGradient2338"
       gradientUnits="userSpaceOnUse"
       x2="41.16"
       gradientTransform="translate(61.598 -38.484)"
       y1="107"
       x1="40.893"
       inkscape:collect="always" />
    <linearGradient
       id="linearGradient3370"
       y2="106.5"
       xlink:href="#linearGradient2338"
       gradientUnits="userSpaceOnUse"
       x2="44.15"
       gradientTransform="translate(61.598 -38.484)"
       y1="107.8"
       x1="40.968"
       inkscape:collect="always" />
    <filter
       id="filter3434"
       inkscape:collect="always">
      <feGaussianBlur
         id="feGaussianBlur3436"
         stdDeviation="0.77232432"
         inkscape:collect="always" />
    </filter>
  </defs>
  <sodipodi:namedview
     id="base"
     inkscape:zoom="4.48"
     borderopacity="1.0"
     inkscape:current-layer="layer1"
     inkscape:cx="61.164133"
     inkscape:cy="78.814575"
     showgrid="false"
     width="744.09px"
     inkscape:guide-bbox="true"
     showguides="true"
     bordercolor="#666666"
     inkscape:window-x="196"
     guidetolerance="10"
     objecttolerance="10"
     inkscape:window-y="7"
     inkscape:window-width="1586"
     inkscape:pageopacity="0.0"
     inkscape:pageshadow="2"
     pagecolor="#ffffff"
     gridtolerance="10000"
     inkscape:document-units="px"
     inkscape:window-height="975"
     inkscape:window-maximized="0" />
  <g
     id="layer2"
     inkscape:label="colors"
     inkscape:groupmode="layer">
    <path
       id="path3380"
       sodipodi:nodetypes="ccccccc"
       style="filter:url(#filter3434);fill-rule:evenodd;fill:#000000;fill-opacity:.67580"
       d="m37.881 118.66l-37.535-27.33 55.697-25.6 45.837 34.94-24.388 14.18-17.47-9.86-22.141 13.67z" />
    <path
       id="path2367"
       sodipodi:nodetypes="cccccccccc"
       style="fill-rule:evenodd;fill:url(#linearGradient2369)"
       d="m3.3882 89.193l24.165-11.186 64.286-24.284 35.301 21.001-28.23 13.574 12.66 9.086-33.122 16.226-12.026-9.48-26.638 12.8-36.396-27.737z" />
    <path
       id="path2371"
       style="fill-rule:evenodd;fill:url(#linearGradient2373)"
       d="m3.1963 89.298l0.1875 2.437 36.375 27.435 0.375-0.06-0.5-2.25-36.438-27.562z" />
    <path
       id="path2375"
       style="fill-rule:evenodd;fill:#000000;fill-opacity:.15686"
       d="m3.1963 89.298l0.1875 2.437 36.375 27.435 0.375-0.06-0.5-2.25-36.438-27.562z" />
    <path
       id="path2954"
       sodipodi:nodetypes="cccccc"
       style="fill-rule:evenodd;fill:url(#linearGradient2956)"
       d="m9.0713 86.735l-0.1875 2.438 31.812 24.937 0.125-2.69-15.187-11.935-16.563-12.75z" />
    <path
       id="path2958"
       sodipodi:nodetypes="cccccc"
       style="fill-rule:evenodd;fill:#000000;fill-opacity:.15686"
       d="m9.0713 86.735l-0.1875 2.438 31.812 24.937 0.125-2.69-15.187-11.935-16.563-12.75z" />
    <path
       id="path2960"
       style="fill-rule:evenodd;fill:url(#linearGradient2962)"
       d="m39.634 116.99l27.062-12.88-0.062 2.63-26.688 12.37-0.312-2.12z" />
    <path
       id="path2964"
       sodipodi:nodetypes="cccc"
       style="fill-rule:evenodd;fill:url(#linearGradient2966)"
       d="m40.946 111.17l26.063-12.56-0.188 2.94-26.187 12.56" />
    <path
       id="path2968"
       style="fill-rule:evenodd;fill:url(#linearGradient2970)"
       d="m66.821 98.798v2.622l11 8.63-0.312-3.13-10.688-8.122z" />
    <path
       id="path2972"
       style="fill-rule:evenodd;fill:#000000;fill-opacity:.15686"
       d="m66.821 98.798v2.622l11 8.63-0.312-3.13-10.688-8.122z" />
    <path
       id="path2974"
       style="fill-rule:evenodd;fill:url(#linearGradient2976)"
       d="m66.509 104.24l0.125 2.5 11.937 9.06-0.062-2.06-12-9.5z" />
    <path
       id="path2978"
       style="fill-rule:evenodd;fill:#000000;fill-opacity:.15686"
       d="m66.509 104.24l0.125 2.5 11.937 9.06-0.062-2.06-12-9.5z" />
    <path
       id="path2980"
       style="fill-rule:evenodd;fill:url(#linearGradient2982)"
       d="m78.634 113.61l32.626-16.187 0.44 0.25 0.18 2.187-33.184 15.94-0.062-2.19z" />
    <path
       id="path2984"
       style="fill-rule:evenodd;fill:url(#linearGradient2986)"
       d="m77.571 110.17l29.749-13.872-0.06-1.688-0.63-0.75-29.184 13.69 0.125 2.62z" />
    <path
       id="path2988"
       sodipodi:nodetypes="cccccc"
       style="fill-rule:evenodd;fill:url(#linearGradient2990)"
       d="m94.759 85.235l26.121-12.187 0.38 0.312 0.06 1.938-24.624 11.625-1.937-1.688z" />
    <path
       id="path2992"
       style="fill-rule:evenodd;fill:url(#linearGradient2994)"
       d="m101.2 90.235l26.43-12.625-0.25-2.562s0-0.313-0.25-0.313-28.184 13.5-28.184 13.5l2.254 2z" />
    <path
       id="path2996"
       sodipodi:nodetypes="cccccccccc"
       style="fill-rule:evenodd;fill:#ffffff;fill-opacity:.12549"
       d="m3.3882 89.193l24.165-11.186 64.286-24.284 35.301 21.001-28.23 13.574 12.66 9.086-33.122 16.226-12.026-9.48-26.638 12.8-36.396-27.737z" />
    <path
       id="path2998"
       style="fill-rule:evenodd;fill:url(#linearGradient3000)"
       d="m9.0736 86.63l31.643 24.75 26.074-12.64 10.784 8.48 29.075-13.43-11.751-8.574 26.161-12.197-18.29-10.695-76.549 16.44-17.147 7.866z" />
    <path
       id="path3002"
       style="fill-rule:evenodd;fill:#000000;fill-opacity:.15686"
       d="m9.0736 86.63l31.643 24.75 26.074-12.64 10.784 8.48 29.075-13.43-11.751-8.574 26.161-12.197-18.29-10.695-76.549 16.44-17.147 7.866z" />
    <g
       id="g3080"
       transform="translate(-24.51 -19.287)">
      <path
         id="path3082"
         style="fill:url(#linearGradient3036);fill-rule:evenodd"
         d="m38.375 102.38l-0.187-5.442-0.313-8.25 0.187-4.25 0.438-2.188 1.812 0.312 3.313-0.312 0.063 3.438 0.187 4-0.063 6.624-0.062 3.938-0.25 2.19-0.938 0.5-1.937 0.56-1.125-0.19-1.125-0.93z" />
      <path
         id="path3084"
         sodipodi:nodetypes="cccccccccccccc"
         style="fill:url(#linearGradient3038);fill-rule:evenodd"
         d="m38.375 102.44l-2.875 2.37 2.812 1.31 2.063 0.32 1.625-0.06 1.625-0.38 1.75-0.75 0.912-0.78-2.662-1.91-0.937 0.5-0.938 0.32-1.75 0.12-0.875-0.44-0.75-0.62z" />
      <path
         id="path3086"
         style="fill:url(#linearGradient3040);fill-rule:evenodd"
         d="m35.488 104.84v1.99l1.458 0.8 2.298 0.7 2.254 0.14 2.298-0.4 1.238-0.27 1.414-0.75-0.044-2.52-1.061 0.62-1.502 0.66-1.326 0.45-1.68 0.13-1.591-0.18-2.077-0.53-1.679-0.84z" />
      <path
         id="path3088"
         style="fill:url(#linearGradient3042);fill-rule:evenodd"
         d="m35.532 79.563v1.68l1.856 0.707 1.724 0.53 1.502 0.088 1.768-0.132 1.945-0.486 1.9-1.017 0.133-1.856-10.828 0.486z" />
    </g>
    <g
       id="g3062"
       transform="translate(-18.077 -14.244)">
      <path
         id="path3064"
         style="fill:url(#linearGradient3036);fill-rule:evenodd"
         d="m38.375 102.38l-0.187-5.442-0.313-8.25 0.187-4.25 0.438-2.188 1.812 0.312 3.313-0.312 0.063 3.438 0.187 4-0.063 6.624-0.062 3.938-0.25 2.19-0.938 0.5-1.937 0.56-1.125-0.19-1.125-0.93z" />
      <path
         id="path3066"
         sodipodi:nodetypes="cccccccccccccc"
         style="fill:url(#linearGradient3038);fill-rule:evenodd"
         d="m38.375 102.44l-2.875 2.37 2.812 1.31 2.063 0.32 1.625-0.06 1.625-0.38 1.75-0.75 0.912-0.78-2.662-1.91-0.937 0.5-0.938 0.32-1.75 0.12-0.875-0.44-0.75-0.62z" />
      <path
         id="path3068"
         style="fill:url(#linearGradient3040);fill-rule:evenodd"
         d="m35.488 104.84v1.99l1.458 0.8 2.298 0.7 2.254 0.14 2.298-0.4 1.238-0.27 1.414-0.75-0.044-2.52-1.061 0.62-1.502 0.66-1.326 0.45-1.68 0.13-1.591-0.18-2.077-0.53-1.679-0.84z" />
      <path
         id="path3070"
         style="fill:url(#linearGradient3042);fill-rule:evenodd"
         d="m35.532 79.563v1.68l1.856 0.707 1.724 0.53 1.502 0.088 1.768-0.132 1.945-0.486 1.9-1.017 0.133-1.856-10.828 0.486z" />
    </g>
    <g
       id="g3044"
       transform="translate(-11.762 -9.7558)">
      <path
         id="path3046"
         style="fill:url(#linearGradient3036);fill-rule:evenodd"
         d="m38.375 102.38l-0.187-5.442-0.313-8.25 0.187-4.25 0.438-2.188 1.812 0.312 3.313-0.312 0.063 3.438 0.187 4-0.063 6.624-0.062 3.938-0.25 2.19-0.938 0.5-1.937 0.56-1.125-0.19-1.125-0.93z" />
      <path
         id="path3048"
         sodipodi:nodetypes="cccccccccccccc"
         style="fill:url(#linearGradient3038);fill-rule:evenodd"
         d="m38.375 102.44l-2.875 2.37 2.812 1.31 2.063 0.32 1.625-0.06 1.625-0.38 1.75-0.75 0.912-0.78-2.662-1.91-0.937 0.5-0.938 0.32-1.75 0.12-0.875-0.44-0.75-0.62z" />
      <path
         id="path3050"
         style="fill:url(#linearGradient3040);fill-rule:evenodd"
         d="m35.488 104.84v1.99l1.458 0.8 2.298 0.7 2.254 0.14 2.298-0.4 1.238-0.27 1.414-0.75-0.044-2.52-1.061 0.62-1.502 0.66-1.326 0.45-1.68 0.13-1.591-0.18-2.077-0.53-1.679-0.84z" />
      <path
         id="path3052"
         style="fill:url(#linearGradient3042);fill-rule:evenodd"
         d="m35.532 79.563v1.68l1.856 0.707 1.724 0.53 1.502 0.088 1.768-0.132 1.945-0.486 1.9-1.017 0.133-1.856-10.828 0.486z" />
    </g>
    <g
       id="g3026"
       transform="translate(-5.3678 -4.9503)">
      <path
         id="path3028"
         style="fill-rule:evenodd;fill:url(#linearGradient3036)"
         d="m38.375 102.38l-0.187-5.442-0.313-8.25 0.187-4.25 0.438-2.188 1.812 0.312 3.313-0.312 0.063 3.438 0.187 4-0.063 6.624-0.062 3.938-0.25 2.19-0.938 0.5-1.937 0.56-1.125-0.19-1.125-0.93z" />
      <path
         id="path3030"
         sodipodi:nodetypes="cccccccccccccc"
         style="fill-rule:evenodd;fill:url(#linearGradient3038)"
         d="m38.375 102.44l-2.875 2.37 2.812 1.31 2.063 0.32 1.625-0.06 1.625-0.38 1.75-0.75 0.912-0.78-2.662-1.91-0.937 0.5-0.938 0.32-1.75 0.12-0.875-0.44-0.75-0.62z" />
      <path
         id="path3032"
         style="fill-rule:evenodd;fill:url(#linearGradient3040)"
         d="m35.488 104.84v1.99l1.458 0.8 2.298 0.7 2.254 0.14 2.298-0.4 1.238-0.27 1.414-0.75-0.044-2.52-1.061 0.62-1.502 0.66-1.326 0.45-1.68 0.13-1.591-0.18-2.077-0.53-1.679-0.84z" />
      <path
         id="path3034"
         style="fill-rule:evenodd;fill:url(#linearGradient3042)"
         d="m35.532 79.563v1.68l1.856 0.707 1.724 0.53 1.502 0.088 1.768-0.132 1.945-0.486 1.9-1.017 0.133-1.856-10.828 0.486z" />
    </g>
    <g
       id="g3020"
       transform="translate(1.3838 .17297)">
      <path
         id="path3004"
         style="fill:url(#linearGradient3036);fill-rule:evenodd"
         d="m38.375 102.38l-0.187-5.442-0.313-8.25 0.187-4.25 0.438-2.188 1.812 0.312 3.313-0.312 0.063 3.438 0.187 4-0.063 6.624-0.062 3.938-0.25 2.19-0.938 0.5-1.937 0.56-1.125-0.19-1.125-0.93z" />
      <path
         id="path3008"
         sodipodi:nodetypes="cccccccccccccc"
         style="fill:url(#linearGradient3038);fill-rule:evenodd"
         d="m38.375 102.44l-2.875 2.37 2.812 1.31 2.063 0.32 1.625-0.06 1.625-0.38 1.75-0.75 0.912-0.78-2.662-1.91-0.937 0.5-0.938 0.32-1.75 0.12-0.875-0.44-0.75-0.62z" />
      <path
         id="path3012"
         style="fill:url(#linearGradient3040);fill-rule:evenodd"
         d="m35.488 104.84v1.99l1.458 0.8 2.298 0.7 2.254 0.14 2.298-0.4 1.238-0.27 1.414-0.75-0.044-2.52-1.061 0.62-1.502 0.66-1.326 0.45-1.68 0.13-1.591-0.18-2.077-0.53-1.679-0.84z" />
      <path
         id="path3016"
         style="fill:url(#linearGradient3042);fill-rule:evenodd"
         d="m35.532 79.563v1.68l1.856 0.707 1.724 0.53 1.502 0.088 1.768-0.132 1.945-0.486 1.9-1.017 0.133-1.856-10.828 0.486z" />
    </g>
    <g
       id="g3098"
       transform="translate(10.28 -4.1957)">
      <path
         id="path3100"
         style="fill:url(#linearGradient3036);fill-rule:evenodd"
         d="m38.375 102.38l-0.187-5.442-0.313-8.25 0.187-4.25 0.438-2.188 1.812 0.312 3.313-0.312 0.063 3.438 0.187 4-0.063 6.624-0.062 3.938-0.25 2.19-0.938 0.5-1.937 0.56-1.125-0.19-1.125-0.93z" />
      <path
         id="path3102"
         sodipodi:nodetypes="cccccccccccccc"
         style="fill:url(#linearGradient3038);fill-rule:evenodd"
         d="m38.375 102.44l-2.875 2.37 2.812 1.31 2.063 0.32 1.625-0.06 1.625-0.38 1.75-0.75 0.912-0.78-2.662-1.91-0.937 0.5-0.938 0.32-1.75 0.12-0.875-0.44-0.75-0.62z" />
      <path
         id="path3104"
         style="fill:url(#linearGradient3040);fill-rule:evenodd"
         d="m35.488 104.84v1.99l1.458 0.8 2.298 0.7 2.254 0.14 2.298-0.4 1.238-0.27 1.414-0.75-0.044-2.52-1.061 0.62-1.502 0.66-1.326 0.45-1.68 0.13-1.591-0.18-2.077-0.53-1.679-0.84z" />
      <path
         id="path3106"
         style="fill:url(#linearGradient3042);fill-rule:evenodd"
         d="m35.532 79.563v1.68l1.856 0.707 1.724 0.53 1.502 0.088 1.768-0.132 1.945-0.486 1.9-1.017 0.133-1.856-10.828 0.486z" />
    </g>
    <g
       id="g3116"
       transform="translate(19.136 -8.326)">
      <path
         id="path3118"
         style="fill:url(#linearGradient3036);fill-rule:evenodd"
         d="m38.375 102.38l-0.187-5.442-0.313-8.25 0.187-4.25 0.438-2.188 1.812 0.312 3.313-0.312 0.063 3.438 0.187 4-0.063 6.624-0.062 3.938-0.25 2.19-0.938 0.5-1.937 0.56-1.125-0.19-1.125-0.93z" />
      <path
         id="path3120"
         sodipodi:nodetypes="cccccccccccccc"
         style="fill:url(#linearGradient3038);fill-rule:evenodd"
         d="m38.375 102.44l-2.875 2.37 2.812 1.31 2.063 0.32 1.625-0.06 1.625-0.38 1.75-0.75 0.912-0.78-2.662-1.91-0.937 0.5-0.938 0.32-1.75 0.12-0.875-0.44-0.75-0.62z" />
      <path
         id="path3122"
         style="fill:url(#linearGradient3040);fill-rule:evenodd"
         d="m35.488 104.84v1.99l1.458 0.8 2.298 0.7 2.254 0.14 2.298-0.4 1.238-0.27 1.414-0.75-0.044-2.52-1.061 0.62-1.502 0.66-1.326 0.45-1.68 0.13-1.591-0.18-2.077-0.53-1.679-0.84z" />
      <path
         id="path3124"
         style="fill:url(#linearGradient3042);fill-rule:evenodd"
         d="m35.532 79.563v1.68l1.856 0.707 1.724 0.53 1.502 0.088 1.768-0.132 1.945-0.486 1.9-1.017 0.133-1.856-10.828 0.486z" />
    </g>
    <g
       id="g3134"
       transform="translate(32.004 -8.326)">
      <path
         id="path3136"
         style="fill:url(#linearGradient3036);fill-rule:evenodd"
         d="m38.375 102.38l-0.187-5.442-0.313-8.25 0.187-4.25 0.438-2.188 1.812 0.312 3.313-0.312 0.063 3.438 0.187 4-0.063 6.624-0.062 3.938-0.25 2.19-0.938 0.5-1.937 0.56-1.125-0.19-1.125-0.93z" />
      <path
         id="path3138"
         sodipodi:nodetypes="cccccccccccccc"
         style="fill:url(#linearGradient3038);fill-rule:evenodd"
         d="m38.375 102.44l-2.875 2.37 2.812 1.31 2.063 0.32 1.625-0.06 1.625-0.38 1.75-0.75 0.912-0.78-2.662-1.91-0.937 0.5-0.938 0.32-1.75 0.12-0.875-0.44-0.75-0.62z" />
      <path
         id="path3140"
         style="fill:url(#linearGradient3040);fill-rule:evenodd"
         d="m35.488 104.84v1.99l1.458 0.8 2.298 0.7 2.254 0.14 2.298-0.4 1.238-0.27 1.414-0.75-0.044-2.52-1.061 0.62-1.502 0.66-1.326 0.45-1.68 0.13-1.591-0.18-2.077-0.53-1.679-0.84z" />
      <path
         id="path3142"
         style="fill:url(#linearGradient3042);fill-rule:evenodd"
         d="m35.532 79.563v1.68l1.856 0.707 1.724 0.53 1.502 0.088 1.768-0.132 1.945-0.486 1.9-1.017 0.133-1.856-10.828 0.486z" />
    </g>
    <g
       id="g3152"
       transform="translate(38.358 -3.6)">
      <path
         id="path3154"
         style="fill:url(#linearGradient3036);fill-rule:evenodd"
         d="m38.375 102.38l-0.187-5.442-0.313-8.25 0.187-4.25 0.438-2.188 1.812 0.312 3.313-0.312 0.063 3.438 0.187 4-0.063 6.624-0.062 3.938-0.25 2.19-0.938 0.5-1.937 0.56-1.125-0.19-1.125-0.93z" />
      <path
         id="path3156"
         sodipodi:nodetypes="cccccccccccccc"
         style="fill:url(#linearGradient3038);fill-rule:evenodd"
         d="m38.375 102.44l-2.875 2.37 2.812 1.31 2.063 0.32 1.625-0.06 1.625-0.38 1.75-0.75 0.912-0.78-2.662-1.91-0.937 0.5-0.938 0.32-1.75 0.12-0.875-0.44-0.75-0.62z" />
      <path
         id="path3158"
         style="fill:url(#linearGradient3040);fill-rule:evenodd"
         d="m35.488 104.84v1.99l1.458 0.8 2.298 0.7 2.254 0.14 2.298-0.4 1.238-0.27 1.414-0.75-0.044-2.52-1.061 0.62-1.502 0.66-1.326 0.45-1.68 0.13-1.591-0.18-2.077-0.53-1.679-0.84z" />
      <path
         id="path3160"
         style="fill:url(#linearGradient3042);fill-rule:evenodd"
         d="m35.532 79.563v1.68l1.856 0.707 1.724 0.53 1.502 0.088 1.768-0.132 1.945-0.486 1.9-1.017 0.133-1.856-10.828 0.486z" />
    </g>
    <g
       id="g3170"
       transform="translate(53.331 -25.086)">
      <path
         id="path3174"
         sodipodi:nodetypes="cccccccccccccc"
         style="fill:url(#linearGradient3038);fill-rule:evenodd"
         d="m38.375 102.44l-2.875 2.37 2.812 1.31 2.063 0.32 1.625-0.06 1.625-0.38 1.75-0.75 0.912-0.78-2.662-1.91-0.937 0.5-0.938 0.32-1.75 0.12-0.875-0.44-0.75-0.62z" />
      <path
         id="path3176"
         style="fill:url(#linearGradient3040);fill-rule:evenodd"
         d="m35.488 104.84v1.99l1.458 0.8 2.298 0.7 2.254 0.14 2.298-0.4 1.238-0.27 1.414-0.75-0.044-2.52-1.061 0.62-1.502 0.66-1.326 0.45-1.68 0.13-1.591-0.18-2.077-0.53-1.679-0.84z" />
    </g>
    <g
       id="g3188"
       transform="translate(51.107 -17.143)">
      <path
         id="path3190"
         style="fill:url(#linearGradient3036);fill-rule:evenodd"
         d="m38.375 102.38l-0.187-5.442-0.313-8.25 0.187-4.25 0.438-2.188 1.812 0.312 3.313-0.312 0.063 3.438 0.187 4-0.063 6.624-0.062 3.938-0.25 2.19-0.938 0.5-1.937 0.56-1.125-0.19-1.125-0.93z" />
      <path
         id="path3192"
         sodipodi:nodetypes="cccccccccccccc"
         style="fill:url(#linearGradient3038);fill-rule:evenodd"
         d="m38.375 102.44l-2.875 2.37 2.812 1.31 2.063 0.32 1.625-0.06 1.625-0.38 1.75-0.75 0.912-0.78-2.662-1.91-0.937 0.5-0.938 0.32-1.75 0.12-0.875-0.44-0.75-0.62z" />
      <path
         id="path3194"
         style="fill:url(#linearGradient3040);fill-rule:evenodd"
         d="m35.488 104.84v1.99l1.458 0.8 2.298 0.7 2.254 0.14 2.298-0.4 1.238-0.27 1.414-0.75-0.044-2.52-1.061 0.62-1.502 0.66-1.326 0.45-1.68 0.13-1.591-0.18-2.077-0.53-1.679-0.84z" />
    </g>
    <g
       id="g3329"
       transform="translate(1.3838 .17297)">
      <path
         id="path3262"
         style="fill-rule:evenodd;fill:url(#linearGradient3366)"
         d="m99.973 63.891l-0.187-5.437-0.313-8.25 0.188-4.25 0.439-2.188 1.81 0.313 3.31-0.313 0.07 3.438 0.18 4-0.06 6.625-0.06 3.937-0.25 2.188-0.94 0.5-1.94 0.562-1.12-0.187-1.127-0.938z" />
      <path
         id="path3264"
         sodipodi:nodetypes="cccccccccccccc"
         style="fill-rule:evenodd;fill:url(#linearGradient3368)"
         d="m99.973 63.954l-2.875 2.375 2.813 1.312 2.059 0.313 1.63-0.063 1.62-0.375 1.75-0.75 0.91-0.776-2.66-1.911-0.93 0.5-0.94 0.312-1.75 0.125-0.88-0.437-0.747-0.625z" />
      <path
         id="path3266"
         style="fill-rule:evenodd;fill:url(#linearGradient3370)"
         d="m97.086 66.358v1.989l1.458 0.796 2.296 0.707 2.26 0.132 2.29-0.397 1.24-0.266 1.42-0.751-0.05-2.519-1.06 0.619-1.5 0.663-1.33 0.442-1.68 0.132-1.59-0.177-2.075-0.53-1.679-0.84z" />
    </g>
    <g
       id="g3242"
       transform="translate(62.426 -29.415)">
      <path
         id="path3244"
         style="fill:url(#linearGradient3036);fill-rule:evenodd"
         d="m38.375 102.38l-0.187-5.442-0.313-8.25 0.187-4.25 0.438-2.188 1.812 0.312 3.313-0.312 0.063 3.438 0.187 4-0.063 6.624-0.062 3.938-0.25 2.19-0.938 0.5-1.937 0.56-1.125-0.19-1.125-0.93z" />
      <path
         id="path3246"
         sodipodi:nodetypes="cccccccccccccc"
         style="fill:url(#linearGradient3038);fill-rule:evenodd"
         d="m38.375 102.44l-2.875 2.37 2.812 1.31 2.063 0.32 1.625-0.06 1.625-0.38 1.75-0.75 0.912-0.78-2.662-1.91-0.937 0.5-0.938 0.32-1.75 0.12-0.875-0.44-0.75-0.62z" />
      <path
         id="path3248"
         style="fill:url(#linearGradient3040);fill-rule:evenodd"
         d="m35.488 104.84v1.99l1.458 0.8 2.298 0.7 2.254 0.14 2.298-0.4 1.238-0.27 1.414-0.75-0.044-2.52-1.061 0.62-1.502 0.66-1.326 0.45-1.68 0.13-1.591-0.18-2.077-0.53-1.679-0.84z" />
      <path
         id="path3250"
         style="fill:url(#linearGradient3042);fill-rule:evenodd"
         d="m35.532 79.563v1.68l1.856 0.707 1.724 0.53 1.502 0.088 1.768-0.132 1.945-0.486 1.9-1.017 0.133-1.856-10.828 0.486z" />
    </g>
    <g
       id="g3206"
       transform="translate(57.461 -12.536)">
      <path
         id="path3208"
         style="fill:url(#linearGradient3036);fill-rule:evenodd"
         d="m38.375 102.38l-0.187-5.442-0.313-8.25 0.187-4.25 0.438-2.188 1.812 0.312 3.313-0.312 0.063 3.438 0.187 4-0.063 6.624-0.062 3.938-0.25 2.19-0.938 0.5-1.937 0.56-1.125-0.19-1.125-0.93z" />
      <path
         id="path3210"
         sodipodi:nodetypes="cccccccccccccc"
         style="fill:url(#linearGradient3038);fill-rule:evenodd"
         d="m38.375 102.44l-2.875 2.37 2.812 1.31 2.063 0.32 1.625-0.06 1.625-0.38 1.75-0.75 0.912-0.78-2.662-1.91-0.937 0.5-0.938 0.32-1.75 0.12-0.875-0.44-0.75-0.62z" />
      <path
         id="path3212"
         style="fill:url(#linearGradient3040);fill-rule:evenodd"
         d="m35.488 104.84v1.99l1.458 0.8 2.298 0.7 2.254 0.14 2.298-0.4 1.238-0.27 1.414-0.75-0.044-2.52-1.061 0.62-1.502 0.66-1.326 0.45-1.68 0.13-1.591-0.18-2.077-0.53-1.679-0.84z" />
      <path
         id="path3214"
         style="fill:url(#linearGradient3042);fill-rule:evenodd"
         d="m35.532 79.563v1.68l1.856 0.707 1.724 0.53 1.502 0.088 1.768-0.132 1.945-0.486 1.9-1.017 0.133-1.856-10.828 0.486z" />
    </g>
    <path
       id="path3278"
       style="fill-rule:evenodd;fill:url(#linearGradient3318)"
       d="m8.1338 50.735l7.3752 5.25 25.437 19.438-0.25 7-32.5-24.688-0.0622-7z" />
    <path
       id="path3282"
       style="fill-rule:evenodd;fill:#000000;fill-opacity:.15686"
       d="m8.1338 50.735l7.3752 5.25 25.437 19.438-0.25 7-32.5-24.688-0.0622-7z" />
    <path
       id="path3284"
       style="fill-rule:evenodd;fill:url(#linearGradient3314)"
       d="m8.3838 50.61l28.25-13.187 30.687 25.375-26.312 12.5-32.625-24.688z" />
    <path
       id="path3288"
       style="fill-rule:evenodd;fill:url(#linearGradient3311)"
       d="m40.634 82.735l0.25-7.25 25.937-12.437-0.187 7.187-26 12.5z" />
    <path
       id="path3292"
       style="fill-rule:evenodd;fill:url(#linearGradient3308)"
       d="m66.884 62.798l-0.25 1.687-0.063 5.813 11 8.437-0.125-7.375-10.562-8.562z" />
    <path
       id="path3296"
       style="fill-rule:evenodd;fill:#000000;fill-opacity:.15686"
       d="m66.884 62.798l-0.25 1.687-0.063 5.813 11 8.437-0.125-7.375-10.562-8.562z" />
    <path
       id="path3298"
       style="fill-rule:evenodd;fill:#000000;fill-opacity:.15686"
       d="m42.446 79.36l-0.062-3.25 22.562-10.75 0.063 3.688-21.813 10.812-0.75-0.5z" />
    <path
       id="path3300"
       style="fill-rule:evenodd;fill:url(#linearGradient3334)"
       d="m77.259 71.298l27.371-12.313 0.69 6.938-27.686 12.875-0.375-7.5z" />
    <g
       id="g3224"
       transform="translate(71.6 -33.625)">
      <path
         id="path3226"
         style="fill:url(#linearGradient3036);fill-rule:evenodd"
         d="m38.375 102.38l-0.187-5.442-0.313-8.25 0.187-4.25 0.438-2.188 1.812 0.312 3.313-0.312 0.063 3.438 0.187 4-0.063 6.624-0.062 3.938-0.25 2.19-0.938 0.5-1.937 0.56-1.125-0.19-1.125-0.93z" />
      <path
         id="path3228"
         sodipodi:nodetypes="cccccccccccccc"
         style="fill:url(#linearGradient3038);fill-rule:evenodd"
         d="m38.375 102.44l-2.875 2.37 2.812 1.31 2.063 0.32 1.625-0.06 1.625-0.38 1.75-0.75 0.912-0.78-2.662-1.91-0.937 0.5-0.938 0.32-1.75 0.12-0.875-0.44-0.75-0.62z" />
      <path
         id="path3230"
         style="fill:url(#linearGradient3040);fill-rule:evenodd"
         d="m35.488 104.84v1.99l1.458 0.8 2.298 0.7 2.254 0.14 2.298-0.4 1.238-0.27 1.414-0.75-0.044-2.52-1.061 0.62-1.502 0.66-1.326 0.45-1.68 0.13-1.591-0.18-2.077-0.53-1.679-0.84z" />
      <path
         id="path3232"
         style="fill:url(#linearGradient3042);fill-rule:evenodd"
         d="m35.532 79.563v1.68l1.856 0.707 1.724 0.53 1.502 0.088 1.768-0.132 1.945-0.486 1.9-1.017 0.133-1.856-10.828 0.486z" />
    </g>
    <path
       id="path3336"
       style="fill-rule:evenodd;fill:#000000;fill-opacity:.15686"
       d="m78.892 72.176s0 3.707 0.225 3.707 23.533-10.447 23.533-10.447l-0.06-3.875-23.698 10.615z" />
    <path
       id="path3338"
       style="fill-rule:evenodd;fill:url(#linearGradient3340)"
       d="m77.432 71.221l27.188-12.244-14.438-6.515-12.75 18.759z" />
    <path
       id="path3342"
       style="fill-rule:evenodd;fill:#000000;fill-opacity:.15686"
       d="m80.97 68.076l9.605-13.311 10.895 4.268-20.5 9.043z" />
    <path
       id="path3344"
       style="fill-rule:evenodd;fill:url(#linearGradient3346)"
       d="m99.449 54.821l-5.954-4.943 25.215-11.57 0.45 0.225v6.796l-19.711 9.492z" />
    <path
       id="path3348"
       sodipodi:nodetypes="ccccc"
       style="fill-rule:evenodd;fill:#000000;fill-opacity:.15686"
       d="m95.012 51.17l22.238-10.11 0.23 3.426-19.211 9.324-3.257-2.64z" />
    <path
       id="path3352"
       style="fill-rule:evenodd;fill:url(#linearGradient3354)"
       d="m36.333 37.305l17.236-15.489 36.459 30.66-12.63 18.825-26.37-21.843-14.695-12.153z" />
    <path
       id="path3356"
       style="fill-rule:evenodd;fill:#000000;fill-opacity:.15686"
       d="m36.333 37.305l17.236-15.489 36.459 30.66-12.63 18.825-26.37-21.843-14.695-12.153z" />
    <path
       id="path3358"
       style="fill-rule:evenodd;fill:url(#linearGradient3360)"
       d="m53.728 22.054l8.976 2.86 41.546 33.758-14.381-6.196-36.141-30.422z" />
    <path
       id="path3362"
       style="fill-rule:evenodd;fill:url(#linearGradient3364)"
       d="m62.783 24.914l23.114-10.008 32.883 23.193-25.337 11.994-30.66-25.179z" />
  </g>
  <g
     id="layer1"
     inkscape:label="outline"
     inkscape:groupmode="layer">
    <path
       id="path2308"
       sodipodi:nodetypes="cccccccccccccccccccccccccccccccccccccccccccccccccccccccccccccccccccccccccccccccccccccccccccsccccccccccccccccccccccccccccccccccccsccccccccccccccccccccccccccccccccccccccccccccccccccccccccccccccccccccccccccccccccccscccccccccccccccccccccccccccccccccccccccccccccccccccccccccccccccccccccccsccccccccccccccccccccccccccccccccccccccccccccccccccccccccccccccccccccccccccccccccccccccccscccscccccccccccccccccccccccccccccccccccccccccccccccscccccccccccccccccccccccccccccccccccccccccccccccscccccccccccccccsccccccccccccccscccsccccccccccccccccccccccccscccccccccccccccccccccccccccccccccccccccccccccccccccccccccccccccccccccccccccccccccccccccccccccccccccccccccccccccccccccccccccccccccccccccccccccccccccccccccccccccccccccccccccccccccccccccccccccc"
       style="fill:#000000;fill-rule:evenodd"
       d="M 85.915,14.735 62.853,24.86 53.446,21.673 36.415,37.329 36.384,37.36 8.009,50.673 l 0.156,7.156 2.781,2.156 v 1.907 c 0.749,0.243 1.703,0.66 2.813,0.968 -1.046,6.555 -0.157,13.017 0.031,19.907 l -2.875,2.531 v 0.125 l -7.75,3.625 0.0313,2.781 36.532,27.591 26.781,-12.53 11.969,9.13 33.472,-16.035 -0.03,-2.375 -7.75,-5.75 -2.72,-1.687 26.28,-12.594 -0.1,-2.625 -12.34,-7.375 c 0.3,-7.541 0.32,-12.939 -0.03,-18.937 0.88,-0.279 1.83,-0.688 2.81,-1.313 v -1.25 l 1.28,-0.594 -0.03,-7.125 -33.405,-23.625 z m 32.255,23.188 0.54,0.385 L 93.509,49.798 63.04,25.079 85.81102,15.045992 c 0,0 21.62013,15.253127 32.35898,22.877008 z M 53.470531,22.183569 71.634,37.298 l 1.094,1 16.812,14 0.211028,0.318966 L 77.915,70.204 77.259,71.048 37.259,37.767 36.79,37.392 52.978,22.704 Z M 55.165,22.579 l 7.5,2.531 40.595,33.188 -13.032,-5.781 -0.469,-0.344 -17.844,-15 -18.0002,-15.032153 z m -18.875,15.156 0.438,0.063 30.062,25 L 41.353,74.985 40.915,75.142 8.7670853,50.769511 8.8525,50.735 l 27.438,-13 z m 82.66,0.75 0.09,6.657 -19.687,9.468 -0.969,-0.718 19.186,-9.313 -0.19,-3.687 -22.371,10.156 -1.156,-1.156 z m -2.25,2.969 0.462,-0.198038 0.098,3.073038 -7,3.438 v 0 l -1,0.468 -11.064,5.407 -2.875,-2.438 z m 1,4.813 v 0.843 c -1.58,1.238 -3.4,1.664 -5.32,1.688 z m -2.69,2.468 c 0.63,9.766 0.09,15.191 -0.06,20.032 -1.08,1.09 -3.97,1.51 -4.88,0.031 -0.35,-6.635 -1,-12.825 -0.12,-18.844 l 1.9,-0.906 c 0.52,0.03 1.05,0.033 1.63,-0.031 0.49,-0.055 1,-0.129 1.53,-0.282 z m -5.44,1.407 c -0.55,4.646 -0.23,9.254 0.03,14.031 l -2.97,-1.781 c 0.15,-3.701 0.24,-6.966 0.22,-9.969 0.66,-0.257 1.33,-0.554 2.03,-1 v -0.969 z m -1.06,0.5 v 0.562 c -1.39,1.085 -2.97,1.511 -4.63,1.625 z M 8.3294943,51.002437 40.696,75.454 40.478,81.392 40.441637,82.137197 8.384,57.517 C 8.452143,55.410758 8.329494,51.002437 8.3294943,51.002437 Z M 106.63,52.517 c 0.02,3.912 -0.15,6.871 -0.28,9.593 0,-3.217 -0.09,-6.207 -0.28,-9.375 0.18,-0.057 0.38,-0.15 0.56,-0.218 z m -16.652,0.281 14.282,6.156 -26.407,11.938 z m 15.842,0.031 c 0.64,9.765 0.09,15.191 -0.06,20.031 -0.92,0.926 -3.14,1.357 -4.34,0.563 -0.05,-1.201 -0.09,-2.392 -0.16,-3.625 0.88,-0.278 1.83,-0.688 2.81,-1.313 V 66.61 l 1.41,-0.656 -0.6,-7 -4.34,-3.375 c 0.05,-0.407 0.1,-0.813 0.16,-1.219 l 2.56,-1.218 c 0.33,0.005 0.67,0.009 1.03,-0.032 0.49,-0.054 1,-0.128 1.53,-0.281 z m -15.374,1.688 -9.343,13.187 -0.625,0.844 0.906,-0.406 20.436,-9.125 -10.999,-4.344 z m 9.874,0 c -0.03,0.281 -0.04,0.563 -0.06,0.843 l -0.25,-0.218 v -0.469 z m -9.53,0.406 9.88,4.125 L 81.7619,67.576045 82.228,66.954 90.575,54.765 Z m 13.78,4.312 0.66,6.563 -27.409,12.625 -0.187,-7.063 z m -93.342,0.969 c 0.016,0.011 0.045,0.02 0.062,0.031 l 3.281,2.532 c -1.088,-0.213 -2.215,-0.595 -3.343,-1.219 z m 91.442,1.281 -23.786,10.625 0.156,3.875 23.91,-10.468 z m -0.16,0.594 0.19,3.063 L 79.265969,75.661015 79.259,75.36 79.071,72.267 102.45407,61.836972 Z m 4.12,0.625 2.97,1.844 c 0.03,0.535 0.04,1.085 0.07,1.625 l -2.85,-1.719 -0.25,-0.187 c 0.03,-0.568 0.04,-1.02 0.06,-1.563 z m -39.715,0.156 9.813,8.188 0.375,0.312 0.062,0.063 0.188,6.719 -10.594,-8.125 z m -52.812,0.094 c 0.297,0.074 0.616,0.142 0.937,0.188 l 2.281,1.75 0.032,2.125 c 0.519,0.168 1.175,0.414 1.875,0.656 0.215,6.838 -0.158,11.277 -0.282,15.25 -1.079,1.09 -3.971,1.51 -4.875,0.031 -0.374,-7.058 -1.12,-13.62 0.032,-20 z m 52.343,0.344 0.032,6.75 -25.563,12.219 0.063,-6.657 z m 39.904,1.25 h 0.03 l 1.13,0.687 1.62,1.063 c -0.97,0.678 -1.95,1.116 -2.9,1.406 0.03,-1.08 0.08,-2.087 0.09,-3.094 0.02,-0.013 0.02,-0.045 0.03,-0.062 z m -41.372,0.594 -22.563,10.906 -0.125,3.469 0.0086,0.850184 C 42.535077,80.218997 42.792386,80.111549 43.04,79.985 L 65.196,69.142 Z m -47.344,0.187 c 0.193,0.135 0.428,0.254 0.719,0.375 0.019,0.008 0.043,0.024 0.062,0.031 l 2.938,2.25 c -1.205,-0.197 -2.456,-0.614 -3.719,-1.312 z m 47.125,0.25 0.132106,3.309611 C 55.403496,73.608579 50.221401,76.14856 42.583969,79.915955 L 42.571,79.048 42.54,76.267 Z m 44.561,0.719 0.38,0.219 c 0.03,0.697 0.07,1.388 0.09,2.093 l -0.37,0.313 -2.5,2.219 v 2.093 c 2.15,1.565 6.33,2.777 11.15,0.25 l -0.03,-1.968 2.66,1.531 -19.19,8.781 c 0.01,-0.995 0.03,-2.024 0.03,-2.969 2.08,0.356 4.6,0.155 7.34,-1.281 l -0.06,-2.656 -2.75,-2.031 c 0.04,-1.002 0.06,-1.852 0.1,-2.782 1.03,-0.222 2.12,-0.597 3.25,-1.187 z m -0.19,0.219 0.1,2.25 c -0.91,0.545 -1.96,0.943 -3.06,1.156 0.02,-0.655 0.04,-1.345 0.06,-1.969 1.17,-0.319 2.19,-0.812 2.9,-1.437 z m -5.43,0.531 v 1.219 c -1.78,1.396 -3.878,1.77 -6.066,1.687 -0.197,-0.018 -0.395,-0.06 -0.594,-0.094 l 4,-1.843 c 0.92,-0.202 1.82,-0.493 2.66,-0.969 z m -84.222,0.719 c 0.232,0.077 0.439,0.149 0.687,0.218 -0.701,4.394 -0.526,8.751 -0.281,13.219 l -0.563,0.25 c 0.21,-5.294 0.269,-9.555 0.157,-13.687 z m 95.812,0.25 11.44,6.687 -25.35,12.156 c 0.03,-0.62 0.05,-1.281 0.07,-1.875 l 20.03,-9.531 -0.19,-2.281 -3.28,-1.969 v -0.375 l -2.75,-2.031 c 0.01,-0.281 0.02,-0.506 0.03,-0.781 z m -94.781,0.062 c 0.37,0.092 0.778,0.144 1.187,0.188 l 2.032,1.562 v 1.688 c 0.512,0.166 1.155,0.417 1.843,0.656 0.264,7.218 -0.091,11.776 -0.218,15.875 -1.08,1.09 -3.972,1.51 -4.875,0.031 -0.374,-7.058 -1.12,-13.62 0.031,-20 z m 89.411,0.906 c 1.42,1.783 3.89,1.102 5.18,0.063 l 2.72,1.781 c -3.7,2.57 -7.29,2.155 -10.47,0.375 z m -8.91,0.907 c 0.63,9.765 0.09,15.19 -0.06,20.031 -1.083,1.09 -3.975,1.51 -4.879,0.031 -0.366,-6.92 -1.088,-13.363 -0.031,-19.625 l 0.594,-0.281 c 0.862,0.165 1.795,0.241 2.844,0.125 0.493,-0.055 1.002,-0.128 1.532,-0.281 z m -77.001,0.156 2.969,2.281 C 26.007,72.1 25.006,71.724 24.009,71.173 Z m 42.656,0.406 0.781,0.594 0.032,1.875 c 0.748,0.243 1.703,0.66 2.812,0.969 -1.046,6.555 -0.157,13.016 0.031,19.906 l -2.875,2.531 v 2.094 c 1.627,1.18 4.409,2.117 7.75,1.437 l -1.406,1.25 v 2.09 c 2.155,1.57 6.337,2.75 11.156,0.22 l -0.062,-2.65 -2.75,-2.003 c 0.357,-8.239 0.37,-13.821 0,-20.157 0.879,-0.278 1.828,-0.688 2.812,-1.312 v -1.813 l 4,-1.843 c 0.042,1.892 0.143,3.792 0.25,5.718 l -0.343,0.282 v 2.093 c 0.138,0.101 0.314,0.185 0.468,0.282 0.049,0.987 0.098,1.965 0.125,2.968 l -2.875,2.532 v 2.093 c 1.627,1.181 4.409,2.117 7.75,1.438 l -1.406,1.25 v 2.094 c 2.155,1.564 6.337,2.745 11.155,0.218 l 0.1,-2.468 2.15,1.718 L 77.821,107.08 66.946,98.423 40.665,111.05 9.634,86.735 10.915,86.142 v 1.25 c 1.724,1.251 4.766,2.246 8.375,1.312 l -1.969,1.719 v 2.094 c 1.56,1.131 4.185,2.052 7.344,1.531 l -0.969,0.875 v 2.094 c 1.631,1.183 4.43,2.156 7.782,1.468 l -1.469,1.282 v 2.093 c 1.801,1.31 5.05,2.35 8.875,1.19 l -2.125,1.87 v 2.1 c 2.155,1.56 6.337,2.77 11.156,0.25 l -0.062,-2.66 -2.75,-2.03 c 0.356,-8.24 0.37,-13.821 0,-20.157 0.879,-0.278 1.828,-0.688 2.812,-1.313 v -1.75 l 0.5,-0.25 c -0.807,6.205 -0.022,12.346 0.156,18.875 l -2.875,2.535 v 2.09 c 2.156,1.56 6.368,2.75 11.188,0.22 l -0.094,-2.66 -2.75,-1.997 c 0.357,-8.239 0.371,-13.82 0,-20.156 0.88,-0.279 1.828,-0.688 2.813,-1.313 l 0.031,-1.594 0.469,-0.25 c -0.842,6.258 -0.055,12.447 0.125,19.032 l -2.875,2.531 v 2.094 c 2.155,1.563 6.336,2.773 11.156,0.25 l -0.063,-2.657 -2.75,-2.031 c 0.357,-8.239 0.371,-13.82 0,-20.156 0.88,-0.278 1.829,-0.688 2.813,-1.313 v -1.718 z m 29,0.063 c -0.352,2.524 -0.419,5.028 -0.375,7.562 -0.054,0.014 -0.103,0.052 -0.156,0.063 0.048,-2.617 0.022,-5.022 -0.031,-7.375 z m -0.781,0.343 c 0.149,6.262 -0.164,10.511 -0.281,14.282 -1.08,1.09 -3.972,1.51 -4.875,0.031 -0.214,-4.021 -0.559,-7.869 -0.594,-11.625 z m -29.531,0.125 0.031,1.407 c -1.781,1.396 -3.875,1.77 -6.063,1.687 -0.072,-0.007 -0.146,-0.022 -0.218,-0.031 2.032,-1.1 4.161,-2.102 6.25,-3.063 z m 52.467,0.063 0.1,2.281 c -3.25,1.96 -8.5,1.709 -10.72,-0.156 l 0.03,-1.781 c 3.39,2.441 8.43,1.56 10.59,-0.344 z m -50.061,0.25 3.312,2.531 c -1.079,-0.22 -2.194,-0.632 -3.312,-1.25 z m -41.938,0.969 c 0.241,0.08 0.46,0.147 0.719,0.218 -0.31,1.944 -0.462,3.87 -0.5,5.813 l -0.125,0.062 c 0.005,-2.1 -0.031,-4.115 -0.094,-6.093 z m 1.063,0.312 c 0.167,0.042 0.353,0.065 0.531,0.094 l 2.625,2 v 1.687 c 0.542,0.177 1.23,0.437 1.969,0.688 0.235,6.998 -0.156,11.473 -0.281,15.5 -1.08,1.09 -3.972,1.51 -4.875,0.031 -0.374,-7.058 -1.12,-13.62 0.031,-20 z m 79.036,0.563 2.71,1.781 c -2.45,1.7 -4.86,2.071 -7.12,1.625 -0.02,-0.937 -0.03,-1.886 -0.06,-2.813 1.43,0.9 3.37,0.284 4.47,-0.593 z m 15.06,0.031 0.09,2.187 -19.59,9.313 c 0.01,-0.642 0.02,-1.916 0.03,-2.531 z m -50.346,0.812 c 0.266,0.066 0.555,0.116 0.844,0.157 l 2.343,1.781 v 1.781 c 0.534,0.174 1.213,0.409 1.938,0.656 0.242,7.056 -0.155,11.548 -0.281,15.594 -1.08,1.09 -3.972,1.51 -4.875,0.031 -0.374,-7.057 -1.12,-13.62 0.031,-20 z m -7.938,0.032 c 0.635,9.765 0.089,15.19 -0.062,20.031 -1.08,1.09 -3.971,1.51 -4.875,0.031 -0.362,-6.828 -1.06,-13.19 -0.063,-19.375 l 1,-0.469 c 0.76,0.117 1.568,0.163 2.469,0.063 0.493,-0.055 0.998,-0.128 1.531,-0.281 z m -32.375,0.875 2.969,2.281 c -0.968,-0.234 -1.973,-0.606 -2.969,-1.156 z m 96.849,0 0.28,2.562 -26.25,12.563 c 0.02,-0.676 0.28,-2.139 0.31,-2.782 z m -18.54,0.25 0.07,2.281 c -2.03,1.221 -4.8,1.567 -7.16,1.219 0,-0.596 -0.02,-1.166 -0.03,-1.75 2.75,0.417 5.63,-0.436 7.12,-1.75 z m -52.152,0.156 v 1.187 c -1.781,1.396 -3.875,1.771 -6.063,1.688 z m 28.093,0.562 v 1.219 c -1.781,1.396 -3.874,1.771 -6.062,1.688 -0.155,-0.015 -0.312,-0.041 -0.469,-0.063 l 4.063,-1.906 c 0.852,-0.203 1.699,-0.498 2.468,-0.938 z m -10.468,0.25 3.218,2.469 c -1.046,-0.225 -2.136,-0.62 -3.218,-1.219 z m -41.844,1.032 c 0.202,0.065 0.379,0.128 0.594,0.187 -0.833,5.218 -0.447,10.388 -0.157,15.75 l -0.656,-0.5 c 0.267,-6.165 0.353,-10.819 0.219,-15.437 z m 0.937,0.281 c 0.158,0.039 0.333,0.064 0.5,0.094 l 3.094,2.375 v 1.625 c 0.436,0.142 0.965,0.358 1.531,0.562 0.221,6.882 -0.157,11.325 -0.281,15.313 -1.08,1.09 -3.971,1.51 -4.875,0.031 -0.374,-7.058 -1.12,-13.621 0.031,-20 z M 53.79,78.11 c 0.635,9.766 0.088,15.191 -0.062,20.032 -1.08,1.09 -3.972,1.51 -4.875,0.031 -0.359,-6.771 -1.054,-13.084 -0.094,-19.219 l 1.25,-0.594 c 0.7,0.089 1.434,0.122 2.25,0.032 0.493,-0.055 0.998,-0.129 1.531,-0.282 z m 41.5,0.313 c 0.019,0.871 0.054,1.748 0.094,2.625 -0.105,0.017 -0.207,0.046 -0.313,0.062 0.029,-0.927 0.045,-1.786 0.063,-2.656 0.051,-0.014 0.105,-0.016 0.156,-0.031 z m -19.312,0.031 c 0.222,0.073 0.419,0.153 0.656,0.219 -0.838,5.246 -0.447,10.419 -0.156,15.812 l -0.688,-0.5 c 0.268,-6.192 0.325,-10.892 0.188,-15.531 z m 5.906,0.25 c 0.635,9.765 0.088,15.191 -0.063,20.031 -1.079,1.091 -3.971,1.515 -4.875,0.032 -0.374,-7.058 -1.12,-13.621 0.032,-20 0.995,0.246 2.114,0.359 3.375,0.218 0.493,-0.054 0.997,-0.128 1.531,-0.281 z M 26.04,79.173 c -0.015,3.119 0.205,6.259 0.375,9.469 l -0.75,-0.563 c 0.144,-3.318 0.231,-6.194 0.25,-8.875 z m 21.531,0.281 -0.031,1.438 c -1.781,1.396 -3.875,1.77 -6.062,1.687 -0.092,-0.008 -0.188,-0.016 -0.282,-0.031 2.048,-1.119 4.259,-2.149 6.375,-3.094 z m 41.594,0.438 c 0.023,0.016 0.039,0.046 0.063,0.062 0.034,0.618 0.062,1.252 0.093,1.875 -0.065,-0.048 -0.126,-0.105 -0.187,-0.156 z m -52.094,0.218 2.844,2.188 c -0.442,-0.107 -0.892,-0.23 -1.344,-0.406 -0.499,-0.195 -0.997,-0.441 -1.5,-0.719 z m 58.344,1.157 c 0.029,0.614 0.06,1.225 0.094,1.843 -0.177,0.017 -0.355,0.019 -0.531,0.032 0.022,-0.605 0.044,-1.235 0.062,-1.813 0.125,-0.018 0.249,-0.043 0.375,-0.062 z m -75.5,0.75 c 0.027,0.489 0.067,0.976 0.094,1.468 l -0.75,-0.531 c 0.01,-0.242 0.021,-0.449 0.031,-0.687 z m 18.656,0.125 c 0.337,0.118 0.657,0.239 1.032,0.343 -0.832,5.208 -0.447,10.368 -0.157,15.719 l -1.093,-0.781 c 0.264,-6.096 0.346,-10.714 0.218,-15.281 z m 6.282,0.375 c 0.634,9.765 0.088,15.19 -0.063,20.033 -1.08,1.09 -3.971,1.51 -4.875,0.03 -0.374,-7.059 -1.12,-13.621 0.031,-20.001 0.14,0.035 0.293,0.065 0.438,0.094 l 0.219,0.156 0.187,-0.094 c 0.777,0.122 1.61,0.165 2.531,0.063 0.494,-0.055 0.998,-0.128 1.532,-0.281 z m -30.938,0.625 c 1.428,1.782 3.893,1.102 5.188,0.062 l 0.906,0.594 c 0.038,0.703 0.062,1.414 0.094,2.125 -3.092,1.419 -6.065,0.94 -8.75,-0.563 z m 81.594,0.218 c 0.023,0.425 0.048,0.854 0.062,1.282 l -0.656,0.281 c 0.02,-0.513 0.043,-0.996 0.063,-1.5 0.176,-0.012 0.351,-0.044 0.531,-0.063 z m 0.094,1.938 c 0.005,0.125 -0.007,0.25 0,0.375 L 95.29,85.454 Z m -6.032,0.062 c 1.428,1.783 3.893,1.102 5.188,0.063 l 0.875,0.562 c 0.038,0.721 0.064,1.46 0.094,2.188 -3.089,1.415 -6.036,0.908 -8.719,-0.594 z m -78.343,0.188 c 2.68,1.928 6.401,1.771 8.906,0.687 0.023,0.555 0.047,1.097 0.062,1.657 l -0.562,0.5 c -3.05,0.833 -6.688,0.408 -8.438,-1.063 z m -1.9692,1.312 31.5,24.69 -0.094,2.31 L 9.1958,89.235 9.2586,86.86 Z m -0.6875,0.188 0.0937,2.219 31.938,25.033 26.062,-12.63 11.031,8.66 29.784,-14.095 -0.13,-1.75 3.69,2.782 L 78.478,113.42 66.603,103.92 39.665,116.77 3.759,89.267 Z m 78.313,0.719 c 2.671,1.921 6.34,1.76 8.844,0.687 0.017,0.438 0.05,0.871 0.062,1.313 l -1.187,1.062 c -2.893,0.597 -6.128,0.083 -7.75,-1.281 z m -66.563,0.5 c 1.428,1.782 3.893,1.102 5.188,0.062 l 0.906,0.625 c 0.036,0.695 0.066,1.391 0.094,2.094 -3.101,1.435 -6.057,0.945 -8.75,-0.563 z m -16.656,1.437 35.875,27.466 0.25,1.75 -35.969,-26.966 z m 92.25,0.438 c 1.428,1.782 3.893,1.102 5.185,0.062 l 2.72,1.781 c -3.7,2.57 -7.288,2.155 -10.467,0.375 z m -78.281,0.531 c 2.69,1.935 6.402,1.781 8.906,0.687 0.013,0.347 0.022,0.683 0.031,1.032 l -1.562,1.375 c -2.805,0.496 -5.845,-10e-4 -7.406,-1.313 z m 86.186,1.531 0.1,2.25 c -3.25,1.96 -8.504,1.74 -10.724,-0.125 l 0.032,-1.781 c 3.394,2.441 8.432,1.56 10.592,-0.344 z m -77.124,0.563 c 1.428,1.782 3.893,1.102 5.188,0.062 l 0.844,0.531 c 0.04,0.756 0.062,1.518 0.093,2.282 -3.065,1.375 -6.024,0.834 -8.687,-0.657 z m 79.874,1.218 0.47,0.625 0.16,1.532 -29.316,13.658 -0.156,-2.22 z m -36.124,0.188 c 1.428,1.782 3.893,1.102 5.188,0.062 l 0.875,0.563 c 0.038,0.72 0.064,1.459 0.094,2.187 -3.089,1.415 -6.036,0.908 -8.719,-0.593 z m -12.843,0.094 c 1.427,1.782 3.892,1.102 5.187,0.062 l 2.719,1.781 c -3.705,2.57 -7.289,2.155 -10.469,0.375 z m -33.594,0.906 c 2.662,1.915 6.309,1.781 8.812,0.719 0.018,0.451 0.05,0.889 0.063,1.343 l -1.063,0.938 c -2.918,0.632 -6.202,0.161 -7.843,-1.219 z m 41.5,1.156 0.062,2.281 c -3.246,1.96 -8.468,1.71 -10.687,-0.156 l 0.031,-1.781 c 3.394,2.441 8.434,1.56 10.594,-0.344 z m 2.25,0.25 c 2.671,1.922 6.34,1.761 8.844,0.688 0.017,0.438 0.05,0.871 0.062,1.312 l -1.187,1.063 c -2.893,0.598 -6.128,0.082 -7.75,-1.282 z m 43.591,1 0.38,2.125 -32.877,15.876 v -1.97 z m -78.341,0.031 c 1.427,1.783 3.893,1.102 5.187,0.063 l 1.282,0.844 c 0.031,0.589 0.035,1.186 0.062,1.783 -3.211,1.61 -6.312,1.09 -9.094,-0.471 z m 15.687,0.75 c 1.428,1.78 3.893,1.102 5.188,0.063 l 2.719,1.777 c -3.705,2.57 -7.289,2.16 -10.469,0.38 z m 28.094,0.594 c 1.428,1.786 3.893,1.106 5.188,0.063 l 2.718,1.783 c -3.704,2.57 -7.289,2.15 -10.468,0.37 z m -10.281,0.063 0.094,2.283 -25.813,12.37 0.156,-2.25 z m 0.562,0.125 10.219,7.998 0.094,2.25 -10.469,-7.94 z m -36.75,0.878 c 2.798,2.01 6.719,1.77 9.219,0.56 0.026,0.61 0.077,1.2 0.094,1.81 l -0.375,0.31 c -3.15,1.05 -7.113,0.66 -8.969,-0.9 z m 26.282,0.4 0.093,2.25 c -3.246,1.96 -8.499,1.74 -10.718,-0.12 l 0.031,-1.78 c 3.394,2.44 8.434,1.56 10.594,-0.35 z m 28.093,0.6 0.094,2.25 c -3.247,1.96 -8.499,1.74 -10.719,-0.13 l 0.032,-1.78 c 3.394,2.44 8.433,1.56 10.593,-0.34 z m -44.937,1.75 c 1.427,1.78 3.893,1.1 5.187,0.06 l 2.719,1.78 c -3.705,2.57 -7.289,2.15 -10.469,0.38 z m 26.625,1.53 0.094,2.12 -26.5,12.44 v -1.75 z m 0.344,0.44 11.5,9.15 0.156,1.63 -11.5,-8.6 z m -19.063,0.09 0.094,2.28 c -3.247,1.96 -8.5,1.71 -10.719,-0.16 l 0.031,-1.78 c 3.395,2.44 8.434,1.56 10.594,-0.34 z"
       inkscape:connector-curvature="0" />
  </g>
  <metadata
     id="metadata148">
    <rdf:RDF>
      <cc:Work>
        <dc:format>image/svg+xml</dc:format>
        <dc:type
           rdf:resource="http://purl.org/dc/dcmitype/StillImage" />
        <cc:license
           rdf:resource="http://creativecommons.org/publicdomain/zero/1.0/" />
        <dc:publisher>
          <cc:Agent
             rdf:about="http://openclipart.org/">
            <dc:title>Openclipart</dc:title>
          </cc:Agent>
        </dc:publisher>
        <dc:title></dc:title>
        <dc:date>2008-01-23T11:42:06</dc:date>
        <dc:description>Part of the fantasy RPG map elements collection (houses and various buildings): an university</dc:description>
        <dc:source>https://openclipart.org/detail/11539/rpg-map-symbols:-university-by-nicubunu</dc:source>
        <dc:creator>
          <cc:Agent>
            <dc:title>nicubunu</dc:title>
          </cc:Agent>
        </dc:creator>
        <dc:subject>
          <rdf:Bag>
            <rdf:li>building</rdf:li>
            <rdf:li>cartography</rdf:li>
            <rdf:li>classical</rdf:li>
            <rdf:li>fantasy</rdf:li>
            <rdf:li>geography</rdf:li>
            <rdf:li>map</rdf:li>
            <rdf:li>stone building</rdf:li>
          </rdf:Bag>
        </dc:subject>
      </cc:Work>
      <cc:License
         rdf:about="http://creativecommons.org/publicdomain/zero/1.0/">
        <cc:permits
           rdf:resource="http://creativecommons.org/ns#Reproduction" />
        <cc:permits
           rdf:resource="http://creativecommons.org/ns#Distribution" />
        <cc:permits
           rdf:resource="http://creativecommons.org/ns#DerivativeWorks" />
      </cc:License>
    </rdf:RDF>
  </metadata>
</svg>
